<svg width="63" height="75" viewBox="0 0 63 75" fill="none" xmlns="http://www.w3.org/2000/svg">
<path d="M20.85 6.29157C17.3536 2.8483 11.7735 2.93848 8.38657 6.493C4.99959 10.0475 5.0883 15.7203 8.5847 19.1636" stroke="#FFBC1A" stroke-width="2.72953"/>
<path d="M52.602 16.4273H62.6875V22.9034H52.602V16.4273Z" fill="#EE4B3C"/>
<path d="M34.1925 39.278C23.5379 39.278 14.9007 30.4854 14.9007 19.6391C14.9007 8.79278 23.5379 0.00012207 34.1925 0.00012207C44.8471 0.00012207 53.4844 8.79278 53.4844 19.6391C53.4844 30.4854 44.8471 39.278 34.1925 39.278Z" fill="#F89E96"/>
<path d="M36.9395 71.7813C28.2675 73.559 19.8179 67.8435 18.0669 59.0154C16.3159 50.1873 21.9265 41.5896 30.5986 39.8119C39.2707 38.0342 47.7202 43.7497 49.4712 52.5778C51.2222 61.4059 45.6116 70.0036 36.9395 71.7813Z" fill="#FFBC1A"/>
<path d="M34.9051 61.5147C31.8029 62.1506 28.7803 60.106 28.1539 56.948C27.5275 53.7899 29.5346 50.7143 32.6368 50.0783C35.739 49.4424 38.7617 51.487 39.3881 54.645C40.0144 57.8031 38.0074 60.8787 34.9051 61.5147Z" fill="black"/>
<ellipse cx="8.88999" cy="8.88533" rx="8.88999" ry="8.88533" transform="matrix(0.689839 -0.723963 0.712499 0.701673 0 23.1046)" fill="#FFBC1A"/>
<path d="M27.9766 16.6627C27.9766 13.0841 30.8296 10.2316 34.294 10.2316C37.7584 10.2316 40.6114 13.1359 40.6114 16.6627" stroke="black" stroke-width="3.07072" stroke-miterlimit="10"/>
</svg>
