<svg width="816" height="189" viewBox="0 0 816 189" fill="none" xmlns="http://www.w3.org/2000/svg">
<path d="M63.8744 13.63V32.2101L78.1966 13.63H85.5028L73.7934 28.7263L85.648 49H78.4869L69.729 33.952L63.8744 41.4518V49H57.681V13.63H63.8744ZM97.3437 49.629C90.231 49.629 85.2473 44.4517 85.2473 37.0487C85.2473 29.5489 90.1342 24.3716 97.1502 24.3716C104.311 24.3716 108.86 29.1618 108.86 36.6132V38.4035L90.86 38.4519C91.2955 42.6615 93.5213 44.7904 97.4405 44.7904C100.682 44.7904 102.811 43.5324 103.489 41.2583H108.956C107.94 46.4839 103.586 49.629 97.3437 49.629ZM97.1986 29.2102C93.7148 29.2102 91.5858 31.0972 91.0052 34.6778H103.005C103.005 31.3876 100.731 29.2102 97.1986 29.2102ZM118.568 49H112.713V13.001H118.568V49ZM121.954 41.7421H127.566C127.615 43.8227 129.163 45.1291 131.873 45.1291C134.631 45.1291 136.131 44.0163 136.131 42.2744C136.131 41.0647 135.502 40.1938 133.373 39.7099L129.066 38.6938C124.76 37.7261 122.679 35.6939 122.679 31.8714C122.679 27.178 126.647 24.3716 132.163 24.3716C137.534 24.3716 141.163 27.4683 141.211 32.1133H135.598C135.55 30.0811 134.195 28.7747 131.921 28.7747C129.599 28.7747 128.244 29.8392 128.244 31.6295C128.244 32.9843 129.308 33.8552 131.34 34.3391L135.647 35.3552C139.663 36.2745 141.695 38.1132 141.695 41.7905C141.695 46.6291 137.582 49.629 131.679 49.629C125.728 49.629 121.954 46.4356 121.954 41.7421ZM148.173 20.3072C146.141 20.3072 144.544 18.7105 144.544 16.7267C144.544 14.7428 146.141 13.1945 148.173 13.1945C150.109 13.1945 151.706 14.7428 151.706 16.7267C151.706 18.7105 150.109 20.3072 148.173 20.3072ZM145.222 49V25.0974H151.125V49H145.222ZM174.668 19.1943H166.927V13.63H180.62V49H174.668V19.1943Z" fill="#EE4B3C"/>
<path d="M240.008 14.452C240.782 19.0648 240.201 22.9679 238.524 24.9356C237.718 25.9033 236.653 26.3872 235.395 26.3872C231.04 26.3872 230.976 19.6132 230.976 19.5487C230.976 19.3229 230.815 19.1293 230.589 19.0971C230.331 19.0648 230.137 19.1938 230.073 19.4196C230.04 19.4841 228.331 25.4517 225.653 27.9033C224.847 28.6452 223.847 29.0645 222.847 29.0645C220.75 29.0645 218.331 27.1936 218.331 22.0002C218.331 18.4842 219.944 13.8391 222.524 9.83924C225.073 5.90386 227.944 3.45232 230.04 3.45232C234.621 3.45232 239.008 8.2909 240.008 14.452ZM231.363 16.0004L232.008 10.6457C232.04 10.3876 231.847 10.1618 231.589 10.1296C231.331 10.0973 231.105 10.2908 231.073 10.5489L230.427 15.8713C230.395 16.1294 230.589 16.3875 230.847 16.4197C230.879 16.4197 230.879 16.4197 230.911 16.4197C231.137 16.4197 231.331 16.2262 231.363 16.0004ZM259.425 17.1939C259.942 18.8713 259.587 20.839 258.425 22.7744C256.522 25.8711 252.909 28.2581 249.2 28.871C248.555 29 247.877 29.0645 247.297 29.0645C241.458 29.0645 240.587 23.7744 240.587 20.6454C240.587 11.5811 242.587 7.71027 248.458 5.29098C250.039 4.67809 252.361 3.90392 254.49 3.90392C256.232 3.90392 257.522 4.45229 258.232 5.51678C258.78 6.32321 258.877 7.35544 258.49 8.41993C257.684 10.8392 254.684 13.0972 250.522 14.4843L248.039 15.1617C247.813 15.2262 247.684 15.4843 247.748 15.7101C247.813 15.9681 248.071 16.0971 248.297 16.0326L250.748 15.3875C252.264 15.0327 253.651 14.8714 254.845 14.8714C257.393 14.8714 258.942 15.6455 259.425 17.1939ZM250.2 12.0972L250.813 6.80706C250.845 6.54901 250.651 6.32321 250.426 6.29095C250.168 6.25869 249.91 6.45224 249.877 6.71029L249.264 12.0005C249.232 12.2585 249.426 12.4843 249.684 12.5166C249.684 12.5166 249.716 12.5166 249.748 12.5166C249.974 12.5166 250.168 12.323 250.2 12.0972ZM248.135 25.1292L248.748 19.839C248.781 19.5809 248.587 19.3551 248.329 19.3229C248.071 19.2906 247.845 19.4841 247.813 19.7422L247.2 25.0324C247.168 25.2582 247.361 25.5162 247.619 25.5485H247.652C247.91 25.5485 248.103 25.355 248.135 25.1292ZM272.937 16.0326C273.195 16.0326 273.421 16.0326 273.679 16.0649C272.421 17.7423 271.034 18.7745 269.776 18.9035C268.744 19.0003 267.937 18.5487 267.389 17.5165C269.098 16.5487 271.034 16.0326 272.937 16.0326ZM278.292 18.6132C278.969 20.0648 278.517 22.4196 277.13 24.613C275.518 27.1936 272.292 29.9677 268.195 29.9677C267.324 29.9677 266.453 29.8387 265.582 29.5807C257.744 27.3227 258.292 20.7422 260.002 10.9682C260.97 5.51678 266.131 3.03297 270.485 3.03297C272.872 3.03297 274.84 3.77489 275.743 5.03292C277.388 7.35544 276.292 11.936 274.292 15.1617C273.84 15.1294 273.389 15.0972 272.937 15.0972C270.905 15.0972 268.84 15.6455 267.034 16.6455C266.292 14.452 266.518 11.5166 266.518 11.4844C266.55 11.2263 266.389 11.0005 266.131 10.9682C265.905 10.936 265.679 11.065 265.615 11.3231L263.324 19.9358C263.26 20.1616 263.389 20.3874 263.582 20.4841C263.776 20.5809 264.034 20.5486 264.163 20.3551C264.84 19.4519 265.647 18.6777 266.582 18.0326C267.421 19.5164 268.614 19.839 269.485 19.839C269.614 19.839 269.743 19.839 269.873 19.839C271.485 19.6777 273.26 18.3551 274.711 16.1939C276.453 16.5487 277.679 17.4197 278.292 18.6132ZM298.117 9.38764C299.892 13.0005 299.408 18.9035 296.956 23.097C295.085 26.3549 292.279 28.2259 289.085 28.4194C287.247 28.5484 285.924 28.0646 285.053 26.9356C282.344 23.5486 284.602 15.6778 284.602 15.6133C284.795 14.9359 283.957 14.9036 283.569 15.1617C280.634 17.3552 278.344 17.7745 277.15 16.3552C275.602 14.452 276.247 9.61344 279.215 6.87158C281.763 4.54906 286.15 3.54909 290.408 4.32326C294.053 5.00066 296.859 6.83932 298.117 9.38764ZM289.408 20.1616L290.053 14.8069C290.085 14.5488 289.892 14.323 289.634 14.2907C289.376 14.2585 289.15 14.452 289.118 14.7101L288.473 20.0648C288.44 20.3228 288.634 20.5486 288.892 20.5809C288.924 20.5809 288.924 20.5809 288.956 20.5809C289.182 20.5809 289.408 20.3874 289.408 20.1616ZM319.421 8.54895C319.453 10.0973 318.002 11.0973 315.453 11.3231C313.389 11.5166 311.55 11.6134 310.002 11.6134C309.357 11.6134 308.776 11.6134 308.26 11.5811L306.324 11.3231C306.066 11.3231 305.873 11.4844 305.841 11.7424C305.808 11.9682 305.937 12.194 306.163 12.2585L308.131 12.5166C310.066 12.8714 311.195 13.4843 311.26 14.194C311.292 14.9681 309.905 15.9681 307.453 16.8713L303.454 18.0326C303.228 18.1293 303.099 18.3874 303.163 18.6132C303.26 18.839 303.486 19.0003 303.744 18.9358L307.744 17.7745C309.873 17.2584 311.808 17.0003 313.421 17.0003C316.034 17.0003 317.776 17.6455 318.614 18.968C319.679 20.6454 319.679 22.7744 318.55 24.8066C316.84 27.9355 313.034 29.9677 308.873 29.9677L307.905 29.9355C305.066 29.7419 302.905 28.7742 301.486 27.0646C299.583 24.7421 298.938 21.0325 299.55 15.7101C300.196 9.90376 303.647 3.162 311.195 3.162C311.357 3.162 311.518 3.162 311.711 3.162C316.066 3.35554 319.356 6.16192 319.421 8.54895ZM340.53 5.83935C341.53 8.25864 340.466 11.7747 338.95 13.6456C338.143 14.6456 337.014 15.1294 335.563 15.1294C335.079 15.1294 334.498 15.1617 333.982 14.9681C332.918 14.5811 332.079 14.323 332.047 14.323C331.821 14.2585 331.595 14.3875 331.498 14.6133C331.434 14.8391 331.531 15.0972 331.724 15.1939C331.756 15.2262 332.595 15.4843 333.692 15.8713C335.014 16.3229 336.466 17.3552 336.434 18.7422C336.401 19.6132 336.047 19.968 335.272 19.968C334.627 19.968 333.918 19.6777 333.595 19.5487C333.273 19.4196 332.885 19.2261 332.724 19.6777C332.563 20.0648 332.918 20.2261 333.176 20.3874C333.466 20.5809 334.434 21.3873 335.337 24.2582C335.692 25.4195 335.563 26.3872 334.982 27.1936C334.143 28.3549 332.305 29.0645 330.144 29.0645C327.757 29.0645 325.628 28.1613 324.757 26.7743C322.402 23.0647 318.402 14.194 319.918 7.22641C320.692 3.71037 326.144 2.96846 330.595 2.96846C333.079 2.96846 335.498 3.22651 337.079 3.42006C338.821 3.6136 339.982 4.42003 340.53 5.83935ZM356.133 16.8068C355.811 17.2907 355.456 17.71 355.037 18.0326C354.037 18.9358 352.843 19.2906 351.488 19.0648C350.488 18.8713 349.746 18.3874 349.198 17.581C348.94 17.1939 348.746 16.7745 348.617 16.2907C351.714 15.581 354.359 15.7423 356.133 16.8068ZM358.327 8.54895C358.424 10.5489 357.907 13.6779 356.617 16.0004C354.617 14.7746 351.746 14.5811 348.392 15.3875C347.908 12.6134 348.714 9.32313 348.746 9.25861C348.811 9.03281 348.65 8.77475 348.392 8.71024C348.166 8.64573 347.908 8.77475 347.843 9.03281L345.585 16.2584C345.392 16.3229 345.166 16.4197 344.972 16.4842C342.585 17.4519 341.23 19.1293 341.263 21.1293C341.295 22.8389 342.424 24.4195 344.101 25.0324C345.166 25.4195 348.037 25.9356 351.295 22.1938C351.488 22.0002 351.456 21.7099 351.262 21.5164C351.069 21.3551 350.779 21.3873 350.585 21.5809C348.553 23.9034 346.295 24.8388 344.424 24.1292C343.134 23.6776 342.23 22.4518 342.23 21.097C342.198 19.5487 343.327 18.1616 345.327 17.3552C346.134 17.0326 346.94 16.7745 347.714 16.5487C347.875 17.0971 348.101 17.6132 348.392 18.0971C349.101 19.1293 350.069 19.7745 351.327 20.0003C352.972 20.2583 354.424 19.839 355.682 18.7422C356.133 18.3551 356.52 17.9035 356.875 17.3874C356.907 17.3874 356.94 17.4197 356.94 17.4519C358.359 18.7745 358.778 20.8067 358.036 23.0647C357.133 25.8066 353.488 28.1936 349.101 28.871C345.134 29.5161 341.779 28.4839 340.101 26.1614C338.198 23.5163 337.714 20.0003 338.714 16.3229C339.714 12.6779 342.069 9.09733 345.359 6.22643C347.424 4.42003 349.65 3.48457 351.811 3.48457C352.779 3.48457 353.746 3.67812 354.682 4.09746C356.746 4.9684 358.262 6.80706 358.327 8.54895ZM379.239 9.74247C379.626 13.0327 378.949 17.8068 377.497 22.1615C376.11 26.2904 374.271 29.2581 372.917 29.5484C372.594 29.6452 372.401 29.6452 372.239 29.6452C369.11 29.6452 368.755 23.7744 368.723 22.5486L370.852 22.4841C371.11 22.4841 371.336 22.2905 371.304 22.0002C371.304 21.7422 371.11 21.5486 370.82 21.5486L365.465 21.6776C365.207 21.6776 364.981 21.9034 365.014 22.1615C365.014 22.4196 365.207 22.6131 365.465 22.6131C365.465 22.6131 365.465 22.6131 365.497 22.6131L367.756 22.5808C367.691 24.5485 367.11 28.9678 364.981 29.0645C364.788 29.0645 364.304 28.9678 363.498 27.8388C360.756 24.0647 357.465 12.4521 359.014 7.71027C359.562 6.12966 360.433 5.1942 361.465 5.1942C363.659 5.1942 366.401 8.87153 367.175 15.9359C367.304 17.2907 367.368 18.1939 367.368 18.2261C367.368 18.4842 367.659 18.6455 367.885 18.6132C368.143 18.6132 368.336 18.3874 368.304 18.1293C368.272 17.3552 368.143 16.581 368.11 15.8713C367.981 13.4521 368.207 9.06507 370.53 6.58127C371.659 5.35549 373.175 4.71035 375.078 4.64583C377.465 4.58132 378.852 6.29095 379.239 9.74247ZM390.953 3.74263C391.533 5.00066 391.598 6.48449 391.179 7.93607C390.985 8.64573 390.662 9.29087 390.243 9.83924C389.082 7.80704 387.404 6.67804 385.34 6.67804C384.598 6.67804 383.759 6.83932 382.921 7.12964C382.566 7.25867 382.211 7.41995 381.888 7.6135C381.824 6.83932 381.921 6.03289 382.146 5.25872C382.856 2.80717 384.888 1.09754 387.082 1.09754C387.469 1.09754 387.856 1.16205 388.243 1.29108C389.437 1.64591 390.404 2.51686 390.953 3.74263ZM389.598 10.6134C388.662 11.5166 387.469 12.065 386.243 12.065C385.856 12.065 385.469 12.0005 385.082 11.9037C383.598 11.4521 382.501 10.1941 382.082 8.61347C382.437 8.35541 382.792 8.16187 383.211 8.00058C383.985 7.74252 384.695 7.6135 385.34 7.6135C387.404 7.6135 388.727 8.93604 389.598 10.6134ZM391.082 17.0649C391.469 24.0647 389.082 31.2258 386.243 31.5161C386.146 31.5161 386.082 31.5483 385.985 31.5483C383.437 31.5483 380.727 27.0001 379.727 21.0002C378.985 16.581 379.276 11.7747 381.34 9.35538C381.921 11.0005 383.146 12.2908 384.824 12.8069C385.275 12.9359 385.759 13.0005 386.243 13.0005C387.63 13.0005 388.921 12.4521 389.985 11.5166C390.824 13.6133 391.017 15.9681 391.082 17.0649ZM404.807 6.93609C404.839 6.93609 404.871 6.90384 404.903 6.90384C404.871 7.06512 404.839 7.22641 404.807 7.38769C404.162 9.48441 402.581 11.0328 400.775 11.4198C400.839 10.936 400.936 10.4521 401.129 10.0328C401.71 8.48444 402.968 7.41995 404.807 6.93609ZM401.839 0.742709C403.936 1.3556 405.194 3.51683 405.065 5.90386C404.903 5.93612 404.742 5.96838 404.581 6.03289C402.452 6.61352 400.936 7.87155 400.226 9.67796C400.033 10.2586 399.871 10.8715 399.807 11.5166C399.452 11.5166 399.065 11.4521 398.71 11.3553C397.517 11.0005 396.549 10.1296 396 8.87153C395.42 7.6135 395.323 6.12966 395.775 4.71035C396.484 2.2588 398.517 0.581423 400.71 0.581423C401.097 0.581423 401.484 0.61368 401.839 0.742709ZM413.129 16.6133C413.742 23.1937 411.29 30.4193 405.387 31.5161C404.645 31.6774 403.871 31.7419 403.129 31.7419C397.097 31.7419 393.42 26.9356 392.097 22.8389C391.033 19.5809 391.355 16.6778 392.872 15.581C393.484 15.1294 394.162 14.9036 394.871 14.9036C398.549 14.9036 402.549 20.4196 402.581 20.4841C402.742 20.7099 403.033 20.7422 403.226 20.6132C403.452 20.4519 403.516 20.1938 403.355 19.968C401.645 17.2261 400.742 14.5811 400.71 12.3876C402.968 12.0005 404.968 10.1618 405.71 7.64575C405.774 7.35544 405.871 7.03287 405.903 6.74255C406.032 6.74255 406.161 6.71029 406.291 6.71029C410.387 6.71029 412.677 11.6779 413.129 16.6133ZM437.574 18.6777C438.381 19.5809 438.316 21.3873 437.413 23.4195C435.962 26.6775 432.478 30.1613 428.22 30.1613H428.123C423.155 30.0968 422.285 24.5808 422.22 21.2583C422.252 20.3874 422.252 19.7745 422.252 19.7745C422.22 19.5164 422.026 19.3229 421.768 19.3229C421.51 19.3229 421.317 19.4841 421.285 19.7422C421.285 19.7745 421.252 20.3551 421.252 21.2583C421.123 23.6131 420.414 29 416.607 29C416.414 29 416.22 29 416.027 28.9678C412.478 28.5162 412.446 23.097 412.575 20.7744C413.059 13.3875 417.123 3.87166 420.801 3.87166C420.962 3.87166 421.123 3.87166 421.285 3.90392C422.543 4.19423 423.414 4.83938 423.897 5.83935C425.543 9.1941 422.639 15.4197 422.607 15.4843C422.478 15.7423 422.575 16.0004 422.801 16.1294C423.026 16.2262 423.317 16.1617 423.446 15.9359C425.188 12.7746 430.542 4.61357 433.994 4.61357C434.768 4.61357 435.413 5.06517 435.962 5.96838C436.574 6.96835 436.671 7.93607 436.349 8.93604C435.22 12.2908 429.575 15.1294 426.22 16.3875L423.736 17.3229C423.51 17.4519 423.446 17.71 423.543 17.9358C423.639 18.1616 423.865 18.2584 424.123 18.1939L426.51 17.2907C427.897 16.8391 429.542 16.7423 431.091 16.7423C434.123 16.7423 436.478 17.4519 437.574 18.6777ZM456.475 17.9358C457.539 19.0648 458.152 20.9357 458.12 23.0324C458.023 26.6453 455.023 29.0645 450.636 29.0645C448.346 29.0645 445.927 28.3871 443.701 27.0646C439.153 24.4195 436.83 15.323 437.798 8.93604C438.12 6.77481 439.153 3.06523 442.314 2.32331C443.088 2.16203 443.83 2.06525 444.507 2.06525C446.249 2.06525 447.539 2.64588 448.443 3.87166C451.926 8.54895 448.443 20.4519 448.41 20.5809C448.346 20.8067 448.475 21.0648 448.668 21.1615C448.894 21.2583 449.152 21.1615 449.281 20.968C450.862 18.3874 452.636 16.9681 454.281 16.9681C455.088 16.9681 455.83 17.2907 456.475 17.9358ZM484.078 15.7101C484.691 21.7422 483.562 28.1613 479.691 28.9355C479.271 29.0323 478.917 29.0645 478.562 29.0645C477.53 29.0645 476.755 28.742 476.142 28.0323C474.497 26.1936 474.53 22.226 475.013 19.2261C475.336 17.1616 475.691 15.4197 475.691 15.4197C475.723 15.1617 475.562 14.9359 475.304 14.8714C475.078 14.8391 474.82 15.0004 474.788 15.2262C474.755 15.2907 474.465 16.9358 474.078 19.0648C473.207 23.6131 471.981 25.355 471.304 25.4195C471.014 25.4517 469.788 25.0969 467.465 20.6132C466.691 19.1293 466.175 17.9681 466.143 17.9358C466.014 17.71 465.723 17.6455 465.498 17.7423C465.304 17.8713 465.207 18.1293 465.304 18.3551C465.304 18.4197 465.949 19.5487 466.627 21.0325C468.014 24.0002 468.304 26.3549 467.723 27.6775C467.465 28.2259 467.046 28.5807 466.433 28.8065C465.046 29.2903 463.24 28.3226 461.594 26.2582C458.756 22.6776 456.401 15.7423 457.949 8.93604C458.659 5.77483 460.175 4.09746 462.272 4.09746C465.82 4.09746 470.433 9.00056 470.594 14.4843C470.594 14.7423 470.756 14.9681 471.078 14.9681C471.078 14.9681 471.53 15.0004 471.53 14.4843C471.53 14.3875 471.691 3.32329 477.852 3.09749C477.852 3.09749 477.884 3.09749 477.917 3.09749C480.981 3.09749 483.465 9.51667 484.078 15.7101ZM504.863 12.0972C506.443 18.2584 505.734 26.2259 501.831 28.3871C501.089 28.7742 500.379 28.9678 499.702 28.9678C496.121 28.9678 493.54 23.6131 492.476 20.3228C491.928 18.71 491.605 17.5165 491.573 17.4842C491.476 17.2584 491.218 17.1294 490.992 17.1939C490.766 17.2584 490.605 17.5165 490.67 17.7745C490.702 17.8068 491.089 18.968 491.573 20.6132C492.67 24.3872 492.54 27.2581 491.541 28.6129C491.024 29.2903 490.315 29.6129 489.315 29.6774C486.605 29.7742 485.154 25.0969 484.702 20.7422C484.057 14.3875 485.315 8.00058 487.315 7.58124C487.444 7.54898 487.605 7.54898 487.766 7.54898C489.831 7.54898 492.508 10.3554 494.766 15.7101C495.895 18.4519 496.798 20.7422 496.831 20.839C496.927 21.0648 497.218 21.1615 497.444 21.0648C497.669 20.968 497.766 20.7099 497.702 20.4841C497.702 20.4519 496.734 18.1616 495.637 15.3552C494.379 12.194 493.605 7.87155 495.057 5.6458C495.637 4.7426 496.54 4.25875 497.863 4.12972C497.992 4.12972 498.121 4.12972 498.25 4.12972C501.121 4.12972 503.572 7.09738 504.863 12.0972ZM522.562 8.12961C523.465 12.3876 521.53 21.0648 517.659 25.8711C515.949 28.0001 514.143 29.0645 512.24 29.0645C511.175 29.0645 510.111 28.7097 509.046 28.0646C505.337 25.7743 505.498 21.4196 506.304 18.1939C507.982 11.3231 513.917 3.77489 517.885 3.48457C517.885 3.48457 517.917 3.48457 518.014 3.48457C518.82 3.48457 521.594 3.80714 522.562 8.12961ZM514.852 19.8712L515.465 14.5488C515.498 14.2907 515.304 14.0327 515.046 14.0004C514.788 13.9682 514.562 14.1617 514.53 14.4198L513.917 19.7745C513.885 20.0325 514.046 20.2583 514.304 20.2906C514.336 20.2906 514.369 20.2906 514.369 20.2906C514.594 20.2906 514.82 20.1293 514.852 19.8712ZM540.176 3.90392C542.692 5.58129 543.854 7.96832 543.531 10.6134C543.144 13.6779 540.757 16.581 537.693 17.6455C535.822 18.3229 534.273 18.6777 533.047 18.6777C532.564 18.6777 532.241 18.6132 532.015 18.5487C531.789 18.4842 531.693 18.4519 531.693 18.4519C531.435 18.3551 531.209 18.3229 531.048 18.5164C530.886 18.6777 530.886 18.968 531.08 19.1616C532.467 20.4841 535.886 24.4518 535.144 26.8388C534.854 27.871 533.757 28.5484 531.951 28.871C529.435 29.3549 526.757 29.0323 524.983 26.9356C522.757 24.3227 522.08 19.4519 523.08 13.1617C524.241 5.93612 529.725 2.12977 534.564 2.12977C536.564 2.12977 538.499 2.74266 540.176 3.90392ZM532.048 15.8713L532.66 10.5489C532.693 10.2908 532.499 10.065 532.241 10.0328C531.983 10.0005 531.757 10.1618 531.725 10.4199L531.112 15.7746C531.08 16.0326 531.273 16.2584 531.531 16.2907H531.564C531.822 16.2907 532.015 16.1294 532.048 15.8713ZM561.049 5.16195C563.662 7.58124 561.952 11.936 560.049 15.1939C557.92 18.8067 555.082 21.8712 555.049 21.9034C552.211 24.9034 549.856 25.7098 549.824 25.7098C549.63 25.7743 549.501 26.0001 549.533 26.2259C549.566 26.4517 549.759 26.6453 549.985 26.6453C552.211 26.6453 556.566 27.1291 557.307 28.9678C557.695 29.9677 556.92 31.4838 554.985 33.2902C549.953 37.9998 546.824 34.4515 545.985 28.3871C545.953 28.2581 545.888 28.1291 545.792 28.0646C545.695 28.0001 545.598 27.9678 545.501 27.9678C545.469 27.9678 545.437 27.9678 545.437 27.9678C545.437 27.9678 545.211 28.0001 544.856 28.0001C544.114 28.0001 542.663 27.8388 541.727 26.5807C540.437 24.9356 540.34 21.8712 541.405 17.71C543.727 8.77475 550.824 3.42006 556.34 3.42006C558.178 3.42006 559.824 4.00069 561.049 5.16195ZM549.598 20.3228L550.211 15.0004C550.243 14.7423 550.05 14.4843 549.792 14.452C549.533 14.4198 549.308 14.6133 549.275 14.8714L548.663 20.2261C548.63 20.4841 548.792 20.7099 549.05 20.7422C549.082 20.7422 549.114 20.7422 549.114 20.7422C549.34 20.7422 549.566 20.5809 549.598 20.3228ZM584.558 21.968C585.107 24.2582 584.3 25.9033 583.526 26.9033C582.171 28.6129 579.849 29.7419 577.591 29.7419C576.655 29.7419 575.817 29.5484 575.139 29.1613C571.688 27.2259 570.301 21.4841 570.139 20.839C570.107 20.7422 570.107 20.6777 570.107 20.6777C570.075 20.4841 569.881 20.3228 569.656 20.3228C569.623 20.3228 569.591 20.3228 569.559 20.3551C569.301 20.3874 569.14 20.6454 569.204 20.9035C569.204 20.9035 569.204 20.9357 569.204 21.0325C569.333 21.5164 570.172 25.8066 568.623 27.9033C568.107 28.5807 567.43 28.9678 566.494 29.0323C566.398 29.0645 566.269 29.0645 566.172 29.0645C565.172 29.0645 564.301 28.5807 563.591 27.613C561.462 24.7421 561.204 18.0326 563.043 12.0327C564.753 6.41998 571.236 3.48457 576.752 3.48457C579.01 3.48457 580.817 4.00069 581.881 4.90389C583.429 6.19418 584.01 8.2909 583.429 10.3231C582.526 13.6133 579.01 16.0649 574.043 16.8391C573.494 16.9036 573.172 16.9681 573.172 16.9681C572.914 17.0326 572.752 17.2584 572.785 17.5165C572.817 17.7745 573.043 17.9358 573.301 17.9035C573.591 17.8713 573.881 17.839 574.172 17.8068C574.72 17.7423 575.559 17.6455 576.559 17.6455C579.72 17.6455 583.688 18.3874 584.558 21.968ZM571.269 15.0004L571.914 9.6457C571.946 9.38764 571.752 9.16184 571.494 9.12958C571.236 9.09733 571.01 9.29087 570.978 9.54893L570.333 14.8714C570.301 15.1294 570.494 15.3552 570.752 15.3875C570.785 15.3875 570.785 15.3875 570.817 15.3875C571.043 15.3875 571.236 15.2262 571.269 15.0004ZM593.135 12.3553C594.684 11.7424 596.909 11.2908 599.845 11.5811C598.49 12.8069 596.813 13.5166 595.264 13.4521C594.232 13.4198 593.555 13.0972 593.2 12.4521C593.168 12.4198 593.135 12.3876 593.135 12.3553ZM606.232 16.0326C607.006 19.7422 604.554 24.7743 600.748 27.2581C597.264 29.5484 592.168 29.6129 589.394 27.4194C588.071 26.3872 586.781 24.4518 588.039 21.097C588.748 19.1938 589.845 17.9358 591.135 17.1616L591.555 16.9358C595.2 15.0004 599.845 16.4197 600.103 16.5165C600.361 16.581 600.619 16.452 600.684 16.1939C600.78 15.9359 600.651 15.6778 600.393 15.6133C600.329 15.581 594.942 14.0327 590.813 16.2584C590.168 16.6133 587.523 17.3552 585.813 16.2907C584.813 15.6455 584.265 14.4198 584.168 12.6779C583.91 7.80704 587.974 4.38777 591.877 2.77491C595.813 1.1298 599.716 1.22657 601.296 3.00072C602.716 4.54906 602.909 6.67804 601.877 8.87153C601.587 9.54893 601.167 10.1941 600.684 10.7424C597.232 10.2908 594.684 10.7424 592.877 11.4198C592.716 9.93601 593.426 8.00058 593.78 7.25867C593.877 7.00061 593.78 6.74255 593.555 6.61352C593.329 6.51675 593.071 6.58127 592.942 6.80706L589.232 13.9037C589.103 14.0972 589.2 14.3875 589.394 14.5165C589.587 14.6456 589.781 14.6133 590.006 14.3875C590.039 14.3553 590.716 13.5166 592.264 12.7424C592.297 12.8069 592.329 12.8714 592.361 12.9359C592.91 13.8391 593.877 14.323 595.232 14.3875C597.264 14.4843 599.426 13.4521 601.038 11.7424C601.167 11.7747 601.296 11.7747 601.393 11.8069C604.071 12.2585 605.748 13.7101 606.232 16.0326ZM625.872 6.06515C626.839 8.48444 625.807 12.0005 624.291 13.8714C623.485 14.8714 622.323 15.3552 620.904 15.3552C619.13 15.3552 617.517 14.5811 617.485 14.5811C617.291 14.4843 617.065 14.5165 616.936 14.6778C616.775 14.8391 616.775 15.0649 616.904 15.2585C616.904 15.2907 618.582 17.8713 620.614 23.8066C621.001 25.0001 620.904 26.0324 620.259 26.9033C619.323 28.1936 617.227 29.0645 614.936 29.0645C612.743 29.0645 610.872 28.2581 610.098 27.0001C607.646 23.1292 610.969 15.452 611.001 15.3552C611.066 15.1939 611.033 15.0004 610.904 14.8714C610.84 14.7746 610.711 14.7101 610.582 14.7101C610.517 14.7101 610.485 14.7101 610.42 14.7101C609.549 15.0004 608.808 15.1294 608.162 15.1294C607.324 15.1294 606.679 14.9036 606.195 14.3875C605.001 13.0972 605.066 10.1296 605.259 7.38769C605.517 3.90392 611.001 3.19426 615.582 3.19426C618.194 3.19426 620.743 3.42006 622.42 3.6136C624.13 3.8394 625.323 4.64583 625.872 6.06515ZM647.482 12.7746C648.062 19.4519 645.74 24.613 643.353 27.2259C642.159 28.5484 640.804 29.3226 639.837 29.2903C639.224 29.2581 638.772 29.0323 638.385 28.6129C637.353 27.3549 637.579 24.9356 637.579 24.9034C637.579 24.6776 637.45 24.484 637.256 24.4195C637.192 24.3872 637.159 24.3872 637.095 24.3872C636.934 24.3872 636.772 24.484 636.676 24.6453C636.676 24.6776 634.805 28.0001 631.901 28.7742C627.837 29.9355 625.321 27.3549 624.837 23.226C624.321 18.6455 625.708 9.29087 628.934 5.67806C629.869 4.64583 630.837 4.22649 631.837 4.35552C635.869 4.9684 634.74 16.3875 634.256 19.839C634.063 21.1293 633.934 21.968 633.934 21.968C633.901 22.226 634.063 22.4518 634.321 22.5163C634.579 22.5486 634.805 22.355 634.869 22.1292C634.869 22.097 634.966 21.2583 635.159 20.0003C635.643 16.9681 636.708 11.4521 638.224 8.77475C639.192 7.03287 641.159 5.74258 642.901 5.74258C645.385 5.74258 647.062 8.2909 647.482 12.7746ZM669.338 7.71027C671.531 9.00056 670.951 12.6456 670.402 14.7101C668.693 21.1938 662.951 29.0968 658.725 29.0968C658.564 29.0968 658.403 29.0645 658.274 29.0645C654.016 28.4194 647.758 17.3874 647.597 10.3231C647.532 7.25867 648.629 5.48452 650.79 5.06517C651.177 5.00066 651.532 4.9684 651.887 4.9684C659.209 4.9684 659.725 21.4196 659.725 21.5809C659.725 21.8067 659.919 22.0325 660.177 22.0325C660.403 22.0647 660.629 21.8712 660.661 21.6131C661.209 17.6132 663.532 7.22641 667.661 7.22641C668.177 7.22641 668.757 7.38769 669.338 7.71027ZM693.182 4.35552C696.666 4.90389 697.021 9.45216 696.924 12.1295C696.634 19.8712 692.505 28.8065 689.924 29.0323C689.214 29.0968 688.602 28.871 688.085 28.3226C686.505 26.7098 685.989 22.4841 686.086 19.0971C686.086 18.7745 686.118 18.2584 685.634 18.2584C685.118 18.2261 685.15 18.71 685.118 19.0648C684.892 25.5162 682.376 30 679.021 30C677.731 30 676.376 29.3226 675.054 28.0968C671.667 24.9356 669.925 17.3874 671.279 11.9037C671.796 9.8715 672.989 7.29092 675.666 6.58127C676.086 6.45224 676.473 6.41998 676.86 6.41998C681.699 6.41998 682.473 16.4197 682.537 18.2906C682.569 18.5487 682.795 18.7422 683.053 18.71C683.279 18.71 683.505 18.4842 683.505 18.2584L683.473 17.581C683.44 16.6455 683.537 13.5166 685.118 13.3553C685.15 13.3553 685.182 13.3553 685.215 13.3553C686.118 13.3553 686.956 14.7423 687.537 17.1294L687.86 18.71C687.924 18.968 688.15 19.1293 688.408 19.0648C688.666 19.0325 688.827 18.7745 688.795 18.5487L688.473 16.9358C688.021 14.3553 687.247 8.12961 689.473 5.48452C690.311 4.45229 691.537 4.09746 693.182 4.35552ZM718.925 17.4519C719.796 17.8068 720.248 18.968 720.183 20.6454C719.99 24.0002 717.7 28.2259 714.571 29.1613C714.184 29.2581 713.829 29.3226 713.474 29.3226C709.539 29.3226 707.99 22.3228 707.99 22.2583C707.926 22.0647 707.764 21.9034 707.571 21.9034C707.539 21.9034 707.539 21.9034 707.506 21.9034C707.345 21.9034 707.152 22.0002 707.087 22.1938C707.055 22.2583 704.281 28.9355 700.603 28.9355C699.313 28.9355 698.023 28.0968 696.765 26.4517C695.732 25.0969 695.442 23.8389 695.829 22.7421C696.958 19.7745 702.797 18.5487 702.861 18.5164C703.055 18.4842 703.216 18.3229 703.216 18.0971C703.248 17.9035 703.119 17.71 702.926 17.6132C700.732 16.8068 697.539 14.0327 697.249 10.936C697.087 8.9683 698.119 7.32318 700.345 6.00064C701.248 5.45226 702.087 5.1942 702.861 5.1942C707.345 5.1942 708.958 13.9037 708.99 14.0327C709.119 14.5488 709.829 14.5165 709.926 14.0327C710.474 11.194 712.538 3.80714 715.796 3.80714C716.538 3.80714 717.313 4.16197 718.119 4.87163C719.248 5.87161 719.764 7.00061 719.667 8.25864C719.345 12.5488 712.184 17.0003 712.087 17.0649C711.893 17.1939 711.829 17.4842 711.958 17.71C712.087 17.9358 712.345 18.0003 712.571 17.9035C712.7 17.839 714.313 16.9358 716.442 16.9358C717.313 16.9358 718.183 17.1294 718.925 17.4519ZM728.201 17.1616C729.298 17.4197 730.04 18.0971 730.459 19.1938C729.395 19.6777 727.943 20.2261 726.427 20.2261C725.459 20.2261 724.588 20.0325 723.814 19.6132C725.137 17.8068 726.814 16.8391 728.201 17.1616ZM737.588 18.6455C738.33 19.5809 738.491 21.1293 738.04 23.2582C737.104 27.7097 732.233 30.3548 728.104 30.3548C726.104 30.3548 724.395 29.7097 723.298 28.5807C721.201 26.4194 721.814 22.9034 723.298 20.3874C724.233 20.9035 725.298 21.1615 726.427 21.1615C728.04 21.1615 729.556 20.6454 730.717 20.097C731.007 21.6776 730.782 23.4518 730.62 24.484C730.588 24.8066 730.556 25.0646 730.556 25.2259C730.524 25.484 730.717 25.6775 730.943 25.7098C731.169 25.742 731.395 25.613 731.459 25.3872L733.362 18.3551C733.394 18.1616 733.33 17.9681 733.169 17.839C732.975 17.7423 732.782 17.7423 732.62 17.8713C732.588 17.8713 732.104 18.2584 731.298 18.7422C730.749 17.4197 729.782 16.581 728.427 16.2584C728.169 16.1939 727.911 16.1617 727.62 16.1617C726.04 16.1617 724.362 17.2584 723.04 19.0971C722.556 18.71 722.104 18.2261 721.685 17.6777C719.008 13.9682 719.459 8.16187 721.234 4.54906C722.363 2.32331 723.911 1.03302 725.491 1.00077H725.556C731.233 1.00077 730.233 10.6779 730.007 14.0004C730.007 14.2585 730.201 14.452 730.459 14.4843C730.717 14.4843 730.911 14.323 730.943 14.0649C731.104 11.4198 731.33 1.45237 735.749 1.45237C735.814 1.45237 735.911 1.45237 735.975 1.45237C736.588 1.51688 737.04 1.77494 737.362 2.29106C739.04 5.06517 736.007 13.9037 734.717 17.0649C734.653 17.2261 734.653 17.3874 734.749 17.5165C734.878 17.6455 735.04 17.7423 735.201 17.71C735.201 17.71 735.265 17.71 735.427 17.71C735.846 17.71 736.911 17.8068 737.588 18.6455ZM754.315 14.6133C754.702 14.6133 755.089 14.6778 755.509 14.8391C753.799 16.6133 751.315 17.6777 749.186 18.2906C750.509 16.4197 752.348 14.6133 754.315 14.6133ZM757.477 16.2262C759.347 18.1616 759.767 21.097 758.573 23.9034C756.993 27.613 753.154 30 748.799 30C747.799 30 746.735 29.871 745.67 29.6452C741.154 28.6129 738.445 25.9678 738.542 22.7421C738.703 19.2583 742.251 15.2585 749.928 14.1295C750.186 14.0972 750.348 13.8391 750.315 13.5811C750.283 13.3553 750.09 13.194 749.864 13.194C749.832 13.194 749.799 13.194 749.799 13.194C749.767 13.194 748.509 13.3875 746.832 13.3875C744.283 13.3875 740.961 12.9682 739.477 11.065C738.703 10.065 738.509 8.71024 738.961 7.00061C739.961 3.06523 743.961 1.64591 747.348 1.64591C751.799 1.64591 756.864 3.93617 757.477 8.19412C757.799 10.4844 757.347 12.4521 756.122 14.0972C755.541 13.8069 754.928 13.6779 754.315 13.6779C752.122 13.6779 749.928 15.3552 747.799 18.6132C745.864 19.0648 744.38 19.1293 744.348 19.1293C744.219 19.1616 744.058 19.2261 743.993 19.3551C743.896 19.4841 743.896 19.6454 743.928 19.7745L745.348 23.6131C745.412 23.7744 745.606 23.9034 745.799 23.9034C745.993 23.9034 746.154 23.8066 746.219 23.6131C746.251 23.5808 747.057 21.5809 748.38 19.4519C750.896 18.8713 754.219 17.6455 756.38 15.2907C756.735 15.5488 757.122 15.8391 757.477 16.2262ZM240.008 54.452C240.782 59.0648 240.201 62.9679 238.524 64.9356C237.718 65.9033 236.653 66.3872 235.395 66.3872C231.04 66.3872 230.976 59.6132 230.976 59.5487C230.976 59.3229 230.815 59.1293 230.589 59.0971C230.331 59.0648 230.137 59.1938 230.073 59.4196C230.04 59.4841 228.331 65.4517 225.653 67.9033C224.847 68.6452 223.847 69.0645 222.847 69.0645C220.75 69.0645 218.331 67.1936 218.331 62.0002C218.331 58.4842 219.944 53.8391 222.524 49.8392C225.073 45.9039 227.944 43.4523 230.04 43.4523C234.621 43.4523 239.008 48.2909 240.008 54.452ZM231.363 56.0004L232.008 50.6457C232.04 50.3876 231.847 50.1618 231.589 50.1296C231.331 50.0973 231.105 50.2908 231.073 50.5489L230.427 55.8713C230.395 56.1294 230.589 56.3875 230.847 56.4197C230.879 56.4197 230.879 56.4197 230.911 56.4197C231.137 56.4197 231.331 56.2262 231.363 56.0004ZM259.425 57.1939C259.942 58.8713 259.587 60.839 258.425 62.7744C256.522 65.8711 252.909 68.2581 249.2 68.871C248.555 69 247.877 69.0645 247.297 69.0645C241.458 69.0645 240.587 63.7744 240.587 60.6454C240.587 51.5811 242.587 47.7103 248.458 45.291C250.039 44.6781 252.361 43.9039 254.49 43.9039C256.232 43.9039 257.522 44.4523 258.232 45.5168C258.78 46.3232 258.877 47.3554 258.49 48.4199C257.684 50.8392 254.684 53.0972 250.522 54.4843L248.039 55.1617C247.813 55.2262 247.684 55.4843 247.748 55.7101C247.813 55.9681 248.071 56.0971 248.297 56.0326L250.748 55.3875C252.264 55.0327 253.651 54.8714 254.845 54.8714C257.393 54.8714 258.942 55.6455 259.425 57.1939ZM250.2 52.0972L250.813 46.8071C250.845 46.549 250.651 46.3232 250.426 46.291C250.168 46.2587 249.91 46.4522 249.877 46.7103L249.264 52.0005C249.232 52.2585 249.426 52.4843 249.684 52.5166C249.684 52.5166 249.716 52.5166 249.748 52.5166C249.974 52.5166 250.168 52.323 250.2 52.0972ZM248.135 65.1292L248.748 59.839C248.781 59.5809 248.587 59.3551 248.329 59.3229C248.071 59.2906 247.845 59.4841 247.813 59.7422L247.2 65.0324C247.168 65.2582 247.361 65.5162 247.619 65.5485H247.652C247.91 65.5485 248.103 65.355 248.135 65.1292ZM272.937 56.0326C273.195 56.0326 273.421 56.0326 273.679 56.0649C272.421 57.7423 271.034 58.7745 269.776 58.9035C268.744 59.0003 267.937 58.5487 267.389 57.5165C269.098 56.5487 271.034 56.0326 272.937 56.0326ZM278.292 58.6132C278.969 60.0648 278.517 62.4196 277.13 64.613C275.518 67.1936 272.292 69.9677 268.195 69.9677C267.324 69.9677 266.453 69.8387 265.582 69.5807C257.744 67.3227 258.292 60.7422 260.002 50.9682C260.97 45.5168 266.131 43.033 270.485 43.033C272.872 43.033 274.84 43.7749 275.743 45.0329C277.388 47.3554 276.292 51.936 274.292 55.1617C273.84 55.1294 273.389 55.0972 272.937 55.0972C270.905 55.0972 268.84 55.6455 267.034 56.6455C266.292 54.452 266.518 51.5166 266.518 51.4844C266.55 51.2263 266.389 51.0005 266.131 50.9682C265.905 50.936 265.679 51.065 265.615 51.3231L263.324 59.9358C263.26 60.1616 263.389 60.3874 263.582 60.4841C263.776 60.5809 264.034 60.5486 264.163 60.3551C264.84 59.4519 265.647 58.6777 266.582 58.0326C267.421 59.5164 268.614 59.839 269.485 59.839C269.614 59.839 269.743 59.839 269.873 59.839C271.485 59.6777 273.26 58.3551 274.711 56.1939C276.453 56.5487 277.679 57.4197 278.292 58.6132ZM298.117 49.3876C299.892 53.0005 299.408 58.9035 296.956 63.097C295.085 66.3549 292.279 68.2259 289.085 68.4194C287.247 68.5484 285.924 68.0646 285.053 66.9356C282.344 63.5486 284.602 55.6778 284.602 55.6133C284.795 54.9359 283.957 54.9036 283.569 55.1617C280.634 57.3552 278.344 57.7745 277.15 56.3552C275.602 54.452 276.247 49.6134 279.215 46.8716C281.763 44.5491 286.15 43.5491 290.408 44.3233C294.053 45.0007 296.859 46.8393 298.117 49.3876ZM289.408 60.1616L290.053 54.8069C290.085 54.5488 289.892 54.323 289.634 54.2907C289.376 54.2585 289.15 54.452 289.118 54.7101L288.473 60.0648C288.44 60.3228 288.634 60.5486 288.892 60.5809C288.924 60.5809 288.924 60.5809 288.956 60.5809C289.182 60.5809 289.408 60.3874 289.408 60.1616ZM319.421 48.549C319.453 50.0973 318.002 51.0973 315.453 51.3231C313.389 51.5166 311.55 51.6134 310.002 51.6134C309.357 51.6134 308.776 51.6134 308.26 51.5811L306.324 51.3231C306.066 51.3231 305.873 51.4844 305.841 51.7424C305.808 51.9682 305.937 52.194 306.163 52.2585L308.131 52.5166C310.066 52.8714 311.195 53.4843 311.26 54.194C311.292 54.9681 309.905 55.9681 307.453 56.8713L303.454 58.0326C303.228 58.1293 303.099 58.3874 303.163 58.6132C303.26 58.839 303.486 59.0003 303.744 58.9358L307.744 57.7745C309.873 57.2584 311.808 57.0003 313.421 57.0003C316.034 57.0003 317.776 57.6455 318.614 58.968C319.679 60.6454 319.679 62.7744 318.55 64.8066C316.84 67.9355 313.034 69.9677 308.873 69.9677L307.905 69.9355C305.066 69.7419 302.905 68.7742 301.486 67.0646C299.583 64.7421 298.938 61.0325 299.55 55.7101C300.196 49.9038 303.647 43.162 311.195 43.162C311.357 43.162 311.518 43.162 311.711 43.162C316.066 43.3555 319.356 46.1619 319.421 48.549ZM340.53 45.8393C341.53 48.2586 340.466 51.7747 338.95 53.6456C338.143 54.6456 337.014 55.1294 335.563 55.1294C335.079 55.1294 334.498 55.1617 333.982 54.9681C332.918 54.5811 332.079 54.323 332.047 54.323C331.821 54.2585 331.595 54.3875 331.498 54.6133C331.434 54.8391 331.531 55.0972 331.724 55.1939C331.756 55.2262 332.595 55.4843 333.692 55.8713C335.014 56.3229 336.466 57.3552 336.434 58.7422C336.401 59.6132 336.047 59.968 335.272 59.968C334.627 59.968 333.918 59.6777 333.595 59.5487C333.273 59.4196 332.885 59.2261 332.724 59.6777C332.563 60.0648 332.918 60.2261 333.176 60.3874C333.466 60.5809 334.434 61.3873 335.337 64.2582C335.692 65.4195 335.563 66.3872 334.982 67.1936C334.143 68.3549 332.305 69.0645 330.144 69.0645C327.757 69.0645 325.628 68.1613 324.757 66.7743C322.402 63.0647 318.402 54.194 319.918 47.2264C320.692 43.7104 326.144 42.9685 330.595 42.9685C333.079 42.9685 335.498 43.2265 337.079 43.4201C338.821 43.6136 339.982 44.42 340.53 45.8393ZM356.133 56.8068C355.811 57.2907 355.456 57.71 355.037 58.0326C354.037 58.9358 352.843 59.2906 351.488 59.0648C350.488 58.8713 349.746 58.3874 349.198 57.581C348.94 57.1939 348.746 56.7745 348.617 56.2907C351.714 55.581 354.359 55.7423 356.133 56.8068ZM358.327 48.549C358.424 50.5489 357.907 53.6779 356.617 56.0004C354.617 54.7746 351.746 54.5811 348.392 55.3875C347.908 52.6134 348.714 49.3231 348.746 49.2586C348.811 49.0328 348.65 48.7748 348.392 48.7102C348.166 48.6457 347.908 48.7748 347.843 49.0328L345.585 56.2584C345.392 56.3229 345.166 56.4197 344.972 56.4842C342.585 57.4519 341.23 59.1293 341.263 61.1293C341.295 62.8389 342.424 64.4195 344.101 65.0324C345.166 65.4195 348.037 65.9356 351.295 62.1938C351.488 62.0002 351.456 61.7099 351.262 61.5164C351.069 61.3551 350.779 61.3873 350.585 61.5809C348.553 63.9034 346.295 64.8388 344.424 64.1292C343.134 63.6776 342.23 62.4518 342.23 61.097C342.198 59.5487 343.327 58.1616 345.327 57.3552C346.134 57.0326 346.94 56.7745 347.714 56.5487C347.875 57.0971 348.101 57.6132 348.392 58.0971C349.101 59.1293 350.069 59.7745 351.327 60.0003C352.972 60.2583 354.424 59.839 355.682 58.7422C356.133 58.3551 356.52 57.9035 356.875 57.3874C356.907 57.3874 356.94 57.4197 356.94 57.4519C358.359 58.7745 358.778 60.8067 358.036 63.0647C357.133 65.8066 353.488 68.1936 349.101 68.871C345.134 69.5161 341.779 68.4839 340.101 66.1614C338.198 63.5163 337.714 60.0003 338.714 56.3229C339.714 52.6779 342.069 49.0973 345.359 46.2264C347.424 44.42 349.65 43.4846 351.811 43.4846C352.779 43.4846 353.746 43.6781 354.682 44.0975C356.746 44.9684 358.262 46.8071 358.327 48.549ZM379.239 49.7425C379.626 53.0327 378.949 57.8068 377.497 62.1615C376.11 66.2904 374.271 69.2581 372.917 69.5484C372.594 69.6452 372.401 69.6452 372.239 69.6452C369.11 69.6452 368.755 63.7744 368.723 62.5486L370.852 62.4841C371.11 62.4841 371.336 62.2905 371.304 62.0002C371.304 61.7422 371.11 61.5486 370.82 61.5486L365.465 61.6776C365.207 61.6776 364.981 61.9034 365.014 62.1615C365.014 62.4196 365.207 62.6131 365.465 62.6131C365.465 62.6131 365.465 62.6131 365.497 62.6131L367.756 62.5808C367.691 64.5485 367.11 68.9678 364.981 69.0645C364.788 69.0645 364.304 68.9678 363.498 67.8388C360.756 64.0647 357.465 52.4521 359.014 47.7103C359.562 46.1297 360.433 45.1942 361.465 45.1942C363.659 45.1942 366.401 48.8715 367.175 55.9359C367.304 57.2907 367.368 58.1939 367.368 58.2261C367.368 58.4842 367.659 58.6455 367.885 58.6132C368.143 58.6132 368.336 58.3874 368.304 58.1293C368.272 57.3552 368.143 56.581 368.11 55.8713C367.981 53.4521 368.207 49.0651 370.53 46.5813C371.659 45.3555 373.175 44.7103 375.078 44.6458C377.465 44.5813 378.852 46.291 379.239 49.7425ZM390.953 43.7426C391.533 45.0007 391.598 46.4845 391.179 47.9361C390.985 48.6457 390.662 49.2909 390.243 49.8392C389.082 47.807 387.404 46.678 385.34 46.678C384.598 46.678 383.759 46.8393 382.921 47.1296C382.566 47.2587 382.211 47.42 381.888 47.6135C381.824 46.8393 381.921 46.0329 382.146 45.2587C382.856 42.8072 384.888 41.0975 387.082 41.0975C387.469 41.0975 387.856 41.1621 388.243 41.2911C389.437 41.6459 390.404 42.5169 390.953 43.7426ZM389.598 50.6134C388.662 51.5166 387.469 52.065 386.243 52.065C385.856 52.065 385.469 52.0005 385.082 51.9037C383.598 51.4521 382.501 50.1941 382.082 48.6135C382.437 48.3554 382.792 48.1619 383.211 48.0006C383.985 47.7425 384.695 47.6135 385.34 47.6135C387.404 47.6135 388.727 48.936 389.598 50.6134ZM391.082 57.0649C391.469 64.0647 389.082 71.2258 386.243 71.5161C386.146 71.5161 386.082 71.5483 385.985 71.5483C383.437 71.5483 380.727 67.0001 379.727 61.0002C378.985 56.581 379.276 51.7747 381.34 49.3554C381.921 51.0005 383.146 52.2908 384.824 52.8069C385.275 52.9359 385.759 53.0005 386.243 53.0005C387.63 53.0005 388.921 52.4521 389.985 51.5166C390.824 53.6133 391.017 55.9681 391.082 57.0649ZM404.807 46.9361C404.839 46.9361 404.871 46.9038 404.903 46.9038C404.871 47.0651 404.839 47.2264 404.807 47.3877C404.162 49.4844 402.581 51.0328 400.775 51.4198C400.839 50.936 400.936 50.4521 401.129 50.0328C401.71 48.4844 402.968 47.42 404.807 46.9361ZM401.839 40.7427C403.936 41.3556 405.194 43.5168 405.065 45.9039C404.903 45.9361 404.742 45.9684 404.581 46.0329C402.452 46.6135 400.936 47.8716 400.226 49.678C400.033 50.2586 399.871 50.8715 399.807 51.5166C399.452 51.5166 399.065 51.4521 398.71 51.3553C397.517 51.0005 396.549 50.1296 396 48.8715C395.42 47.6135 395.323 46.1297 395.775 44.7103C396.484 42.2588 398.517 40.5814 400.71 40.5814C401.097 40.5814 401.484 40.6137 401.839 40.7427ZM413.129 56.6133C413.742 63.1937 411.29 70.4193 405.387 71.5161C404.645 71.6774 403.871 71.7419 403.129 71.7419C397.097 71.7419 393.42 66.9356 392.097 62.8389C391.033 59.5809 391.355 56.6778 392.872 55.581C393.484 55.1294 394.162 54.9036 394.871 54.9036C398.549 54.9036 402.549 60.4196 402.581 60.4841C402.742 60.7099 403.033 60.7422 403.226 60.6132C403.452 60.4519 403.516 60.1938 403.355 59.968C401.645 57.2261 400.742 54.5811 400.71 52.3876C402.968 52.0005 404.968 50.1618 405.71 47.6458C405.774 47.3554 405.871 47.0329 405.903 46.7426C406.032 46.7426 406.161 46.7103 406.291 46.7103C410.387 46.7103 412.677 51.6779 413.129 56.6133ZM437.574 58.6777C438.381 59.5809 438.316 61.3873 437.413 63.4195C435.962 66.6775 432.478 70.1613 428.22 70.1613H428.123C423.155 70.0968 422.285 64.5808 422.22 61.2583C422.252 60.3874 422.252 59.7745 422.252 59.7745C422.22 59.5164 422.026 59.3229 421.768 59.3229C421.51 59.3229 421.317 59.4841 421.285 59.7422C421.285 59.7745 421.252 60.3551 421.252 61.2583C421.123 63.6131 420.414 69 416.607 69C416.414 69 416.22 69 416.027 68.9678C412.478 68.5162 412.446 63.097 412.575 60.7744C413.059 53.3875 417.123 43.8717 420.801 43.8717C420.962 43.8717 421.123 43.8717 421.285 43.9039C422.543 44.1942 423.414 44.8394 423.897 45.8393C425.543 49.1941 422.639 55.4197 422.607 55.4843C422.478 55.7423 422.575 56.0004 422.801 56.1294C423.026 56.2262 423.317 56.1617 423.446 55.9359C425.188 52.7746 430.542 44.6136 433.994 44.6136C434.768 44.6136 435.413 45.0652 435.962 45.9684C436.574 46.9684 436.671 47.9361 436.349 48.936C435.22 52.2908 429.575 55.1294 426.22 56.3875L423.736 57.3229C423.51 57.4519 423.446 57.71 423.543 57.9358C423.639 58.1616 423.865 58.2584 424.123 58.1939L426.51 57.2907C427.897 56.8391 429.542 56.7423 431.091 56.7423C434.123 56.7423 436.478 57.4519 437.574 58.6777ZM456.475 57.9358C457.539 59.0648 458.152 60.9357 458.12 63.0324C458.023 66.6453 455.023 69.0645 450.636 69.0645C448.346 69.0645 445.927 68.3871 443.701 67.0646C439.153 64.4195 436.83 55.323 437.798 48.936C438.12 46.7748 439.153 43.0652 442.314 42.3233C443.088 42.162 443.83 42.0653 444.507 42.0653C446.249 42.0653 447.539 42.6459 448.443 43.8717C451.926 48.549 448.443 60.4519 448.41 60.5809C448.346 60.8067 448.475 61.0648 448.668 61.1615C448.894 61.2583 449.152 61.1615 449.281 60.968C450.862 58.3874 452.636 56.9681 454.281 56.9681C455.088 56.9681 455.83 57.2907 456.475 57.9358ZM484.078 55.7101C484.691 61.7422 483.562 68.1613 479.691 68.9355C479.271 69.0323 478.917 69.0645 478.562 69.0645C477.53 69.0645 476.755 68.742 476.142 68.0323C474.497 66.1936 474.53 62.226 475.013 59.2261C475.336 57.1616 475.691 55.4197 475.691 55.4197C475.723 55.1617 475.562 54.9359 475.304 54.8714C475.078 54.8391 474.82 55.0004 474.788 55.2262C474.755 55.2907 474.465 56.9358 474.078 59.0648C473.207 63.6131 471.981 65.355 471.304 65.4195C471.014 65.4517 469.788 65.0969 467.465 60.6132C466.691 59.1293 466.175 57.9681 466.143 57.9358C466.014 57.71 465.723 57.6455 465.498 57.7423C465.304 57.8713 465.207 58.1293 465.304 58.3551C465.304 58.4197 465.949 59.5487 466.627 61.0325C468.014 64.0002 468.304 66.3549 467.723 67.6775C467.465 68.2259 467.046 68.5807 466.433 68.8065C465.046 69.2903 463.24 68.3226 461.594 66.2582C458.756 62.6776 456.401 55.7423 457.949 48.936C458.659 45.7748 460.175 44.0975 462.272 44.0975C465.82 44.0975 470.433 49.0006 470.594 54.4843C470.594 54.7423 470.756 54.9681 471.078 54.9681C471.078 54.9681 471.53 55.0004 471.53 54.4843C471.53 54.3875 471.691 43.3233 477.852 43.0975C477.852 43.0975 477.884 43.0975 477.917 43.0975C480.981 43.0975 483.465 49.5167 484.078 55.7101ZM504.863 52.0972C506.443 58.2584 505.734 66.2259 501.831 68.3871C501.089 68.7742 500.379 68.9678 499.702 68.9678C496.121 68.9678 493.54 63.6131 492.476 60.3228C491.928 58.71 491.605 57.5165 491.573 57.4842C491.476 57.2584 491.218 57.1294 490.992 57.1939C490.766 57.2584 490.605 57.5165 490.67 57.7745C490.702 57.8068 491.089 58.968 491.573 60.6132C492.67 64.3872 492.54 67.2581 491.541 68.6129C491.024 69.2903 490.315 69.6129 489.315 69.6774C486.605 69.7742 485.154 65.0969 484.702 60.7422C484.057 54.3875 485.315 48.0006 487.315 47.5812C487.444 47.549 487.605 47.549 487.766 47.549C489.831 47.549 492.508 50.3554 494.766 55.7101C495.895 58.4519 496.798 60.7422 496.831 60.839C496.927 61.0648 497.218 61.1615 497.444 61.0648C497.669 60.968 497.766 60.7099 497.702 60.4841C497.702 60.4519 496.734 58.1616 495.637 55.3552C494.379 52.194 493.605 47.8716 495.057 45.6458C495.637 44.7426 496.54 44.2587 497.863 44.1297C497.992 44.1297 498.121 44.1297 498.25 44.1297C501.121 44.1297 503.572 47.0974 504.863 52.0972ZM522.562 48.1296C523.465 52.3876 521.53 61.0648 517.659 65.8711C515.949 68.0001 514.143 69.0645 512.24 69.0645C511.175 69.0645 510.111 68.7097 509.046 68.0646C505.337 65.7743 505.498 61.4196 506.304 58.1939C507.982 51.3231 513.917 43.7749 517.885 43.4846C517.885 43.4846 517.917 43.4846 518.014 43.4846C518.82 43.4846 521.594 43.8071 522.562 48.1296ZM514.852 59.8712L515.465 54.5488C515.498 54.2907 515.304 54.0327 515.046 54.0004C514.788 53.9682 514.562 54.1617 514.53 54.4198L513.917 59.7745C513.885 60.0325 514.046 60.2583 514.304 60.2906C514.336 60.2906 514.369 60.2906 514.369 60.2906C514.594 60.2906 514.82 60.1293 514.852 59.8712ZM540.176 43.9039C542.692 45.5813 543.854 47.9683 543.531 50.6134C543.144 53.6779 540.757 56.581 537.693 57.6455C535.822 58.3229 534.273 58.6777 533.047 58.6777C532.564 58.6777 532.241 58.6132 532.015 58.5487C531.789 58.4842 531.693 58.4519 531.693 58.4519C531.435 58.3551 531.209 58.3229 531.048 58.5164C530.886 58.6777 530.886 58.968 531.08 59.1616C532.467 60.4841 535.886 64.4518 535.144 66.8388C534.854 67.871 533.757 68.5484 531.951 68.871C529.435 69.3549 526.757 69.0323 524.983 66.9356C522.757 64.3227 522.08 59.4519 523.08 53.1617C524.241 45.9361 529.725 42.1298 534.564 42.1298C536.564 42.1298 538.499 42.7427 540.176 43.9039ZM532.048 55.8713L532.66 50.5489C532.693 50.2908 532.499 50.065 532.241 50.0328C531.983 50.0005 531.757 50.1618 531.725 50.4199L531.112 55.7746C531.08 56.0326 531.273 56.2584 531.531 56.2907H531.564C531.822 56.2907 532.015 56.1294 532.048 55.8713ZM561.049 45.1619C563.662 47.5812 561.952 51.936 560.049 55.1939C557.92 58.8067 555.082 61.8712 555.049 61.9034C552.211 64.9034 549.856 65.7098 549.824 65.7098C549.63 65.7743 549.501 66.0001 549.533 66.2259C549.566 66.4517 549.759 66.6453 549.985 66.6453C552.211 66.6453 556.566 67.1291 557.307 68.9678C557.695 69.9677 556.92 71.4838 554.985 73.2902C549.953 77.9998 546.824 74.4515 545.985 68.3871C545.953 68.2581 545.888 68.1291 545.792 68.0646C545.695 68.0001 545.598 67.9678 545.501 67.9678C545.469 67.9678 545.437 67.9678 545.437 67.9678C545.437 67.9678 545.211 68.0001 544.856 68.0001C544.114 68.0001 542.663 67.8388 541.727 66.5807C540.437 64.9356 540.34 61.8712 541.405 57.71C543.727 48.7748 550.824 43.4201 556.34 43.4201C558.178 43.4201 559.824 44.0007 561.049 45.1619ZM549.598 60.3228L550.211 55.0004C550.243 54.7423 550.05 54.4843 549.792 54.452C549.533 54.4198 549.308 54.6133 549.275 54.8714L548.663 60.2261C548.63 60.4841 548.792 60.7099 549.05 60.7422C549.082 60.7422 549.114 60.7422 549.114 60.7422C549.34 60.7422 549.566 60.5809 549.598 60.3228ZM584.558 61.968C585.107 64.2582 584.3 65.9033 583.526 66.9033C582.171 68.6129 579.849 69.7419 577.591 69.7419C576.655 69.7419 575.817 69.5484 575.139 69.1613C571.688 67.2259 570.301 61.4841 570.139 60.839C570.107 60.7422 570.107 60.6777 570.107 60.6777C570.075 60.4841 569.881 60.3228 569.656 60.3228C569.623 60.3228 569.591 60.3228 569.559 60.3551C569.301 60.3874 569.14 60.6454 569.204 60.9035C569.204 60.9035 569.204 60.9357 569.204 61.0325C569.333 61.5164 570.172 65.8066 568.623 67.9033C568.107 68.5807 567.43 68.9678 566.494 69.0323C566.398 69.0645 566.269 69.0645 566.172 69.0645C565.172 69.0645 564.301 68.5807 563.591 67.613C561.462 64.7421 561.204 58.0326 563.043 52.0327C564.753 46.42 571.236 43.4846 576.752 43.4846C579.01 43.4846 580.817 44.0007 581.881 44.9039C583.429 46.1942 584.01 48.2909 583.429 50.3231C582.526 53.6133 579.01 56.0649 574.043 56.8391C573.494 56.9036 573.172 56.9681 573.172 56.9681C572.914 57.0326 572.752 57.2584 572.785 57.5165C572.817 57.7745 573.043 57.9358 573.301 57.9035C573.591 57.8713 573.881 57.839 574.172 57.8068C574.72 57.7423 575.559 57.6455 576.559 57.6455C579.72 57.6455 583.688 58.3874 584.558 61.968ZM571.269 55.0004L571.914 49.6457C571.946 49.3876 571.752 49.1618 571.494 49.1296C571.236 49.0973 571.01 49.2909 570.978 49.5489L570.333 54.8714C570.301 55.1294 570.494 55.3552 570.752 55.3875C570.785 55.3875 570.785 55.3875 570.817 55.3875C571.043 55.3875 571.236 55.2262 571.269 55.0004ZM593.135 52.3553C594.684 51.7424 596.909 51.2908 599.845 51.5811C598.49 52.8069 596.813 53.5166 595.264 53.4521C594.232 53.4198 593.555 53.0972 593.2 52.4521C593.168 52.4198 593.135 52.3876 593.135 52.3553ZM606.232 56.0326C607.006 59.7422 604.554 64.7743 600.748 67.2581C597.264 69.5484 592.168 69.6129 589.394 67.4194C588.071 66.3872 586.781 64.4518 588.039 61.097C588.748 59.1938 589.845 57.9358 591.135 57.1616L591.555 56.9358C595.2 55.0004 599.845 56.4197 600.103 56.5165C600.361 56.581 600.619 56.452 600.684 56.1939C600.78 55.9359 600.651 55.6778 600.393 55.6133C600.329 55.581 594.942 54.0327 590.813 56.2584C590.168 56.6133 587.523 57.3552 585.813 56.2907C584.813 55.6455 584.265 54.4198 584.168 52.6779C583.91 47.807 587.974 44.3878 591.877 42.7749C595.813 41.1298 599.716 41.2266 601.296 43.0007C602.716 44.5491 602.909 46.678 601.877 48.8715C601.587 49.5489 601.167 50.1941 600.684 50.7424C597.232 50.2908 594.684 50.7424 592.877 51.4198C592.716 49.936 593.426 48.0006 593.78 47.2587C593.877 47.0006 593.78 46.7426 593.555 46.6135C593.329 46.5167 593.071 46.5813 592.942 46.8071L589.232 53.9037C589.103 54.0972 589.2 54.3875 589.394 54.5165C589.587 54.6456 589.781 54.6133 590.006 54.3875C590.039 54.3553 590.716 53.5166 592.264 52.7424C592.297 52.8069 592.329 52.8714 592.361 52.9359C592.91 53.8391 593.877 54.323 595.232 54.3875C597.264 54.4843 599.426 53.4521 601.038 51.7424C601.167 51.7747 601.296 51.7747 601.393 51.8069C604.071 52.2585 605.748 53.7101 606.232 56.0326ZM625.872 46.0651C626.839 48.4844 625.807 52.0005 624.291 53.8714C623.485 54.8714 622.323 55.3552 620.904 55.3552C619.13 55.3552 617.517 54.5811 617.485 54.5811C617.291 54.4843 617.065 54.5165 616.936 54.6778C616.775 54.8391 616.775 55.0649 616.904 55.2585C616.904 55.2907 618.582 57.8713 620.614 63.8066C621.001 65.0001 620.904 66.0324 620.259 66.9033C619.323 68.1936 617.227 69.0645 614.936 69.0645C612.743 69.0645 610.872 68.2581 610.098 67.0001C607.646 63.1292 610.969 55.452 611.001 55.3552C611.066 55.1939 611.033 55.0004 610.904 54.8714C610.84 54.7746 610.711 54.7101 610.582 54.7101C610.517 54.7101 610.485 54.7101 610.42 54.7101C609.549 55.0004 608.808 55.1294 608.162 55.1294C607.324 55.1294 606.679 54.9036 606.195 54.3875C605.001 53.0972 605.066 50.1296 605.259 47.3877C605.517 43.9039 611.001 43.1943 615.582 43.1943C618.194 43.1943 620.743 43.4201 622.42 43.6136C624.13 43.8394 625.323 44.6458 625.872 46.0651ZM647.482 52.7746C648.062 59.4519 645.74 64.613 643.353 67.2259C642.159 68.5484 640.804 69.3226 639.837 69.2903C639.224 69.2581 638.772 69.0323 638.385 68.6129C637.353 67.3549 637.579 64.9356 637.579 64.9034C637.579 64.6776 637.45 64.484 637.256 64.4195C637.192 64.3872 637.159 64.3872 637.095 64.3872C636.934 64.3872 636.772 64.484 636.676 64.6453C636.676 64.6776 634.805 68.0001 631.901 68.7742C627.837 69.9355 625.321 67.3549 624.837 63.226C624.321 58.6455 625.708 49.2909 628.934 45.6781C629.869 44.6458 630.837 44.2265 631.837 44.3555C635.869 44.9684 634.74 56.3875 634.256 59.839C634.063 61.1293 633.934 61.968 633.934 61.968C633.901 62.226 634.063 62.4518 634.321 62.5163C634.579 62.5486 634.805 62.355 634.869 62.1292C634.869 62.097 634.966 61.2583 635.159 60.0003C635.643 56.9681 636.708 51.4521 638.224 48.7748C639.192 47.0329 641.159 45.7426 642.901 45.7426C645.385 45.7426 647.062 48.2909 647.482 52.7746ZM669.338 47.7103C671.531 49.0006 670.951 52.6456 670.402 54.7101C668.693 61.1938 662.951 69.0968 658.725 69.0968C658.564 69.0968 658.403 69.0645 658.274 69.0645C654.016 68.4194 647.758 57.3874 647.597 50.3231C647.532 47.2587 648.629 45.4845 650.79 45.0652C651.177 45.0007 651.532 44.9684 651.887 44.9684C659.209 44.9684 659.725 61.4196 659.725 61.5809C659.725 61.8067 659.919 62.0325 660.177 62.0325C660.403 62.0647 660.629 61.8712 660.661 61.6131C661.209 57.6132 663.532 47.2264 667.661 47.2264C668.177 47.2264 668.757 47.3877 669.338 47.7103ZM693.182 44.3555C696.666 44.9039 697.021 49.4522 696.924 52.1295C696.634 59.8712 692.505 68.8065 689.924 69.0323C689.214 69.0968 688.602 68.871 688.085 68.3226C686.505 66.7098 685.989 62.4841 686.086 59.0971C686.086 58.7745 686.118 58.2584 685.634 58.2584C685.118 58.2261 685.15 58.71 685.118 59.0648C684.892 65.5162 682.376 70 679.021 70C677.731 70 676.376 69.3226 675.054 68.0968C671.667 64.9356 669.925 57.3874 671.279 51.9037C671.796 49.8715 672.989 47.2909 675.666 46.5813C676.086 46.4522 676.473 46.42 676.86 46.42C681.699 46.42 682.473 56.4197 682.537 58.2906C682.569 58.5487 682.795 58.7422 683.053 58.71C683.279 58.71 683.505 58.4842 683.505 58.2584L683.473 57.581C683.44 56.6455 683.537 53.5166 685.118 53.3553C685.15 53.3553 685.182 53.3553 685.215 53.3553C686.118 53.3553 686.956 54.7423 687.537 57.1294L687.86 58.71C687.924 58.968 688.15 59.1293 688.408 59.0648C688.666 59.0325 688.827 58.7745 688.795 58.5487L688.473 56.9358C688.021 54.3553 687.247 48.1296 689.473 45.4845C690.311 44.4523 691.537 44.0975 693.182 44.3555ZM718.925 57.4519C719.796 57.8068 720.248 58.968 720.183 60.6454C719.99 64.0002 717.7 68.2259 714.571 69.1613C714.184 69.2581 713.829 69.3226 713.474 69.3226C709.539 69.3226 707.99 62.3228 707.99 62.2583C707.926 62.0647 707.764 61.9034 707.571 61.9034C707.539 61.9034 707.539 61.9034 707.506 61.9034C707.345 61.9034 707.152 62.0002 707.087 62.1938C707.055 62.2583 704.281 68.9355 700.603 68.9355C699.313 68.9355 698.023 68.0968 696.765 66.4517C695.732 65.0969 695.442 63.8389 695.829 62.7421C696.958 59.7745 702.797 58.5487 702.861 58.5164C703.055 58.4842 703.216 58.3229 703.216 58.0971C703.248 57.9035 703.119 57.71 702.926 57.6132C700.732 56.8068 697.539 54.0327 697.249 50.936C697.087 48.9683 698.119 47.3232 700.345 46.0006C701.248 45.4523 702.087 45.1942 702.861 45.1942C707.345 45.1942 708.958 53.9037 708.99 54.0327C709.119 54.5488 709.829 54.5165 709.926 54.0327C710.474 51.194 712.538 43.8071 715.796 43.8071C716.538 43.8071 717.313 44.162 718.119 44.8716C719.248 45.8716 719.764 47.0006 719.667 48.2586C719.345 52.5488 712.184 57.0003 712.087 57.0649C711.893 57.1939 711.829 57.4842 711.958 57.71C712.087 57.9358 712.345 58.0003 712.571 57.9035C712.7 57.839 714.313 56.9358 716.442 56.9358C717.313 56.9358 718.183 57.1294 718.925 57.4519ZM728.201 57.1616C729.298 57.4197 730.04 58.0971 730.459 59.1938C729.395 59.6777 727.943 60.2261 726.427 60.2261C725.459 60.2261 724.588 60.0325 723.814 59.6132C725.137 57.8068 726.814 56.8391 728.201 57.1616ZM737.588 58.6455C738.33 59.5809 738.491 61.1293 738.04 63.2582C737.104 67.7097 732.233 70.3548 728.104 70.3548C726.104 70.3548 724.395 69.7097 723.298 68.5807C721.201 66.4194 721.814 62.9034 723.298 60.3874C724.233 60.9035 725.298 61.1615 726.427 61.1615C728.04 61.1615 729.556 60.6454 730.717 60.097C731.007 61.6776 730.782 63.4518 730.62 64.484C730.588 64.8066 730.556 65.0646 730.556 65.2259C730.524 65.484 730.717 65.6775 730.943 65.7098C731.169 65.742 731.395 65.613 731.459 65.3872L733.362 58.3551C733.394 58.1616 733.33 57.9681 733.169 57.839C732.975 57.7423 732.782 57.7423 732.62 57.8713C732.588 57.8713 732.104 58.2584 731.298 58.7422C730.749 57.4197 729.782 56.581 728.427 56.2584C728.169 56.1939 727.911 56.1617 727.62 56.1617C726.04 56.1617 724.362 57.2584 723.04 59.0971C722.556 58.71 722.104 58.2261 721.685 57.6777C719.008 53.9682 719.459 48.1619 721.234 44.5491C722.363 42.3233 723.911 41.033 725.491 41.0008H725.556C731.233 41.0008 730.233 50.6779 730.007 54.0004C730.007 54.2585 730.201 54.452 730.459 54.4843C730.717 54.4843 730.911 54.323 730.943 54.0649C731.104 51.4198 731.33 41.4524 735.749 41.4524C735.814 41.4524 735.911 41.4524 735.975 41.4524C736.588 41.5169 737.04 41.7749 737.362 42.2911C739.04 45.0652 736.007 53.9037 734.717 57.0649C734.653 57.2261 734.653 57.3874 734.749 57.5165C734.878 57.6455 735.04 57.7423 735.201 57.71C735.201 57.71 735.265 57.71 735.427 57.71C735.846 57.71 736.911 57.8068 737.588 58.6455ZM754.315 54.6133C754.702 54.6133 755.089 54.6778 755.509 54.8391C753.799 56.6133 751.315 57.6777 749.186 58.2906C750.509 56.4197 752.348 54.6133 754.315 54.6133ZM757.477 56.2262C759.347 58.1616 759.767 61.097 758.573 63.9034C756.993 67.613 753.154 70 748.799 70C747.799 70 746.735 69.871 745.67 69.6452C741.154 68.6129 738.445 65.9678 738.542 62.7421C738.703 59.2583 742.251 55.2585 749.928 54.1295C750.186 54.0972 750.348 53.8391 750.315 53.5811C750.283 53.3553 750.09 53.194 749.864 53.194C749.832 53.194 749.799 53.194 749.799 53.194C749.767 53.194 748.509 53.3875 746.832 53.3875C744.283 53.3875 740.961 52.9682 739.477 51.065C738.703 50.065 738.509 48.7102 738.961 47.0006C739.961 43.0652 743.961 41.6459 747.348 41.6459C751.799 41.6459 756.864 43.9362 757.477 48.1941C757.799 50.4844 757.347 52.4521 756.122 54.0972C755.541 53.8069 754.928 53.6779 754.315 53.6779C752.122 53.6779 749.928 55.3552 747.799 58.6132C745.864 59.0648 744.38 59.1293 744.348 59.1293C744.219 59.1616 744.058 59.2261 743.993 59.3551C743.896 59.4841 743.896 59.6454 743.928 59.7745L745.348 63.6131C745.412 63.7744 745.606 63.9034 745.799 63.9034C745.993 63.9034 746.154 63.8066 746.219 63.6131C746.251 63.5808 747.057 61.5809 748.38 59.4519C750.896 58.8713 754.219 57.6455 756.38 55.2907C756.735 55.5488 757.122 55.8391 757.477 56.2262ZM235.234 99.4519C235.234 101.323 235.094 102.989 234.814 104.452C234.535 105.914 234.083 107.161 233.46 108.194C232.858 109.204 232.062 109.979 231.073 110.516C230.105 111.054 228.933 111.323 227.557 111.323C225.836 111.323 224.406 110.849 223.266 109.903C222.148 108.957 221.309 107.602 220.75 105.839C220.213 104.054 219.944 101.925 219.944 99.4519C219.944 96.9574 220.191 94.8284 220.686 93.065C221.202 91.3016 222.019 89.9575 223.137 89.0328C224.256 88.0866 225.729 87.6135 227.557 87.6135C229.277 87.6135 230.707 88.0866 231.847 89.0328C232.987 89.9575 233.836 91.3016 234.395 93.065C234.954 94.8284 235.234 96.9574 235.234 99.4519ZM222.783 99.4519C222.783 101.559 222.933 103.312 223.234 104.71C223.557 106.108 224.062 107.161 224.75 107.871C225.46 108.559 226.395 108.903 227.557 108.903C228.718 108.903 229.643 108.559 230.331 107.871C231.04 107.183 231.556 106.14 231.879 104.742C232.202 103.323 232.363 101.559 232.363 99.4519C232.363 97.3444 232.202 95.6026 231.879 94.2262C231.556 92.8284 231.04 91.7855 230.331 91.0973C229.643 90.3876 228.718 90.0328 227.557 90.0328C226.395 90.0328 225.46 90.3876 224.75 91.0973C224.062 91.7855 223.557 92.8284 223.234 94.2262C222.933 95.6026 222.783 97.3444 222.783 99.4519ZM247.629 111H244.855V94.9037C244.855 94.28 244.855 93.7531 244.855 93.323C244.877 92.893 244.898 92.4951 244.92 92.1295C244.941 91.7424 244.963 91.3446 244.984 90.936C244.64 91.2801 244.328 91.5704 244.049 91.807C243.769 92.0435 243.414 92.3446 242.984 92.7102L240.533 94.7101L239.049 92.8069L245.274 87.9684H247.629V111ZM270.766 111H255.541V108.645L261.573 102.549C262.734 101.387 263.713 100.355 264.508 99.4519C265.304 98.5487 265.906 97.667 266.315 96.8068C266.723 95.9251 266.928 94.9682 266.928 93.9359C266.928 92.6672 266.551 91.7102 265.799 91.065C265.046 90.3984 264.067 90.0651 262.863 90.0651C261.745 90.0651 260.756 90.2586 259.895 90.6457C259.057 91.0328 258.197 91.5704 257.315 92.2586L255.799 90.3554C256.401 89.8393 257.057 89.3769 257.766 88.9683C258.498 88.5597 259.283 88.2372 260.121 88.0006C260.981 87.7641 261.895 87.6458 262.863 87.6458C264.304 87.6458 265.54 87.8931 266.573 88.3877C267.605 88.8823 268.401 89.592 268.96 90.5167C269.54 91.4199 269.831 92.5059 269.831 93.7746C269.831 94.6779 269.691 95.538 269.411 96.3552C269.132 97.1509 268.734 97.9358 268.218 98.71C267.702 99.4842 267.078 100.269 266.347 101.065C265.616 101.86 264.809 102.688 263.928 103.549L259.121 108.29V108.419H270.766V111ZM287.71 93.3553C287.71 94.3875 287.516 95.28 287.129 96.0327C286.742 96.7853 286.183 97.3982 285.452 97.8713C284.742 98.3444 283.903 98.6777 282.936 98.8713V99.0003C284.785 99.2154 286.161 99.796 287.065 100.742C287.968 101.688 288.419 102.925 288.419 104.452C288.419 105.785 288.108 106.979 287.484 108.032C286.86 109.065 285.893 109.871 284.581 110.452C283.29 111.032 281.624 111.323 279.581 111.323C278.377 111.323 277.258 111.226 276.226 111.032C275.194 110.86 274.205 110.538 273.258 110.065V107.419C274.226 107.893 275.269 108.269 276.387 108.548C277.506 108.807 278.581 108.936 279.613 108.936C281.678 108.936 283.161 108.538 284.065 107.742C284.989 106.925 285.452 105.807 285.452 104.387C285.452 103.42 285.194 102.645 284.678 102.065C284.183 101.463 283.452 101.022 282.484 100.742C281.516 100.463 280.355 100.323 279 100.323H276.775V97.9036H279.033C280.301 97.9036 281.355 97.7208 282.194 97.3552C283.054 96.9896 283.699 96.4843 284.129 95.8391C284.581 95.1725 284.807 94.409 284.807 93.5488C284.807 92.4306 284.43 91.5704 283.678 90.9683C282.925 90.3446 281.903 90.0328 280.613 90.0328C279.796 90.0328 279.054 90.1188 278.387 90.2909C277.721 90.4414 277.097 90.6672 276.516 90.9683C275.957 91.2478 275.387 91.5812 274.807 91.9682L273.388 90.0328C273.947 89.6027 274.581 89.2049 275.291 88.8393C276.022 88.4737 276.828 88.1834 277.71 87.9684C278.592 87.7533 279.549 87.6458 280.581 87.6458C282.989 87.6458 284.774 88.1834 285.936 89.2586C287.118 90.3339 287.71 91.6994 287.71 93.3553ZM307.427 105.774H304.073V111H301.331V105.774H290.299V103.355L301.137 87.8393H304.073V103.226H307.427V105.774ZM301.331 95.9681C301.331 95.409 301.331 94.9037 301.331 94.4521C301.352 93.9789 301.374 93.5381 301.395 93.1295C301.417 92.7209 301.428 92.3338 301.428 91.9682C301.449 91.5812 301.471 91.2156 301.492 90.8715H301.363C301.191 91.2801 300.976 91.7209 300.718 92.194C300.46 92.6672 300.213 93.065 299.976 93.3876L293.073 103.226H301.331V95.9681ZM316.307 96.8713C317.877 96.8713 319.242 97.1402 320.403 97.6778C321.565 98.2154 322.457 98.9896 323.081 100C323.726 100.99 324.048 102.205 324.048 103.645C324.048 105.237 323.704 106.613 323.016 107.774C322.328 108.914 321.339 109.796 320.049 110.419C318.78 111.022 317.242 111.323 315.436 111.323C314.253 111.323 313.135 111.215 312.081 111C311.049 110.785 310.178 110.473 309.468 110.065V107.387C310.242 107.86 311.178 108.237 312.275 108.516C313.393 108.774 314.457 108.903 315.468 108.903C316.608 108.903 317.597 108.731 318.436 108.387C319.296 108.022 319.963 107.473 320.436 106.742C320.909 105.989 321.145 105.054 321.145 103.936C321.145 102.43 320.683 101.28 319.758 100.484C318.834 99.667 317.371 99.2584 315.371 99.2584C314.769 99.2584 314.081 99.3121 313.307 99.4197C312.533 99.5272 311.909 99.6347 311.436 99.7422L310.017 98.839L310.888 87.9684H322.436V90.5489H313.307L312.758 97.2262C313.124 97.1617 313.619 97.0864 314.242 97.0004C314.866 96.9144 315.554 96.8713 316.307 96.8713ZM327.025 101.162C327.025 99.8283 327.111 98.5165 327.283 97.2262C327.476 95.9359 327.799 94.7209 328.25 93.5811C328.702 92.4198 329.326 91.3984 330.121 90.5167C330.917 89.6135 331.917 88.9146 333.121 88.42C334.347 87.9038 335.831 87.6458 337.573 87.6458C338.024 87.6458 338.519 87.6673 339.057 87.7103C339.616 87.7533 340.067 87.8286 340.411 87.9361V90.3554C340.024 90.2264 339.584 90.1296 339.089 90.0651C338.616 90.0006 338.132 89.9683 337.637 89.9683C336.154 89.9683 334.917 90.2156 333.928 90.7102C332.939 91.2048 332.154 91.8822 331.573 92.7424C331.014 93.6026 330.605 94.5918 330.347 95.7101C330.089 96.8283 329.928 98.0218 329.863 99.2906H330.057C330.379 98.7745 330.788 98.3122 331.283 97.9036C331.777 97.495 332.369 97.1724 333.057 96.9359C333.766 96.6993 334.584 96.581 335.508 96.581C336.842 96.581 338.003 96.8606 338.992 97.4197C340.003 97.9573 340.788 98.753 341.347 99.8067C341.906 100.839 342.186 102.097 342.186 103.581C342.186 105.172 341.885 106.549 341.282 107.71C340.68 108.871 339.831 109.763 338.734 110.387C337.659 111.011 336.369 111.323 334.863 111.323C333.766 111.323 332.745 111.118 331.799 110.71C330.853 110.301 330.014 109.677 329.283 108.839C328.573 108 328.014 106.946 327.605 105.678C327.218 104.387 327.025 102.882 327.025 101.162ZM334.831 108.936C336.186 108.936 337.283 108.505 338.121 107.645C338.96 106.764 339.379 105.409 339.379 103.581C339.379 102.119 339.003 100.957 338.25 100.097C337.519 99.2369 336.412 98.8068 334.928 98.8068C333.917 98.8068 333.035 99.0218 332.283 99.4519C331.53 99.8605 330.939 100.387 330.508 101.033C330.1 101.678 329.896 102.344 329.896 103.032C329.896 103.742 329.992 104.441 330.186 105.129C330.401 105.817 330.713 106.452 331.121 107.032C331.551 107.613 332.068 108.075 332.67 108.419C333.293 108.763 334.014 108.936 334.831 108.936ZM347.452 111L356.903 90.5489H344.484V87.9684H359.936V90.1618L350.581 111H347.452ZM370.073 87.6458C371.428 87.6458 372.621 87.8608 373.654 88.2909C374.686 88.6995 375.492 89.3124 376.073 90.1296C376.675 90.9468 376.976 91.9575 376.976 93.1618C376.976 94.0865 376.772 94.8929 376.363 95.5811C375.976 96.2692 375.449 96.8821 374.783 97.4197C374.116 97.9358 373.385 98.3982 372.589 98.8068C373.535 99.2584 374.395 99.7745 375.17 100.355C375.944 100.914 376.557 101.57 377.008 102.323C377.481 103.075 377.718 103.979 377.718 105.032C377.718 106.323 377.406 107.441 376.782 108.387C376.159 109.312 375.277 110.032 374.137 110.548C373.019 111.065 371.697 111.323 370.17 111.323C368.514 111.323 367.105 111.075 365.944 110.581C364.804 110.086 363.933 109.387 363.331 108.484C362.751 107.559 362.46 106.441 362.46 105.129C362.46 104.075 362.675 103.161 363.105 102.387C363.557 101.613 364.148 100.947 364.88 100.387C365.611 99.8283 366.396 99.3551 367.234 98.9681C366.482 98.538 365.794 98.0541 365.17 97.5165C364.568 96.9574 364.084 96.323 363.718 95.6133C363.374 94.9037 363.202 94.0757 363.202 93.1295C363.202 91.9467 363.503 90.9575 364.105 90.1618C364.708 89.3447 365.525 88.721 366.557 88.2909C367.589 87.8608 368.761 87.6458 370.073 87.6458ZM365.234 105.161C365.234 106.28 365.632 107.215 366.428 107.968C367.224 108.699 368.449 109.065 370.105 109.065C371.159 109.065 372.041 108.893 372.75 108.548C373.46 108.204 373.998 107.731 374.363 107.129C374.75 106.527 374.944 105.839 374.944 105.065C374.944 104.312 374.74 103.656 374.331 103.097C373.944 102.516 373.385 102 372.654 101.549C371.944 101.097 371.094 100.688 370.105 100.323L369.589 100.129C368.643 100.538 367.847 100.979 367.202 101.452C366.557 101.925 366.062 102.463 365.718 103.065C365.396 103.667 365.234 104.366 365.234 105.161ZM370.041 89.936C368.858 89.936 367.879 90.2264 367.105 90.807C366.353 91.3661 365.976 92.1833 365.976 93.2585C365.976 94.0542 366.159 94.7209 366.525 95.2585C366.912 95.7961 367.428 96.2585 368.073 96.6455C368.718 97.0111 369.428 97.366 370.202 97.71C370.955 97.3875 371.621 97.0326 372.202 96.6455C372.804 96.2585 373.277 95.7961 373.621 95.2585C373.987 94.6994 374.17 94.0327 374.17 93.2585C374.17 92.1833 373.793 91.3661 373.041 90.807C372.288 90.2264 371.288 89.936 370.041 89.936ZM395.468 97.8068C395.468 99.1186 395.371 100.43 395.178 101.742C395.006 103.032 394.694 104.258 394.242 105.42C393.791 106.559 393.167 107.581 392.371 108.484C391.576 109.366 390.565 110.065 389.339 110.581C388.113 111.075 386.629 111.323 384.888 111.323C384.458 111.323 383.952 111.29 383.372 111.226C382.812 111.183 382.35 111.108 381.984 111V108.581C382.372 108.71 382.823 108.817 383.339 108.903C383.855 108.968 384.35 109 384.823 109C386.328 109 387.565 108.753 388.533 108.258C389.522 107.764 390.307 107.097 390.887 106.258C391.468 105.398 391.887 104.409 392.145 103.291C392.404 102.151 392.554 100.957 392.597 99.71H392.404C392.081 100.205 391.672 100.656 391.178 101.065C390.683 101.473 390.081 101.796 389.371 102.032C388.683 102.269 387.866 102.387 386.92 102.387C385.608 102.387 384.447 102.119 383.436 101.581C382.447 101.022 381.673 100.226 381.114 99.1939C380.576 98.1616 380.307 96.9036 380.307 95.4198C380.307 93.8069 380.608 92.4198 381.21 91.2586C381.834 90.0973 382.694 89.2049 383.791 88.5812C384.888 87.9576 386.178 87.6458 387.662 87.6458C388.758 87.6458 389.78 87.8608 390.726 88.2909C391.672 88.6995 392.5 89.3232 393.21 90.1618C393.92 91.0005 394.468 92.0543 394.855 93.323C395.264 94.5918 395.468 96.0864 395.468 97.8068ZM387.662 90.0328C386.328 90.0328 385.232 90.4737 384.371 91.3554C383.533 92.2371 383.113 93.5811 383.113 95.3875C383.113 96.8713 383.468 98.0434 384.178 98.9035C384.909 99.7422 386.027 100.162 387.533 100.162C388.565 100.162 389.457 99.9573 390.21 99.5487C390.963 99.1186 391.543 98.581 391.952 97.9358C392.382 97.2907 392.597 96.624 392.597 95.9359C392.597 95.2477 392.49 94.5596 392.275 93.8714C392.081 93.1618 391.78 92.5166 391.371 91.936C390.963 91.3554 390.447 90.893 389.823 90.5489C389.199 90.2049 388.479 90.0328 387.662 90.0328ZM409.186 104.516H407.347L406.541 87.9684H409.992L409.186 104.516ZM406.25 109.258C406.25 108.462 406.444 107.903 406.831 107.581C407.218 107.258 407.691 107.097 408.25 107.097C408.788 107.097 409.25 107.258 409.637 107.581C410.046 107.903 410.25 108.462 410.25 109.258C410.25 110.032 410.046 110.591 409.637 110.935C409.25 111.28 408.788 111.452 408.25 111.452C407.691 111.452 407.218 111.28 406.831 110.935C406.444 110.591 406.25 110.032 406.25 109.258ZM439.074 99.4842C439.074 100.473 438.956 101.441 438.719 102.387C438.504 103.334 438.16 104.194 437.687 104.968C437.214 105.721 436.633 106.333 435.945 106.807C435.257 107.258 434.44 107.484 433.493 107.484C432.504 107.484 431.719 107.204 431.139 106.645C430.58 106.065 430.235 105.409 430.106 104.678H429.945C429.558 105.473 428.988 106.14 428.235 106.678C427.483 107.215 426.537 107.484 425.397 107.484C423.762 107.484 422.494 106.936 421.591 105.839C420.709 104.742 420.268 103.291 420.268 101.484C420.268 100.065 420.548 98.8175 421.107 97.7423C421.666 96.6455 422.451 95.7853 423.461 95.1617C424.494 94.5381 425.709 94.2262 427.106 94.2262C428.053 94.2262 428.977 94.3123 429.881 94.4843C430.805 94.6348 431.526 94.8069 432.042 95.0004L431.719 101.549C431.698 101.936 431.687 102.215 431.687 102.387C431.687 102.538 431.687 102.645 431.687 102.71C431.687 103.828 431.881 104.57 432.268 104.936C432.676 105.301 433.149 105.484 433.687 105.484C434.354 105.484 434.913 105.215 435.364 104.678C435.837 104.118 436.192 103.387 436.429 102.484C436.687 101.559 436.816 100.549 436.816 99.4519C436.816 97.452 436.407 95.7638 435.59 94.3875C434.794 92.9897 433.687 91.9252 432.268 91.1941C430.87 90.4629 429.278 90.0973 427.494 90.0973C425.666 90.0973 424.042 90.3876 422.623 90.9683C421.203 91.5489 420.01 92.3661 419.042 93.4198C418.096 94.4736 417.376 95.7208 416.881 97.1617C416.386 98.581 416.139 100.151 416.139 101.871C416.139 103.979 416.515 105.774 417.268 107.258C418.021 108.72 419.117 109.839 420.558 110.613C422.021 111.366 423.806 111.742 425.913 111.742C427.225 111.742 428.472 111.591 429.655 111.29C430.859 111.011 431.924 110.699 432.848 110.355V112.548C431.924 112.935 430.881 113.247 429.719 113.484C428.58 113.742 427.311 113.871 425.913 113.871C423.375 113.871 421.203 113.398 419.397 112.452C417.591 111.505 416.204 110.151 415.236 108.387C414.29 106.602 413.817 104.463 413.817 101.968C413.817 99.968 414.128 98.1186 414.752 96.4197C415.376 94.6994 416.279 93.2155 417.462 91.9682C418.644 90.6995 420.074 89.721 421.752 89.0328C423.451 88.3232 425.365 87.9684 427.494 87.9684C429.171 87.9684 430.709 88.2372 432.106 88.7748C433.526 89.2909 434.751 90.0543 435.784 91.065C436.837 92.0543 437.644 93.2585 438.203 94.6779C438.784 96.0972 439.074 97.6993 439.074 99.4842ZM422.784 101.549C422.784 102.925 423.053 103.925 423.59 104.549C424.15 105.172 424.891 105.484 425.816 105.484C427.02 105.484 427.881 105.032 428.397 104.129C428.934 103.226 429.246 102.054 429.332 100.613L429.526 96.581C429.246 96.495 428.891 96.4197 428.461 96.3552C428.031 96.2907 427.59 96.2585 427.139 96.2585C426.085 96.2585 425.236 96.5165 424.59 97.0326C423.945 97.5487 423.483 98.2154 423.203 99.0326C422.924 99.8283 422.784 100.667 422.784 101.549ZM455.797 96.9359L454.797 102.097H459.216V104.258H454.377L453.055 111H450.764L452.087 104.258H447.474L446.216 111H443.958L445.184 104.258H441.119V102.097H445.603L446.635 96.9359H442.313V94.8069H447.023L448.313 87.9684H450.635L449.345 94.8069H453.99L455.28 87.9684H457.506L456.216 94.8069H460.313V96.9359H455.797ZM447.893 102.097H452.506L453.506 96.9359H448.893L447.893 102.097ZM468.683 109.419C467.5 109.398 466.349 109.301 465.231 109.129C464.113 108.936 463.21 108.677 462.522 108.355V105.613C463.253 105.957 464.188 106.258 465.328 106.516C466.468 106.774 467.586 106.914 468.683 106.936V100.42C467.629 100.119 466.704 99.796 465.909 99.4519C465.134 99.0863 464.5 98.6777 464.005 98.2261C463.511 97.7745 463.135 97.2584 462.876 96.6778C462.64 96.0757 462.522 95.3875 462.522 94.6133C462.522 93.5596 462.769 92.6564 463.264 91.9037C463.78 91.1511 464.5 90.5597 465.425 90.1296C466.349 89.678 467.435 89.4199 468.683 89.3554V86.5168H470.747V89.3232C471.887 89.3447 472.919 89.4737 473.844 89.7102C474.79 89.9253 475.65 90.1941 476.424 90.5167L475.554 92.9037C474.865 92.6241 474.102 92.3876 473.263 92.194C472.446 91.979 471.607 91.8392 470.747 91.7747V98.2584C472.167 98.667 473.349 99.1078 474.296 99.5809C475.242 100.033 475.951 100.602 476.424 101.291C476.919 101.957 477.166 102.828 477.166 103.903C477.166 105.409 476.607 106.635 475.489 107.581C474.371 108.505 472.79 109.075 470.747 109.29V112.871H468.683V109.419ZM470.747 106.774C472.016 106.645 472.941 106.355 473.521 105.903C474.102 105.43 474.392 104.828 474.392 104.097C474.392 103.559 474.285 103.118 474.07 102.774C473.855 102.409 473.478 102.097 472.941 101.839C472.425 101.581 471.693 101.334 470.747 101.097V106.774ZM468.683 91.8392C467.909 91.8822 467.274 92.022 466.78 92.2586C466.285 92.4736 465.909 92.7639 465.651 93.1295C465.414 93.4951 465.296 93.9144 465.296 94.3875C465.296 94.9467 465.393 95.4305 465.586 95.8391C465.801 96.2262 466.156 96.5595 466.651 96.8391C467.145 97.0971 467.823 97.3337 468.683 97.5487V91.8392ZM484.626 87.6458C486.218 87.6458 487.422 88.2802 488.239 89.549C489.056 90.7962 489.465 92.5596 489.465 94.8391C489.465 97.1186 489.067 98.9035 488.271 100.194C487.497 101.463 486.282 102.097 484.626 102.097C483.616 102.097 482.755 101.807 482.046 101.226C481.336 100.645 480.799 99.8175 480.433 98.7423C480.089 97.6455 479.917 96.3445 479.917 94.8391C479.917 92.5596 480.293 90.7962 481.046 89.549C481.799 88.2802 482.992 87.6458 484.626 87.6458ZM484.626 89.6457C483.809 89.6457 483.207 90.0866 482.82 90.9683C482.454 91.8285 482.272 93.1188 482.272 94.8391C482.272 96.5595 482.454 97.8606 482.82 98.7423C483.207 99.624 483.809 100.065 484.626 100.065C485.465 100.065 486.089 99.6347 486.497 98.7745C486.906 97.8928 487.11 96.581 487.11 94.8391C487.11 93.1188 486.906 91.8285 486.497 90.9683C486.089 90.0866 485.465 89.6457 484.626 89.6457ZM499.368 87.9684L486.594 111H484.11L496.884 87.9684H499.368ZM498.723 96.8713C499.777 96.8713 500.658 97.1617 501.368 97.7423C502.078 98.3014 502.615 99.1186 502.981 100.194C503.368 101.248 503.561 102.538 503.561 104.065C503.561 106.344 503.164 108.129 502.368 109.419C501.594 110.688 500.379 111.323 498.723 111.323C497.712 111.323 496.852 111.032 496.142 110.452C495.433 109.871 494.895 109.043 494.529 107.968C494.185 106.871 494.013 105.57 494.013 104.065C494.013 101.785 494.39 100.022 495.142 98.7745C495.895 97.5057 497.088 96.8713 498.723 96.8713ZM498.723 98.9035C497.906 98.9035 497.303 99.3336 496.916 100.194C496.551 101.054 496.368 102.344 496.368 104.065C496.368 105.807 496.551 107.118 496.916 108C497.303 108.86 497.906 109.29 498.723 109.29C499.561 109.29 500.185 108.86 500.594 108C501.002 107.14 501.207 105.828 501.207 104.065C501.207 102.344 501.002 101.054 500.594 100.194C500.185 99.3336 499.561 98.9035 498.723 98.9035ZM505.724 102.387L512.563 87.8071H514.176L521.724 102.387H519.208L513.402 90.807L508.24 102.387H505.724ZM532.119 87.6135C533.281 87.6135 534.27 87.8178 535.087 88.2264C535.926 88.6135 536.571 89.1726 537.022 89.9038C537.474 90.6349 537.7 91.5274 537.7 92.5811C537.7 93.9359 537.259 95.0864 536.377 96.0327C535.517 96.9789 534.42 97.8391 533.087 98.6132L539.313 104.613C539.872 103.946 540.323 103.183 540.667 102.323C541.033 101.441 541.334 100.495 541.571 99.4842H544.442C544.098 100.86 543.667 102.14 543.151 103.323C542.635 104.506 541.969 105.538 541.151 106.419L545.861 111H542.022L539.216 108.29C538.7 108.742 538.162 109.161 537.603 109.548C537.065 109.914 536.474 110.226 535.829 110.484C535.184 110.742 534.485 110.946 533.732 111.097C533.001 111.247 532.184 111.323 531.281 111.323C529.797 111.323 528.507 111.086 527.41 110.613C526.335 110.118 525.496 109.398 524.894 108.452C524.313 107.505 524.023 106.355 524.023 105C524.023 103.903 524.216 102.957 524.603 102.162C525.012 101.366 525.593 100.656 526.345 100.033C527.098 99.4089 527.98 98.8068 528.99 98.2261C528.539 97.71 528.098 97.1724 527.668 96.6133C527.238 96.0542 526.883 95.452 526.603 94.8069C526.324 94.1402 526.184 93.4198 526.184 92.6456C526.184 91.5919 526.421 90.6887 526.894 89.936C527.367 89.1834 528.044 88.6135 528.926 88.2264C529.829 87.8178 530.894 87.6135 532.119 87.6135ZM530.7 100C529.926 100.452 529.259 100.914 528.7 101.387C528.162 101.839 527.743 102.344 527.442 102.903C527.141 103.463 526.99 104.129 526.99 104.903C526.99 106.086 527.388 107.032 528.184 107.742C528.98 108.452 530.044 108.807 531.377 108.807C532.754 108.807 533.936 108.581 534.926 108.129C535.915 107.678 536.743 107.14 537.41 106.516L530.7 100ZM532.023 89.936C531.119 89.936 530.377 90.1726 529.797 90.6457C529.238 91.1188 528.958 91.7747 528.958 92.6134C528.958 93.3876 529.162 94.108 529.571 94.7746C529.98 95.4198 530.571 96.1402 531.345 96.9359C532.614 96.2047 533.517 95.5165 534.055 94.8714C534.614 94.2047 534.893 93.4413 534.893 92.5811C534.893 91.807 534.635 91.1726 534.119 90.678C533.603 90.1833 532.904 89.936 532.023 89.936ZM555.681 86.4845L555.036 92.6779L561.229 90.936L561.681 93.9037L555.745 94.3875L559.584 99.4842L556.81 101L554.068 95.3553L551.584 101L548.713 99.4842L552.487 94.3875L546.616 93.9037L547.068 90.936L553.197 92.6779L552.519 86.4845H555.681ZM563.706 102.162C563.706 100.398 563.867 98.6777 564.19 97.0004C564.534 95.323 565.06 93.7209 565.77 92.194C566.48 90.6672 567.372 89.2586 568.448 87.9684H571.125C570.136 89.3016 569.297 90.7425 568.609 92.2908C567.942 93.8392 567.437 95.4413 567.093 97.0971C566.749 98.753 566.577 100.43 566.577 102.129C566.577 103.785 566.749 105.43 567.093 107.065C567.437 108.699 567.942 110.269 568.609 111.774C569.275 113.301 570.103 114.742 571.093 116.097H568.448C567.372 114.828 566.48 113.441 565.77 111.935C565.06 110.452 564.534 108.882 564.19 107.226C563.867 105.57 563.706 103.882 563.706 102.162ZM579.828 102.162C579.828 103.882 579.656 105.57 579.312 107.226C578.989 108.882 578.473 110.452 577.764 111.935C577.075 113.441 576.183 114.828 575.086 116.097H572.441C573.43 114.742 574.258 113.301 574.925 111.774C575.592 110.269 576.097 108.699 576.441 107.065C576.785 105.43 576.957 103.785 576.957 102.129C576.957 100.43 576.785 98.753 576.441 97.0971C576.097 95.4413 575.592 93.8392 574.925 92.2908C574.258 90.7425 573.42 89.3016 572.409 87.9684H575.086C576.183 89.2586 577.075 90.6672 577.764 92.194C578.473 93.7209 578.989 95.323 579.312 97.0004C579.656 98.6777 579.828 100.398 579.828 102.162Z" fill="#292929"/>
</svg>
