<svg width="807" height="245" viewBox="0 0 807 245" fill="none" xmlns="http://www.w3.org/2000/svg">
<path d="M54.6228 22.9709C54.6228 16.8918 59.6571 12.6648 66.9711 12.6648C74.0001 12.6648 78.4645 16.5593 78.6545 22.8284H72.5753C72.4328 19.8364 70.2956 18.0791 66.8761 18.0791C63.1241 18.0791 60.7019 19.8838 60.7019 22.781C60.7019 25.2506 62.0317 26.6279 64.9288 27.2928L70.3906 28.4802C76.3273 29.7625 79.2244 32.8021 79.2244 37.9789C79.2244 44.438 74.1901 48.6174 66.5436 48.6174C59.1346 48.6174 54.2903 44.6755 54.1478 38.4538H60.227C60.2745 41.3984 62.6492 43.1557 66.5436 43.1557C70.5806 43.1557 73.1452 41.3984 73.1452 38.5013C73.1452 36.1741 71.9579 34.7968 69.1083 34.1794L63.599 32.9446C57.7098 31.6622 54.6228 28.2902 54.6228 22.9709ZM89.9008 48.6174C84.914 48.6174 81.8744 45.7203 81.8744 41.3034C81.8744 36.9815 85.0089 34.2744 90.5657 33.8469L97.5947 33.3245V32.8021C97.5947 29.62 95.695 28.3377 92.7504 28.3377C89.3309 28.3377 87.4311 29.7625 87.4311 32.2322H82.4918C82.4918 27.1504 86.6712 23.8258 93.0354 23.8258C99.352 23.8258 103.246 27.2453 103.246 33.7519V48H98.1646L97.7372 44.533C96.7398 46.9551 93.5578 48.6174 89.9008 48.6174ZM91.8005 44.248C95.3625 44.248 97.6422 42.1108 97.6422 38.5013V37.2665L92.7504 37.6464C89.1409 37.9789 87.7636 39.1662 87.7636 41.0659C87.7636 43.2032 89.1884 44.248 91.8005 44.248ZM115.643 48H109.849V29.3825H105.337V24.5382H109.849V17.2242H115.643V24.5382H120.202V29.3825H115.643V48ZM121.245 36.2216C121.245 28.9076 126.517 23.8733 133.784 23.8733C141.05 23.8733 146.322 28.9076 146.322 36.2216C146.322 43.5356 141.05 48.5699 133.784 48.5699C126.517 48.5699 121.245 43.5356 121.245 36.2216ZM127.04 36.2216C127.04 40.496 129.794 43.3931 133.784 43.3931C137.773 43.3931 140.528 40.496 140.528 36.2216C140.528 31.9472 137.773 29.0501 133.784 29.0501C129.794 29.0501 127.04 31.9472 127.04 36.2216ZM148.16 40.876H153.669C153.717 42.9182 155.237 44.2005 157.896 44.2005C160.603 44.2005 162.076 43.1082 162.076 41.3984C162.076 40.2111 161.458 39.3562 159.369 38.8812L155.142 37.8839C150.915 36.934 148.872 34.9393 148.872 31.1873C148.872 26.5804 152.767 23.8258 158.181 23.8258C163.453 23.8258 167.015 26.8654 167.062 31.4248H161.553C161.506 29.43 160.176 28.1477 157.944 28.1477C155.664 28.1477 154.334 29.1926 154.334 30.9498C154.334 32.2797 155.379 33.1345 157.374 33.6095L161.601 34.6068C165.543 35.5092 167.537 37.314 167.537 40.9235C167.537 45.6728 163.5 48.6174 157.706 48.6174C151.865 48.6174 148.16 45.4828 148.16 40.876ZM176.793 48H170.999V12.6648H176.841V27.5778C178.313 25.2981 181.068 23.8258 184.44 23.8258C190.234 23.8258 193.274 27.4828 193.274 33.562V48H187.48V34.9393C187.48 30.9973 185.532 29.0976 182.588 29.0976C178.931 29.0976 176.793 31.6622 176.793 35.1768V48ZM200.914 19.8364C198.919 19.8364 197.352 18.2691 197.352 16.3218C197.352 14.3746 198.919 12.8548 200.914 12.8548C202.814 12.8548 204.381 14.3746 204.381 16.3218C204.381 18.2691 202.814 19.8364 200.914 19.8364ZM198.017 48V24.5382H203.811V48H198.017ZM62.4117 107L53.103 83.5382H59.2771L63.3616 94.3192C64.3589 97.1214 65.1663 99.5435 65.4513 100.826C65.7837 99.3535 66.6386 96.8839 67.636 94.3192L71.9104 83.5382H77.8946L68.1109 107H62.4117ZM86.0976 107.617C81.1108 107.617 78.0712 104.72 78.0712 100.303C78.0712 95.9815 81.2058 93.2744 86.7625 92.8469L93.7915 92.3245V91.8021C93.7915 88.62 91.8918 87.3377 88.9472 87.3377C85.5277 87.3377 83.6279 88.7625 83.6279 91.2322H78.6886C78.6886 86.1504 82.868 82.8258 89.2322 82.8258C95.5488 82.8258 99.4433 86.2453 99.4433 92.7519V107H94.3615L93.934 103.533C92.9367 105.955 89.7546 107.617 86.0976 107.617ZM87.9973 103.248C91.5593 103.248 93.839 101.111 93.839 97.5013V96.2665L88.9472 96.6464C85.3377 96.9789 83.9604 98.1662 83.9604 100.066C83.9604 102.203 85.3852 103.248 87.9973 103.248ZM118.909 83.4432V88.81H116.771C112.592 88.81 109.98 91.0422 109.98 95.6016V107H104.186V83.5857H109.647L109.98 87.0052C110.977 84.6781 113.209 83.1108 116.344 83.1108C117.151 83.1108 117.959 83.2058 118.909 83.4432ZM124.778 78.8364C122.783 78.8364 121.216 77.2691 121.216 75.3218C121.216 73.3746 122.783 71.8548 124.778 71.8548C126.677 71.8548 128.245 73.3746 128.245 75.3218C128.245 77.2691 126.677 78.8364 124.778 78.8364ZM121.881 107V83.5382H127.675V107H121.881ZM139.693 107.617C134.706 107.617 131.666 104.72 131.666 100.303C131.666 95.9815 134.801 93.2744 140.358 92.8469L147.387 92.3245V91.8021C147.387 88.62 145.487 87.3377 142.542 87.3377C139.123 87.3377 137.223 88.7625 137.223 91.2322H132.284C132.284 86.1504 136.463 82.8258 142.827 82.8258C149.144 82.8258 153.039 86.2453 153.039 92.7519V107H147.957L147.529 103.533C146.532 105.955 143.35 107.617 139.693 107.617ZM141.593 103.248C145.155 103.248 147.434 101.111 147.434 97.5013V96.2665L142.542 96.6464C138.933 96.9789 137.556 98.1662 137.556 100.066C137.556 102.203 138.98 103.248 141.593 103.248ZM163.148 107H157.781V71.6648H163.575V86.9577C165.095 84.3456 168.229 82.7783 171.791 82.7783C178.488 82.7783 182.572 88.0026 182.572 95.4116C182.572 102.631 178.156 107.617 171.411 107.617C167.897 107.617 164.905 106.05 163.528 103.343L163.148 107ZM163.623 95.1741C163.623 99.401 166.235 102.298 170.224 102.298C174.309 102.298 176.731 99.3535 176.731 95.1741C176.731 90.9947 174.309 88.0026 170.224 88.0026C166.235 88.0026 163.623 90.9472 163.623 95.1741ZM192.078 107H186.331V71.6648H192.078V107ZM207.702 107.617C200.721 107.617 195.829 102.536 195.829 95.2691C195.829 87.9076 200.626 82.8258 207.512 82.8258C214.541 82.8258 219.006 87.5277 219.006 94.8417V96.5989L201.338 96.6464C201.765 100.778 203.95 102.868 207.797 102.868C210.979 102.868 213.069 101.633 213.734 99.401H219.101C218.103 104.53 213.829 107.617 207.702 107.617ZM207.56 87.5752C204.14 87.5752 202.05 89.4274 201.48 92.9419H213.259C213.259 89.7124 211.027 87.5752 207.56 87.5752Z" fill="#EE4B3C"/>
<path d="M257.361 32H254.132L262.491 9.10813H265.942L274.332 32H271.071L269.013 26.3008H259.388L257.361 32ZM263.821 14.0475L260.338 23.6095H268.095L264.58 14.0475C264.422 13.6042 264.264 13.0659 264.201 12.7176C264.137 13.0343 263.979 13.5725 263.821 14.0475ZM276.742 32V9.10813H285.481C289.945 9.10813 292.668 11.3878 292.668 15.1556C292.668 17.7836 291.529 19.5567 289.249 20.5066C291.782 21.3298 293.08 23.1662 293.08 25.8892C293.08 29.6886 290.325 32 285.798 32H276.742ZM285.291 11.8628H279.845V19.2084H285.481C288.046 19.2084 289.502 17.8153 289.502 15.4406C289.502 13.1609 287.982 11.8628 285.291 11.8628ZM285.734 21.8997H279.845V29.2454H285.734C288.394 29.2454 289.882 27.8839 289.882 25.5092C289.882 23.2295 288.362 21.8997 285.734 21.8997ZM305.83 32.3483C299.307 32.3483 294.969 27.6623 294.969 20.5699C294.969 13.5092 299.434 8.72819 305.988 8.72819C311.149 8.72819 315.107 11.7994 315.962 16.4855H312.637C311.782 13.5092 309.217 11.7044 305.893 11.7044C301.27 11.7044 298.231 15.1873 298.231 20.5382C298.231 25.8892 301.27 29.372 305.893 29.372C309.249 29.372 311.909 27.5673 312.764 24.7493H316.056C315.075 29.3087 310.991 32.3483 305.83 32.3483ZM326.795 32H319.228V9.10813H326.669C333.508 9.10813 338.13 13.7308 338.13 20.5699C338.13 27.3773 333.571 32 326.795 32ZM326.447 11.9577H322.331V29.1187H326.574C331.671 29.1187 334.901 25.8258 334.901 20.5699C334.901 15.2506 331.671 11.9577 326.447 11.9577ZM355.408 32H341.445V9.10813H355.408V11.9577H344.548V19.1134H354.331V21.8681H344.548V29.1187H355.408V32ZM371.366 22.2797H362.374V32H359.271V9.10813H373.076V11.9577H362.374V19.4617H371.366V22.2797ZM386.016 11.6411C381.076 11.6411 378.1 15.2823 378.1 20.6965C378.1 26.2375 381.33 29.4354 386.047 29.4354C389.942 29.4354 393.076 27.4406 393.076 22.8179V22.153H385.414V19.3984H395.989V32.0317H393.393L393.171 28.9288C391.937 30.9235 389.15 32.3799 385.794 32.3799C379.303 32.3799 374.839 27.6939 374.839 20.6332C374.839 13.6675 379.335 8.72819 386.079 8.72819C391.082 8.72819 394.976 11.6095 395.736 16.0105H392.443C391.588 13.0976 389.055 11.6411 386.016 11.6411ZM402.881 32H399.778V9.10813H402.881V18.9551H414.216V9.10813H417.319V32H414.216V21.8364H402.881V32ZM425.097 9.10813V32H421.994V9.10813H425.097ZM427.776 25.6359V24.496H430.784V25.6359C430.784 27.8839 432.019 29.4987 434.552 29.4987C437.148 29.4987 438.288 27.9156 438.288 25.5409V9.10813H441.391V25.6675C441.391 29.7836 438.636 32.3799 434.552 32.3799C430.182 32.3799 427.776 29.5937 427.776 25.6359ZM449.031 9.10813V22.0897L459.226 9.10813H462.931L455.268 18.8285L463.057 32H459.448L453.21 21.4564L449.031 26.7441V32H445.928V9.10813H449.031ZM468.743 9.10813V29.1187H478.812V32H465.64V9.10813H468.743ZM484.589 32H481.549V9.10813H484.589L492.473 28.3588L500.357 9.10813H503.46V32H500.42V22.9446C500.42 18.6702 500.452 17.1187 500.61 15.5039L493.929 32H491.016L484.367 15.5672C484.526 16.6754 484.589 19.0184 484.589 22.2163V32ZM511.26 32H508.157V9.10813H511.26L522.975 26.8074V9.10813H526.078V32H522.975L511.26 14.3008V32ZM551.419 20.5382C551.419 27.5039 546.86 32.3799 540.369 32.3799C533.91 32.3799 529.414 27.5039 529.414 20.5382C529.414 13.6042 533.942 8.69652 540.401 8.69652C546.892 8.69652 551.419 13.5725 551.419 20.5382ZM548.158 20.5382C548.158 15.219 545.055 11.7044 540.401 11.7044C535.747 11.7044 532.675 15.219 532.675 20.5382C532.675 25.8575 535.747 29.4037 540.401 29.4037C545.055 29.4037 548.158 25.8258 548.158 20.5382ZM563.652 23.8311H557.858V32H554.755V9.10813H563.652C568.148 9.10813 571.029 12.0527 571.029 16.4538C571.029 20.7282 568.116 23.8311 563.652 23.8311ZM563.114 11.8944H557.858V21.0448H562.987C566.058 21.0448 567.768 19.2401 567.768 16.4221C567.768 13.5409 566.027 11.8944 563.114 11.8944ZM591.958 33.5198L589.488 30.7335C587.779 31.7784 585.752 32.3799 583.504 32.3799C577.045 32.3799 572.549 27.5039 572.549 20.5382C572.549 13.6042 577.077 8.69652 583.536 8.69652C590.027 8.69652 594.554 13.5725 594.554 20.5382C594.554 23.9578 593.446 26.8707 591.578 28.9604L593.985 31.6834L591.958 33.5198ZM591.293 20.5382C591.293 15.219 588.19 11.7044 583.536 11.7044C578.882 11.7044 575.81 15.219 575.81 20.5382C575.81 25.8575 578.882 29.4037 583.536 29.4037C584.992 29.4037 586.291 29.0554 587.399 28.3905L584.391 25.0026L586.417 23.1662L589.457 26.5857C590.628 25.0659 591.293 22.9762 591.293 20.5382ZM600.993 32H597.89V9.10813H606.534C611.441 9.10813 614.354 11.7044 614.354 15.9789C614.354 19.1451 612.771 21.4248 609.922 22.343L614.576 32H611.125L606.85 22.9446H600.993V32ZM600.993 11.8944V20.1899H606.565C609.447 20.1899 611.093 18.6385 611.093 16.0105C611.093 13.3509 609.383 11.8944 606.534 11.8944H600.993ZM616.643 15.2823C616.643 11.3562 619.81 8.69652 624.527 8.69652C628.897 8.69652 631.715 11.1345 631.968 15.0923H628.833C628.675 12.8126 627.06 11.4828 624.496 11.4828C621.614 11.4828 619.746 12.9393 619.746 15.1873C619.746 17.0237 620.791 18.1319 622.944 18.6385L626.712 19.525C630.448 20.3799 632.348 22.4063 632.348 25.6359C632.348 29.752 629.15 32.3799 624.274 32.3799C619.62 32.3799 616.517 29.9419 616.327 26.0158H619.493C619.556 28.2005 621.393 29.5937 624.274 29.5937C627.314 29.5937 629.245 28.1689 629.245 25.8892C629.245 24.0844 628.263 22.9446 626.079 22.438L622.311 21.5831C618.575 20.7282 616.643 18.5752 616.643 15.2823ZM633.088 11.9577V9.10813H649.964V11.9577H643.093V32H639.991V11.9577H633.088ZM652.292 23.8628V9.10813H655.395V23.6728C655.395 27.3456 657.421 29.372 661.063 29.372C664.672 29.372 666.667 27.314 666.667 23.6728V9.10813H669.801V23.8628C669.801 29.1187 666.445 32.3799 661.063 32.3799C655.648 32.3799 652.292 29.1504 652.292 23.8628ZM680.691 32L671.984 9.10813H675.309L680.881 23.7361C681.388 25.0343 681.831 26.3324 682.306 28.0422C682.844 26.2375 683.383 24.7177 683.763 23.7045L689.303 9.10813H692.533L683.921 32H680.691ZM699.497 32L692.69 9.10813H695.919L700.099 23.1029C700.415 24.3061 700.732 25.5092 701.048 27.2506C701.428 25.4142 701.777 24.3061 702.125 23.1029L706.463 9.10813H709.819L714.125 23.1029C714.505 24.3377 714.822 25.5409 715.17 27.2506C715.55 25.3192 715.866 24.1477 716.183 23.1345L720.394 9.10813H723.56L716.658 32H713.682L708.141 13.8891L702.537 32H699.497ZM731.757 20.5699L723.937 9.10813H727.641L731.219 14.2058C732.232 15.6939 732.992 16.9604 733.657 18.2269L739.704 9.10813H743.282L735.62 20.5382L743.377 32H739.704L736.19 26.9657C735.303 25.6675 734.449 24.2744 733.689 22.9446L727.546 32H723.905L731.757 20.5699ZM751.246 22.6913L743.489 9.10813H746.972L752.07 18.2585C752.386 18.7968 752.576 19.2401 752.829 19.7783C753.114 19.2084 753.178 19.0184 753.589 18.2585L758.655 9.10813H762.043L754.349 22.6913V32H751.246V22.6913ZM779.06 32H762.881V29.1187L775.166 11.9577H763.071V9.10813H779.028V11.8944L766.648 29.1187H779.06V32ZM260.433 72.3799C257.108 72.3799 255.145 70.5119 255.145 67.6939C255.145 64.8443 257.266 63.0712 260.908 62.7863L265.784 62.4063V61.963C265.784 59.3667 264.232 58.4485 262.142 58.4485C259.641 58.4485 258.216 59.5567 258.216 61.4248H255.62C255.62 58.1952 258.28 56.0738 262.269 56.0738C266.1 56.0738 268.697 58.1002 268.697 62.2797V72H266.164L265.847 69.4987C265.055 71.2718 262.934 72.3799 260.433 72.3799ZM261.288 70.0686C264.106 70.0686 265.815 68.2322 265.815 65.3192V64.496L261.858 64.8127C259.23 65.0659 258.153 66.0791 258.153 67.5989C258.153 69.2454 259.356 70.0686 261.288 70.0686ZM274.876 72H272.185V48.6965H275.161V59.1768C276.175 57.1504 278.264 56.0738 280.797 56.0738C285.23 56.0738 287.89 59.5567 287.89 64.3377C287.89 69.0237 285.103 72.3799 280.607 72.3799C278.169 72.3799 276.111 71.3034 275.098 69.1821L274.876 72ZM275.193 64.2111C275.193 67.4406 277.029 69.6886 280.069 69.6886C283.109 69.6886 284.913 67.409 284.913 64.2111C284.913 61.0448 283.109 58.7651 280.069 58.7651C277.029 58.7651 275.193 61.0448 275.193 64.2111ZM289.524 64.2744C289.524 59.4301 292.595 56.0738 297.123 56.0738C301.017 56.0738 303.74 58.2902 304.278 61.7414H301.302C300.796 59.7783 299.212 58.7335 297.218 58.7335C294.4 58.7335 292.468 60.8865 292.468 64.2427C292.468 67.5673 294.273 69.7203 297.091 69.7203C299.212 69.7203 300.796 68.6121 301.334 66.7757H304.31C303.708 70.1319 300.827 72.3799 297.091 72.3799C292.532 72.3799 289.524 69.1504 289.524 64.2744ZM313.023 72.3799C308.527 72.3799 305.804 69.0237 305.804 64.3061C305.804 59.5567 308.558 56.0738 313.149 56.0738C315.524 56.0738 317.519 57.1187 318.564 59.0184V48.6965H321.508V72H318.849L318.595 69.1821C317.582 71.3034 315.493 72.3799 313.023 72.3799ZM313.624 69.6886C316.664 69.6886 318.532 67.4406 318.532 64.2111C318.532 61.0448 316.664 58.7651 313.624 58.7651C310.585 58.7651 308.812 61.0448 308.812 64.2111C308.812 67.409 310.585 69.6886 313.624 69.6886ZM331.85 72.3799C327.29 72.3799 324.156 69.0871 324.156 64.2744C324.156 59.4301 327.227 56.0738 331.723 56.0738C336.124 56.0738 339.005 59.1134 339.005 63.7045V64.8127L327.037 64.8443C327.259 68.1055 328.968 69.9103 331.913 69.9103C334.224 69.9103 335.744 68.9604 336.251 67.1873H339.037C338.277 70.5119 335.681 72.3799 331.85 72.3799ZM331.723 58.5752C329.127 58.5752 327.48 60.1266 327.1 62.8496H336.029C336.029 60.2849 334.351 58.5752 331.723 58.5752ZM340.05 56.5171H342.33V54.0475C342.33 50.248 344.419 48.6965 347.237 48.6965C347.807 48.6965 348.472 48.7282 349.074 48.8232V51.3878H347.744C345.812 51.3878 345.306 52.3694 345.306 54.0475V56.5171H348.979V59.0184H345.306V72H342.33V59.0184H340.05V56.5171ZM349.667 63.8628C349.667 59.4934 352.485 56.0738 356.981 56.0738C359.482 56.0738 361.414 57.2137 362.395 59.1451L362.617 56.5171H365.276V71.3668C365.276 76.2428 362.268 79.3457 357.519 79.3457C353.308 79.3457 350.427 76.971 349.857 73.0449H352.833C353.213 75.3245 354.923 76.6544 357.519 76.6544C360.432 76.6544 362.332 74.7546 362.332 71.81V68.7071C361.319 70.5119 359.292 71.5884 356.854 71.5884C352.453 71.5884 349.667 68.2005 349.667 63.8628ZM352.643 63.7995C352.643 66.7124 354.448 68.9921 357.361 68.9921C360.369 68.9921 362.205 66.839 362.205 63.7995C362.205 60.8232 360.432 58.6702 357.392 58.6702C354.416 58.6702 352.643 60.9498 352.643 63.7995ZM371.915 71.9683H368.938V48.6965H371.915V58.8918C372.896 57.2137 374.764 56.0738 377.17 56.0738C381.128 56.0738 383.028 58.5752 383.028 62.533V72H380.052V63.1979C380.052 60.0633 378.564 58.7968 376.347 58.7968C373.466 58.7968 371.915 60.8865 371.915 63.5462V71.9683ZM387.974 52.8443C386.897 52.8443 386.01 51.9577 386.01 50.8812C386.01 49.773 386.897 48.9182 387.974 48.9182C389.05 48.9182 389.937 49.773 389.937 50.8812C389.937 51.9577 389.05 52.8443 387.974 52.8443ZM386.517 72V56.5171H389.493V72H386.517ZM394.669 52.8443C393.561 52.8443 392.706 51.9577 392.706 50.8812C392.706 49.773 393.561 48.9182 394.669 48.9182C395.714 48.9182 396.632 49.773 396.632 50.8812C396.632 51.9577 395.714 52.8443 394.669 52.8443ZM389.255 79.029L389.761 76.3377C390.363 76.4961 390.711 76.5594 391.186 76.5594C392.611 76.5594 393.181 75.7362 393.181 73.9947V56.5171H396.157V74.2797C396.157 77.3826 394.447 79.314 391.44 79.314C390.648 79.314 390.141 79.2823 389.255 79.029ZM402.885 72H399.908V48.6965H402.885V63.7995L409.755 56.5171H413.491L407.571 62.6913L413.46 72H410.04L405.512 64.8443L402.885 67.5989V72ZM418.33 72H415.354V48.6965H418.33V72ZM425.054 72H422.078V56.5171H424.737L425.022 58.5435C425.814 57.087 427.46 56.0738 429.645 56.0738C432.051 56.0738 433.761 57.277 434.553 59.2084C435.281 57.277 437.149 56.0738 439.555 56.0738C443.102 56.0738 445.255 58.2902 445.255 61.8681V72H442.342V62.5963C442.342 60.1583 440.98 58.7651 438.891 58.7651C436.642 58.7651 435.154 60.3483 435.154 62.8179V72H432.21V62.5646C432.21 60.1266 430.88 58.7968 428.79 58.7968C426.542 58.7968 425.054 60.3483 425.054 62.8179V72ZM451.723 72H448.747V56.5171H451.438L451.755 58.8918C452.737 57.1187 454.7 56.0738 456.884 56.0738C460.969 56.0738 462.837 58.5752 462.837 62.533V72H459.861V63.1979C459.861 60.0633 458.404 58.7968 456.124 58.7968C453.338 58.7968 451.723 60.7915 451.723 63.7995V72ZM465.313 64.2427C465.313 59.4617 468.732 56.1055 473.387 56.1055C478.009 56.1055 481.429 59.4617 481.429 64.2427C481.429 69.0237 478.009 72.3799 473.387 72.3799C468.732 72.3799 465.313 69.0237 465.313 64.2427ZM468.321 64.2427C468.321 67.4723 470.379 69.7203 473.387 69.7203C476.363 69.7203 478.453 67.4723 478.453 64.2427C478.453 61.0132 476.363 58.7651 473.387 58.7651C470.379 58.7651 468.321 61.0132 468.321 64.2427ZM484.09 78.9341V56.5171H486.782L487.003 59.3034C488.048 57.182 490.138 56.0738 492.607 56.0738C497.04 56.0738 499.795 59.3984 499.795 64.1477C499.795 68.8654 497.198 72.4116 492.607 72.4116C490.138 72.4116 488.08 71.3668 487.066 69.467V78.9341H484.09ZM487.098 64.2744C487.098 67.4406 488.935 69.7203 491.974 69.7203C495.014 69.7203 496.818 67.4406 496.818 64.2744C496.818 61.0765 495.014 58.7968 491.974 58.7968C488.935 58.7968 487.098 61.0448 487.098 64.2744ZM501.429 64.1477C501.429 59.3984 504.215 56.0738 508.648 56.0738C511.086 56.0738 513.207 57.182 514.22 59.3034L514.474 56.5171H517.133V78.9341H514.189V69.467C513.144 71.3668 511.086 72.4116 508.616 72.4116C504.057 72.4116 501.429 68.8654 501.429 64.1477ZM504.437 64.2744C504.437 67.4406 506.21 69.7203 509.249 69.7203C512.289 69.7203 514.157 67.4406 514.157 64.2744C514.157 61.0448 512.289 58.7968 509.249 58.7968C506.21 58.7968 504.437 61.0765 504.437 64.2744ZM529.659 56.3905V59.1134H528.329C525.511 59.1134 523.77 60.8232 523.77 63.7995V72H520.794V56.5488H523.58L523.77 58.8918C524.403 57.277 525.955 56.2005 528.076 56.2005C528.614 56.2005 529.058 56.2638 529.659 56.3905ZM530.551 67.5039H533.401C533.401 69.0871 534.604 70.0369 536.567 70.0369C538.657 70.0369 539.86 69.1821 539.86 67.7572C539.86 66.7124 539.353 66.0791 537.738 65.6675L535.015 65.0343C532.261 64.3694 530.963 63.0079 530.963 60.7282C530.963 57.8786 533.369 56.0738 536.788 56.0738C540.176 56.0738 542.393 57.9736 542.456 60.9182H539.606C539.543 59.3667 538.498 58.3852 536.693 58.3852C534.825 58.3852 533.781 59.2084 533.781 60.6332C533.781 61.6781 534.54 62.3747 536.06 62.7546L538.783 63.4195C541.411 64.0528 542.709 65.2559 542.709 67.5673C542.709 70.5119 540.176 72.3799 536.503 72.3799C532.862 72.3799 530.551 70.4485 530.551 67.5039ZM549.746 72H546.77V59.0184H543.73V56.5171H546.77V51.6728H549.746V56.5171H552.786V59.0184H549.746V72ZM565.525 56.5171H568.47V72H565.81L565.494 69.657C564.607 71.2718 562.549 72.3799 560.269 72.3799C556.66 72.3799 554.633 69.9419 554.633 66.1425V56.5171H557.61V65.1609C557.61 68.4855 559.034 69.752 561.314 69.752C564.037 69.752 565.525 68.0105 565.525 64.686V56.5171ZM576.493 72L570.255 56.5171H573.421L576.809 65.1609C577.347 66.6174 577.791 67.9156 578.044 68.8654C578.297 67.8522 578.804 66.5224 579.342 65.1609L582.793 56.5171H585.896L579.437 72H576.493ZM590.956 72L585.89 56.5171H588.961L591.525 64.5594C591.874 65.6992 592.19 66.8707 592.475 68.2322C592.729 66.8707 593.14 65.5725 593.489 64.5594L596.085 56.5171H599.124L601.689 64.5594C601.942 65.3192 602.449 67.124 602.702 68.2322C602.956 66.9974 603.241 65.9208 603.684 64.5594L606.28 56.5171H609.383L604.095 72H601.277L598.586 63.7045C598.08 62.153 597.763 60.9498 597.605 60.095C597.446 60.8549 597.161 61.8681 596.591 63.7361L593.9 72H590.956ZM613.193 72H609.774L615.188 64.3377L609.806 56.5171H613.257L617.183 62.2797L621.014 56.5171H624.402L619.019 64.3377L624.307 72H620.856L616.993 66.3324L613.193 72ZM625.073 78.9341V76.4961H627.067C628.492 76.4961 629.632 76.2744 630.36 74.3114L630.899 72.8232L624.661 56.5171H627.796L632.292 68.9921L636.883 56.5171H639.954L632.64 75.4829C631.595 78.1425 630.044 79.2507 627.669 79.2507C626.687 79.2507 625.864 79.124 625.073 78.9341ZM652.81 72H640.747V69.5937L649.106 59.0184H640.747V56.5171H652.81V58.9551L644.388 69.4987H652.81V72ZM255.303 99.5699C255.303 92.4775 258.976 87.6649 264.739 87.6649C270.47 87.6649 274.142 92.4775 274.142 99.5699C274.142 106.694 270.628 111.412 264.739 111.412C258.818 111.412 255.303 106.694 255.303 99.5699ZM258.375 99.5699C258.375 105.206 260.718 108.625 264.739 108.625C268.76 108.625 271.071 105.206 271.071 99.5699C271.071 93.8707 268.76 90.4511 264.739 90.4511C260.718 90.4511 258.375 93.8707 258.375 99.5699ZM280.993 90.8944H276.18V88.1081H283.969V111H280.993V90.8944ZM302.88 110.968L287.429 111V108.625L294.806 102.261C298.51 99.0633 299.555 97.5118 299.555 95.0738C299.555 92.1926 297.909 90.4828 295.154 90.4828C292.336 90.4828 290.5 92.5409 290.436 95.8021H287.334C287.429 90.8944 290.531 87.6965 295.186 87.6965C299.777 87.6965 302.721 90.4828 302.721 94.8839C302.721 98.1451 301.107 100.456 297.054 103.971L292.305 108.087H302.88V110.968ZM311.78 99.1583H309.5V97.1002L315.991 90.8628H305.701V88.1081H319.917V90.6095L313.648 96.5936C317.543 97.0686 320.487 99.6965 320.487 103.813C320.487 108.435 317.004 111.38 312.35 111.38C307.854 111.38 304.624 108.625 304.624 103.876H307.696C307.696 106.852 309.532 108.594 312.413 108.594C315.39 108.594 317.321 106.694 317.321 103.749C317.321 100.995 315.421 99.1583 311.78 99.1583ZM339.623 106.377H336.9V111H333.924V106.377H322.082V103.623L332.879 88.1081H336.9V103.623H339.623V106.377ZM325.439 103.623H333.924V91.401L325.439 103.623ZM349.407 111.38C344.721 111.38 341.681 108.404 341.681 103.844H344.753C344.753 106.789 346.557 108.594 349.47 108.594C352.573 108.594 354.568 106.536 354.568 103.433C354.568 100.488 352.7 98.3034 349.502 98.3034C347.571 98.3034 345.798 99.2216 344.753 100.52L342.125 99.8549L344.911 88.1081H356.373V90.9577H347.159L345.639 97.0369C346.842 96.1187 348.362 95.6438 350.072 95.6438C354.726 95.6438 357.734 98.905 357.734 103.306C357.734 108.055 354.346 111.38 349.407 111.38ZM362.7 95.3588L368.05 88.1081H371.66L365.929 95.7071C366.721 95.3905 367.544 95.2322 368.335 95.2322C373.085 95.2322 376.283 98.6517 376.283 103.179C376.283 107.96 372.673 111.38 367.956 111.38C363.206 111.38 359.533 107.802 359.533 103.179C359.533 100.456 360.357 98.5567 362.7 95.3588ZM362.7 103.211C362.7 106.346 364.853 108.594 367.956 108.594C370.995 108.594 373.148 106.346 373.148 103.211C373.148 100.076 370.995 97.8601 367.956 97.8601C364.853 97.8601 362.7 100.076 362.7 103.211ZM375.449 88.1081H391.438V90.9577L382.763 111H379.533L388.304 90.9577H375.449V88.1081ZM392.191 104.636C392.191 101.881 393.806 99.6649 396.339 98.7467C394.186 97.8285 393.014 96.0237 393.014 93.7124C393.014 90.1345 396.085 87.6965 400.645 87.6965C405.141 87.6965 408.18 90.1345 408.18 93.744C408.18 96.087 406.977 97.8918 404.824 98.7467C407.389 99.5699 409.035 101.85 409.035 104.668C409.035 108.689 405.679 111.38 400.613 111.38C395.515 111.38 392.191 108.689 392.191 104.636ZM395.864 93.9023C395.864 96.1504 397.732 97.6068 400.581 97.6068C403.463 97.6068 405.267 96.182 405.267 93.9657C405.267 91.781 403.463 90.3878 400.581 90.3878C397.732 90.3878 395.864 91.781 395.864 93.9023ZM395.23 104.414C395.23 106.979 397.352 108.625 400.613 108.625C403.843 108.625 405.964 106.979 405.964 104.414C405.964 101.881 403.874 100.266 400.581 100.266C397.32 100.266 395.23 101.881 395.23 104.414ZM424.74 103.749L419.389 111H415.779L421.51 103.401C420.719 103.718 419.895 103.876 419.104 103.876C414.354 103.876 411.157 100.456 411.157 95.8971C411.157 91.1477 414.766 87.6965 419.484 87.6965C424.233 87.6965 427.906 91.2744 427.906 95.9287C427.906 98.62 427.083 100.551 424.74 103.749ZM424.74 95.8971C424.74 92.7625 422.587 90.4828 419.484 90.4828C416.444 90.4828 414.291 92.7625 414.291 95.8971C414.291 99.0316 416.444 101.248 419.484 101.248C422.587 101.248 424.74 99.0316 424.74 95.8971ZM442.4 104.129H440.088C439.772 101.755 439.55 97.5435 439.55 93.4274V88.1081H442.97V93.4274C442.97 97.6068 442.716 101.786 442.4 104.129ZM441.26 111.443C439.994 111.443 438.98 110.43 438.98 109.195C438.98 107.96 439.994 106.947 441.26 106.947C442.463 106.947 443.508 107.96 443.508 109.195C443.508 110.43 442.463 111.443 441.26 111.443ZM453.48 103.971C453.48 101.438 455.38 99.7282 458.799 99.4749L463.264 99.1266V98.715C463.264 96.5936 462.124 95.5171 459.907 95.5171C457.628 95.5171 456.33 96.4987 456.33 98.2084H453.923C453.923 95.2638 456.33 93.3324 460.002 93.3324C463.77 93.3324 465.955 95.3905 465.955 99V104.509C465.955 105.744 466.556 106.346 467.76 106.346C469.691 106.346 471.021 103.939 471.021 100.393C471.021 94.124 466.43 89.6596 459.971 89.6596C453.638 89.6596 448.794 94.5672 448.794 100.963C448.794 107.454 453.607 112.361 459.971 112.361C462.472 112.361 464.878 111.538 466.873 110.018L467.886 111.728C465.638 113.438 462.915 114.325 459.971 114.325C452.403 114.325 446.673 108.594 446.673 100.963C446.673 93.4274 452.435 87.6965 459.971 87.6965C467.633 87.6965 473.142 93.0158 473.142 100.393C473.142 105.047 470.831 108.245 467.443 108.245C465.258 108.245 463.897 107.264 463.58 105.459C462.82 107.169 460.826 108.245 458.451 108.245C455.38 108.245 453.48 106.599 453.48 103.971ZM456.235 103.876C456.235 105.332 457.248 106.092 459.116 106.092C461.712 106.092 463.295 104.478 463.295 101.786V101.058L459.654 101.375C457.311 101.565 456.235 102.388 456.235 103.876ZM475.86 101.85H479.026L479.913 97.2585H476.24L476.81 94.4723H480.482L481.717 88.1081H484.662L483.427 94.4723H488.271L489.506 88.1081H492.482L491.248 94.4723H494.509L493.971 97.2585H490.678L489.791 101.85H493.337L492.799 104.636H489.221L487.986 111H485.042L486.277 104.636H481.401L480.166 111H477.221L478.456 104.636H475.29L475.86 101.85ZM481.971 101.85H486.815L487.733 97.2585H482.857L481.971 101.85ZM503.447 114.071V111.348C499.267 111.095 496.513 108.72 496.323 105.016H499.489C499.552 107.042 501.04 108.372 503.447 108.625V100.741L502.307 100.488C498.571 99.6332 496.639 97.5435 496.639 94.2823C496.639 90.6728 499.331 88.1081 503.447 87.7598V85.0052H505.473V87.7282C509.304 88.0765 511.742 90.4195 511.964 94.0923H508.893C508.766 92.0659 507.531 90.7678 505.473 90.4828V98.3351L506.708 98.62C510.507 99.4749 512.344 101.47 512.344 104.636C512.344 108.404 509.653 110.937 505.473 111.317V114.071H503.447ZM502.94 97.7335L503.447 97.8601V90.4828C501.104 90.7994 499.679 92.1609 499.679 94.1873C499.679 96.0237 500.724 97.1952 502.94 97.7335ZM506.075 101.375L505.473 101.248V108.562C507.848 108.245 509.304 106.884 509.304 104.889C509.304 103.053 508.259 101.881 506.075 101.375ZM525.837 93.5224C525.837 96.9103 523.43 99.3483 520.043 99.3483C516.686 99.3483 514.28 96.9103 514.28 93.5224C514.28 90.1029 516.686 87.6649 520.043 87.6649C523.43 87.6649 525.837 90.1029 525.837 93.5224ZM537.9 88.1398L520.517 111H517.478L534.861 88.1398H537.9ZM523.399 93.5224C523.399 91.4643 522.037 90.0395 520.043 90.0395C518.079 90.0395 516.718 91.4643 516.718 93.5224C516.718 95.5488 518.079 96.9736 520.043 96.9736C522.006 96.9736 523.399 95.5488 523.399 93.5224ZM541.161 105.586C541.161 108.974 538.723 111.412 535.367 111.412C532.011 111.412 529.573 108.974 529.573 105.586C529.573 102.166 532.011 99.7599 535.367 99.7599C538.723 99.7599 541.161 102.166 541.161 105.586ZM538.692 105.586C538.692 103.528 537.362 102.103 535.367 102.103C533.404 102.103 532.043 103.528 532.043 105.586C532.043 107.612 533.404 109.037 535.367 109.037C537.33 109.037 538.692 107.612 538.692 105.586ZM546.691 98.3351H544.063L548.274 88.1081H551.187L555.398 98.3351H552.77L549.73 90.7361L546.691 98.3351ZM575.504 111L573.699 108.942C571.926 110.525 569.488 111.412 566.606 111.412C561.699 111.412 558.469 108.879 558.469 105.047C558.469 102.23 560.274 99.9815 564.073 98.0184C562.11 95.7704 561.382 94.3773 561.382 92.6675C561.382 89.7862 563.63 87.7282 566.86 87.7282C569.994 87.7282 572.147 89.6596 572.147 92.4775C572.147 94.7572 570.976 96.5303 568.031 98.525L573.509 104.763C574.015 103.528 574.3 102.008 574.3 100.298H577.182C577.182 102.894 576.548 105.174 575.44 106.947L578.986 111H575.504ZM564.2 92.6358C564.2 93.839 564.738 94.7889 566.511 96.8153C568.443 95.6438 569.361 94.2506 569.361 92.5409C569.361 91.0527 568.411 90.1345 566.828 90.1345C565.213 90.1345 564.2 91.1161 564.2 92.6358ZM561.572 104.826C561.572 107.327 563.567 108.847 566.891 108.847C569.013 108.847 570.723 108.214 571.989 106.979L565.562 99.6965C562.712 101.28 561.572 102.768 561.572 104.826ZM581.679 93.0475L579.621 92.3192L580.254 90.6728L582.217 91.3377C583.357 91.7176 583.99 92.0659 584.655 92.5092C584.465 91.7176 584.37 90.9577 584.37 89.8496V87.6649H586.143V89.8496C586.143 90.9577 586.016 91.781 585.858 92.5092C586.523 92.0976 587.156 91.7176 588.265 91.3377L590.259 90.6411L590.924 92.3192L588.834 93.0475C587.79 93.4274 586.966 93.5541 586.238 93.649C586.903 94.219 587.378 94.7256 587.98 95.6754L589.214 97.4485L587.758 98.4617L586.523 96.7203C585.858 95.7704 585.51 95.0422 585.225 94.3773C584.972 95.1372 584.623 95.8654 583.99 96.7203L582.724 98.4617L581.235 97.4485L582.47 95.6754C583.135 94.7256 583.673 94.1873 584.275 93.649C583.325 93.5224 582.597 93.3957 581.679 93.0475ZM599.984 116.478H597.514C594.601 112.836 592.67 107.327 592.67 101.596C592.67 96.2137 594.411 90.5778 597.514 86.7467H599.984C597.482 90.2295 595.709 95.6754 595.709 101.596C595.709 107.201 597.292 112.773 599.984 116.478ZM601.861 116.478H599.36C602.051 112.773 603.634 107.201 603.634 101.596C603.634 95.6754 601.893 90.2295 599.36 86.7467H601.861C604.932 90.5778 606.674 96.2137 606.674 101.596C606.674 107.327 604.743 112.836 601.861 116.478Z" fill="#292929"/>
</svg>
