<svg width="182" height="36" viewBox="0 0 182 36" fill="none" xmlns="http://www.w3.org/2000/svg">
<path d="M8.21632 2.43971C6.83823 1.10474 4.63886 1.1397 3.30389 2.5178C1.96892 3.89589 2.00389 6.09527 3.38198 7.43023" stroke="#FFBC1A" stroke-width="1.46421"/>
<path d="M20.7318 6.36932H24.707V8.88013H20.7318V6.36932Z" fill="#EE4B3C"/>
<path d="M13.4782 15.2282C9.27873 15.2282 5.87439 11.8192 5.87439 7.61408C5.87439 3.40894 9.27873 0 13.4782 0C17.6777 0 21.082 3.40894 21.082 7.61408C21.082 11.8192 17.6777 15.2282 13.4782 15.2282Z" fill="#F89E96"/>
<path d="M14.572 26.5523C11.1539 27.2415 7.82357 25.0256 7.13342 21.6029C6.44327 18.1803 8.65468 14.8469 12.0728 14.1577C15.4908 13.4685 18.8212 15.6844 19.5113 19.107C20.2015 22.5297 17.9901 25.8631 14.572 26.5523Z" fill="#FFBC1A"/>
<path d="M13.7699 22.5719C12.5472 22.8185 11.3558 22.0258 11.1089 20.8014C10.8621 19.577 11.6531 18.3846 12.8759 18.138C14.0986 17.8915 15.29 18.6842 15.5369 19.9085C15.7838 21.1329 14.9927 22.3254 13.7699 22.5719Z" fill="black"/>
<circle cx="4.91243" cy="8.88004" r="3.47405" transform="rotate(-45.9107 4.91243 8.88004)" fill="#FFBC1A"/>
<path d="M10.3086 6.46254C10.3086 5.07066 11.4382 3.96118 12.81 3.96118C14.1817 3.96118 15.3113 5.09083 15.3113 6.46254" stroke="black" stroke-width="1.64724" stroke-miterlimit="10"/>
<path d="M31.4502 26.9002C30.0959 26.9002 29.0802 25.8845 29.0802 24.6055V2.82439C29.0802 1.54536 30.0959 0.529662 31.4502 0.529662H37.3187C42.2467 0.529662 45.1809 3.23819 45.1809 7.75241C45.1809 9.89666 44.2781 11.6647 42.4724 13.0566C44.6166 14.298 45.9333 16.5927 45.9333 19.2637C45.9333 24.0788 42.8486 26.9002 37.5444 26.9002H31.4502ZM33.0302 23.2136H37.5444C40.2529 23.2136 41.9833 21.6712 41.9833 19.1508C41.9833 16.7432 40.1024 15.088 37.3563 15.088H33.0302V23.2136ZM33.0302 11.4014H37.0929C39.5758 11.4014 41.1934 9.9719 41.1934 7.82764C41.1934 5.60815 39.7262 4.21627 37.3187 4.21627H33.0302V11.4014ZM55.5674 27.2764C50.8275 27.2764 47.7052 25.5083 47.7052 21.2198C47.7052 16.8561 51.2789 15.1632 55.5674 15.1632H58.9531V13.6585C58.9531 12.1914 57.8622 11.0252 55.6803 11.0252C54.4013 11.0252 53.3479 11.2133 52.3322 11.7023C51.768 12.0033 51.2037 12.2666 50.6394 12.2666C49.7366 12.2666 48.8337 11.5519 48.8337 10.4609C48.8337 9.82142 49.2475 9.21953 49.7366 8.91858C50.7899 8.31668 52.8965 7.45146 55.5298 7.45146C59.555 7.45146 62.8278 9.44524 62.8278 13.6209V24.2669C62.8278 25.1321 62.3764 26.035 61.3607 26.3735C59.8559 26.9002 57.6741 27.2764 55.5674 27.2764ZM51.5799 21.2574C51.5799 23.2512 53.0846 23.7026 55.5298 23.7026C56.696 23.7026 57.7869 23.5898 58.9531 23.2512V18.737H55.4546C53.1222 18.737 51.5799 19.3765 51.5799 21.2574ZM68.1214 27.2764C66.9929 27.2764 66.1653 26.4864 66.1653 25.3579V10.649C66.1653 9.59571 66.7672 8.76811 67.8581 8.42954C69.7014 7.82764 71.6576 7.45146 73.7266 7.45146C78.7674 7.45146 81.3255 10.0095 81.3255 14.8623V25.3579C81.3255 26.4864 80.4979 27.2764 79.407 27.2764C78.2784 27.2764 77.4508 26.4864 77.4508 25.3579V14.7118C77.4508 12.3419 76.1718 11.0252 73.7266 11.0252C72.4475 11.0252 71.2061 11.2133 70.04 11.5519V25.3579C70.04 26.4864 69.2124 27.2764 68.1214 27.2764ZM91.7079 27.2764C86.9304 27.2764 84.109 24.7183 84.109 19.7903V14.9375C84.109 10.0095 87.0432 7.45146 91.3317 7.45146C92.5355 7.45146 94.1907 7.79003 95.4321 8.46716V2.07202C95.4321 0.943464 96.2597 0.153478 97.3507 0.153478C98.4792 0.153478 99.3068 0.943464 99.3068 2.07202V24.0788C99.3068 25.0945 98.6673 25.9597 97.6892 26.2983C95.8083 26.9378 93.7769 27.2764 91.7079 27.2764ZM87.9837 20.016C87.9837 22.386 89.3003 23.7403 91.7079 23.7403C92.9869 23.7403 94.266 23.5522 95.4321 23.2136V12.2666C94.3036 11.5143 93.0622 11.0252 91.7079 11.0252C89.2627 11.0252 87.9837 12.3042 87.9837 14.7118V20.016ZM109.509 27.2764C104.995 27.2764 102.136 24.3422 102.136 19.7151V15.0128C102.136 10.3857 104.995 7.45146 109.509 7.45146C111.465 7.45146 113.384 7.9405 114.889 8.76811C115.528 9.10667 115.904 9.70857 115.904 10.3857C115.904 11.4014 115.152 12.1538 114.287 12.1538C113.76 12.1538 113.045 11.8528 112.293 11.5519C111.54 11.2509 110.562 11.0252 109.396 11.0252C107.29 11.0252 106.011 12.53 106.011 15.0128V19.7151C106.011 22.1979 107.29 23.7403 109.396 23.7403C110.6 23.7403 111.54 23.4769 112.293 23.1384C113.045 22.8374 113.798 22.6117 114.211 22.6117C115.114 22.6117 115.904 23.3265 115.904 24.3798C115.904 25.0569 115.49 25.6588 114.889 25.9974C113.384 26.825 111.465 27.2764 109.509 27.2764ZM124.53 27.2764C119.79 27.2764 116.667 25.5083 116.667 21.2198C116.667 16.8561 120.241 15.1632 124.53 15.1632H127.915V13.6585C127.915 12.1914 126.824 11.0252 124.643 11.0252C123.364 11.0252 122.31 11.2133 121.295 11.7023C120.73 12.0033 120.166 12.2666 119.602 12.2666C118.699 12.2666 117.796 11.5519 117.796 10.4609C117.796 9.82142 118.21 9.21953 118.699 8.91858C119.752 8.31668 121.859 7.45146 124.492 7.45146C128.517 7.45146 131.79 9.44524 131.79 13.6209V24.2669C131.79 25.1321 131.339 26.035 130.323 26.3735C128.818 26.9002 126.636 27.2764 124.53 27.2764ZM120.542 21.2574C120.542 23.2512 122.047 23.7026 124.492 23.7026C125.658 23.7026 126.749 23.5898 127.915 23.2512V18.737H124.417C122.085 18.737 120.542 19.3765 120.542 21.2574ZM137.084 27.2764C135.955 27.2764 135.128 26.4864 135.128 25.3579V10.649C135.128 9.59571 135.729 8.76811 136.82 8.42954C138.626 7.86526 140.545 7.45146 142.501 7.45146C144.57 7.45146 146.263 8.05335 147.429 9.03144C149.046 8.09097 150.927 7.45146 152.695 7.45146C157.247 7.45146 159.768 10.16 159.768 14.8623V25.3579C159.768 26.4864 158.94 27.2764 157.811 27.2764C156.721 27.2764 155.893 26.4864 155.893 25.3579V14.4485C155.893 12.1914 154.727 11.0252 152.62 11.0252C151.717 11.0252 150.626 11.3262 149.385 11.9281V25.3579C149.385 26.4864 148.557 27.2764 147.466 27.2764C146.338 27.2764 145.51 26.4864 145.51 25.3579V13.6961C145.51 11.8904 144.457 11.0252 142.426 11.0252C141.297 11.0252 140.093 11.2509 139.002 11.5519V25.3579C139.002 26.4864 138.175 27.2764 137.084 27.2764ZM165.07 35.2891C163.941 35.2891 163.114 34.4991 163.114 33.3706V10.649C163.114 9.63333 163.753 8.76811 164.731 8.46716C166.612 7.79003 168.644 7.45146 170.713 7.45146C175.377 7.45146 178.311 9.93428 178.311 14.9375V19.8279C178.311 24.7183 175.34 27.2764 171.089 27.2764C169.847 27.2764 168.23 26.9378 166.988 26.2231V33.3706C166.988 34.4991 166.161 35.2891 165.07 35.2891ZM166.988 22.4612C168.079 23.2136 169.321 23.7403 170.713 23.7403C173.158 23.7403 174.437 22.4612 174.437 20.016V14.7118C174.437 12.3419 173.12 11.0252 170.713 11.0252C169.434 11.0252 168.155 11.1757 166.988 11.5143V22.4612Z" fill="black"/>
</svg>
