<svg width="182" height="100" viewBox="0 0 182 100" fill="none" xmlns="http://www.w3.org/2000/svg">
<path d="M5.12878 61.7195L16.5947 50.3365C17.717 49.2224 19.5313 49.2232 20.6472 50.3383L29.9996 59.6845C31.1171 60.8013 32.9349 60.8002 34.0564 59.6819L43.4113 50.3543C44.5321 49.2368 46.3486 49.2348 47.4664 50.35L56.8642 59.726C57.9827 60.8419 59.8005 60.8392 60.9211 59.7201L70.3069 50.3462C71.4274 49.227 73.2452 49.2244 74.3637 50.3402L83.6427 59.5977C84.8058 60.7581 86.712 60.702 87.81 59.4751L97.8002 48.3123" stroke="#1A73C1" stroke-width="7.5065" stroke-miterlimit="10"/>
<path d="M85.473 60.5872L97.078 49.3445C98.2139 48.2442 100.028 48.2671 101.13 49.3958L110.367 58.8546C111.471 59.985 113.288 60.0061 114.424 58.9016L123.892 49.6885C125.027 48.5846 126.843 48.6049 127.947 49.7337L137.229 59.2228C138.334 60.3523 140.151 60.3718 141.286 59.2664L150.786 50.0074C151.92 48.902 153.738 48.9215 154.843 50.051L164.007 59.4202C165.156 60.5947 167.063 60.5619 168.176 59.3484L178.302 48.3079" stroke="#1A73C1" stroke-width="7.5065" stroke-miterlimit="10"/>
<path d="M5.99393 30.4407C4.45264 30.4407 3.29666 29.2847 3.29666 27.829V3.03983C3.29666 1.58416 4.45264 0.428187 5.99393 0.428187H12.6729C18.2815 0.428187 21.621 3.51078 21.621 8.64844C21.621 11.0888 20.5934 13.1011 18.5384 14.6852C20.9788 16.098 22.4773 18.7097 22.4773 21.7495C22.4773 27.2296 18.9665 30.4407 12.9298 30.4407H5.99393ZM7.79212 26.2449H12.9298C16.0124 26.2449 17.9818 24.4896 17.9818 21.621C17.9818 18.8809 15.8411 16.9971 12.7157 16.9971H7.79212V26.2449ZM7.79212 12.8014H12.416C15.2417 12.8014 17.0827 11.1745 17.0827 8.73407C17.0827 6.20805 15.413 4.62394 12.6729 4.62394H7.79212V12.8014ZM33.4419 30.8688C28.0474 30.8688 24.4939 28.8566 24.4939 23.9758C24.4939 19.0094 28.5612 17.0828 33.4419 17.0828H37.2952V15.3702C37.2952 13.7005 36.0536 12.3732 33.5704 12.3732C32.1147 12.3732 30.9159 12.5873 29.76 13.1439C29.1177 13.4864 28.4755 13.7861 27.8333 13.7861C26.8058 13.7861 25.7783 12.9726 25.7783 11.731C25.7783 11.0032 26.2492 10.3182 26.8058 9.97567C28.0046 9.29065 30.4022 8.30593 33.3991 8.30593C37.9802 8.30593 41.705 10.5751 41.705 15.3274V27.4437C41.705 28.4284 41.1912 29.456 40.0353 29.8413C38.3227 30.4407 35.8395 30.8688 33.4419 30.8688ZM28.9037 24.0186C28.9037 26.2877 30.6162 26.8015 33.3991 26.8015C34.7264 26.8015 35.968 26.6731 37.2952 26.2877V21.1501H33.3135C30.659 21.1501 28.9037 21.8779 28.9037 24.0186ZM47.7297 30.8688C46.4453 30.8688 45.5034 29.9697 45.5034 28.6853V11.9451C45.5034 10.7463 46.1884 9.80441 47.43 9.41909C49.5279 8.73407 51.7542 8.30593 54.109 8.30593C59.846 8.30593 62.7574 11.2173 62.7574 16.7403V28.6853C62.7574 29.9697 61.8155 30.8688 60.5739 30.8688C59.2894 30.8688 58.3475 29.9697 58.3475 28.6853V16.569C58.3475 13.8717 56.8919 12.3732 54.109 12.3732C52.6533 12.3732 51.2404 12.5873 49.9132 12.9726V28.6853C49.9132 29.9697 48.9713 30.8688 47.7297 30.8688ZM74.5736 30.8688C69.1363 30.8688 65.9253 27.9575 65.9253 22.3489V16.8259C65.9253 11.2173 69.2647 8.30593 74.1455 8.30593C75.5155 8.30593 77.3994 8.69125 78.8122 9.4619V2.18355C78.8122 0.899138 79.7541 4.952e-05 80.9957 4.952e-05C82.2801 4.952e-05 83.222 0.899138 83.222 2.18355V27.2296C83.222 28.3856 82.4942 29.3703 81.381 29.7557C79.2403 30.4835 76.9284 30.8688 74.5736 30.8688ZM70.3351 22.6057C70.3351 25.303 71.8336 26.8443 74.5736 26.8443C76.0293 26.8443 77.485 26.6302 78.8122 26.2449V13.7861C77.5278 12.9298 76.1149 12.3732 74.5736 12.3732C71.7907 12.3732 70.3351 13.8289 70.3351 16.569V22.6057ZM94.8333 30.8688C89.6956 30.8688 86.4418 27.5293 86.4418 22.2632V16.9115C86.4418 11.6454 89.6956 8.30593 94.8333 8.30593C97.0596 8.30593 99.2431 8.86251 100.956 9.80441C101.683 10.1897 102.112 10.8748 102.112 11.6454C102.112 12.8014 101.255 13.6577 100.271 13.6577C99.6712 13.6577 98.8578 13.3151 98.0015 12.9726C97.1452 12.6301 96.0321 12.3732 94.7048 12.3732C92.3073 12.3732 90.8516 14.0858 90.8516 16.9115V22.2632C90.8516 25.0889 92.3073 26.8443 94.7048 26.8443C96.0749 26.8443 97.1452 26.5446 98.0015 26.1593C98.8578 25.8168 99.714 25.5599 100.185 25.5599C101.213 25.5599 102.112 26.3734 102.112 27.5721C102.112 28.3428 101.641 29.0278 100.956 29.4131C99.2431 30.355 97.0596 30.8688 94.8333 30.8688ZM111.928 30.8688C106.534 30.8688 102.98 28.8566 102.98 23.9758C102.98 19.0094 107.048 17.0828 111.928 17.0828H115.782V15.3702C115.782 13.7005 114.54 12.3732 112.057 12.3732C110.601 12.3732 109.402 12.5873 108.246 13.1439C107.604 13.4864 106.962 13.7861 106.32 13.7861C105.292 13.7861 104.265 12.9726 104.265 11.731C104.265 11.0032 104.736 10.3182 105.292 9.97567C106.491 9.29065 108.889 8.30593 111.886 8.30593C116.467 8.30593 120.191 10.5751 120.191 15.3274V27.4437C120.191 28.4284 119.678 29.456 118.522 29.8413C116.809 30.4407 114.326 30.8688 111.928 30.8688ZM107.39 24.0186C107.39 26.2877 109.103 26.8015 111.886 26.8015C113.213 26.8015 114.454 26.6731 115.782 26.2877V21.1501H111.8C109.145 21.1501 107.39 21.8779 107.39 24.0186ZM126.216 30.8688C124.932 30.8688 123.99 29.9697 123.99 28.6853V11.9451C123.99 10.7463 124.675 9.80441 125.916 9.41909C127.971 8.77688 130.155 8.30593 132.381 8.30593C134.736 8.30593 136.663 8.99095 137.99 10.1041C139.831 9.03377 141.972 8.30593 143.984 8.30593C149.164 8.30593 152.033 11.3885 152.033 16.7403V28.6853C152.033 29.9697 151.091 30.8688 149.807 30.8688C148.565 30.8688 147.623 29.9697 147.623 28.6853V16.2693C147.623 13.7005 146.296 12.3732 143.898 12.3732C142.871 12.3732 141.629 12.7158 140.216 13.4008V28.6853C140.216 29.9697 139.274 30.8688 138.033 30.8688C136.748 30.8688 135.806 29.9697 135.806 28.6853V15.413C135.806 13.358 134.608 12.3732 132.296 12.3732C131.011 12.3732 129.641 12.6301 128.4 12.9726V28.6853C128.4 29.9697 127.458 30.8688 126.216 30.8688ZM158.067 39.9882C156.783 39.9882 155.841 39.0891 155.841 37.8047V11.9451C155.841 10.7891 156.569 9.80441 157.682 9.4619C159.823 8.69125 162.135 8.30593 164.489 8.30593C169.798 8.30593 173.138 11.1316 173.138 16.8259V22.3917C173.138 27.9575 169.755 30.8688 164.917 30.8688C163.505 30.8688 161.664 30.4835 160.251 29.67V37.8047C160.251 39.0891 159.309 39.9882 158.067 39.9882ZM160.251 25.3886C161.492 26.2449 162.905 26.8443 164.489 26.8443C167.272 26.8443 168.728 25.3886 168.728 22.6057V16.569C168.728 13.8717 167.229 12.3732 164.489 12.3732C163.034 12.3732 161.578 12.5445 160.251 12.9298V25.3886Z" fill="black"/>
</svg>
