<svg width="160" height="76" viewBox="0 0 160 76" fill="none" xmlns="http://www.w3.org/2000/svg">
<path d="M18.6242 5.62087C15.5008 2.54489 10.5159 2.62545 7.49021 5.8008C4.46452 8.97616 4.54377 14.0439 7.66721 17.1198" stroke="#FFBC1A" stroke-width="2.43837"/>
<path d="M46.9903 14.6753H56V20.4606H46.9903V14.6753Z" fill="#EE4B3C"/>
<path d="M30.5434 35.0881C21.0253 35.0881 13.3094 27.2334 13.3094 17.5441C13.3094 7.85475 21.0253 0 30.5434 0C40.0614 0 47.7773 7.85475 47.7773 17.5441C47.7773 27.2334 40.0614 35.0881 30.5434 35.0881Z" fill="#F89E96"/>
<path d="M33.0006 64.1245C25.2536 65.7126 17.7053 60.6068 16.1411 52.7204C14.5769 44.834 19.589 37.1534 27.3361 35.5653C35.0831 33.9772 42.6313 39.083 44.1956 46.9694C45.7598 54.8558 40.7476 62.5364 33.0006 64.1245Z" fill="#FFBC1A"/>
<path d="M31.1803 54.9532C28.409 55.5213 25.7088 53.6948 25.1492 50.8736C24.5896 48.0524 26.3826 45.3049 29.154 44.7368C31.9253 44.1687 34.6255 45.9952 35.1851 48.8163C35.7446 51.6375 33.9516 54.3851 31.1803 54.9532Z" fill="black"/>
<ellipse cx="7.94169" cy="7.93753" rx="7.94169" ry="7.93753" transform="matrix(0.689839 -0.723963 0.712499 0.701673 0 20.6401)" fill="#FFBC1A"/>
<path d="M24.9922 14.8856C24.9922 11.6887 27.5409 9.1405 30.6357 9.1405C33.7306 9.1405 36.2793 11.7351 36.2793 14.8856" stroke="black" stroke-width="2.74317" stroke-miterlimit="10"/>
<path d="M64.3427 34.4028C62.6263 34.4028 61.3391 33.1156 61.3391 31.4946V3.8898C61.3391 2.2688 62.6263 0.98153 64.3427 0.98153H71.7802C78.0259 0.98153 81.7447 4.41425 81.7447 10.1354C81.7447 12.853 80.6004 15.0938 78.3119 16.8578C81.0295 18.4312 82.6982 21.3394 82.6982 24.7245C82.6982 30.8271 78.7887 34.4028 72.0663 34.4028H64.3427ZM66.3451 29.7305H72.0663C75.499 29.7305 77.6921 27.7758 77.6921 24.5815C77.6921 21.5301 75.3083 19.4324 71.8279 19.4324H66.3451V29.7305ZM66.3451 14.7601H71.4942C74.6408 14.7601 76.6909 12.9484 76.6909 10.2308C76.6909 7.41787 74.8315 5.65384 71.7802 5.65384H66.3451V14.7601ZM94.9082 34.8796C88.901 34.8796 84.9438 32.6388 84.9438 27.2037C84.9438 21.6732 89.4731 19.5277 94.9082 19.5277H99.1991V17.6207C99.1991 15.7613 97.8165 14.2833 95.0513 14.2833C93.4303 14.2833 92.0953 14.5217 90.8081 15.1415C90.0929 15.5229 89.3778 15.8566 88.6626 15.8566C87.5184 15.8566 86.3741 14.9508 86.3741 13.5682C86.3741 12.7577 86.8986 11.9948 87.5184 11.6134C88.8533 10.8506 91.5232 9.75403 94.8606 9.75403C99.962 9.75403 104.11 12.2809 104.11 17.573V31.0655C104.11 32.162 103.538 33.3063 102.25 33.7354C100.343 34.4028 97.5781 34.8796 94.9082 34.8796ZM89.8545 27.2513C89.8545 29.7782 91.7616 30.3503 94.8606 30.3503C96.3385 30.3503 97.7212 30.2073 99.1991 29.7782V24.057H94.7652C91.8093 24.057 89.8545 24.8675 89.8545 27.2513ZM110.819 34.8796C109.389 34.8796 108.34 33.8784 108.34 32.4481V13.8065C108.34 12.4716 109.102 11.4227 110.485 10.9936C112.821 10.2308 115.3 9.75403 117.923 9.75403C124.311 9.75403 127.553 12.996 127.553 19.1463V32.4481C127.553 33.8784 126.504 34.8796 125.122 34.8796C123.692 34.8796 122.643 33.8784 122.643 32.4481V18.9556C122.643 15.952 121.022 14.2833 117.923 14.2833C116.302 14.2833 114.728 14.5217 113.25 14.9508V32.4481C113.25 33.8784 112.201 34.8796 110.819 34.8796ZM140.712 34.8796C134.657 34.8796 131.081 31.6376 131.081 25.392V19.2417C131.081 12.996 134.8 9.75403 140.235 9.75403C141.761 9.75403 143.858 10.1831 145.432 11.0413V2.93627C145.432 1.50597 146.481 0.504765 147.863 0.504765C149.293 0.504765 150.342 1.50597 150.342 2.93627V30.8271C150.342 32.1144 149.532 33.2109 148.292 33.64C145.908 34.4505 143.334 34.8796 140.712 34.8796ZM135.992 25.678C135.992 28.6816 137.66 30.398 140.712 30.398C142.333 30.398 143.954 30.1596 145.432 29.7305V15.8566C144.001 14.9031 142.428 14.2833 140.712 14.2833C137.613 14.2833 135.992 15.9043 135.992 18.9556V25.678ZM69.5394 64.8796C63.8183 64.8796 60.1948 61.1608 60.1948 55.2966V49.337C60.1948 43.4728 63.8183 39.754 69.5394 39.754C72.0186 39.754 74.4501 40.3738 76.3572 41.4227C77.1677 41.8518 77.6445 42.6146 77.6445 43.4728C77.6445 44.7601 76.6909 45.7136 75.5944 45.7136C74.9269 45.7136 74.021 45.3322 73.0675 44.9508C72.114 44.5694 70.8744 44.2833 69.3964 44.2833C66.7265 44.2833 65.1055 46.1904 65.1055 49.337V55.2966C65.1055 58.4433 66.7265 60.398 69.3964 60.398C70.9221 60.398 72.114 60.0643 73.0675 59.6352C74.021 59.2538 74.9746 58.9677 75.499 58.9677C76.6433 58.9677 77.6445 59.8736 77.6445 61.2085C77.6445 62.0667 77.12 62.8295 76.3572 63.2586C74.4501 64.3075 72.0186 64.8796 69.5394 64.8796ZM88.5762 64.8796C82.5689 64.8796 78.6118 62.6388 78.6118 57.2037C78.6118 51.6732 83.1411 49.5277 88.5762 49.5277H92.8671V47.6207C92.8671 45.7613 91.4845 44.2833 88.7192 44.2833C87.0982 44.2833 85.7633 44.5217 84.476 45.1415C83.7609 45.5229 83.0457 45.8566 82.3306 45.8566C81.1863 45.8566 80.0421 44.9508 80.0421 43.5682C80.0421 42.7577 80.5665 41.9948 81.1863 41.6134C82.5213 40.8506 85.1912 39.754 88.5285 39.754C93.6299 39.754 97.7778 42.2809 97.7778 47.573V61.0655C97.7778 62.162 97.2057 63.3063 95.9184 63.7354C94.0113 64.4028 91.2461 64.8796 88.5762 64.8796ZM83.5225 57.2513C83.5225 59.7782 85.4295 60.3503 88.5285 60.3503C90.0065 60.3503 91.3891 60.2073 92.8671 59.7782V54.057H88.4332C85.4772 54.057 83.5225 54.8675 83.5225 57.2513ZM104.487 64.8796C103.056 64.8796 102.008 63.8784 102.008 62.4481V43.8065C102.008 42.4716 102.77 41.4227 104.153 40.9936C106.442 40.2785 108.873 39.754 111.352 39.754C113.974 39.754 116.12 40.5169 117.598 41.7564C119.648 40.5645 122.032 39.754 124.273 39.754C130.041 39.754 133.236 43.1867 133.236 49.1463V62.4481C133.236 63.8784 132.187 64.8796 130.757 64.8796C129.374 64.8796 128.325 63.8784 128.325 62.4481V48.6219C128.325 45.7613 126.847 44.2833 124.177 44.2833C123.033 44.2833 121.65 44.6647 120.077 45.4275V62.4481C120.077 63.8784 119.028 64.8796 117.646 64.8796C116.215 64.8796 115.166 63.8784 115.166 62.4481V47.6683C115.166 45.3799 113.831 44.2833 111.257 44.2833C109.827 44.2833 108.301 44.5694 106.918 44.9508V62.4481C106.918 63.8784 105.869 64.8796 104.487 64.8796ZM139.956 75.0347C138.525 75.0347 137.476 74.0335 137.476 72.6032V43.8065C137.476 42.5193 138.287 41.4227 139.526 41.0413C141.91 40.1831 144.485 39.754 147.107 39.754C153.019 39.754 156.738 42.9007 156.738 49.2417V55.4396C156.738 61.6376 152.971 64.8796 147.584 64.8796C146.01 64.8796 143.96 64.4505 142.387 63.5447V72.6032C142.387 74.0335 141.338 75.0347 139.956 75.0347ZM142.387 58.777C143.77 59.7305 145.343 60.398 147.107 60.398C150.206 60.398 151.827 58.777 151.827 55.678V48.9556C151.827 45.952 150.158 44.2833 147.107 44.2833C145.486 44.2833 143.865 44.474 142.387 44.9031V58.777Z" fill="black"/>
</svg>
