<svg width="498" height="717" viewBox="0 0 498 717" fill="none" xmlns="http://www.w3.org/2000/svg">
<rect x="0.5" y="214.5" width="148" height="145" rx="4.5" stroke="#8A38F5" stroke-dasharray="10 5"/>
<rect width="70" height="43" transform="translate(20 234)" fill="#EEE6D5"/>
<path d="M44.9981 256.272C44.9981 252.72 46.7421 250.32 49.5901 250.32C52.4221 250.32 54.1661 252.72 54.1661 256.272C54.1661 259.84 52.4541 262.208 49.5901 262.208C46.7101 262.208 44.9981 259.84 44.9981 256.272ZM46.1341 256.272C46.1341 259.248 47.3981 261.168 49.5901 261.168C51.7821 261.168 53.0461 259.248 53.0461 256.272C53.0461 253.28 51.7821 251.376 49.5901 251.376C47.3981 251.376 46.1341 253.28 46.1341 256.272ZM55.84 256.272C55.84 252.72 57.584 250.32 60.432 250.32C63.264 250.32 65.008 252.72 65.008 256.272C65.008 259.84 63.296 262.208 60.432 262.208C57.552 262.208 55.84 259.84 55.84 256.272ZM56.976 256.272C56.976 259.248 58.24 261.168 60.432 261.168C62.624 261.168 63.888 259.248 63.888 256.272C63.888 253.28 62.624 251.376 60.432 251.376C58.24 251.376 56.976 253.28 56.976 256.272Z" fill="black"/>
<rect width="77" height="43" transform="translate(20 297)" fill="#1A73C1"/>
<path d="M44.88 319.272C44.88 315.72 46.624 313.32 49.472 313.32C52.304 313.32 54.048 315.72 54.048 319.272C54.048 322.84 52.336 325.208 49.472 325.208C46.592 325.208 44.88 322.84 44.88 319.272ZM46.016 319.272C46.016 322.248 47.28 324.168 49.472 324.168C51.664 324.168 52.928 322.248 52.928 319.272C52.928 316.28 51.664 314.376 49.472 314.376C47.28 314.376 46.016 316.28 46.016 319.272ZM55.7219 319.272C55.7219 315.72 57.4659 313.32 60.3139 313.32C63.1459 313.32 64.8899 315.72 64.8899 319.272C64.8899 322.84 63.1779 325.208 60.3139 325.208C57.4339 325.208 55.7219 322.84 55.7219 319.272ZM56.8579 319.272C56.8579 322.248 58.1219 324.168 60.3139 324.168C62.5059 324.168 63.7699 322.248 63.7699 319.272C63.7699 316.28 62.5059 314.376 60.3139 314.376C58.1219 314.376 56.8579 316.28 56.8579 319.272Z" fill="#EEE6D5"/>
<g filter="url(#filter0_d_1209_19666)">
<rect width="70" height="43" transform="translate(39 404.749)" fill="#EEE6D5"/>
<path d="M63.9981 427.021C63.9981 423.469 65.7421 421.069 68.5901 421.069C71.4221 421.069 73.1661 423.469 73.1661 427.021C73.1661 430.589 71.4541 432.957 68.5901 432.957C65.7101 432.957 63.9981 430.589 63.9981 427.021ZM65.1341 427.021C65.1341 429.997 66.3981 431.917 68.5901 431.917C70.7821 431.917 72.0461 429.997 72.0461 427.021C72.0461 424.029 70.7821 422.125 68.5901 422.125C66.3981 422.125 65.1341 424.029 65.1341 427.021ZM74.84 427.021C74.84 423.469 76.584 421.069 79.432 421.069C82.264 421.069 84.008 423.469 84.008 427.021C84.008 430.589 82.296 432.957 79.432 432.957C76.552 432.957 74.84 430.589 74.84 427.021ZM75.976 427.021C75.976 429.997 77.24 431.917 79.432 431.917C81.624 431.917 82.888 429.997 82.888 427.021C82.888 424.029 81.624 422.125 79.432 422.125C77.24 422.125 75.976 424.029 75.976 427.021Z" fill="black"/>
<rect width="70" height="43" transform="translate(39 447.749)" fill="#EEE6D5"/>
<path d="M63.9981 470.021C63.9981 466.469 65.7421 464.069 68.5901 464.069C71.4221 464.069 73.1661 466.469 73.1661 470.021C73.1661 473.589 71.4541 475.957 68.5901 475.957C65.7101 475.957 63.9981 473.589 63.9981 470.021ZM65.1341 470.021C65.1341 472.997 66.3981 474.917 68.5901 474.917C70.7821 474.917 72.0461 472.997 72.0461 470.021C72.0461 467.029 70.7821 465.125 68.5901 465.125C66.3981 465.125 65.1341 467.029 65.1341 470.021ZM74.84 470.021C74.84 466.469 76.584 464.069 79.432 464.069C82.264 464.069 84.008 466.469 84.008 470.021C84.008 473.589 82.296 475.957 79.432 475.957C76.552 475.957 74.84 473.589 74.84 470.021ZM75.976 470.021C75.976 472.997 77.24 474.917 79.432 474.917C81.624 474.917 82.888 472.997 82.888 470.021C82.888 467.029 81.624 465.125 79.432 465.125C77.24 465.125 75.976 467.029 75.976 470.021Z" fill="black"/>
<rect width="70" height="43" transform="translate(39 490.749)" fill="#EEE6D5"/>
<path d="M63.9981 513.021C63.9981 509.469 65.7421 507.069 68.5901 507.069C71.4221 507.069 73.1661 509.469 73.1661 513.021C73.1661 516.589 71.4541 518.957 68.5901 518.957C65.7101 518.957 63.9981 516.589 63.9981 513.021ZM65.1341 513.021C65.1341 515.997 66.3981 517.917 68.5901 517.917C70.7821 517.917 72.0461 515.997 72.0461 513.021C72.0461 510.029 70.7821 508.125 68.5901 508.125C66.3981 508.125 65.1341 510.029 65.1341 513.021ZM74.84 513.021C74.84 509.469 76.584 507.069 79.432 507.069C82.264 507.069 84.008 509.469 84.008 513.021C84.008 516.589 82.296 518.957 79.432 518.957C76.552 518.957 74.84 516.589 74.84 513.021ZM75.976 513.021C75.976 515.997 77.24 517.917 79.432 517.917C81.624 517.917 82.888 515.997 82.888 513.021C82.888 510.029 81.624 508.125 79.432 508.125C77.24 508.125 75.976 510.029 75.976 513.021Z" fill="black"/>
<rect width="70" height="43" transform="translate(39 533.749)" fill="#EEE6D5"/>
<path d="M63.9981 556.021C63.9981 552.469 65.7421 550.069 68.5901 550.069C71.4221 550.069 73.1661 552.469 73.1661 556.021C73.1661 559.589 71.4541 561.957 68.5901 561.957C65.7101 561.957 63.9981 559.589 63.9981 556.021ZM65.1341 556.021C65.1341 558.997 66.3981 560.917 68.5901 560.917C70.7821 560.917 72.0461 558.997 72.0461 556.021C72.0461 553.029 70.7821 551.125 68.5901 551.125C66.3981 551.125 65.1341 553.029 65.1341 556.021ZM74.84 556.021C74.84 552.469 76.584 550.069 79.432 550.069C82.264 550.069 84.008 552.469 84.008 556.021C84.008 559.589 82.296 561.957 79.432 561.957C76.552 561.957 74.84 559.589 74.84 556.021ZM75.976 556.021C75.976 558.997 77.24 560.917 79.432 560.917C81.624 560.917 82.888 558.997 82.888 556.021C82.888 553.029 81.624 551.125 79.432 551.125C77.24 551.125 75.976 553.029 75.976 556.021Z" fill="black"/>
<rect width="70" height="43" transform="translate(39 576.749)" fill="#EEE6D5"/>
<path d="M63.9981 599.021C63.9981 595.469 65.7421 593.069 68.5901 593.069C71.4221 593.069 73.1661 595.469 73.1661 599.021C73.1661 602.589 71.4541 604.957 68.5901 604.957C65.7101 604.957 63.9981 602.589 63.9981 599.021ZM65.1341 599.021C65.1341 601.997 66.3981 603.917 68.5901 603.917C70.7821 603.917 72.0461 601.997 72.0461 599.021C72.0461 596.029 70.7821 594.125 68.5901 594.125C66.3981 594.125 65.1341 596.029 65.1341 599.021ZM74.84 599.021C74.84 595.469 76.584 593.069 79.432 593.069C82.264 593.069 84.008 595.469 84.008 599.021C84.008 602.589 82.296 604.957 79.432 604.957C76.552 604.957 74.84 602.589 74.84 599.021ZM75.976 599.021C75.976 601.997 77.24 603.917 79.432 603.917C81.624 603.917 82.888 601.997 82.888 599.021C82.888 596.029 81.624 594.125 79.432 594.125C77.24 594.125 75.976 596.029 75.976 599.021Z" fill="black"/>
<rect width="70" height="43" transform="translate(39 619.749)" fill="#EEE6D5"/>
<path d="M63.9981 642.021C63.9981 638.469 65.7421 636.069 68.5901 636.069C71.4221 636.069 73.1661 638.469 73.1661 642.021C73.1661 645.589 71.4541 647.957 68.5901 647.957C65.7101 647.957 63.9981 645.589 63.9981 642.021ZM65.1341 642.021C65.1341 644.997 66.3981 646.917 68.5901 646.917C70.7821 646.917 72.0461 644.997 72.0461 642.021C72.0461 639.029 70.7821 637.125 68.5901 637.125C66.3981 637.125 65.1341 639.029 65.1341 642.021ZM74.84 642.021C74.84 638.469 76.584 636.069 79.432 636.069C82.264 636.069 84.008 638.469 84.008 642.021C84.008 645.589 82.296 647.957 79.432 647.957C76.552 647.957 74.84 645.589 74.84 642.021ZM75.976 642.021C75.976 644.997 77.24 646.917 79.432 646.917C81.624 646.917 82.888 644.997 82.888 642.021C82.888 639.029 81.624 637.125 79.432 637.125C77.24 637.125 75.976 639.029 75.976 642.021Z" fill="black"/>
</g>
<rect x="172.5" y="214.5" width="325" height="489" rx="4.5" stroke="#8A38F5" stroke-dasharray="10 5"/>
<path d="M217.857 283H216.225L220.449 271.432H222.193L226.433 283H224.785L223.745 280.12H218.881L217.857 283ZM221.121 273.928L219.361 278.76H223.281L221.505 273.928C221.425 273.704 221.345 273.432 221.313 273.256C221.281 273.416 221.201 273.688 221.121 273.928ZM229.731 274.056H228.755C228.659 272.856 229.187 272.104 230.067 272.104C231.043 272.104 231.507 273 232.179 273C232.563 273 232.723 272.68 232.723 272.104H233.683C233.763 273.4 233.235 274.056 232.307 274.056C231.283 274.056 230.819 273.16 230.243 273.16C229.891 273.16 229.731 273.48 229.731 274.056ZM229.139 283H227.635V275.176H228.995L229.155 276.376C229.651 275.48 230.643 274.952 231.747 274.952C233.811 274.952 234.755 276.216 234.755 278.216V283H233.251V278.552C233.251 276.968 232.515 276.328 231.363 276.328C229.955 276.328 229.139 277.336 229.139 278.856V283ZM236.246 279.08C236.246 276.664 237.974 274.968 240.326 274.968C242.662 274.968 244.39 276.664 244.39 279.08C244.39 281.496 242.662 283.192 240.326 283.192C237.974 283.192 236.246 281.496 236.246 279.08ZM237.766 279.08C237.766 280.712 238.806 281.848 240.326 281.848C241.83 281.848 242.886 280.712 242.886 279.08C242.886 277.448 241.83 276.312 240.326 276.312C238.806 276.312 237.766 277.448 237.766 279.08Z" fill="black"/>
<path d="M258.94 281.78L263.287 277.433C263.8 276.92 263.8 276.08 263.287 275.567L258.94 271.22" stroke="black" stroke-width="1.5" stroke-miterlimit="10" stroke-linecap="round" stroke-linejoin="round"/>
<path d="M192.224 239.872V238.432H200.752V239.872H197.28V250H195.712V239.872H192.224ZM204.103 250.192C201.799 250.192 200.215 248.528 200.215 246.096C200.215 243.648 201.767 241.952 204.039 241.952C206.263 241.952 207.719 243.488 207.719 245.808V246.368L201.671 246.384C201.783 248.032 202.647 248.944 204.135 248.944C205.303 248.944 206.071 248.464 206.327 247.568H207.735C207.351 249.248 206.039 250.192 204.103 250.192ZM204.039 243.216C202.727 243.216 201.895 244 201.703 245.376H206.215C206.215 244.08 205.367 243.216 204.039 243.216ZM209.822 250H208.094L210.83 246.128L208.11 242.176H209.854L211.838 245.088L213.774 242.176H215.486L212.766 246.128L215.438 250H213.694L211.742 247.136L209.822 250ZM219.181 250H217.677V243.44H216.141V242.176H217.677V239.728H219.181V242.176H220.717V243.44H219.181V250ZM221.397 246.08C221.397 243.664 223.125 241.968 225.477 241.968C227.813 241.968 229.541 243.664 229.541 246.08C229.541 248.496 227.813 250.192 225.477 250.192C223.125 250.192 221.397 248.496 221.397 246.08ZM222.917 246.08C222.917 247.712 223.957 248.848 225.477 248.848C226.981 248.848 228.037 247.712 228.037 246.08C228.037 244.448 226.981 243.312 225.477 243.312C223.957 243.312 222.917 244.448 222.917 246.08Z" fill="black"/>
<path d="M195.156 304.55V303.692H201.825V304.55H198.952V313H198.016V304.55H195.156ZM204.528 313.156C202.682 313.156 201.447 311.83 201.447 309.854C201.447 307.891 202.669 306.539 204.463 306.539C206.166 306.539 207.323 307.748 207.323 309.529V309.971H202.318C202.383 311.505 203.189 312.389 204.541 312.389C205.568 312.389 206.231 311.947 206.465 311.115H207.323C206.985 312.441 206.01 313.156 204.528 313.156ZM204.463 307.306C203.28 307.306 202.5 308.086 202.344 309.321H206.426C206.426 308.112 205.646 307.306 204.463 307.306ZM208.723 313H207.67L209.919 309.854L207.683 306.708H208.736L210.517 309.23L212.285 306.708H213.325L211.089 309.867L213.312 313H212.246L210.478 310.478L208.723 313ZM216.024 313H215.14V307.462H213.879V306.708H215.14V304.719H216.024V306.708H217.285V307.462H216.024V313ZM217.882 309.854C217.882 307.93 219.234 306.539 221.08 306.539C222.926 306.539 224.278 307.93 224.278 309.854C224.278 311.765 222.926 313.156 221.08 313.156C219.234 313.156 217.882 311.765 217.882 309.854ZM218.792 309.841C218.792 311.323 219.728 312.35 221.08 312.35C222.419 312.35 223.368 311.323 223.368 309.841C223.368 308.385 222.419 307.345 221.08 307.345C219.728 307.345 218.792 308.385 218.792 309.841Z" fill="#686464"/>
<path d="M220.857 395H219.225L223.449 383.432H225.193L229.433 395H227.785L226.745 392.12H221.881L220.857 395ZM224.121 385.928L222.361 390.76H226.281L224.505 385.928C224.425 385.704 224.345 385.432 224.313 385.256C224.281 385.416 224.201 385.688 224.121 385.928ZM232.731 386.056H231.755C231.659 384.856 232.187 384.104 233.067 384.104C234.043 384.104 234.507 385 235.179 385C235.563 385 235.723 384.68 235.723 384.104H236.683C236.763 385.4 236.235 386.056 235.307 386.056C234.283 386.056 233.819 385.16 233.243 385.16C232.891 385.16 232.731 385.48 232.731 386.056ZM232.139 395H230.635V387.176H231.995L232.155 388.376C232.651 387.48 233.643 386.952 234.747 386.952C236.811 386.952 237.755 388.216 237.755 390.216V395H236.251V390.552C236.251 388.968 235.515 388.328 234.363 388.328C232.955 388.328 232.139 389.336 232.139 390.856V395ZM239.246 391.08C239.246 388.664 240.974 386.968 243.326 386.968C245.662 386.968 247.39 388.664 247.39 391.08C247.39 393.496 245.662 395.192 243.326 395.192C240.974 395.192 239.246 393.496 239.246 391.08ZM240.766 391.08C240.766 392.712 241.806 393.848 243.326 393.848C244.83 393.848 245.886 392.712 245.886 391.08C245.886 389.448 244.83 388.312 243.326 388.312C241.806 388.312 240.766 389.448 240.766 391.08Z" fill="black"/>
<path d="M269.28 386.467L264.934 390.813C264.42 391.327 263.58 391.327 263.067 390.813L258.72 386.467" stroke="black" stroke-width="1.5" stroke-miterlimit="10" stroke-linecap="round" stroke-linejoin="round"/>
<path d="M195.224 351.872V350.432H203.752V351.872H200.28V362H198.712V351.872H195.224ZM207.103 362.192C204.799 362.192 203.215 360.528 203.215 358.096C203.215 355.648 204.767 353.952 207.039 353.952C209.263 353.952 210.719 355.488 210.719 357.808V358.368L204.671 358.384C204.783 360.032 205.647 360.944 207.135 360.944C208.303 360.944 209.071 360.464 209.327 359.568H210.735C210.351 361.248 209.039 362.192 207.103 362.192ZM207.039 355.216C205.727 355.216 204.895 356 204.703 357.376H209.215C209.215 356.08 208.367 355.216 207.039 355.216ZM212.822 362H211.094L213.83 358.128L211.11 354.176H212.854L214.838 357.088L216.774 354.176H218.486L215.766 358.128L218.438 362H216.694L214.742 359.136L212.822 362ZM222.181 362H220.677V355.44H219.141V354.176H220.677V351.728H222.181V354.176H223.717V355.44H222.181V362ZM224.397 358.08C224.397 355.664 226.125 353.968 228.477 353.968C230.813 353.968 232.541 355.664 232.541 358.08C232.541 360.496 230.813 362.192 228.477 362.192C226.125 362.192 224.397 360.496 224.397 358.08ZM225.917 358.08C225.917 359.712 226.957 360.848 228.477 360.848C229.981 360.848 231.037 359.712 231.037 358.08C231.037 356.448 229.981 355.312 228.477 355.312C226.957 355.312 225.917 356.448 225.917 358.08Z" fill="black"/>
<path d="M198.156 416.55V415.692H204.825V416.55H201.952V425H201.016V416.55H198.156ZM207.528 425.156C205.682 425.156 204.447 423.83 204.447 421.854C204.447 419.891 205.669 418.539 207.463 418.539C209.166 418.539 210.323 419.748 210.323 421.529V421.971H205.318C205.383 423.505 206.189 424.389 207.541 424.389C208.568 424.389 209.231 423.947 209.465 423.115H210.323C209.985 424.441 209.01 425.156 207.528 425.156ZM207.463 419.306C206.28 419.306 205.5 420.086 205.344 421.321H209.426C209.426 420.112 208.646 419.306 207.463 419.306ZM211.723 425H210.67L212.919 421.854L210.683 418.708H211.736L213.517 421.23L215.285 418.708H216.325L214.089 421.867L216.312 425H215.246L213.478 422.478L211.723 425ZM219.024 425H218.14V419.462H216.879V418.708H218.14V416.719H219.024V418.708H220.285V419.462H219.024V425ZM220.882 421.854C220.882 419.93 222.234 418.539 224.08 418.539C225.926 418.539 227.278 419.93 227.278 421.854C227.278 423.765 225.926 425.156 224.08 425.156C222.234 425.156 220.882 423.765 220.882 421.854ZM221.792 421.841C221.792 423.323 222.728 424.35 224.08 424.35C225.419 424.35 226.368 423.323 226.368 421.841C226.368 420.385 225.419 419.345 224.08 419.345C222.728 419.345 221.792 420.385 221.792 421.841Z" fill="#686464"/>
<g filter="url(#filter1_d_1209_19666)">
<rect width="70" height="43" transform="translate(198 415.749)" fill="#EEE6D5"/>
<path d="M230.5 443.749H222.947V442.837L226.612 439.637C228.724 437.797 229.268 436.997 229.268 435.637C229.268 434.085 228.34 433.141 226.819 433.141C225.236 433.141 224.196 434.293 224.148 436.069H222.995C223.059 433.669 224.579 432.085 226.836 432.085C228.996 432.085 230.436 433.477 230.436 435.573C230.436 437.237 229.684 438.341 227.396 440.341L224.724 442.677H230.5V443.749ZM233.308 436.149L236.172 432.293H237.516L234.508 436.277C235.052 436.005 235.548 435.893 236.076 435.893C238.46 435.893 240.044 437.637 240.044 439.877C240.044 442.229 238.268 443.941 235.98 443.941C233.676 443.941 231.868 442.165 231.868 439.877C231.868 438.549 232.236 437.621 233.308 436.149ZM233.036 439.893C233.036 441.637 234.236 442.901 235.98 442.901C237.676 442.901 238.892 441.637 238.892 439.893C238.892 438.149 237.676 436.901 235.98 436.901C234.236 436.901 233.036 438.149 233.036 439.893Z" fill="black"/>
<rect width="70" height="43" transform="translate(198 458.749)" fill="#EEE6D5"/>
<path d="M230.351 486.749H222.799V485.837L226.463 482.637C228.575 480.797 229.119 479.997 229.119 478.637C229.119 477.085 228.191 476.141 226.671 476.141C225.087 476.141 224.047 477.293 223.999 479.069H222.847C222.911 476.669 224.431 475.085 226.687 475.085C228.847 475.085 230.287 476.477 230.287 478.573C230.287 480.237 229.535 481.341 227.247 483.341L224.575 485.677H230.351V486.749ZM231.002 475.293H238.794V476.349L234.282 486.749H233.098L237.626 476.349H231.002V475.293Z" fill="black"/>
<rect width="70" height="43" transform="translate(198 501.749)" fill="#EEE6D5"/>
<path d="M230.421 529.749H222.869V528.837L226.533 525.637C228.645 523.797 229.189 522.997 229.189 521.637C229.189 520.085 228.261 519.141 226.741 519.141C225.157 519.141 224.117 520.293 224.069 522.069H222.917C222.981 519.669 224.501 518.085 226.757 518.085C228.917 518.085 230.357 519.477 230.357 521.573C230.357 523.237 229.605 524.341 227.317 526.341L224.645 528.677H230.421V529.749ZM231.87 526.629C231.87 525.221 232.718 524.101 234.078 523.637C232.926 523.173 232.27 522.229 232.27 521.045C232.27 519.285 233.774 518.085 235.966 518.085C238.142 518.085 239.598 519.285 239.598 521.061C239.598 522.261 238.958 523.205 237.822 523.637C239.15 524.053 240.03 525.205 240.03 526.645C240.03 528.597 238.382 529.941 235.95 529.941C233.518 529.941 231.87 528.597 231.87 526.629ZM233.358 521.077C233.358 522.341 234.382 523.189 235.95 523.189C237.502 523.189 238.51 522.373 238.51 521.109C238.51 519.877 237.502 519.109 235.95 519.109C234.382 519.109 233.358 519.877 233.358 521.077ZM233.006 526.533C233.006 527.957 234.19 528.901 235.966 528.901C237.71 528.901 238.894 527.957 238.894 526.533C238.894 525.125 237.742 524.213 235.934 524.213C234.158 524.213 233.006 525.125 233.006 526.533Z" fill="black"/>
<rect width="70" height="43" transform="translate(198 544.749)" fill="#EEE6D5"/>
<path d="M230.5 572.749H222.947V571.837L226.612 568.637C228.724 566.797 229.268 565.997 229.268 564.637C229.268 563.085 228.34 562.141 226.819 562.141C225.236 562.141 224.196 563.293 224.148 565.069H222.995C223.059 562.669 224.579 561.085 226.836 561.085C228.996 561.085 230.436 562.477 230.436 564.573C230.436 566.237 229.684 567.341 227.396 569.341L224.724 571.677H230.5V572.749ZM238.604 568.877L235.74 572.749H234.396L237.404 568.749C236.876 569.037 236.38 569.133 235.836 569.133C233.452 569.133 231.868 567.389 231.868 565.149C231.868 562.813 233.644 561.085 235.932 561.085C238.236 561.085 240.044 562.861 240.044 565.165C240.044 566.493 239.692 567.421 238.604 568.877ZM238.892 565.149C238.892 563.405 237.676 562.141 235.932 562.141C234.236 562.141 233.02 563.405 233.02 565.149C233.02 566.877 234.236 568.125 235.932 568.125C237.676 568.125 238.892 566.877 238.892 565.149Z" fill="black"/>
<rect width="70" height="43" transform="translate(198 587.749)" fill="#EEE6D5"/>
<path d="M226.08 609.605H225.168V608.805L228.704 605.317H223.216V604.293H230.16V605.221L226.736 608.629C228.88 608.741 230.416 610.101 230.416 612.181C230.416 614.453 228.752 615.941 226.432 615.941C224.176 615.941 222.656 614.549 222.656 612.261H223.792C223.792 613.909 224.816 614.901 226.432 614.901C228.144 614.901 229.248 613.813 229.248 612.149C229.248 610.581 228.128 609.605 226.08 609.605ZM231.926 610.021C231.926 606.469 233.67 604.069 236.518 604.069C239.35 604.069 241.094 606.469 241.094 610.021C241.094 613.589 239.382 615.957 236.518 615.957C233.638 615.957 231.926 613.589 231.926 610.021ZM233.062 610.021C233.062 612.997 234.326 614.917 236.518 614.917C238.71 614.917 239.974 612.997 239.974 610.021C239.974 607.029 238.71 605.125 236.518 605.125C234.326 605.125 233.062 607.029 233.062 610.021Z" fill="black"/>
<rect width="70" height="43" transform="translate(198 630.749)" fill="#EEE6D5"/>
<path d="M226.447 652.605H225.535V651.805L229.071 648.317H223.583V647.293H230.527V648.221L227.103 651.629C229.247 651.741 230.783 653.101 230.783 655.181C230.783 657.453 229.119 658.941 226.799 658.941C224.543 658.941 223.023 657.549 223.023 655.261H224.159C224.159 656.909 225.183 657.901 226.799 657.901C228.511 657.901 229.615 656.813 229.615 655.149C229.615 653.581 228.495 652.605 226.447 652.605ZM234.153 648.333H231.817V647.293H235.257V658.749H234.153V648.333Z" fill="black"/>
</g>
<path d="M177.472 53H172.576L185.248 18.296H190.48L203.2 53H198.256L195.136 44.36H180.544L177.472 53ZM187.264 25.784L181.984 40.28H193.744L188.416 25.784C188.176 25.112 187.936 24.296 187.84 23.768C187.744 24.248 187.504 25.064 187.264 25.784ZM213.093 26.168H210.165C209.877 22.568 211.461 20.312 214.101 20.312C217.029 20.312 218.421 23 220.437 23C221.589 23 222.069 22.04 222.069 20.312H224.949C225.189 24.2 223.605 26.168 220.821 26.168C217.749 26.168 216.357 23.48 214.629 23.48C213.573 23.48 213.093 24.44 213.093 26.168ZM211.317 53H206.805V29.528H210.885L211.365 33.128C212.853 30.44 215.829 28.856 219.141 28.856C225.333 28.856 228.165 32.648 228.165 38.648V53H223.653V39.656C223.653 34.904 221.445 32.984 217.989 32.984C213.765 32.984 211.317 36.008 211.317 40.568V53ZM232.639 41.24C232.639 33.992 237.823 28.904 244.879 28.904C251.887 28.904 257.071 33.992 257.071 41.24C257.071 48.488 251.887 53.576 244.879 53.576C237.823 53.576 232.639 48.488 232.639 41.24ZM237.199 41.24C237.199 46.136 240.319 49.544 244.879 49.544C249.391 49.544 252.559 46.136 252.559 41.24C252.559 36.344 249.391 32.936 244.879 32.936C240.319 32.936 237.199 36.344 237.199 41.24ZM259.905 46.184H264.225C264.225 48.584 266.049 50.024 269.025 50.024C272.193 50.024 274.017 48.728 274.017 46.568C274.017 44.984 273.249 44.024 270.801 43.4L266.673 42.44C262.497 41.432 260.529 39.368 260.529 35.912C260.529 31.592 264.177 28.856 269.361 28.856C274.497 28.856 277.857 31.736 277.953 36.2H273.633C273.537 33.848 271.953 32.36 269.217 32.36C266.385 32.36 264.801 33.608 264.801 35.768C264.801 37.352 265.953 38.408 268.257 38.984L272.385 39.992C276.369 40.952 278.337 42.776 278.337 46.28C278.337 50.744 274.497 53.576 268.929 53.576C263.409 53.576 259.905 50.648 259.905 46.184Z" fill="black"/>
<defs>
<filter id="filter0_d_1209_19666" x="19.2" y="387.949" width="110.6" height="300.851" filterUnits="userSpaceOnUse" color-interpolation-filters="sRGB">
<feFlood flood-opacity="0" result="BackgroundImageFix"/>
<feColorMatrix in="SourceAlpha" type="matrix" values="0 0 0 0 0 0 0 0 0 0 0 0 0 0 0 0 0 0 127 0" result="hardAlpha"/>
<feMorphology radius="8" operator="dilate" in="SourceAlpha" result="effect1_dropShadow_1209_19666"/>
<feOffset/>
<feGaussianBlur stdDeviation="4.4"/>
<feComposite in2="hardAlpha" operator="out"/>
<feColorMatrix type="matrix" values="0 0 0 0 0.101961 0 0 0 0 0.45098 0 0 0 0 0.756863 0 0 0 0.5 0"/>
<feBlend mode="normal" in2="BackgroundImageFix" result="effect1_dropShadow_1209_19666"/>
<feBlend mode="normal" in="SourceGraphic" in2="effect1_dropShadow_1209_19666" result="shape"/>
</filter>
<filter id="filter1_d_1209_19666" x="178.2" y="398.949" width="110.6" height="300.851" filterUnits="userSpaceOnUse" color-interpolation-filters="sRGB">
<feFlood flood-opacity="0" result="BackgroundImageFix"/>
<feColorMatrix in="SourceAlpha" type="matrix" values="0 0 0 0 0 0 0 0 0 0 0 0 0 0 0 0 0 0 127 0" result="hardAlpha"/>
<feMorphology radius="8" operator="dilate" in="SourceAlpha" result="effect1_dropShadow_1209_19666"/>
<feOffset/>
<feGaussianBlur stdDeviation="4.4"/>
<feComposite in2="hardAlpha" operator="out"/>
<feColorMatrix type="matrix" values="0 0 0 0 0.101961 0 0 0 0 0.45098 0 0 0 0 0.756863 0 0 0 0.5 0"/>
<feBlend mode="normal" in2="BackgroundImageFix" result="effect1_dropShadow_1209_19666"/>
<feBlend mode="normal" in="SourceGraphic" in2="effect1_dropShadow_1209_19666" result="shape"/>
</filter>
</defs>
</svg>
