<svg width="642" height="704" viewBox="0 0 642 704" fill="none" xmlns="http://www.w3.org/2000/svg">
<rect x="0.5" y="214.5" width="292" height="145" rx="4.5" stroke="#8A38F5" stroke-dasharray="10 5"/>
<rect width="253" height="43" transform="translate(20 234)" fill="#EEE6D5"/>
<path d="M59.1 256.272C59.1 259.744 56.844 262.192 53.644 262.192C50.428 262.192 48.188 259.744 48.188 256.272C48.188 252.8 50.444 250.336 53.644 250.336C56.86 250.336 59.1 252.784 59.1 256.272ZM57.916 256.272C57.916 253.408 56.172 251.456 53.644 251.456C51.116 251.456 49.388 253.408 49.388 256.272C49.388 259.136 51.116 261.088 53.644 261.088C56.172 261.088 57.916 259.12 57.916 256.272ZM60.8689 265.376V254.256H61.8289L61.9409 255.824C62.4849 254.624 63.5729 254.048 64.8689 254.048C67.1089 254.048 68.4529 255.76 68.4529 258.096C68.4529 260.432 67.1569 262.192 64.8689 262.192C63.5569 262.192 62.5169 261.632 61.9729 260.512V265.376H60.8689ZM61.9889 258.128C61.9889 259.904 62.9809 261.2 64.6769 261.2C66.3569 261.2 67.3329 259.904 67.3329 258.128C67.3329 256.336 66.3569 255.056 64.6769 255.056C62.9809 255.056 61.9889 256.336 61.9889 258.128ZM69.5886 258.144C69.5886 255.712 71.0766 254.048 73.3326 254.048C75.1246 254.048 76.4366 255.088 76.7406 256.688H75.6366C75.3486 255.616 74.4206 255.024 73.3486 255.024C71.7806 255.024 70.6766 256.224 70.6766 258.128C70.6766 259.968 71.7006 261.2 73.2686 261.2C74.4206 261.2 75.3486 260.56 75.6526 259.568H76.7726C76.4046 261.152 75.0286 262.192 73.2686 262.192C71.0766 262.192 69.5886 260.576 69.5886 258.144ZM78.9091 252.128C78.4611 252.128 78.0931 251.76 78.0931 251.312C78.0931 250.864 78.4611 250.48 78.9091 250.48C79.3571 250.48 79.7411 250.864 79.7411 251.312C79.7411 251.76 79.3571 252.128 78.9091 252.128ZM78.3651 262V254.256H79.4691V262H78.3651ZM86.7954 251.456L85.5794 253.36H84.6674L85.6274 251.456H86.7954ZM81.1474 258.128C81.1474 255.76 82.8114 254.048 85.0834 254.048C87.3554 254.048 89.0194 255.76 89.0194 258.128C89.0194 260.48 87.3554 262.192 85.0834 262.192C82.8114 262.192 81.1474 260.48 81.1474 258.128ZM82.2674 258.112C82.2674 259.936 83.4194 261.2 85.0834 261.2C86.7314 261.2 87.8994 259.936 87.8994 258.112C87.8994 256.32 86.7314 255.04 85.0834 255.04C83.4194 255.04 82.2674 256.32 82.2674 258.112ZM91.8091 262H90.7051V254.256H91.6651L91.8251 255.6C92.3371 254.608 93.3611 254.048 94.4811 254.048C96.6091 254.048 97.4891 255.312 97.4891 257.264V262H96.3851V257.504C96.3851 255.696 95.5691 255.056 94.2891 255.056C92.7051 255.056 91.8091 256.208 91.8091 257.952V262ZM105.711 251.584H103.375V250.544H106.815V262H105.711V251.584Z" fill="black"/>
<rect width="253" height="43" transform="translate(20 297)" fill="#1A73C1"/>
<path d="M59.1 319.272C59.1 322.744 56.844 325.192 53.644 325.192C50.428 325.192 48.188 322.744 48.188 319.272C48.188 315.8 50.444 313.336 53.644 313.336C56.86 313.336 59.1 315.784 59.1 319.272ZM57.916 319.272C57.916 316.408 56.172 314.456 53.644 314.456C51.116 314.456 49.388 316.408 49.388 319.272C49.388 322.136 51.116 324.088 53.644 324.088C56.172 324.088 57.916 322.12 57.916 319.272ZM60.8689 328.376V317.256H61.8289L61.9409 318.824C62.4849 317.624 63.5729 317.048 64.8689 317.048C67.1089 317.048 68.4529 318.76 68.4529 321.096C68.4529 323.432 67.1569 325.192 64.8689 325.192C63.5569 325.192 62.5169 324.632 61.9729 323.512V328.376H60.8689ZM61.9889 321.128C61.9889 322.904 62.9809 324.2 64.6769 324.2C66.3569 324.2 67.3329 322.904 67.3329 321.128C67.3329 319.336 66.3569 318.056 64.6769 318.056C62.9809 318.056 61.9889 319.336 61.9889 321.128ZM69.5886 321.144C69.5886 318.712 71.0766 317.048 73.3326 317.048C75.1246 317.048 76.4366 318.088 76.7406 319.688H75.6366C75.3486 318.616 74.4206 318.024 73.3486 318.024C71.7806 318.024 70.6766 319.224 70.6766 321.128C70.6766 322.968 71.7006 324.2 73.2686 324.2C74.4206 324.2 75.3486 323.56 75.6526 322.568H76.7726C76.4046 324.152 75.0286 325.192 73.2686 325.192C71.0766 325.192 69.5886 323.576 69.5886 321.144ZM78.9091 315.128C78.4611 315.128 78.0931 314.76 78.0931 314.312C78.0931 313.864 78.4611 313.48 78.9091 313.48C79.3571 313.48 79.7411 313.864 79.7411 314.312C79.7411 314.76 79.3571 315.128 78.9091 315.128ZM78.3651 325V317.256H79.4691V325H78.3651ZM86.7954 314.456L85.5794 316.36H84.6674L85.6274 314.456H86.7954ZM81.1474 321.128C81.1474 318.76 82.8114 317.048 85.0834 317.048C87.3554 317.048 89.0194 318.76 89.0194 321.128C89.0194 323.48 87.3554 325.192 85.0834 325.192C82.8114 325.192 81.1474 323.48 81.1474 321.128ZM82.2674 321.112C82.2674 322.936 83.4194 324.2 85.0834 324.2C86.7314 324.2 87.8994 322.936 87.8994 321.112C87.8994 319.32 86.7314 318.04 85.0834 318.04C83.4194 318.04 82.2674 319.32 82.2674 321.112ZM91.8091 325H90.7051V317.256H91.6651L91.8251 318.6C92.3371 317.608 93.3611 317.048 94.4811 317.048C96.6091 317.048 97.4891 318.312 97.4891 320.264V325H96.3851V320.504C96.3851 318.696 95.5691 318.056 94.2891 318.056C92.7051 318.056 91.8091 319.208 91.8091 320.952V325ZM105.711 314.584H103.375V313.544H106.815V325H105.711V314.584Z" fill="#EEE6D5"/>
<g filter="url(#filter0_d_1209_19665)">
<rect width="253" height="43" transform="translate(20 379)" fill="#EEE6D5"/>
<path d="M55.756 407H48.892V395.544H55.74V396.6H50.044V400.728H55.212V401.768H50.044V405.944H55.756V407ZM57.1191 404.824H58.1751C58.1751 405.72 58.8471 406.28 59.9351 406.28C61.1351 406.28 61.8391 405.768 61.8391 404.936C61.8391 404.296 61.5191 403.928 60.6071 403.704L59.2791 403.368C57.9351 403.032 57.2791 402.328 57.2791 401.272C57.2791 399.912 58.4151 399.048 60.0791 399.048C61.7111 399.048 62.7671 399.944 62.8151 401.384H61.7431C61.7111 400.488 61.0871 399.96 60.0471 399.96C58.9591 399.96 58.3511 400.424 58.3511 401.256C58.3511 401.848 58.7671 402.264 59.6151 402.472L60.9431 402.808C62.2871 403.144 62.8951 403.768 62.8951 404.888C62.8951 406.28 61.7111 407.192 59.9511 407.192C58.2071 407.192 57.1191 406.264 57.1191 404.824ZM64.6326 410.376V399.256H65.5926L65.7046 400.824C66.2486 399.624 67.3366 399.048 68.6326 399.048C70.8726 399.048 72.2166 400.76 72.2166 403.096C72.2166 405.432 70.9206 407.192 68.6326 407.192C67.3206 407.192 66.2806 406.632 65.7366 405.512V410.376H64.6326ZM65.7526 403.128C65.7526 404.904 66.7446 406.2 68.4406 406.2C70.1206 406.2 71.0966 404.904 71.0966 403.128C71.0966 401.336 70.1206 400.056 68.4406 400.056C66.7446 400.056 65.7526 401.336 65.7526 403.128ZM76.1204 407.192C74.4724 407.192 73.4964 406.264 73.4964 404.904C73.4964 403.48 74.5844 402.584 76.3924 402.44L78.9524 402.232V401.976C78.9524 400.456 78.0404 399.976 76.9044 399.976C75.5604 399.976 74.7604 400.584 74.7604 401.624H73.7524C73.7524 400.056 75.0324 399.048 76.9364 399.048C78.7284 399.048 80.0404 399.944 80.0404 401.992V407H79.1124L78.9684 405.64C78.4884 406.616 77.4324 407.192 76.1204 407.192ZM76.3764 406.296C78.0084 406.296 78.9524 405.16 78.9524 403.48V403.064L76.6644 403.24C75.2084 403.368 74.6164 404.008 74.6164 404.872C74.6164 405.816 75.3204 406.296 76.3764 406.296ZM84.1118 398.088H83.3118C83.2478 397.032 83.7118 396.392 84.4958 396.392C85.3598 396.392 85.7918 397.256 86.4318 397.256C86.8158 397.256 86.9758 396.968 86.9758 396.392H87.7598C87.8078 397.496 87.3438 398.088 86.5118 398.088C85.5838 398.088 85.1678 397.224 84.6238 397.224C84.2878 397.224 84.1118 397.528 84.1118 398.088ZM83.2798 407H82.1758V399.256H83.1358L83.2958 400.6C83.8078 399.608 84.8318 399.048 85.9518 399.048C88.0798 399.048 88.9598 400.312 88.9598 402.264V407H87.8558V402.504C87.8558 400.696 87.0398 400.056 85.7598 400.056C84.1758 400.056 83.2798 401.208 83.2798 402.952V407ZM93.3041 407.192C91.6561 407.192 90.6801 406.264 90.6801 404.904C90.6801 403.48 91.7681 402.584 93.5761 402.44L96.1361 402.232V401.976C96.1361 400.456 95.2241 399.976 94.0881 399.976C92.7441 399.976 91.9441 400.584 91.9441 401.624H90.9361C90.9361 400.056 92.2161 399.048 94.1201 399.048C95.9121 399.048 97.2241 399.944 97.2241 401.992V407H96.2961L96.1521 405.64C95.6721 406.616 94.6161 407.192 93.3041 407.192ZM93.5601 406.296C95.1921 406.296 96.1361 405.16 96.1361 403.48V403.064L93.8481 403.24C92.3921 403.368 91.8001 404.008 91.8001 404.872C91.8001 405.816 92.5041 406.296 93.5601 406.296Z" fill="black"/>
<rect width="253" height="43" transform="translate(20 422)" fill="#EEE6D5"/>
<path d="M55.756 450H48.892V438.544H55.74V439.6H50.044V443.728H55.212V444.768H50.044V448.944H55.756V450ZM64.8791 450H58.0151V438.544H64.8631V439.6H59.1671V443.728H64.3351V444.768H59.1671V448.944H64.8791V450ZM67.8423 450.176C67.2983 450.176 66.8343 449.728 66.8343 449.2C66.8343 448.656 67.2983 448.192 67.8423 448.192C68.3863 448.192 68.8503 448.656 68.8503 449.2C68.8503 449.728 68.3863 450.176 67.8423 450.176ZM70.6501 446.016V438.544H71.8021V445.968C71.8021 447.984 72.9061 449.072 74.9061 449.072C76.8581 449.072 77.9621 447.952 77.9621 445.968V438.544H79.1141V446.016C79.1141 448.608 77.5141 450.192 74.9061 450.192C72.2501 450.192 70.6501 448.624 70.6501 446.016ZM81.6639 446.016V438.544H82.8159V445.968C82.8159 447.984 83.9199 449.072 85.9199 449.072C87.8719 449.072 88.9759 447.952 88.9759 445.968V438.544H90.1279V446.016C90.1279 448.608 88.5279 450.192 85.9199 450.192C83.2639 450.192 81.6639 448.624 81.6639 446.016Z" fill="black"/>
<rect width="253" height="43" transform="translate(20 465)" fill="#EEE6D5"/>
<path d="M53.26 488.792H50.044V493H48.892V481.544H53.26C55.468 481.544 56.86 482.984 56.86 485.144C56.86 487.224 55.452 488.792 53.26 488.792ZM53.1 482.584H50.044V487.752H53.036C54.7 487.752 55.66 486.696 55.66 485.128C55.66 483.544 54.684 482.584 53.1 482.584ZM61.3044 493.192C59.0324 493.192 57.5124 491.56 57.5124 489.128C57.5124 486.712 59.0164 485.048 61.2244 485.048C63.3204 485.048 64.7444 486.536 64.7444 488.728V489.272H58.5844C58.6644 491.16 59.6564 492.248 61.3204 492.248C62.5844 492.248 63.4004 491.704 63.6884 490.68H64.7444C64.3284 492.312 63.1284 493.192 61.3044 493.192ZM61.2244 485.992C59.7684 485.992 58.8084 486.952 58.6164 488.472H63.6404C63.6404 486.984 62.6804 485.992 61.2244 485.992ZM70.4775 485.16V486.152H69.8695C68.4455 486.152 67.5335 487.112 67.5335 488.584V493H66.4295V485.256H67.4695L67.5495 486.456C67.8535 485.624 68.6695 485.08 69.7575 485.08C69.9975 485.08 70.2055 485.096 70.4775 485.16ZM76.7611 482.456L75.5451 484.36H74.6331L75.5931 482.456H76.7611ZM77.3051 485.256H78.4091V493H77.4491L77.3051 491.688C76.8731 492.584 75.8011 493.192 74.5851 493.192C72.7611 493.192 71.7691 491.944 71.7691 490.056V485.24H72.8891V489.704C72.8891 491.544 73.7051 492.2 74.9371 492.2C76.4251 492.2 77.3051 491.208 77.3051 489.368V485.256Z" fill="black"/>
<rect width="253" height="43" transform="translate(20 508)" fill="#EEE6D5"/>
<path d="M54.732 530.96H50.044V536H48.892V524.544H55.644V525.6H50.044V529.92H54.732V530.96ZM60.8231 528.16V529.152H60.2151C58.7911 529.152 57.8791 530.112 57.8791 531.584V536H56.7751V528.256H57.8151L57.8951 529.456C58.1991 528.624 59.0151 528.08 60.1031 528.08C60.3431 528.08 60.5511 528.096 60.8231 528.16ZM64.4348 536.192C62.7868 536.192 61.8108 535.264 61.8108 533.904C61.8108 532.48 62.8988 531.584 64.7068 531.44L67.2668 531.232V530.976C67.2668 529.456 66.3548 528.976 65.2188 528.976C63.8748 528.976 63.0748 529.584 63.0748 530.624H62.0668C62.0668 529.056 63.3468 528.048 65.2508 528.048C67.0428 528.048 68.3548 528.944 68.3548 530.992V536H67.4268L67.2828 534.64C66.8028 535.616 65.7468 536.192 64.4348 536.192ZM64.6908 535.296C66.3228 535.296 67.2668 534.16 67.2668 532.48V532.064L64.9788 532.24C63.5228 532.368 62.9308 533.008 62.9308 533.872C62.9308 534.816 63.6348 535.296 64.6908 535.296ZM71.5941 536H70.4901V528.256H71.4501L71.6101 529.6C72.1221 528.608 73.1461 528.048 74.2661 528.048C76.3941 528.048 77.2741 529.312 77.2741 531.264V536H76.1701V531.504C76.1701 529.696 75.3541 529.056 74.0741 529.056C72.4901 529.056 71.5941 530.208 71.5941 531.952V536ZM78.8505 532.144C78.8505 529.712 80.3385 528.048 82.5945 528.048C84.3865 528.048 85.6985 529.088 86.0025 530.688H84.8985C84.6105 529.616 83.6825 529.024 82.6105 529.024C81.0425 529.024 79.9385 530.224 79.9385 532.128C79.9385 533.968 80.9625 535.2 82.5305 535.2C83.6825 535.2 84.6105 534.56 84.9145 533.568H86.0345C85.6665 535.152 84.2905 536.192 82.5305 536.192C80.3385 536.192 78.8505 534.576 78.8505 532.144ZM88.171 526.128C87.723 526.128 87.355 525.76 87.355 525.312C87.355 524.864 87.723 524.48 88.171 524.48C88.619 524.48 89.003 524.864 89.003 525.312C89.003 525.76 88.619 526.128 88.171 526.128ZM87.627 536V528.256H88.731V536H87.627ZM93.1773 536.192C91.5293 536.192 90.5533 535.264 90.5533 533.904C90.5533 532.48 91.6413 531.584 93.4493 531.44L96.0093 531.232V530.976C96.0093 529.456 95.0973 528.976 93.9613 528.976C92.6173 528.976 91.8173 529.584 91.8173 530.624H90.8093C90.8093 529.056 92.0893 528.048 93.9933 528.048C95.7853 528.048 97.0973 528.944 97.0973 530.992V536H96.1693L96.0253 534.64C95.5453 535.616 94.4893 536.192 93.1773 536.192ZM93.4333 535.296C95.0653 535.296 96.0093 534.16 96.0093 532.48V532.064L93.7213 532.24C92.2653 532.368 91.6733 533.008 91.6733 533.872C91.6733 534.816 92.3773 535.296 93.4333 535.296Z" fill="black"/>
<rect width="253" height="43" transform="translate(20 551)" fill="#EEE6D5"/>
<path d="M50.044 567.544V579H48.892V567.544H50.044ZM54.2855 579H53.1975V572.184H51.6455V571.256H53.1975V568.808H54.2855V571.256H55.8375V572.184H54.2855V579ZM59.2941 579.192C57.6461 579.192 56.6701 578.264 56.6701 576.904C56.6701 575.48 57.7581 574.584 59.5661 574.44L62.1261 574.232V573.976C62.1261 572.456 61.2141 571.976 60.0781 571.976C58.7341 571.976 57.9341 572.584 57.9341 573.624H56.9261C56.9261 572.056 58.2061 571.048 60.1101 571.048C61.9021 571.048 63.2141 571.944 63.2141 573.992V579H62.2861L62.1421 577.64C61.6621 578.616 60.6061 579.192 59.2941 579.192ZM59.5501 578.296C61.1821 578.296 62.1261 577.16 62.1261 575.48V575.064L59.8381 575.24C58.3821 575.368 57.7901 576.008 57.7901 576.872C57.7901 577.816 58.4941 578.296 59.5501 578.296ZM66.5015 579H65.3975V567.336H66.5015V579ZM69.3135 569.128C68.8655 569.128 68.4975 568.76 68.4975 568.312C68.4975 567.864 68.8655 567.48 69.3135 567.48C69.7615 567.48 70.1455 567.864 70.1455 568.312C70.1455 568.76 69.7615 569.128 69.3135 569.128ZM68.7695 579V571.256H69.8735V579H68.7695ZM74.3198 579.192C72.6718 579.192 71.6958 578.264 71.6958 576.904C71.6958 575.48 72.7838 574.584 74.5918 574.44L77.1518 574.232V573.976C77.1518 572.456 76.2398 571.976 75.1038 571.976C73.7598 571.976 72.9598 572.584 72.9598 573.624H71.9518C71.9518 572.056 73.2318 571.048 75.1358 571.048C76.9278 571.048 78.2398 571.944 78.2398 573.992V579H77.3118L77.1678 577.64C76.6878 578.616 75.6318 579.192 74.3198 579.192ZM74.5758 578.296C76.2078 578.296 77.1518 577.16 77.1518 575.48V575.064L74.8638 575.24C73.4078 575.368 72.8158 576.008 72.8158 576.872C72.8158 577.816 73.5198 578.296 74.5758 578.296Z" fill="black"/>
</g>
<rect x="316.5" y="214.5" width="325" height="489" rx="4.5" stroke="#8A38F5" stroke-dasharray="10 5"/>
<path d="M360.758 274.552C360.758 272.568 362.358 271.224 364.742 271.224C366.95 271.224 368.374 272.456 368.502 274.456H366.918C366.838 273.304 366.022 272.632 364.726 272.632C363.27 272.632 362.326 273.368 362.326 274.504C362.326 275.432 362.854 275.992 363.942 276.248L365.846 276.696C367.734 277.128 368.694 278.152 368.694 279.784C368.694 281.864 367.078 283.192 364.614 283.192C362.262 283.192 360.694 281.96 360.598 279.976H362.198C362.23 281.08 363.158 281.784 364.614 281.784C366.15 281.784 367.126 281.064 367.126 279.912C367.126 279 366.63 278.424 365.526 278.168L363.622 277.736C361.734 277.304 360.758 276.216 360.758 274.552ZM373.705 283.192C371.401 283.192 369.817 281.528 369.817 279.096C369.817 276.648 371.369 274.952 373.641 274.952C375.865 274.952 377.321 276.488 377.321 278.808V279.368L371.273 279.384C371.385 281.032 372.249 281.944 373.737 281.944C374.905 281.944 375.673 281.464 375.929 280.568H377.337C376.953 282.248 375.641 283.192 373.705 283.192ZM373.641 276.216C372.329 276.216 371.497 277 371.305 278.376H375.817C375.817 277.08 374.969 276.216 373.641 276.216ZM380.457 283H378.953V271.224H380.457V283ZM385.967 283.192C383.663 283.192 382.079 281.528 382.079 279.096C382.079 276.648 383.631 274.952 385.903 274.952C388.127 274.952 389.583 276.488 389.583 278.808V279.368L383.535 279.384C383.647 281.032 384.511 281.944 385.999 281.944C387.167 281.944 387.935 281.464 388.191 280.568H389.599C389.215 282.248 387.903 283.192 385.967 283.192ZM385.903 276.216C384.591 276.216 383.759 277 383.567 278.376H388.079C388.079 277.08 387.231 276.216 385.903 276.216ZM390.67 279.096C390.67 276.648 392.222 274.952 394.51 274.952C396.478 274.952 397.854 276.072 398.126 277.816H396.622C396.366 276.824 395.566 276.296 394.558 276.296C393.134 276.296 392.158 277.384 392.158 279.08C392.158 280.76 393.07 281.848 394.494 281.848C395.566 281.848 396.366 281.288 396.638 280.36H398.142C397.838 282.056 396.382 283.192 394.494 283.192C392.19 283.192 390.67 281.56 390.67 279.096ZM399.137 279.096C399.137 276.648 400.689 274.952 402.977 274.952C404.945 274.952 406.321 276.072 406.593 277.816H405.089C404.833 276.824 404.033 276.296 403.025 276.296C401.601 276.296 400.625 277.384 400.625 279.08C400.625 280.76 401.537 281.848 402.961 281.848C404.033 281.848 404.833 281.288 405.105 280.36H406.609C406.305 282.056 404.849 283.192 402.961 283.192C400.657 283.192 399.137 281.56 399.137 279.096ZM408.852 273.32C408.308 273.32 407.86 272.872 407.86 272.328C407.86 271.768 408.308 271.336 408.852 271.336C409.396 271.336 409.844 271.768 409.844 272.328C409.844 272.872 409.396 273.32 408.852 273.32ZM408.116 283V275.176H409.62V283H408.116ZM411.212 279.08C411.212 276.664 412.94 274.968 415.292 274.968C417.628 274.968 419.356 276.664 419.356 279.08C419.356 281.496 417.628 283.192 415.292 283.192C412.94 283.192 411.212 281.496 411.212 279.08ZM412.732 279.08C412.732 280.712 413.772 281.848 415.292 281.848C416.796 281.848 417.852 280.712 417.852 279.08C417.852 277.448 416.796 276.312 415.292 276.312C413.772 276.312 412.732 277.448 412.732 279.08ZM422.445 283H420.941V275.176H422.301L422.461 276.376C422.957 275.48 423.949 274.952 425.053 274.952C427.117 274.952 428.061 276.216 428.061 278.216V283H426.557V278.552C426.557 276.968 425.821 276.328 424.669 276.328C423.261 276.328 422.445 277.336 422.445 278.856V283ZM432.352 283.192C430.672 283.192 429.68 282.248 429.68 280.824C429.68 279.384 430.752 278.488 432.592 278.344L435.056 278.152V277.928C435.056 276.616 434.272 276.152 433.216 276.152C431.952 276.152 431.232 276.712 431.232 277.656H429.92C429.92 276.024 431.264 274.952 433.28 274.952C435.216 274.952 436.528 275.976 436.528 278.088V283H435.248L435.088 281.736C434.688 282.632 433.616 283.192 432.352 283.192ZM432.784 282.024C434.208 282.024 435.072 281.096 435.072 279.624V279.208L433.072 279.368C431.744 279.496 431.2 280.008 431.2 280.776C431.2 281.608 431.808 282.024 432.784 282.024ZM448.234 275.176H449.722V283H448.378L448.218 281.816C447.77 282.632 446.73 283.192 445.578 283.192C443.754 283.192 442.73 281.96 442.73 280.04V275.176H444.234V279.544C444.234 281.224 444.954 281.864 446.106 281.864C447.482 281.864 448.234 280.984 448.234 279.304V275.176ZM453.328 283H451.824V275.176H453.184L453.344 276.376C453.84 275.48 454.832 274.952 455.936 274.952C458 274.952 458.944 276.216 458.944 278.216V283H457.44V278.552C457.44 276.968 456.704 276.328 455.552 276.328C454.144 276.328 453.328 277.336 453.328 278.856V283ZM465.242 286.504V275.176H466.602L466.714 276.584C467.242 275.512 468.298 274.952 469.546 274.952C471.786 274.952 473.178 276.632 473.178 279.032C473.178 281.416 471.866 283.208 469.546 283.208C468.298 283.208 467.258 282.68 466.746 281.72V286.504H465.242ZM466.762 279.096C466.762 280.696 467.69 281.848 469.226 281.848C470.762 281.848 471.674 280.696 471.674 279.096C471.674 277.48 470.762 276.328 469.226 276.328C467.69 276.328 466.762 277.464 466.762 279.096ZM477.044 283.192C475.364 283.192 474.372 282.248 474.372 280.824C474.372 279.384 475.444 278.488 477.284 278.344L479.748 278.152V277.928C479.748 276.616 478.964 276.152 477.908 276.152C476.644 276.152 475.924 276.712 475.924 277.656H474.612C474.612 276.024 475.956 274.952 477.972 274.952C479.908 274.952 481.22 275.976 481.22 278.088V283H479.94L479.78 281.736C479.38 282.632 478.308 283.192 477.044 283.192ZM477.476 282.024C478.9 282.024 479.764 281.096 479.764 279.624V279.208L477.764 279.368C476.436 279.496 475.892 280.008 475.892 280.776C475.892 281.608 476.5 282.024 477.476 282.024ZM485.958 272.136L484.582 274.264H483.43L484.502 272.136H485.958ZM483.222 283V275.176H484.726V283H483.222ZM486.19 280.728H487.63C487.63 281.528 488.238 282.008 489.23 282.008C490.286 282.008 490.894 281.576 490.894 280.856C490.894 280.328 490.638 280.008 489.822 279.8L488.446 279.48C487.054 279.144 486.398 278.456 486.398 277.304C486.398 275.864 487.614 274.952 489.342 274.952C491.054 274.952 492.174 275.912 492.206 277.4H490.766C490.734 276.616 490.206 276.12 489.294 276.12C488.35 276.12 487.822 276.536 487.822 277.256C487.822 277.784 488.206 278.136 488.974 278.328L490.35 278.664C491.678 278.984 492.334 279.592 492.334 280.76C492.334 282.248 491.054 283.192 489.198 283.192C487.358 283.192 486.19 282.216 486.19 280.728Z" fill="black"/>
<path d="M587.94 281.78L592.287 277.433C592.8 276.92 592.8 276.08 592.287 275.567L587.94 271.22" stroke="black" stroke-width="1.5" stroke-miterlimit="10" stroke-linecap="round" stroke-linejoin="round"/>
<path d="M336.224 239.872V238.432H344.752V239.872H341.28V250H339.712V239.872H336.224ZM348.103 250.192C345.799 250.192 344.215 248.528 344.215 246.096C344.215 243.648 345.767 241.952 348.039 241.952C350.263 241.952 351.719 243.488 351.719 245.808V246.368L345.671 246.384C345.783 248.032 346.647 248.944 348.135 248.944C349.303 248.944 350.071 248.464 350.327 247.568H351.735C351.351 249.248 350.039 250.192 348.103 250.192ZM348.039 243.216C346.727 243.216 345.895 244 345.703 245.376H350.215C350.215 244.08 349.367 243.216 348.039 243.216ZM353.822 250H352.094L354.83 246.128L352.11 242.176H353.854L355.838 245.088L357.774 242.176H359.486L356.766 246.128L359.438 250H357.694L355.742 247.136L353.822 250ZM363.181 250H361.677V243.44H360.141V242.176H361.677V239.728H363.181V242.176H364.717V243.44H363.181V250ZM365.397 246.08C365.397 243.664 367.125 241.968 369.477 241.968C371.813 241.968 373.541 243.664 373.541 246.08C373.541 248.496 371.813 250.192 369.477 250.192C367.125 250.192 365.397 248.496 365.397 246.08ZM366.917 246.08C366.917 247.712 367.957 248.848 369.477 248.848C370.981 248.848 372.037 247.712 372.037 246.08C372.037 244.448 370.981 243.312 369.477 243.312C367.957 243.312 366.917 244.448 366.917 246.08Z" fill="black"/>
<path d="M339.156 304.55V303.692H345.825V304.55H342.952V313H342.016V304.55H339.156ZM348.528 313.156C346.682 313.156 345.447 311.83 345.447 309.854C345.447 307.891 346.669 306.539 348.463 306.539C350.166 306.539 351.323 307.748 351.323 309.529V309.971H346.318C346.383 311.505 347.189 312.389 348.541 312.389C349.568 312.389 350.231 311.947 350.465 311.115H351.323C350.985 312.441 350.01 313.156 348.528 313.156ZM348.463 307.306C347.28 307.306 346.5 308.086 346.344 309.321H350.426C350.426 308.112 349.646 307.306 348.463 307.306ZM352.723 313H351.67L353.919 309.854L351.683 306.708H352.736L354.517 309.23L356.285 306.708H357.325L355.089 309.867L357.312 313H356.246L354.478 310.478L352.723 313ZM360.024 313H359.14V307.462H357.879V306.708H359.14V304.719H360.024V306.708H361.285V307.462H360.024V313ZM361.882 309.854C361.882 307.93 363.234 306.539 365.08 306.539C366.926 306.539 368.278 307.93 368.278 309.854C368.278 311.765 366.926 313.156 365.08 313.156C363.234 313.156 361.882 311.765 361.882 309.854ZM362.792 309.841C362.792 311.323 363.728 312.35 365.08 312.35C366.419 312.35 367.368 311.323 367.368 309.841C367.368 308.385 366.419 307.345 365.08 307.345C363.728 307.345 362.792 308.385 362.792 309.841Z" fill="#686464"/>
<path d="M363.758 386.552C363.758 384.568 365.358 383.224 367.742 383.224C369.95 383.224 371.374 384.456 371.502 386.456H369.918C369.838 385.304 369.022 384.632 367.726 384.632C366.27 384.632 365.326 385.368 365.326 386.504C365.326 387.432 365.854 387.992 366.942 388.248L368.846 388.696C370.734 389.128 371.694 390.152 371.694 391.784C371.694 393.864 370.078 395.192 367.614 395.192C365.262 395.192 363.694 393.96 363.598 391.976H365.198C365.23 393.08 366.158 393.784 367.614 393.784C369.15 393.784 370.126 393.064 370.126 391.912C370.126 391 369.63 390.424 368.526 390.168L366.622 389.736C364.734 389.304 363.758 388.216 363.758 386.552ZM376.705 395.192C374.401 395.192 372.817 393.528 372.817 391.096C372.817 388.648 374.369 386.952 376.641 386.952C378.865 386.952 380.321 388.488 380.321 390.808V391.368L374.273 391.384C374.385 393.032 375.249 393.944 376.737 393.944C377.905 393.944 378.673 393.464 378.929 392.568H380.337C379.953 394.248 378.641 395.192 376.705 395.192ZM376.641 388.216C375.329 388.216 374.497 389 374.305 390.376H378.817C378.817 389.08 377.969 388.216 376.641 388.216ZM383.457 395H381.953V383.224H383.457V395ZM388.967 395.192C386.663 395.192 385.079 393.528 385.079 391.096C385.079 388.648 386.631 386.952 388.903 386.952C391.127 386.952 392.583 388.488 392.583 390.808V391.368L386.535 391.384C386.647 393.032 387.511 393.944 388.999 393.944C390.167 393.944 390.935 393.464 391.191 392.568H392.599C392.215 394.248 390.903 395.192 388.967 395.192ZM388.903 388.216C387.591 388.216 386.759 389 386.567 390.376H391.079C391.079 389.08 390.231 388.216 388.903 388.216ZM393.67 391.096C393.67 388.648 395.222 386.952 397.51 386.952C399.478 386.952 400.854 388.072 401.126 389.816H399.622C399.366 388.824 398.566 388.296 397.558 388.296C396.134 388.296 395.158 389.384 395.158 391.08C395.158 392.76 396.07 393.848 397.494 393.848C398.566 393.848 399.366 393.288 399.638 392.36H401.142C400.838 394.056 399.382 395.192 397.494 395.192C395.19 395.192 393.67 393.56 393.67 391.096ZM402.137 391.096C402.137 388.648 403.689 386.952 405.977 386.952C407.945 386.952 409.321 388.072 409.593 389.816H408.089C407.833 388.824 407.033 388.296 406.025 388.296C404.601 388.296 403.625 389.384 403.625 391.08C403.625 392.76 404.537 393.848 405.961 393.848C407.033 393.848 407.833 393.288 408.105 392.36H409.609C409.305 394.056 407.849 395.192 405.961 395.192C403.657 395.192 402.137 393.56 402.137 391.096ZM411.852 385.32C411.308 385.32 410.86 384.872 410.86 384.328C410.86 383.768 411.308 383.336 411.852 383.336C412.396 383.336 412.844 383.768 412.844 384.328C412.844 384.872 412.396 385.32 411.852 385.32ZM411.116 395V387.176H412.62V395H411.116ZM414.212 391.08C414.212 388.664 415.94 386.968 418.292 386.968C420.628 386.968 422.356 388.664 422.356 391.08C422.356 393.496 420.628 395.192 418.292 395.192C415.94 395.192 414.212 393.496 414.212 391.08ZM415.732 391.08C415.732 392.712 416.772 393.848 418.292 393.848C419.796 393.848 420.852 392.712 420.852 391.08C420.852 389.448 419.796 388.312 418.292 388.312C416.772 388.312 415.732 389.448 415.732 391.08ZM425.445 395H423.941V387.176H425.301L425.461 388.376C425.957 387.48 426.949 386.952 428.053 386.952C430.117 386.952 431.061 388.216 431.061 390.216V395H429.557V390.552C429.557 388.968 428.821 388.328 427.669 388.328C426.261 388.328 425.445 389.336 425.445 390.856V395ZM435.352 395.192C433.672 395.192 432.68 394.248 432.68 392.824C432.68 391.384 433.752 390.488 435.592 390.344L438.056 390.152V389.928C438.056 388.616 437.272 388.152 436.216 388.152C434.952 388.152 434.232 388.712 434.232 389.656H432.92C432.92 388.024 434.264 386.952 436.28 386.952C438.216 386.952 439.528 387.976 439.528 390.088V395H438.248L438.088 393.736C437.688 394.632 436.616 395.192 435.352 395.192ZM435.784 394.024C437.208 394.024 438.072 393.096 438.072 391.624V391.208L436.072 391.368C434.744 391.496 434.2 392.008 434.2 392.776C434.2 393.608 434.808 394.024 435.784 394.024ZM451.234 387.176H452.722V395H451.378L451.218 393.816C450.77 394.632 449.73 395.192 448.578 395.192C446.754 395.192 445.73 393.96 445.73 392.04V387.176H447.234V391.544C447.234 393.224 447.954 393.864 449.106 393.864C450.482 393.864 451.234 392.984 451.234 391.304V387.176ZM456.328 395H454.824V387.176H456.184L456.344 388.376C456.84 387.48 457.832 386.952 458.936 386.952C461 386.952 461.944 388.216 461.944 390.216V395H460.44V390.552C460.44 388.968 459.704 388.328 458.552 388.328C457.144 388.328 456.328 389.336 456.328 390.856V395ZM468.242 398.504V387.176H469.602L469.714 388.584C470.242 387.512 471.298 386.952 472.546 386.952C474.786 386.952 476.178 388.632 476.178 391.032C476.178 393.416 474.866 395.208 472.546 395.208C471.298 395.208 470.258 394.68 469.746 393.72V398.504H468.242ZM469.762 391.096C469.762 392.696 470.69 393.848 472.226 393.848C473.762 393.848 474.674 392.696 474.674 391.096C474.674 389.48 473.762 388.328 472.226 388.328C470.69 388.328 469.762 389.464 469.762 391.096ZM480.044 395.192C478.364 395.192 477.372 394.248 477.372 392.824C477.372 391.384 478.444 390.488 480.284 390.344L482.748 390.152V389.928C482.748 388.616 481.964 388.152 480.908 388.152C479.644 388.152 478.924 388.712 478.924 389.656H477.612C477.612 388.024 478.956 386.952 480.972 386.952C482.908 386.952 484.22 387.976 484.22 390.088V395H482.94L482.78 393.736C482.38 394.632 481.308 395.192 480.044 395.192ZM480.476 394.024C481.9 394.024 482.764 393.096 482.764 391.624V391.208L480.764 391.368C479.436 391.496 478.892 392.008 478.892 392.776C478.892 393.608 479.5 394.024 480.476 394.024ZM488.958 384.136L487.582 386.264H486.43L487.502 384.136H488.958ZM486.222 395V387.176H487.726V395H486.222ZM489.19 392.728H490.63C490.63 393.528 491.238 394.008 492.23 394.008C493.286 394.008 493.894 393.576 493.894 392.856C493.894 392.328 493.638 392.008 492.822 391.8L491.446 391.48C490.054 391.144 489.398 390.456 489.398 389.304C489.398 387.864 490.614 386.952 492.342 386.952C494.054 386.952 495.174 387.912 495.206 389.4H493.766C493.734 388.616 493.206 388.12 492.294 388.12C491.35 388.12 490.822 388.536 490.822 389.256C490.822 389.784 491.206 390.136 491.974 390.328L493.35 390.664C494.678 390.984 495.334 391.592 495.334 392.76C495.334 394.248 494.054 395.192 492.198 395.192C490.358 395.192 489.19 394.216 489.19 392.728Z" fill="black"/>
<path d="M598.28 386.467L593.933 390.813C593.42 391.327 592.58 391.327 592.067 390.813L587.72 386.467" stroke="black" stroke-width="1.5" stroke-miterlimit="10" stroke-linecap="round" stroke-linejoin="round"/>
<path d="M339.224 351.872V350.432H347.752V351.872H344.28V362H342.712V351.872H339.224ZM351.103 362.192C348.799 362.192 347.215 360.528 347.215 358.096C347.215 355.648 348.767 353.952 351.039 353.952C353.263 353.952 354.719 355.488 354.719 357.808V358.368L348.671 358.384C348.783 360.032 349.647 360.944 351.135 360.944C352.303 360.944 353.071 360.464 353.327 359.568H354.735C354.351 361.248 353.039 362.192 351.103 362.192ZM351.039 355.216C349.727 355.216 348.895 356 348.703 357.376H353.215C353.215 356.08 352.367 355.216 351.039 355.216ZM356.822 362H355.094L357.83 358.128L355.11 354.176H356.854L358.838 357.088L360.774 354.176H362.486L359.766 358.128L362.438 362H360.694L358.742 359.136L356.822 362ZM366.181 362H364.677V355.44H363.141V354.176H364.677V351.728H366.181V354.176H367.717V355.44H366.181V362ZM368.397 358.08C368.397 355.664 370.125 353.968 372.477 353.968C374.813 353.968 376.541 355.664 376.541 358.08C376.541 360.496 374.813 362.192 372.477 362.192C370.125 362.192 368.397 360.496 368.397 358.08ZM369.917 358.08C369.917 359.712 370.957 360.848 372.477 360.848C373.981 360.848 375.037 359.712 375.037 358.08C375.037 356.448 373.981 355.312 372.477 355.312C370.957 355.312 369.917 356.448 369.917 358.08Z" fill="black"/>
<path d="M342.156 416.55V415.692H348.825V416.55H345.952V425H345.016V416.55H342.156ZM351.528 425.156C349.682 425.156 348.447 423.83 348.447 421.854C348.447 419.891 349.669 418.539 351.463 418.539C353.166 418.539 354.323 419.748 354.323 421.529V421.971H349.318C349.383 423.505 350.189 424.389 351.541 424.389C352.568 424.389 353.231 423.947 353.465 423.115H354.323C353.985 424.441 353.01 425.156 351.528 425.156ZM351.463 419.306C350.28 419.306 349.5 420.086 349.344 421.321H353.426C353.426 420.112 352.646 419.306 351.463 419.306ZM355.723 425H354.67L356.919 421.854L354.683 418.708H355.736L357.517 421.23L359.285 418.708H360.325L358.089 421.867L360.312 425H359.246L357.478 422.478L355.723 425ZM363.024 425H362.14V419.462H360.879V418.708H362.14V416.719H363.024V418.708H364.285V419.462H363.024V425ZM364.882 421.854C364.882 419.93 366.234 418.539 368.08 418.539C369.926 418.539 371.278 419.93 371.278 421.854C371.278 423.765 369.926 425.156 368.08 425.156C366.234 425.156 364.882 423.765 364.882 421.854ZM365.792 421.841C365.792 423.323 366.728 424.35 368.08 424.35C369.419 424.35 370.368 423.323 370.368 421.841C370.368 420.385 369.419 419.345 368.08 419.345C366.728 419.345 365.792 420.385 365.792 421.841Z" fill="#686464"/>
<g filter="url(#filter1_d_1209_19665)">
<rect width="253" height="43" transform="translate(339 411)" fill="#EEE6D5"/>
<path d="M374.756 439H367.892V427.544H374.74V428.6H369.044V432.728H374.212V433.768H369.044V437.944H374.756V439ZM376.119 436.824H377.175C377.175 437.72 377.847 438.28 378.935 438.28C380.135 438.28 380.839 437.768 380.839 436.936C380.839 436.296 380.519 435.928 379.607 435.704L378.279 435.368C376.935 435.032 376.279 434.328 376.279 433.272C376.279 431.912 377.415 431.048 379.079 431.048C380.711 431.048 381.767 431.944 381.815 433.384H380.743C380.711 432.488 380.087 431.96 379.047 431.96C377.959 431.96 377.351 432.424 377.351 433.256C377.351 433.848 377.767 434.264 378.615 434.472L379.943 434.808C381.287 435.144 381.895 435.768 381.895 436.888C381.895 438.28 380.711 439.192 378.951 439.192C377.207 439.192 376.119 438.264 376.119 436.824ZM383.633 442.376V431.256H384.593L384.705 432.824C385.249 431.624 386.337 431.048 387.633 431.048C389.873 431.048 391.217 432.76 391.217 435.096C391.217 437.432 389.921 439.192 387.633 439.192C386.321 439.192 385.281 438.632 384.737 437.512V442.376H383.633ZM384.753 435.128C384.753 436.904 385.745 438.2 387.441 438.2C389.121 438.2 390.097 436.904 390.097 435.128C390.097 433.336 389.121 432.056 387.441 432.056C385.745 432.056 384.753 433.336 384.753 435.128ZM395.12 439.192C393.472 439.192 392.496 438.264 392.496 436.904C392.496 435.48 393.584 434.584 395.392 434.44L397.952 434.232V433.976C397.952 432.456 397.04 431.976 395.904 431.976C394.56 431.976 393.76 432.584 393.76 433.624H392.752C392.752 432.056 394.032 431.048 395.936 431.048C397.728 431.048 399.04 431.944 399.04 433.992V439H398.112L397.968 437.64C397.488 438.616 396.432 439.192 395.12 439.192ZM395.376 438.296C397.008 438.296 397.952 437.16 397.952 435.48V435.064L395.664 435.24C394.208 435.368 393.616 436.008 393.616 436.872C393.616 437.816 394.32 438.296 395.376 438.296ZM403.112 430.088H402.312C402.248 429.032 402.712 428.392 403.496 428.392C404.36 428.392 404.792 429.256 405.432 429.256C405.816 429.256 405.976 428.968 405.976 428.392H406.76C406.808 429.496 406.344 430.088 405.512 430.088C404.584 430.088 404.168 429.224 403.624 429.224C403.288 429.224 403.112 429.528 403.112 430.088ZM402.28 439H401.176V431.256H402.136L402.296 432.6C402.808 431.608 403.832 431.048 404.952 431.048C407.08 431.048 407.96 432.312 407.96 434.264V439H406.856V434.504C406.856 432.696 406.04 432.056 404.76 432.056C403.176 432.056 402.28 433.208 402.28 434.952V439ZM412.304 439.192C410.656 439.192 409.68 438.264 409.68 436.904C409.68 435.48 410.768 434.584 412.576 434.44L415.136 434.232V433.976C415.136 432.456 414.224 431.976 413.088 431.976C411.744 431.976 410.944 432.584 410.944 433.624H409.936C409.936 432.056 411.216 431.048 413.12 431.048C414.912 431.048 416.224 431.944 416.224 433.992V439H415.296L415.152 437.64C414.672 438.616 413.616 439.192 412.304 439.192ZM412.56 438.296C414.192 438.296 415.136 437.16 415.136 435.48V435.064L412.848 435.24C411.392 435.368 410.8 436.008 410.8 436.872C410.8 437.816 411.504 438.296 412.56 438.296Z" fill="black"/>
<rect width="253" height="43" transform="translate(339 454)" fill="#EEE6D5"/>
<path d="M374.756 482H367.892V470.544H374.74V471.6H369.044V475.728H374.212V476.768H369.044V480.944H374.756V482ZM383.879 482H377.015V470.544H383.863V471.6H378.167V475.728H383.335V476.768H378.167V480.944H383.879V482ZM386.842 482.176C386.298 482.176 385.834 481.728 385.834 481.2C385.834 480.656 386.298 480.192 386.842 480.192C387.386 480.192 387.85 480.656 387.85 481.2C387.85 481.728 387.386 482.176 386.842 482.176ZM389.65 478.016V470.544H390.802V477.968C390.802 479.984 391.906 481.072 393.906 481.072C395.858 481.072 396.962 479.952 396.962 477.968V470.544H398.114V478.016C398.114 480.608 396.514 482.192 393.906 482.192C391.25 482.192 389.65 480.624 389.65 478.016ZM400.664 478.016V470.544H401.816V477.968C401.816 479.984 402.92 481.072 404.92 481.072C406.872 481.072 407.976 479.952 407.976 477.968V470.544H409.128V478.016C409.128 480.608 407.528 482.192 404.92 482.192C402.264 482.192 400.664 480.624 400.664 478.016Z" fill="black"/>
<rect width="253" height="43" transform="translate(339 497)" fill="#EEE6D5"/>
<path d="M372.26 520.792H369.044V525H367.892V513.544H372.26C374.468 513.544 375.86 514.984 375.86 517.144C375.86 519.224 374.452 520.792 372.26 520.792ZM372.1 514.584H369.044V519.752H372.036C373.7 519.752 374.66 518.696 374.66 517.128C374.66 515.544 373.684 514.584 372.1 514.584ZM380.304 525.192C378.032 525.192 376.512 523.56 376.512 521.128C376.512 518.712 378.016 517.048 380.224 517.048C382.32 517.048 383.744 518.536 383.744 520.728V521.272H377.584C377.664 523.16 378.656 524.248 380.32 524.248C381.584 524.248 382.4 523.704 382.688 522.68H383.744C383.328 524.312 382.128 525.192 380.304 525.192ZM380.224 517.992C378.768 517.992 377.808 518.952 377.616 520.472H382.64C382.64 518.984 381.68 517.992 380.224 517.992ZM389.478 517.16V518.152H388.87C387.446 518.152 386.534 519.112 386.534 520.584V525H385.43V517.256H386.47L386.55 518.456C386.854 517.624 387.67 517.08 388.758 517.08C388.998 517.08 389.206 517.096 389.478 517.16ZM395.761 514.456L394.545 516.36H393.633L394.593 514.456H395.761ZM396.305 517.256H397.409V525H396.449L396.305 523.688C395.873 524.584 394.801 525.192 393.585 525.192C391.761 525.192 390.769 523.944 390.769 522.056V517.24H391.889V521.704C391.889 523.544 392.705 524.2 393.937 524.2C395.425 524.2 396.305 523.208 396.305 521.368V517.256Z" fill="black"/>
<rect width="253" height="43" transform="translate(339 540)" fill="#EEE6D5"/>
<path d="M373.732 562.96H369.044V568H367.892V556.544H374.644V557.6H369.044V561.92H373.732V562.96ZM379.823 560.16V561.152H379.215C377.791 561.152 376.879 562.112 376.879 563.584V568H375.775V560.256H376.815L376.895 561.456C377.199 560.624 378.015 560.08 379.103 560.08C379.343 560.08 379.551 560.096 379.823 560.16ZM383.435 568.192C381.787 568.192 380.811 567.264 380.811 565.904C380.811 564.48 381.899 563.584 383.707 563.44L386.267 563.232V562.976C386.267 561.456 385.355 560.976 384.219 560.976C382.875 560.976 382.075 561.584 382.075 562.624H381.067C381.067 561.056 382.347 560.048 384.251 560.048C386.043 560.048 387.355 560.944 387.355 562.992V568H386.427L386.283 566.64C385.803 567.616 384.747 568.192 383.435 568.192ZM383.691 567.296C385.323 567.296 386.267 566.16 386.267 564.48V564.064L383.979 564.24C382.523 564.368 381.931 565.008 381.931 565.872C381.931 566.816 382.635 567.296 383.691 567.296ZM390.594 568H389.49V560.256H390.45L390.61 561.6C391.122 560.608 392.146 560.048 393.266 560.048C395.394 560.048 396.274 561.312 396.274 563.264V568H395.17V563.504C395.17 561.696 394.354 561.056 393.074 561.056C391.49 561.056 390.594 562.208 390.594 563.952V568ZM397.851 564.144C397.851 561.712 399.339 560.048 401.595 560.048C403.387 560.048 404.699 561.088 405.003 562.688H403.899C403.611 561.616 402.683 561.024 401.611 561.024C400.043 561.024 398.939 562.224 398.939 564.128C398.939 565.968 399.963 567.2 401.531 567.2C402.683 567.2 403.611 566.56 403.915 565.568H405.035C404.667 567.152 403.291 568.192 401.531 568.192C399.339 568.192 397.851 566.576 397.851 564.144ZM407.171 558.128C406.723 558.128 406.355 557.76 406.355 557.312C406.355 556.864 406.723 556.48 407.171 556.48C407.619 556.48 408.003 556.864 408.003 557.312C408.003 557.76 407.619 558.128 407.171 558.128ZM406.627 568V560.256H407.731V568H406.627ZM412.177 568.192C410.529 568.192 409.553 567.264 409.553 565.904C409.553 564.48 410.641 563.584 412.449 563.44L415.009 563.232V562.976C415.009 561.456 414.097 560.976 412.961 560.976C411.617 560.976 410.817 561.584 410.817 562.624H409.809C409.809 561.056 411.089 560.048 412.993 560.048C414.785 560.048 416.097 560.944 416.097 562.992V568H415.169L415.025 566.64C414.545 567.616 413.489 568.192 412.177 568.192ZM412.433 567.296C414.065 567.296 415.009 566.16 415.009 564.48V564.064L412.721 564.24C411.265 564.368 410.673 565.008 410.673 565.872C410.673 566.816 411.377 567.296 412.433 567.296Z" fill="black"/>
<rect width="253" height="43" transform="translate(339 583)" fill="#EEE6D5"/>
<path d="M369.044 599.544V611H367.892V599.544H369.044ZM373.286 611H372.198V604.184H370.646V603.256H372.198V600.808H373.286V603.256H374.838V604.184H373.286V611ZM378.294 611.192C376.646 611.192 375.67 610.264 375.67 608.904C375.67 607.48 376.758 606.584 378.566 606.44L381.126 606.232V605.976C381.126 604.456 380.214 603.976 379.078 603.976C377.734 603.976 376.934 604.584 376.934 605.624H375.926C375.926 604.056 377.206 603.048 379.11 603.048C380.902 603.048 382.214 603.944 382.214 605.992V611H381.286L381.142 609.64C380.662 610.616 379.606 611.192 378.294 611.192ZM378.55 610.296C380.182 610.296 381.126 609.16 381.126 607.48V607.064L378.838 607.24C377.382 607.368 376.79 608.008 376.79 608.872C376.79 609.816 377.494 610.296 378.55 610.296ZM385.502 611H384.398V599.336H385.502V611ZM388.314 601.128C387.866 601.128 387.498 600.76 387.498 600.312C387.498 599.864 387.866 599.48 388.314 599.48C388.762 599.48 389.146 599.864 389.146 600.312C389.146 600.76 388.762 601.128 388.314 601.128ZM387.77 611V603.256H388.874V611H387.77ZM393.32 611.192C391.672 611.192 390.696 610.264 390.696 608.904C390.696 607.48 391.784 606.584 393.592 606.44L396.152 606.232V605.976C396.152 604.456 395.24 603.976 394.104 603.976C392.76 603.976 391.96 604.584 391.96 605.624H390.952C390.952 604.056 392.232 603.048 394.136 603.048C395.928 603.048 397.24 603.944 397.24 605.992V611H396.312L396.168 609.64C395.688 610.616 394.632 611.192 393.32 611.192ZM393.576 610.296C395.208 610.296 396.152 609.16 396.152 607.48V607.064L393.864 607.24C392.408 607.368 391.816 608.008 391.816 608.872C391.816 609.816 392.52 610.296 393.576 610.296Z" fill="black"/>
</g>
<path d="M266.52 40.616H257.736V53H253.032V18.296H266.52C273.336 18.296 277.704 22.76 277.704 29.432C277.704 35.912 273.288 40.616 266.52 40.616ZM265.704 22.52H257.736V36.392H265.512C270.168 36.392 272.76 33.656 272.76 29.384C272.76 25.016 270.12 22.52 265.704 22.52ZM287.951 53.576C282.911 53.576 279.935 50.744 279.935 46.472C279.935 42.152 283.151 39.464 288.671 39.032L296.063 38.456V37.784C296.063 33.848 293.711 32.456 290.543 32.456C286.751 32.456 284.591 34.136 284.591 36.968H280.655C280.655 32.072 284.687 28.856 290.735 28.856C296.543 28.856 300.479 31.928 300.479 38.264V53H296.639L296.159 49.208C294.959 51.896 291.743 53.576 287.951 53.576ZM289.247 50.072C293.519 50.072 296.111 47.288 296.111 42.872V41.624L290.111 42.104C286.127 42.488 284.495 44.024 284.495 46.328C284.495 48.824 286.319 50.072 289.247 50.072ZM308.695 23.96C307.063 23.96 305.719 22.616 305.719 20.984C305.719 19.304 307.063 18.008 308.695 18.008C310.327 18.008 311.671 19.304 311.671 20.984C311.671 22.616 310.327 23.96 308.695 23.96ZM306.487 53V29.528H310.999V53H306.487ZM315.39 46.184H319.71C319.71 48.584 321.534 50.024 324.51 50.024C327.678 50.024 329.502 48.728 329.502 46.568C329.502 44.984 328.734 44.024 326.286 43.4L322.158 42.44C317.982 41.432 316.014 39.368 316.014 35.912C316.014 31.592 319.662 28.856 324.846 28.856C329.982 28.856 333.342 31.736 333.438 36.2H329.118C329.022 33.848 327.438 32.36 324.702 32.36C321.87 32.36 320.286 33.608 320.286 35.768C320.286 37.352 321.438 38.408 323.742 38.984L327.87 39.992C331.854 40.952 333.822 42.776 333.822 46.28C333.822 50.744 329.982 53.576 324.414 53.576C318.894 53.576 315.39 50.648 315.39 46.184ZM348.713 53.576C341.801 53.576 337.049 48.584 337.049 41.288C337.049 33.944 341.705 28.856 348.521 28.856C355.193 28.856 359.561 33.464 359.561 40.424V42.104L341.417 42.152C341.753 47.096 344.345 49.832 348.809 49.832C352.313 49.832 354.617 48.392 355.385 45.704H359.609C358.457 50.744 354.521 53.576 348.713 53.576ZM348.521 32.648C344.585 32.648 342.089 35 341.513 39.128H355.049C355.049 35.24 352.505 32.648 348.521 32.648ZM362.441 46.184H366.761C366.761 48.584 368.585 50.024 371.561 50.024C374.729 50.024 376.553 48.728 376.553 46.568C376.553 44.984 375.785 44.024 373.337 43.4L369.209 42.44C365.033 41.432 363.065 39.368 363.065 35.912C363.065 31.592 366.713 28.856 371.897 28.856C377.033 28.856 380.393 31.736 380.489 36.2H376.169C376.073 33.848 374.489 32.36 371.753 32.36C368.921 32.36 367.337 33.608 367.337 35.768C367.337 37.352 368.489 38.408 370.793 38.984L374.921 39.992C378.905 40.952 380.873 42.776 380.873 46.28C380.873 50.744 377.033 53.576 371.465 53.576C365.945 53.576 362.441 50.648 362.441 46.184Z" fill="black"/>
<defs>
<filter id="filter0_d_1209_19665" x="3.2" y="362.2" width="286.6" height="248.6" filterUnits="userSpaceOnUse" color-interpolation-filters="sRGB">
<feFlood flood-opacity="0" result="BackgroundImageFix"/>
<feColorMatrix in="SourceAlpha" type="matrix" values="0 0 0 0 0 0 0 0 0 0 0 0 0 0 0 0 0 0 127 0" result="hardAlpha"/>
<feMorphology radius="8" operator="dilate" in="SourceAlpha" result="effect1_dropShadow_1209_19665"/>
<feOffset/>
<feGaussianBlur stdDeviation="4.4"/>
<feComposite in2="hardAlpha" operator="out"/>
<feColorMatrix type="matrix" values="0 0 0 0 0.101961 0 0 0 0 0.45098 0 0 0 0 0.756863 0 0 0 0.5 0"/>
<feBlend mode="normal" in2="BackgroundImageFix" result="effect1_dropShadow_1209_19665"/>
<feBlend mode="normal" in="SourceGraphic" in2="effect1_dropShadow_1209_19665" result="shape"/>
</filter>
<filter id="filter1_d_1209_19665" x="322.2" y="394.2" width="286.6" height="248.6" filterUnits="userSpaceOnUse" color-interpolation-filters="sRGB">
<feFlood flood-opacity="0" result="BackgroundImageFix"/>
<feColorMatrix in="SourceAlpha" type="matrix" values="0 0 0 0 0 0 0 0 0 0 0 0 0 0 0 0 0 0 127 0" result="hardAlpha"/>
<feMorphology radius="8" operator="dilate" in="SourceAlpha" result="effect1_dropShadow_1209_19665"/>
<feOffset/>
<feGaussianBlur stdDeviation="4.4"/>
<feComposite in2="hardAlpha" operator="out"/>
<feColorMatrix type="matrix" values="0 0 0 0 0.101961 0 0 0 0 0.45098 0 0 0 0 0.756863 0 0 0 0.5 0"/>
<feBlend mode="normal" in2="BackgroundImageFix" result="effect1_dropShadow_1209_19665"/>
<feBlend mode="normal" in="SourceGraphic" in2="effect1_dropShadow_1209_19665" result="shape"/>
</filter>
</defs>
</svg>
