<svg width="498" height="962" viewBox="0 0 498 962" fill="none" xmlns="http://www.w3.org/2000/svg">
<rect x="0.5" y="214.5" width="148" height="145" rx="4.5" stroke="#8A38F5" stroke-dasharray="10 5"/>
<rect width="70" height="43" transform="translate(20 234)" fill="#EEE6D5"/>
<path d="M44.9981 256.272C44.9981 252.72 46.7421 250.32 49.5901 250.32C52.4221 250.32 54.1661 252.72 54.1661 256.272C54.1661 259.84 52.4541 262.208 49.5901 262.208C46.7101 262.208 44.9981 259.84 44.9981 256.272ZM46.1341 256.272C46.1341 259.248 47.3981 261.168 49.5901 261.168C51.7821 261.168 53.0461 259.248 53.0461 256.272C53.0461 253.28 51.7821 251.376 49.5901 251.376C47.3981 251.376 46.1341 253.28 46.1341 256.272ZM55.84 256.272C55.84 252.72 57.584 250.32 60.432 250.32C63.264 250.32 65.008 252.72 65.008 256.272C65.008 259.84 63.296 262.208 60.432 262.208C57.552 262.208 55.84 259.84 55.84 256.272ZM56.976 256.272C56.976 259.248 58.24 261.168 60.432 261.168C62.624 261.168 63.888 259.248 63.888 256.272C63.888 253.28 62.624 251.376 60.432 251.376C58.24 251.376 56.976 253.28 56.976 256.272Z" fill="black"/>
<rect width="77" height="43" transform="translate(20 297)" fill="#1A73C1"/>
<path d="M44.88 319.272C44.88 315.72 46.624 313.32 49.472 313.32C52.304 313.32 54.048 315.72 54.048 319.272C54.048 322.84 52.336 325.208 49.472 325.208C46.592 325.208 44.88 322.84 44.88 319.272ZM46.016 319.272C46.016 322.248 47.28 324.168 49.472 324.168C51.664 324.168 52.928 322.248 52.928 319.272C52.928 316.28 51.664 314.376 49.472 314.376C47.28 314.376 46.016 316.28 46.016 319.272ZM55.7219 319.272C55.7219 315.72 57.4659 313.32 60.3139 313.32C63.1459 313.32 64.8899 315.72 64.8899 319.272C64.8899 322.84 63.1779 325.208 60.3139 325.208C57.4339 325.208 55.7219 322.84 55.7219 319.272ZM56.8579 319.272C56.8579 322.248 58.1219 324.168 60.3139 324.168C62.5059 324.168 63.7699 322.248 63.7699 319.272C63.7699 316.28 62.5059 314.376 60.3139 314.376C58.1219 314.376 56.8579 316.28 56.8579 319.272Z" fill="#EEE6D5"/>
<g filter="url(#filter0_d_1209_19667)">
<rect width="70" height="43" transform="translate(39.0078 376.754)" fill="#EEE6D5"/>
<path d="M64.0059 399.026C64.0059 395.474 65.7499 393.074 68.5979 393.074C71.4299 393.074 73.1739 395.474 73.1739 399.026C73.1739 402.594 71.4619 404.962 68.5979 404.962C65.7179 404.962 64.0059 402.594 64.0059 399.026ZM65.1419 399.026C65.1419 402.002 66.4059 403.922 68.5979 403.922C70.7899 403.922 72.0539 402.002 72.0539 399.026C72.0539 396.034 70.7899 394.13 68.5979 394.13C66.4059 394.13 65.1419 396.034 65.1419 399.026ZM74.8478 399.026C74.8478 395.474 76.5918 393.074 79.4398 393.074C82.2718 393.074 84.0158 395.474 84.0158 399.026C84.0158 402.594 82.3038 404.962 79.4398 404.962C76.5598 404.962 74.8478 402.594 74.8478 399.026ZM75.9838 399.026C75.9838 402.002 77.2478 403.922 79.4398 403.922C81.6318 403.922 82.8958 402.002 82.8958 399.026C82.8958 396.034 81.6318 394.13 79.4398 394.13C77.2478 394.13 75.9838 396.034 75.9838 399.026Z" fill="black"/>
<rect width="70" height="43" transform="translate(38.999 419.749)" fill="#EEE6D5"/>
<path d="M63.9971 442.021C63.9971 438.469 65.7411 436.069 68.5891 436.069C71.4211 436.069 73.1651 438.469 73.1651 442.021C73.1651 445.589 71.4531 447.957 68.5891 447.957C65.7091 447.957 63.9971 445.589 63.9971 442.021ZM65.1331 442.021C65.1331 444.997 66.3971 446.917 68.5891 446.917C70.7811 446.917 72.0451 444.997 72.0451 442.021C72.0451 439.029 70.7811 437.125 68.5891 437.125C66.3971 437.125 65.1331 439.029 65.1331 442.021ZM74.839 442.021C74.839 438.469 76.583 436.069 79.431 436.069C82.263 436.069 84.007 438.469 84.007 442.021C84.007 445.589 82.295 447.957 79.431 447.957C76.551 447.957 74.839 445.589 74.839 442.021ZM75.975 442.021C75.975 444.997 77.239 446.917 79.431 446.917C81.623 446.917 82.887 444.997 82.887 442.021C82.887 439.029 81.623 437.125 79.431 437.125C77.239 437.125 75.975 439.029 75.975 442.021Z" fill="black"/>
<rect width="70" height="43" transform="translate(38.999 462.749)" fill="#EEE6D5"/>
<path d="M63.9971 485.021C63.9971 481.469 65.7411 479.069 68.5891 479.069C71.4211 479.069 73.1651 481.469 73.1651 485.021C73.1651 488.589 71.4531 490.957 68.5891 490.957C65.7091 490.957 63.9971 488.589 63.9971 485.021ZM65.1331 485.021C65.1331 487.997 66.3971 489.917 68.5891 489.917C70.7811 489.917 72.0451 487.997 72.0451 485.021C72.0451 482.029 70.7811 480.125 68.5891 480.125C66.3971 480.125 65.1331 482.029 65.1331 485.021ZM74.839 485.021C74.839 481.469 76.583 479.069 79.431 479.069C82.263 479.069 84.007 481.469 84.007 485.021C84.007 488.589 82.295 490.957 79.431 490.957C76.551 490.957 74.839 488.589 74.839 485.021ZM75.975 485.021C75.975 487.997 77.239 489.917 79.431 489.917C81.623 489.917 82.887 487.997 82.887 485.021C82.887 482.029 81.623 480.125 79.431 480.125C77.239 480.125 75.975 482.029 75.975 485.021Z" fill="black"/>
<rect width="70" height="43" transform="translate(38.999 505.749)" fill="#EEE6D5"/>
<path d="M63.9971 528.021C63.9971 524.469 65.7411 522.069 68.5891 522.069C71.4211 522.069 73.1651 524.469 73.1651 528.021C73.1651 531.589 71.4531 533.957 68.5891 533.957C65.7091 533.957 63.9971 531.589 63.9971 528.021ZM65.1331 528.021C65.1331 530.997 66.3971 532.917 68.5891 532.917C70.7811 532.917 72.0451 530.997 72.0451 528.021C72.0451 525.029 70.7811 523.125 68.5891 523.125C66.3971 523.125 65.1331 525.029 65.1331 528.021ZM74.839 528.021C74.839 524.469 76.583 522.069 79.431 522.069C82.263 522.069 84.007 524.469 84.007 528.021C84.007 531.589 82.295 533.957 79.431 533.957C76.551 533.957 74.839 531.589 74.839 528.021ZM75.975 528.021C75.975 530.997 77.239 532.917 79.431 532.917C81.623 532.917 82.887 530.997 82.887 528.021C82.887 525.029 81.623 523.125 79.431 523.125C77.239 523.125 75.975 525.029 75.975 528.021Z" fill="black"/>
<rect width="70" height="43" transform="translate(38.999 548.749)" fill="#EEE6D5"/>
<path d="M63.9971 571.021C63.9971 567.469 65.7411 565.069 68.5891 565.069C71.4211 565.069 73.1651 567.469 73.1651 571.021C73.1651 574.589 71.4531 576.957 68.5891 576.957C65.7091 576.957 63.9971 574.589 63.9971 571.021ZM65.1331 571.021C65.1331 573.997 66.3971 575.917 68.5891 575.917C70.7811 575.917 72.0451 573.997 72.0451 571.021C72.0451 568.029 70.7811 566.125 68.5891 566.125C66.3971 566.125 65.1331 568.029 65.1331 571.021ZM74.839 571.021C74.839 567.469 76.583 565.069 79.431 565.069C82.263 565.069 84.007 567.469 84.007 571.021C84.007 574.589 82.295 576.957 79.431 576.957C76.551 576.957 74.839 574.589 74.839 571.021ZM75.975 571.021C75.975 573.997 77.239 575.917 79.431 575.917C81.623 575.917 82.887 573.997 82.887 571.021C82.887 568.029 81.623 566.125 79.431 566.125C77.239 566.125 75.975 568.029 75.975 571.021Z" fill="black"/>
<rect width="70" height="43" transform="translate(38.999 591.749)" fill="#EEE6D5"/>
<path d="M63.9971 614.021C63.9971 610.469 65.7411 608.069 68.5891 608.069C71.4211 608.069 73.1651 610.469 73.1651 614.021C73.1651 617.589 71.4531 619.957 68.5891 619.957C65.7091 619.957 63.9971 617.589 63.9971 614.021ZM65.1331 614.021C65.1331 616.997 66.3971 618.917 68.5891 618.917C70.7811 618.917 72.0451 616.997 72.0451 614.021C72.0451 611.029 70.7811 609.125 68.5891 609.125C66.3971 609.125 65.1331 611.029 65.1331 614.021ZM74.839 614.021C74.839 610.469 76.583 608.069 79.431 608.069C82.263 608.069 84.007 610.469 84.007 614.021C84.007 617.589 82.295 619.957 79.431 619.957C76.551 619.957 74.839 617.589 74.839 614.021ZM75.975 614.021C75.975 616.997 77.239 618.917 79.431 618.917C81.623 618.917 82.887 616.997 82.887 614.021C82.887 611.029 81.623 609.125 79.431 609.125C77.239 609.125 75.975 611.029 75.975 614.021Z" fill="black"/>
<rect width="70" height="43" transform="translate(38.999 634.749)" fill="#EEE6D5"/>
<path d="M63.9971 657.022C63.9971 653.47 65.7411 651.07 68.5891 651.07C71.4211 651.07 73.1651 653.47 73.1651 657.022C73.1651 660.59 71.4531 662.958 68.5891 662.958C65.7091 662.958 63.9971 660.59 63.9971 657.022ZM65.1331 657.022C65.1331 659.998 66.3971 661.918 68.5891 661.918C70.7811 661.918 72.0451 659.998 72.0451 657.022C72.0451 654.03 70.7811 652.126 68.5891 652.126C66.3971 652.126 65.1331 654.03 65.1331 657.022ZM74.839 657.022C74.839 653.47 76.583 651.07 79.431 651.07C82.263 651.07 84.007 653.47 84.007 657.022C84.007 660.59 82.295 662.958 79.431 662.958C76.551 662.958 74.839 660.59 74.839 657.022ZM75.975 657.022C75.975 659.998 77.239 661.918 79.431 661.918C81.623 661.918 82.887 659.998 82.887 657.022C82.887 654.03 81.623 652.126 79.431 652.126C77.239 652.126 75.975 654.03 75.975 657.022Z" fill="black"/>
<rect width="70" height="43" transform="translate(38.999 677.749)" fill="#EEE6D5"/>
<path d="M63.9971 700.021C63.9971 696.469 65.7411 694.069 68.5891 694.069C71.4211 694.069 73.1651 696.469 73.1651 700.021C73.1651 703.589 71.4531 705.957 68.5891 705.957C65.7091 705.957 63.9971 703.589 63.9971 700.021ZM65.1331 700.021C65.1331 702.997 66.3971 704.917 68.5891 704.917C70.7811 704.917 72.0451 702.997 72.0451 700.021C72.0451 697.029 70.7811 695.125 68.5891 695.125C66.3971 695.125 65.1331 697.029 65.1331 700.021ZM74.839 700.021C74.839 696.469 76.583 694.069 79.431 694.069C82.263 694.069 84.007 696.469 84.007 700.021C84.007 703.589 82.295 705.957 79.431 705.957C76.551 705.957 74.839 703.589 74.839 700.021ZM75.975 700.021C75.975 702.997 77.239 704.917 79.431 704.917C81.623 704.917 82.887 702.997 82.887 700.021C82.887 697.029 81.623 695.125 79.431 695.125C77.239 695.125 75.975 697.029 75.975 700.021Z" fill="black"/>
<rect width="70" height="43" transform="translate(38.999 720.749)" fill="#EEE6D5"/>
<path d="M63.9971 743.021C63.9971 739.469 65.7411 737.069 68.5891 737.069C71.4211 737.069 73.1651 739.469 73.1651 743.021C73.1651 746.589 71.4531 748.957 68.5891 748.957C65.7091 748.957 63.9971 746.589 63.9971 743.021ZM65.1331 743.021C65.1331 745.997 66.3971 747.917 68.5891 747.917C70.7811 747.917 72.0451 745.997 72.0451 743.021C72.0451 740.029 70.7811 738.125 68.5891 738.125C66.3971 738.125 65.1331 740.029 65.1331 743.021ZM74.839 743.021C74.839 739.469 76.583 737.069 79.431 737.069C82.263 737.069 84.007 739.469 84.007 743.021C84.007 746.589 82.295 748.957 79.431 748.957C76.551 748.957 74.839 746.589 74.839 743.021ZM75.975 743.021C75.975 745.997 77.239 747.917 79.431 747.917C81.623 747.917 82.887 745.997 82.887 743.021C82.887 740.029 81.623 738.125 79.431 738.125C77.239 738.125 75.975 740.029 75.975 743.021Z" fill="black"/>
<rect width="70" height="43" transform="translate(38.999 763.749)" fill="#EEE6D5"/>
<path d="M63.9971 786.021C63.9971 782.469 65.7411 780.069 68.5891 780.069C71.4211 780.069 73.1651 782.469 73.1651 786.021C73.1651 789.589 71.4531 791.957 68.5891 791.957C65.7091 791.957 63.9971 789.589 63.9971 786.021ZM65.1331 786.021C65.1331 788.997 66.3971 790.917 68.5891 790.917C70.7811 790.917 72.0451 788.997 72.0451 786.021C72.0451 783.029 70.7811 781.125 68.5891 781.125C66.3971 781.125 65.1331 783.029 65.1331 786.021ZM74.839 786.021C74.839 782.469 76.583 780.069 79.431 780.069C82.263 780.069 84.007 782.469 84.007 786.021C84.007 789.589 82.295 791.957 79.431 791.957C76.551 791.957 74.839 789.589 74.839 786.021ZM75.975 786.021C75.975 788.997 77.239 790.917 79.431 790.917C81.623 790.917 82.887 788.997 82.887 786.021C82.887 783.029 81.623 781.125 79.431 781.125C77.239 781.125 75.975 783.029 75.975 786.021Z" fill="black"/>
<rect width="70" height="43" transform="translate(38.999 806.749)" fill="#EEE6D5"/>
<path d="M63.9971 829.021C63.9971 825.469 65.7411 823.069 68.5891 823.069C71.4211 823.069 73.1651 825.469 73.1651 829.021C73.1651 832.589 71.4531 834.957 68.5891 834.957C65.7091 834.957 63.9971 832.589 63.9971 829.021ZM65.1331 829.021C65.1331 831.997 66.3971 833.917 68.5891 833.917C70.7811 833.917 72.0451 831.997 72.0451 829.021C72.0451 826.029 70.7811 824.125 68.5891 824.125C66.3971 824.125 65.1331 826.029 65.1331 829.021ZM74.839 829.021C74.839 825.469 76.583 823.069 79.431 823.069C82.263 823.069 84.007 825.469 84.007 829.021C84.007 832.589 82.295 834.957 79.431 834.957C76.551 834.957 74.839 832.589 74.839 829.021ZM75.975 829.021C75.975 831.997 77.239 833.917 79.431 833.917C81.623 833.917 82.887 831.997 82.887 829.021C82.887 826.029 81.623 824.125 79.431 824.125C77.239 824.125 75.975 826.029 75.975 829.021Z" fill="black"/>
<rect width="70" height="43" transform="translate(38.999 849.749)" fill="#EEE6D5"/>
<path d="M63.9971 872.021C63.9971 868.469 65.7411 866.069 68.5891 866.069C71.4211 866.069 73.1651 868.469 73.1651 872.021C73.1651 875.589 71.4531 877.957 68.5891 877.957C65.7091 877.957 63.9971 875.589 63.9971 872.021ZM65.1331 872.021C65.1331 874.997 66.3971 876.917 68.5891 876.917C70.7811 876.917 72.0451 874.997 72.0451 872.021C72.0451 869.029 70.7811 867.125 68.5891 867.125C66.3971 867.125 65.1331 869.029 65.1331 872.021ZM74.839 872.021C74.839 868.469 76.583 866.069 79.431 866.069C82.263 866.069 84.007 868.469 84.007 872.021C84.007 875.589 82.295 877.957 79.431 877.957C76.551 877.957 74.839 875.589 74.839 872.021ZM75.975 872.021C75.975 874.997 77.239 876.917 79.431 876.917C81.623 876.917 82.887 874.997 82.887 872.021C82.887 869.029 81.623 867.125 79.431 867.125C77.239 867.125 75.975 869.029 75.975 872.021Z" fill="black"/>
</g>
<rect x="172.5" y="214.5" width="325" height="747" rx="4.5" stroke="#8A38F5" stroke-dasharray="10 5"/>
<path d="M219.155 283H217.619V271.432H219.155L223.139 281.16L227.123 271.432H228.691V283H227.155V278.424C227.155 276.264 227.171 275.48 227.251 274.664L223.875 283H222.403L219.043 274.696C219.123 275.256 219.155 276.44 219.155 278.056V283ZM234.425 283.192C232.121 283.192 230.537 281.528 230.537 279.096C230.537 276.648 232.089 274.952 234.361 274.952C236.585 274.952 238.041 276.488 238.041 278.808V279.368L231.993 279.384C232.105 281.032 232.969 281.944 234.457 281.944C235.625 281.944 236.393 281.464 236.649 280.568H238.057C237.673 282.248 236.361 283.192 234.425 283.192ZM234.361 276.216C233.049 276.216 232.217 277 232.025 278.376H236.537C236.537 277.08 235.689 276.216 234.361 276.216ZM239.001 280.728H240.441C240.441 281.528 241.049 282.008 242.041 282.008C243.097 282.008 243.705 281.576 243.705 280.856C243.705 280.328 243.449 280.008 242.633 279.8L241.257 279.48C239.865 279.144 239.209 278.456 239.209 277.304C239.209 275.864 240.425 274.952 242.153 274.952C243.865 274.952 244.985 275.912 245.017 277.4H243.577C243.545 276.616 243.017 276.12 242.105 276.12C241.161 276.12 240.633 276.536 240.633 277.256C240.633 277.784 241.017 278.136 241.785 278.328L243.161 278.664C244.489 278.984 245.145 279.592 245.145 280.76C245.145 282.248 243.865 283.192 242.009 283.192C240.169 283.192 239.001 282.216 239.001 280.728Z" fill="black"/>
<path d="M259.94 281.78L264.287 277.433C264.8 276.92 264.8 276.08 264.287 275.567L259.94 271.22" stroke="black" stroke-width="1.5" stroke-miterlimit="10" stroke-linecap="round" stroke-linejoin="round"/>
<path d="M192.224 239.872V238.432H200.752V239.872H197.28V250H195.712V239.872H192.224ZM204.103 250.192C201.799 250.192 200.215 248.528 200.215 246.096C200.215 243.648 201.767 241.952 204.039 241.952C206.263 241.952 207.719 243.488 207.719 245.808V246.368L201.671 246.384C201.783 248.032 202.647 248.944 204.135 248.944C205.303 248.944 206.071 248.464 206.327 247.568H207.735C207.351 249.248 206.039 250.192 204.103 250.192ZM204.039 243.216C202.727 243.216 201.895 244 201.703 245.376H206.215C206.215 244.08 205.367 243.216 204.039 243.216ZM209.822 250H208.094L210.83 246.128L208.11 242.176H209.854L211.838 245.088L213.774 242.176H215.486L212.766 246.128L215.438 250H213.694L211.742 247.136L209.822 250ZM219.181 250H217.677V243.44H216.141V242.176H217.677V239.728H219.181V242.176H220.717V243.44H219.181V250ZM221.397 246.08C221.397 243.664 223.125 241.968 225.477 241.968C227.813 241.968 229.541 243.664 229.541 246.08C229.541 248.496 227.813 250.192 225.477 250.192C223.125 250.192 221.397 248.496 221.397 246.08ZM222.917 246.08C222.917 247.712 223.957 248.848 225.477 248.848C226.981 248.848 228.037 247.712 228.037 246.08C228.037 244.448 226.981 243.312 225.477 243.312C223.957 243.312 222.917 244.448 222.917 246.08Z" fill="black"/>
<path d="M195.156 304.55V303.692H201.825V304.55H198.952V313H198.016V304.55H195.156ZM204.528 313.156C202.682 313.156 201.447 311.83 201.447 309.854C201.447 307.891 202.669 306.539 204.463 306.539C206.166 306.539 207.323 307.748 207.323 309.529V309.971H202.318C202.383 311.505 203.189 312.389 204.541 312.389C205.568 312.389 206.231 311.947 206.465 311.115H207.323C206.985 312.441 206.01 313.156 204.528 313.156ZM204.463 307.306C203.28 307.306 202.5 308.086 202.344 309.321H206.426C206.426 308.112 205.646 307.306 204.463 307.306ZM208.723 313H207.67L209.919 309.854L207.683 306.708H208.736L210.517 309.23L212.285 306.708H213.325L211.089 309.867L213.312 313H212.246L210.478 310.478L208.723 313ZM216.024 313H215.14V307.462H213.879V306.708H215.14V304.719H216.024V306.708H217.285V307.462H216.024V313ZM217.882 309.854C217.882 307.93 219.234 306.539 221.08 306.539C222.926 306.539 224.278 307.93 224.278 309.854C224.278 311.765 222.926 313.156 221.08 313.156C219.234 313.156 217.882 311.765 217.882 309.854ZM218.792 309.841C218.792 311.323 219.728 312.35 221.08 312.35C222.419 312.35 223.368 311.323 223.368 309.841C223.368 308.385 222.419 307.345 221.08 307.345C219.728 307.345 218.792 308.385 218.792 309.841Z" fill="#686464"/>
<path d="M222.155 395H220.619V383.432H222.155L226.139 393.16L230.123 383.432H231.691V395H230.155V390.424C230.155 388.264 230.171 387.48 230.251 386.664L226.875 395H225.403L222.043 386.696C222.123 387.256 222.155 388.44 222.155 390.056V395ZM237.425 395.192C235.121 395.192 233.537 393.528 233.537 391.096C233.537 388.648 235.089 386.952 237.361 386.952C239.585 386.952 241.041 388.488 241.041 390.808V391.368L234.993 391.384C235.105 393.032 235.969 393.944 237.457 393.944C238.625 393.944 239.393 393.464 239.649 392.568H241.057C240.673 394.248 239.361 395.192 237.425 395.192ZM237.361 388.216C236.049 388.216 235.217 389 235.025 390.376H239.537C239.537 389.08 238.689 388.216 237.361 388.216ZM242.001 392.728H243.441C243.441 393.528 244.049 394.008 245.041 394.008C246.097 394.008 246.705 393.576 246.705 392.856C246.705 392.328 246.449 392.008 245.633 391.8L244.257 391.48C242.865 391.144 242.209 390.456 242.209 389.304C242.209 387.864 243.425 386.952 245.153 386.952C246.865 386.952 247.985 387.912 248.017 389.4H246.577C246.545 388.616 246.017 388.12 245.105 388.12C244.161 388.12 243.633 388.536 243.633 389.256C243.633 389.784 244.017 390.136 244.785 390.328L246.161 390.664C247.489 390.984 248.145 391.592 248.145 392.76C248.145 394.248 246.865 395.192 245.009 395.192C243.169 395.192 242.001 394.216 242.001 392.728Z" fill="black"/>
<path d="M270.28 386.467L265.934 390.813C265.42 391.327 264.58 391.327 264.067 390.813L259.72 386.467" stroke="black" stroke-width="1.5" stroke-miterlimit="10" stroke-linecap="round" stroke-linejoin="round"/>
<path d="M195.224 351.872V350.432H203.752V351.872H200.28V362H198.712V351.872H195.224ZM207.103 362.192C204.799 362.192 203.215 360.528 203.215 358.096C203.215 355.648 204.767 353.952 207.039 353.952C209.263 353.952 210.719 355.488 210.719 357.808V358.368L204.671 358.384C204.783 360.032 205.647 360.944 207.135 360.944C208.303 360.944 209.071 360.464 209.327 359.568H210.735C210.351 361.248 209.039 362.192 207.103 362.192ZM207.039 355.216C205.727 355.216 204.895 356 204.703 357.376H209.215C209.215 356.08 208.367 355.216 207.039 355.216ZM212.822 362H211.094L213.83 358.128L211.11 354.176H212.854L214.838 357.088L216.774 354.176H218.486L215.766 358.128L218.438 362H216.694L214.742 359.136L212.822 362ZM222.181 362H220.677V355.44H219.141V354.176H220.677V351.728H222.181V354.176H223.717V355.44H222.181V362ZM224.397 358.08C224.397 355.664 226.125 353.968 228.477 353.968C230.813 353.968 232.541 355.664 232.541 358.08C232.541 360.496 230.813 362.192 228.477 362.192C226.125 362.192 224.397 360.496 224.397 358.08ZM225.917 358.08C225.917 359.712 226.957 360.848 228.477 360.848C229.981 360.848 231.037 359.712 231.037 358.08C231.037 356.448 229.981 355.312 228.477 355.312C226.957 355.312 225.917 356.448 225.917 358.08Z" fill="black"/>
<path d="M198.156 416.55V415.692H204.825V416.55H201.952V425H201.016V416.55H198.156ZM207.528 425.156C205.682 425.156 204.447 423.83 204.447 421.854C204.447 419.891 205.669 418.539 207.463 418.539C209.166 418.539 210.323 419.748 210.323 421.529V421.971H205.318C205.383 423.505 206.189 424.389 207.541 424.389C208.568 424.389 209.231 423.947 209.465 423.115H210.323C209.985 424.441 209.01 425.156 207.528 425.156ZM207.463 419.306C206.28 419.306 205.5 420.086 205.344 421.321H209.426C209.426 420.112 208.646 419.306 207.463 419.306ZM211.723 425H210.67L212.919 421.854L210.683 418.708H211.736L213.517 421.23L215.285 418.708H216.325L214.089 421.867L216.312 425H215.246L213.478 422.478L211.723 425ZM219.024 425H218.14V419.462H216.879V418.708H218.14V416.719H219.024V418.708H220.285V419.462H219.024V425ZM220.882 421.854C220.882 419.93 222.234 418.539 224.08 418.539C225.926 418.539 227.278 419.93 227.278 421.854C227.278 423.765 225.926 425.156 224.08 425.156C222.234 425.156 220.882 423.765 220.882 421.854ZM221.792 421.841C221.792 423.323 222.728 424.35 224.08 424.35C225.419 424.35 226.368 423.323 226.368 421.841C226.368 420.385 225.419 419.345 224.08 419.345C222.728 419.345 221.792 420.385 221.792 421.841Z" fill="#686464"/>
<g filter="url(#filter1_d_1209_19667)">
<rect width="70" height="43" transform="translate(199.008 415.754)" fill="#EEE6D5"/>
<path d="M224.295 438.026C224.295 434.474 226.039 432.074 228.887 432.074C231.719 432.074 233.463 434.474 233.463 438.026C233.463 441.594 231.751 443.962 228.887 443.962C226.007 443.962 224.295 441.594 224.295 438.026ZM225.431 438.026C225.431 441.002 226.695 442.922 228.887 442.922C231.079 442.922 232.343 441.002 232.343 438.026C232.343 435.034 231.079 433.13 228.887 433.13C226.695 433.13 225.431 435.034 225.431 438.026ZM237.153 433.338H234.817V432.298H238.257V443.754H237.153V433.338Z" fill="black"/>
<rect width="70" height="43" transform="translate(198.999 458.749)" fill="#EEE6D5"/>
<path d="M223.966 481.021C223.966 477.469 225.71 475.069 228.558 475.069C231.39 475.069 233.134 477.469 233.134 481.021C233.134 484.589 231.422 486.957 228.558 486.957C225.678 486.957 223.966 484.589 223.966 481.021ZM225.102 481.021C225.102 483.997 226.366 485.917 228.558 485.917C230.75 485.917 232.014 483.997 232.014 481.021C232.014 478.029 230.75 476.125 228.558 476.125C226.366 476.125 225.102 478.029 225.102 481.021ZM242.2 486.749H234.648V485.837L238.312 482.637C240.424 480.797 240.968 479.997 240.968 478.637C240.968 477.085 240.04 476.141 238.52 476.141C236.936 476.141 235.896 477.293 235.848 479.069H234.696C234.76 476.669 236.28 475.085 238.536 475.085C240.696 475.085 242.136 476.477 242.136 478.573C242.136 480.237 241.384 481.341 239.096 483.341L236.424 485.677H242.2V486.749Z" fill="black"/>
<rect width="70" height="43" transform="translate(198.999 501.749)" fill="#EEE6D5"/>
<path d="M223.974 524.021C223.974 520.469 225.718 518.069 228.566 518.069C231.398 518.069 233.142 520.469 233.142 524.021C233.142 527.589 231.43 529.957 228.566 529.957C225.686 529.957 223.974 527.589 223.974 524.021ZM225.11 524.021C225.11 526.997 226.374 528.917 228.566 528.917C230.758 528.917 232.022 526.997 232.022 524.021C232.022 521.029 230.758 519.125 228.566 519.125C226.374 519.125 225.11 521.029 225.11 524.021ZM237.859 523.605H236.947V522.805L240.483 519.317H234.995V518.293H241.939V519.221L238.515 522.629C240.659 522.741 242.195 524.101 242.195 526.181C242.195 528.453 240.531 529.941 238.211 529.941C235.955 529.941 234.435 528.549 234.435 526.261H235.571C235.571 527.909 236.595 528.901 238.211 528.901C239.923 528.901 241.027 527.813 241.027 526.149C241.027 524.581 239.907 523.605 237.859 523.605Z" fill="black"/>
<rect width="70" height="43" transform="translate(198.999 544.749)" fill="#EEE6D5"/>
<path d="M223.942 567.021C223.942 563.469 225.686 561.069 228.534 561.069C231.366 561.069 233.11 563.469 233.11 567.021C233.11 570.589 231.398 572.957 228.534 572.957C225.654 572.957 223.942 570.589 223.942 567.021ZM225.078 567.021C225.078 569.997 226.342 571.917 228.534 571.917C230.726 571.917 231.99 569.997 231.99 567.021C231.99 564.029 230.726 562.125 228.534 562.125C226.342 562.125 225.078 564.029 225.078 567.021ZM243.024 570.317H241.68V572.749H240.56V570.317H234.544V569.293L240.144 561.293H241.68V569.293H243.024V570.317ZM235.792 569.293H240.56V562.477L235.792 569.293Z" fill="black"/>
<rect width="70" height="43" transform="translate(198.999 587.749)" fill="#EEE6D5"/>
<path d="M224.294 610.021C224.294 606.469 226.038 604.069 228.886 604.069C231.718 604.069 233.462 606.469 233.462 610.021C233.462 613.589 231.75 615.957 228.886 615.957C226.006 615.957 224.294 613.589 224.294 610.021ZM225.43 610.021C225.43 612.997 226.694 614.917 228.886 614.917C231.078 614.917 232.342 612.997 232.342 610.021C232.342 607.029 231.078 605.125 228.886 605.125C226.694 605.125 225.43 607.029 225.43 610.021ZM238.896 615.941C236.592 615.941 235.12 614.501 235.12 612.245H236.272C236.272 613.893 237.28 614.885 238.912 614.885C240.64 614.885 241.76 613.733 241.76 612.037C241.76 610.437 240.72 609.173 238.912 609.173C237.856 609.173 236.896 609.653 236.272 610.341L235.36 610.053L236.736 604.293H242.272V605.349H237.568L236.704 608.949C237.344 608.437 238.176 608.149 239.072 608.149C241.456 608.149 242.928 609.861 242.928 612.005C242.928 614.309 241.296 615.941 238.896 615.941Z" fill="black"/>
<rect width="70" height="43" transform="translate(198.999 630.749)" fill="#EEE6D5"/>
<path d="M224.138 653.021C224.138 649.469 225.882 647.069 228.73 647.069C231.562 647.069 233.306 649.469 233.306 653.021C233.306 656.589 231.594 658.957 228.73 658.957C225.85 658.957 224.138 656.589 224.138 653.021ZM225.274 653.021C225.274 655.997 226.538 657.917 228.73 657.917C230.922 657.917 232.186 655.997 232.186 653.021C232.186 650.029 230.922 648.125 228.73 648.125C226.538 648.125 225.274 650.029 225.274 653.021ZM236.276 651.149L239.14 647.293H240.484L237.476 651.277C238.02 651.005 238.516 650.893 239.044 650.893C241.428 650.893 243.012 652.637 243.012 654.877C243.012 657.229 241.236 658.941 238.948 658.941C236.644 658.941 234.836 657.165 234.836 654.877C234.836 653.549 235.204 652.621 236.276 651.149ZM236.004 654.893C236.004 656.637 237.204 657.901 238.948 657.901C240.644 657.901 241.86 656.637 241.86 654.893C241.86 653.149 240.644 651.901 238.948 651.901C237.204 651.901 236.004 653.149 236.004 654.893Z" fill="black"/>
<rect width="70" height="43" transform="translate(198.999 673.75)" fill="#EEE6D5"/>
<path d="M224.067 696.022C224.067 692.47 225.811 690.07 228.659 690.07C231.491 690.07 233.235 692.47 233.235 696.022C233.235 699.59 231.523 701.958 228.659 701.958C225.779 701.958 224.067 699.59 224.067 696.022ZM225.203 696.022C225.203 698.998 226.467 700.918 228.659 700.918C230.851 700.918 232.115 698.998 232.115 696.022C232.115 693.03 230.851 691.126 228.659 691.126C226.467 691.126 225.203 693.03 225.203 696.022ZM233.892 690.294H241.684V691.35L237.172 701.75H235.988L240.516 691.35H233.892V690.294Z" fill="black"/>
<rect width="70" height="43" transform="translate(198.999 716.749)" fill="#EEE6D5"/>
<path d="M224.06 739.021C224.06 735.469 225.804 733.069 228.652 733.069C231.484 733.069 233.228 735.469 233.228 739.021C233.228 742.589 231.516 744.957 228.652 744.957C225.772 744.957 224.06 742.589 224.06 739.021ZM225.196 739.021C225.196 741.997 226.46 743.917 228.652 743.917C230.844 743.917 232.108 741.997 232.108 739.021C232.108 736.029 230.844 734.125 228.652 734.125C226.46 734.125 225.196 736.029 225.196 739.021ZM234.838 741.629C234.838 740.221 235.686 739.101 237.046 738.637C235.894 738.173 235.238 737.229 235.238 736.045C235.238 734.285 236.742 733.085 238.934 733.085C241.11 733.085 242.566 734.285 242.566 736.061C242.566 737.261 241.926 738.205 240.79 738.637C242.118 739.053 242.998 740.205 242.998 741.645C242.998 743.597 241.35 744.941 238.918 744.941C236.486 744.941 234.838 743.597 234.838 741.629ZM236.326 736.077C236.326 737.341 237.35 738.189 238.918 738.189C240.47 738.189 241.478 737.373 241.478 736.109C241.478 734.877 240.47 734.109 238.918 734.109C237.35 734.109 236.326 734.877 236.326 736.077ZM235.974 741.533C235.974 742.957 237.158 743.901 238.934 743.901C240.678 743.901 241.862 742.957 241.862 741.533C241.862 740.125 240.71 739.213 238.902 739.213C237.126 739.213 235.974 740.125 235.974 741.533Z" fill="black"/>
<rect width="70" height="43" transform="translate(198.999 759.749)" fill="#EEE6D5"/>
<path d="M224.138 782.021C224.138 778.469 225.882 776.069 228.73 776.069C231.562 776.069 233.306 778.469 233.306 782.021C233.306 785.589 231.594 787.957 228.73 787.957C225.85 787.957 224.138 785.589 224.138 782.021ZM225.274 782.021C225.274 784.997 226.538 786.917 228.73 786.917C230.922 786.917 232.186 784.997 232.186 782.021C232.186 779.029 230.922 777.125 228.73 777.125C226.538 777.125 225.274 779.029 225.274 782.021ZM241.572 783.877L238.708 787.749H237.364L240.372 783.749C239.844 784.037 239.348 784.133 238.804 784.133C236.42 784.133 234.836 782.389 234.836 780.149C234.836 777.813 236.612 776.085 238.9 776.085C241.204 776.085 243.012 777.861 243.012 780.165C243.012 781.493 242.66 782.421 241.572 783.877ZM241.86 780.149C241.86 778.405 240.644 777.141 238.9 777.141C237.204 777.141 235.988 778.405 235.988 780.149C235.988 781.877 237.204 783.125 238.9 783.125C240.644 783.125 241.86 781.877 241.86 780.149Z" fill="black"/>
<rect width="70" height="43" transform="translate(198.999 802.749)" fill="#EEE6D5"/>
<path d="M226.302 820.333H223.966V819.293H227.406V830.749H226.302V820.333ZM229.55 825.021C229.55 821.469 231.294 819.069 234.142 819.069C236.974 819.069 238.718 821.469 238.718 825.021C238.718 828.589 237.006 830.957 234.142 830.957C231.262 830.957 229.55 828.589 229.55 825.021ZM230.686 825.021C230.686 827.997 231.95 829.917 234.142 829.917C236.334 829.917 237.598 827.997 237.598 825.021C237.598 822.029 236.334 820.125 234.142 820.125C231.95 820.125 230.686 822.029 230.686 825.021Z" fill="black"/>
<rect width="70" height="43" transform="translate(198.999 845.749)" fill="#EEE6D5"/>
<path d="M226.123 863.333H223.787V862.293H227.227V873.749H226.123V863.333ZM231.324 863.333H228.988V862.293H232.428V873.749H231.324V863.333Z" fill="black"/>
<rect width="70" height="43" transform="translate(198.999 888.749)" fill="#EEE6D5"/>
<path d="M226.271 906.333H223.935V905.293H227.375V916.749H226.271V906.333ZM236.911 916.749H229.359V915.837L233.023 912.637C235.135 910.797 235.679 909.997 235.679 908.637C235.679 907.085 234.751 906.141 233.231 906.141C231.647 906.141 230.607 907.293 230.559 909.069H229.407C229.471 906.669 230.991 905.085 233.247 905.085C235.407 905.085 236.847 906.477 236.847 908.573C236.847 910.237 236.095 911.341 233.807 913.341L231.135 915.677H236.911V916.749Z" fill="black"/>
</g>
<path d="M195.64 53H191.032V18.296H195.64L207.592 47.48L219.544 18.296H224.248V53H219.64V39.272C219.64 32.792 219.688 30.44 219.928 27.992L209.8 53H205.384L195.304 28.088C195.544 29.768 195.64 33.32 195.64 38.168V53ZM241.449 53.576C234.537 53.576 229.785 48.584 229.785 41.288C229.785 33.944 234.441 28.856 241.257 28.856C247.929 28.856 252.297 33.464 252.297 40.424V42.104L234.153 42.152C234.489 47.096 237.081 49.832 241.545 49.832C245.049 49.832 247.353 48.392 248.121 45.704H252.345C251.193 50.744 247.257 53.576 241.449 53.576ZM241.257 32.648C237.321 32.648 234.825 35 234.249 39.128H247.785C247.785 35.24 245.241 32.648 241.257 32.648ZM255.176 46.184H259.496C259.496 48.584 261.32 50.024 264.296 50.024C267.464 50.024 269.288 48.728 269.288 46.568C269.288 44.984 268.52 44.024 266.072 43.4L261.944 42.44C257.768 41.432 255.8 39.368 255.8 35.912C255.8 31.592 259.448 28.856 264.632 28.856C269.768 28.856 273.128 31.736 273.224 36.2H268.904C268.808 33.848 267.224 32.36 264.488 32.36C261.656 32.36 260.072 33.608 260.072 35.768C260.072 37.352 261.224 38.408 263.528 38.984L267.656 39.992C271.64 40.952 273.608 42.776 273.608 46.28C273.608 50.744 269.768 53.576 264.2 53.576C258.68 53.576 255.176 50.648 255.176 46.184ZM288.5 53.576C281.588 53.576 276.836 48.584 276.836 41.288C276.836 33.944 281.492 28.856 288.308 28.856C294.98 28.856 299.348 33.464 299.348 40.424V42.104L281.204 42.152C281.54 47.096 284.132 49.832 288.596 49.832C292.1 49.832 294.404 48.392 295.172 45.704H299.396C298.244 50.744 294.308 53.576 288.5 53.576ZM288.308 32.648C284.372 32.648 281.876 35 281.3 39.128H294.836C294.836 35.24 292.292 32.648 288.308 32.648ZM302.228 46.184H306.548C306.548 48.584 308.372 50.024 311.348 50.024C314.516 50.024 316.34 48.728 316.34 46.568C316.34 44.984 315.572 44.024 313.124 43.4L308.996 42.44C304.82 41.432 302.852 39.368 302.852 35.912C302.852 31.592 306.5 28.856 311.684 28.856C316.82 28.856 320.18 31.736 320.276 36.2H315.956C315.86 33.848 314.276 32.36 311.54 32.36C308.708 32.36 307.124 33.608 307.124 35.768C307.124 37.352 308.276 38.408 310.58 38.984L314.708 39.992C318.692 40.952 320.66 42.776 320.66 46.28C320.66 50.744 316.82 53.576 311.252 53.576C305.732 53.576 302.228 50.648 302.228 46.184Z" fill="black"/>
<defs>
<filter id="filter0_d_1209_19667" x="10.2" y="358.2" width="115.608" height="551.349" filterUnits="userSpaceOnUse" color-interpolation-filters="sRGB">
<feFlood flood-opacity="0" result="BackgroundImageFix"/>
<feColorMatrix in="SourceAlpha" type="matrix" values="0 0 0 0 0 0 0 0 0 0 0 0 0 0 0 0 0 0 127 0" result="hardAlpha"/>
<feMorphology radius="8" operator="dilate" in="SourceAlpha" result="effect1_dropShadow_1209_19667"/>
<feOffset/>
<feGaussianBlur stdDeviation="4.4"/>
<feComposite in2="hardAlpha" operator="out"/>
<feColorMatrix type="matrix" values="0 0 0 0 0.101961 0 0 0 0 0.45098 0 0 0 0 0.756863 0 0 0 0.5 0"/>
<feBlend mode="normal" in2="BackgroundImageFix" result="effect1_dropShadow_1209_19667"/>
<feBlend mode="normal" in="SourceGraphic" in2="effect1_dropShadow_1209_19667" result="shape"/>
</filter>
<filter id="filter1_d_1209_19667" x="170.2" y="397.2" width="115.608" height="551.349" filterUnits="userSpaceOnUse" color-interpolation-filters="sRGB">
<feFlood flood-opacity="0" result="BackgroundImageFix"/>
<feColorMatrix in="SourceAlpha" type="matrix" values="0 0 0 0 0 0 0 0 0 0 0 0 0 0 0 0 0 0 127 0" result="hardAlpha"/>
<feMorphology radius="8" operator="dilate" in="SourceAlpha" result="effect1_dropShadow_1209_19667"/>
<feOffset/>
<feGaussianBlur stdDeviation="4.4"/>
<feComposite in2="hardAlpha" operator="out"/>
<feColorMatrix type="matrix" values="0 0 0 0 0.101961 0 0 0 0 0.45098 0 0 0 0 0.756863 0 0 0 0.5 0"/>
<feBlend mode="normal" in2="BackgroundImageFix" result="effect1_dropShadow_1209_19667"/>
<feBlend mode="normal" in="SourceGraphic" in2="effect1_dropShadow_1209_19667" result="shape"/>
</filter>
</defs>
</svg>
