<svg width="602" height="901" viewBox="0 0 602 901" fill="none" xmlns="http://www.w3.org/2000/svg">
<path d="M181.432 44.528C171.544 44.528 164.968 37.424 164.968 26.672C164.968 15.968 171.736 8.72 181.672 8.72C189.496 8.72 195.496 13.376 196.792 20.48H191.752C190.456 15.968 186.568 13.232 181.528 13.232C174.52 13.232 169.912 18.512 169.912 26.624C169.912 34.736 174.52 40.016 181.528 40.016C186.616 40.016 190.648 37.28 191.944 33.008H196.936C195.448 39.92 189.256 44.528 181.432 44.528ZM208.091 44.576C203.051 44.576 200.075 41.744 200.075 37.472C200.075 33.152 203.291 30.464 208.811 30.032L216.203 29.456V28.784C216.203 24.848 213.851 23.456 210.683 23.456C206.891 23.456 204.731 25.136 204.731 27.968H200.795C200.795 23.072 204.827 19.856 210.875 19.856C216.683 19.856 220.619 22.928 220.619 29.264V44H216.779L216.299 40.208C215.099 42.896 211.883 44.576 208.091 44.576ZM209.387 41.072C213.659 41.072 216.251 38.288 216.251 33.872V32.624L210.251 33.104C206.267 33.488 204.635 35.024 204.635 37.328C204.635 39.824 206.459 41.072 209.387 41.072ZM231.236 44H226.724V8.672H231.236V44ZM247.766 44.576C240.854 44.576 236.102 39.584 236.102 32.288C236.102 24.944 240.758 19.856 247.574 19.856C254.246 19.856 258.614 24.464 258.614 31.424V33.104L240.47 33.152C240.806 38.096 243.398 40.832 247.862 40.832C251.366 40.832 253.67 39.392 254.438 36.704H258.662C257.51 41.744 253.574 44.576 247.766 44.576ZM247.574 23.648C243.638 23.648 241.142 26 240.566 30.128H254.102C254.102 26.24 251.558 23.648 247.574 23.648ZM267.925 44H263.413V20.528H267.493L267.973 24.128C269.461 21.44 272.437 19.856 275.749 19.856C281.941 19.856 284.773 23.648 284.773 29.648V44H280.261V30.656C280.261 25.904 278.053 23.984 274.597 23.984C270.373 23.984 267.925 27.008 267.925 31.568V44ZM300.191 44.576C293.375 44.576 289.247 39.488 289.247 32.336C289.247 25.136 293.423 19.856 300.383 19.856C303.983 19.856 307.007 21.44 308.591 24.32V8.672H313.055V44H309.023L308.639 39.728C307.103 42.944 303.935 44.576 300.191 44.576ZM301.103 40.496C305.711 40.496 308.543 37.088 308.543 32.192C308.543 27.392 305.711 23.936 301.103 23.936C296.495 23.936 293.807 27.392 293.807 32.192C293.807 37.04 296.495 40.496 301.103 40.496ZM326.188 44.576C321.148 44.576 318.172 41.744 318.172 37.472C318.172 33.152 321.388 30.464 326.908 30.032L334.3 29.456V28.784C334.3 24.848 331.948 23.456 328.78 23.456C324.988 23.456 322.828 25.136 322.828 27.968H318.892C318.892 23.072 322.924 19.856 328.972 19.856C334.78 19.856 338.716 22.928 338.716 29.264V44H334.876L334.396 40.208C333.196 42.896 329.98 44.576 326.188 44.576ZM327.484 41.072C331.756 41.072 334.348 38.288 334.348 33.872V32.624L328.348 33.104C324.364 33.488 322.732 35.024 322.732 37.328C322.732 39.824 324.556 41.072 327.484 41.072ZM358.165 20.336V24.464H356.149C351.877 24.464 349.237 27.056 349.237 31.568V44H344.725V20.576H348.949L349.237 24.128C350.197 21.68 352.549 20.048 355.765 20.048C356.581 20.048 357.253 20.144 358.165 20.336ZM364.365 14.96C362.733 14.96 361.389 13.616 361.389 11.984C361.389 10.304 362.733 9.008 364.365 9.008C365.997 9.008 367.341 10.304 367.341 11.984C367.341 13.616 365.997 14.96 364.365 14.96ZM362.157 44V20.528H366.669V44H362.157ZM371.443 32.24C371.443 24.992 376.627 19.904 383.683 19.904C390.691 19.904 395.875 24.992 395.875 32.24C395.875 39.488 390.691 44.576 383.683 44.576C376.627 44.576 371.443 39.488 371.443 32.24ZM376.003 32.24C376.003 37.136 379.123 40.544 383.683 40.544C388.195 40.544 391.363 37.136 391.363 32.24C391.363 27.344 388.195 23.936 383.683 23.936C379.123 23.936 376.003 27.344 376.003 32.24Z" fill="black"/>
<rect x="0.5" y="204.5" width="148" height="243" rx="4.5" stroke="#8A38F5" stroke-dasharray="10 5"/>
<rect width="119" height="83" transform="translate(15 219)" fill="#EEE6D5"/>
<path d="M41.2156 260.968C41.2156 249.747 47.5856 242.054 57.0426 242.054C66.4996 242.054 72.8696 249.747 72.8696 260.968C72.8696 272.189 66.9896 279.637 57.0426 279.637C47.0956 279.637 41.2156 272.189 41.2156 260.968ZM49.0556 260.968C49.0556 268.759 51.9956 272.679 57.0426 272.679C62.0896 272.679 65.0296 268.759 65.0296 260.968C65.0296 252.932 62.0896 249.012 57.0426 249.012C51.9956 249.012 49.0556 252.932 49.0556 260.968ZM76.1415 260.968C76.1415 249.747 82.5115 242.054 91.9685 242.054C101.426 242.054 107.796 249.747 107.796 260.968C107.796 272.189 101.916 279.637 91.9685 279.637C82.0215 279.637 76.1415 272.189 76.1415 260.968ZM83.9815 260.968C83.9815 268.759 86.9215 272.679 91.9685 272.679C97.0155 272.679 99.9555 268.759 99.9555 260.968C99.9555 252.932 97.0155 249.012 91.9685 249.012C86.9215 249.012 83.9815 252.932 83.9815 260.968Z" fill="black"/>
<rect width="119" height="83" transform="translate(15 333)" fill="#FFBC1A"/>
<path d="M41.2156 374.968C41.2156 363.747 47.5856 356.054 57.0426 356.054C66.4996 356.054 72.8696 363.747 72.8696 374.968C72.8696 386.189 66.9896 393.637 57.0426 393.637C47.0956 393.637 41.2156 386.189 41.2156 374.968ZM49.0556 374.968C49.0556 382.759 51.9956 386.679 57.0426 386.679C62.0896 386.679 65.0296 382.759 65.0296 374.968C65.0296 366.932 62.0896 363.012 57.0426 363.012C51.9956 363.012 49.0556 366.932 49.0556 374.968ZM76.1415 374.968C76.1415 363.747 82.5115 356.054 91.9685 356.054C101.426 356.054 107.796 363.747 107.796 374.968C107.796 386.189 101.916 393.637 91.9685 393.637C82.0215 393.637 76.1415 386.189 76.1415 374.968ZM83.9815 374.968C83.9815 382.759 86.9215 386.679 91.9685 386.679C97.0155 386.679 99.9555 382.759 99.9555 374.968C99.9555 366.932 97.0155 363.012 91.9685 363.012C86.9215 363.012 83.9815 366.932 83.9815 374.968Z" fill="black"/>
<rect x="231.5" y="184.5" width="370" height="668" rx="4.5" stroke="#8A38F5" stroke-dasharray="10 5"/>
<path d="M339.175 254.902L313.303 255V249.12L325.259 239.173C329.13 235.988 330.747 233.734 330.747 230.745C330.747 227.07 328.934 225.11 325.7 225.11C322.319 225.11 320.359 227.413 320.359 231.48H312.47C312.47 223.346 317.664 218.054 325.651 218.054C333.932 218.054 338.881 222.513 338.881 230.255C338.881 235.204 335.892 239.222 331.384 242.995L325.945 247.552H339.175V254.902ZM347.92 228.491L355.025 218.74H364.09L355.809 229.863C356.299 229.765 356.789 229.716 357.279 229.716C364.727 229.716 369.823 234.861 369.823 242.309C369.823 250.247 363.992 255.637 355.956 255.637C347.822 255.637 341.893 249.855 341.893 242.26C341.893 237.801 343.51 234.518 347.92 228.491ZM350.027 242.358C350.027 246.082 352.428 248.63 355.956 248.63C359.386 248.63 361.787 246.082 361.787 242.358C361.787 238.634 359.435 236.135 355.956 236.135C352.379 236.135 350.027 238.634 350.027 242.358Z" fill="black"/>
<path d="M404.31 256.759C415.499 256.759 424.569 247.688 424.569 236.5C424.569 225.311 415.499 216.241 404.31 216.241C393.122 216.241 384.052 225.311 384.052 236.5C384.052 247.688 393.122 256.759 404.31 256.759Z" stroke="black" stroke-width="3.03879" stroke-miterlimit="10" stroke-linecap="round" stroke-linejoin="round"/>
<path d="M397.159 233.947L404.31 241.078L411.462 233.947" stroke="black" stroke-width="3.03879" stroke-linecap="round" stroke-linejoin="round"/>
<path d="M341.175 333.902L315.303 334V328.12L327.259 318.173C331.13 314.988 332.747 312.734 332.747 309.745C332.747 306.07 330.934 304.11 327.7 304.11C324.319 304.11 322.359 306.413 322.359 310.48H314.47C314.47 302.346 319.664 297.054 327.651 297.054C335.932 297.054 340.881 301.513 340.881 309.255C340.881 314.204 337.892 318.222 333.384 321.995L327.945 326.552H341.175V333.902ZM349.92 307.491L357.025 297.74H366.09L357.809 308.863C358.299 308.765 358.789 308.716 359.279 308.716C366.727 308.716 371.823 313.861 371.823 321.309C371.823 329.247 365.992 334.637 357.956 334.637C349.822 334.637 343.893 328.855 343.893 321.26C343.893 316.801 345.51 313.518 349.92 307.491ZM352.027 321.358C352.027 325.082 354.428 327.63 357.956 327.63C361.386 327.63 363.787 325.082 363.787 321.358C363.787 317.634 361.435 315.135 357.956 315.135C354.379 315.135 352.027 317.634 352.027 321.358Z" fill="black"/>
<path d="M406.31 335.759C417.499 335.759 426.569 326.688 426.569 315.5C426.569 304.311 417.499 295.241 406.31 295.241C395.122 295.241 386.052 304.311 386.052 315.5C386.052 326.688 395.122 335.759 406.31 335.759Z" stroke="black" stroke-width="3.03879" stroke-miterlimit="10" stroke-linecap="round" stroke-linejoin="round"/>
<path d="M399.159 318.053L406.31 310.922L413.462 318.053" stroke="black" stroke-width="3.03879" stroke-linecap="round" stroke-linejoin="round"/>
<rect width="119" height="83" transform="translate(285 352)" fill="#EEE6D5"/>
<path d="M344.278 411.902L318.406 412V406.12L330.362 396.173C334.233 392.988 335.85 390.734 335.85 387.745C335.85 384.07 334.037 382.11 330.803 382.11C327.422 382.11 325.462 384.413 325.462 388.48H317.573C317.573 380.346 322.767 375.054 330.754 375.054C339.035 375.054 343.984 379.513 343.984 387.255C343.984 392.204 340.995 396.222 336.487 399.995L331.048 404.552H344.278V411.902ZM345.771 375.74H372.672V383.09L360.177 412H351.945L364.685 383.09H345.771V375.74Z" fill="black"/>
<rect width="119" height="83" transform="translate(285 435)" fill="#EEE6D5"/>
<path d="M341.814 494.902L315.942 495V489.12L327.898 479.173C331.769 475.988 333.386 473.734 333.386 470.745C333.386 467.07 331.573 465.11 328.339 465.11C324.958 465.11 322.998 467.413 322.998 471.48H315.109C315.109 463.346 320.303 458.054 328.29 458.054C336.571 458.054 341.52 462.513 341.52 470.255C341.52 475.204 338.531 479.222 334.023 482.995L328.584 487.552H341.814V494.902ZM344.826 484.514C344.826 480.3 347.08 476.821 350.608 475.4C347.717 473.979 346.149 471.431 346.149 468.05C346.149 462.121 351.49 458.054 359.281 458.054C367.072 458.054 372.266 462.072 372.266 468.148C372.266 471.529 370.649 474.126 367.66 475.449C371.286 476.821 373.589 480.251 373.589 484.465C373.589 491.276 368.003 495.588 359.183 495.588C350.363 495.588 344.826 491.325 344.826 484.514ZM353.303 468.834C353.303 471.284 355.557 472.803 359.134 472.803C362.711 472.803 364.965 471.284 364.965 468.834C364.965 466.335 362.711 464.767 359.134 464.767C355.557 464.767 353.303 466.335 353.303 468.834ZM352.617 483.975C352.617 486.915 355.067 488.63 359.183 488.63C363.299 488.63 365.749 486.915 365.749 483.975C365.749 481.035 363.25 479.271 359.183 479.271C355.116 479.271 352.617 481.035 352.617 483.975Z" fill="black"/>
<rect width="119" height="83" transform="translate(285 518)" fill="#EEE6D5"/>
<path d="M342.531 577.902L316.659 578V572.12L328.615 562.173C332.486 558.988 334.103 556.734 334.103 553.745C334.103 550.07 332.29 548.11 329.056 548.11C325.675 548.11 323.715 550.413 323.715 554.48H315.826C315.826 546.346 321.02 541.054 329.007 541.054C337.288 541.054 342.237 545.513 342.237 553.255C342.237 558.204 339.248 562.222 334.74 565.995L329.301 570.552H342.531V577.902ZM367.152 568.249L360.047 578H350.982L359.263 566.877C358.773 566.975 358.283 567.024 357.793 567.024C350.345 567.024 345.249 561.879 345.249 554.431C345.249 546.493 351.08 541.103 359.116 541.103C367.25 541.103 373.179 546.885 373.179 554.48C373.179 558.939 371.562 562.222 367.152 568.249ZM365.045 554.382C365.045 550.658 362.644 548.11 359.116 548.11C355.686 548.11 353.285 550.658 353.285 554.382C353.285 558.106 355.637 560.605 359.116 560.605C362.693 560.605 365.045 558.106 365.045 554.382Z" fill="black"/>
<rect width="119" height="83" transform="translate(285 601)" fill="#EEE6D5"/>
<path d="M325.902 643.948H320.61V638.852C320.708 638.754 320.806 638.705 320.904 638.607L328.793 631.698H315.122V624.74H338.74V631.061L331.096 637.774C335.996 639.244 339.965 643.164 339.965 649.338C339.965 656.982 333.791 661.637 326.441 661.637C319.385 661.637 313.456 657.325 313.456 649.142H321.296C321.296 652.719 323.452 654.63 326.637 654.63C329.724 654.63 331.831 652.523 331.831 649.289C331.831 646.398 330.165 643.948 325.902 643.948ZM342.529 642.968C342.529 631.747 348.899 624.054 358.356 624.054C367.813 624.054 374.183 631.747 374.183 642.968C374.183 654.189 368.303 661.637 358.356 661.637C348.409 661.637 342.529 654.189 342.529 642.968ZM350.369 642.968C350.369 650.759 353.309 654.679 358.356 654.679C363.403 654.679 366.343 650.759 366.343 642.968C366.343 634.932 363.403 631.012 358.356 631.012C353.309 631.012 350.369 634.932 350.369 642.968Z" fill="black"/>
<rect width="119" height="83" transform="translate(285 684)" fill="#EEE6D5"/>
<path d="M333.032 726.948H327.74V721.852C327.838 721.754 327.936 721.705 328.034 721.607L335.923 714.698H322.252V707.74H345.87V714.061L338.226 720.774C343.126 722.244 347.095 726.164 347.095 732.338C347.095 739.982 340.921 744.637 333.571 744.637C326.515 744.637 320.586 740.325 320.586 732.142H328.426C328.426 735.719 330.582 737.63 333.767 737.63C336.854 737.63 338.961 735.523 338.961 732.289C338.961 729.398 337.295 726.948 333.032 726.948ZM357.314 714.845H349.082V707.74H364.909V744H357.314V714.845Z" fill="black"/>
<rect width="119" height="83" transform="translate(11 486)" fill="#EEE6D5"/>
<path d="M37.2156 527.968C37.2156 516.747 43.5856 509.054 53.0426 509.054C62.4996 509.054 68.8696 516.747 68.8696 527.968C68.8696 539.189 62.9896 546.637 53.0426 546.637C43.0956 546.637 37.2156 539.189 37.2156 527.968ZM45.0556 527.968C45.0556 535.759 47.9956 539.679 53.0426 539.679C58.0896 539.679 61.0296 535.759 61.0296 527.968C61.0296 519.932 58.0896 516.012 53.0426 516.012C47.9956 516.012 45.0556 519.932 45.0556 527.968ZM72.1415 527.968C72.1415 516.747 78.5115 509.054 87.9685 509.054C97.4255 509.054 103.796 516.747 103.796 527.968C103.796 539.189 97.9155 546.637 87.9685 546.637C78.0215 546.637 72.1415 539.189 72.1415 527.968ZM79.9815 527.968C79.9815 535.759 82.9215 539.679 87.9685 539.679C93.0155 539.679 95.9555 535.759 95.9555 527.968C95.9555 519.932 93.0155 516.012 87.9685 516.012C82.9215 516.012 79.9815 519.932 79.9815 527.968Z" fill="black"/>
<rect width="119" height="83" transform="translate(11 569)" fill="#EEE6D5"/>
<path d="M37.2156 610.968C37.2156 599.747 43.5856 592.054 53.0426 592.054C62.4996 592.054 68.8696 599.747 68.8696 610.968C68.8696 622.189 62.9896 629.637 53.0426 629.637C43.0956 629.637 37.2156 622.189 37.2156 610.968ZM45.0556 610.968C45.0556 618.759 47.9956 622.679 53.0426 622.679C58.0896 622.679 61.0296 618.759 61.0296 610.968C61.0296 602.932 58.0896 599.012 53.0426 599.012C47.9956 599.012 45.0556 602.932 45.0556 610.968ZM72.1415 610.968C72.1415 599.747 78.5115 592.054 87.9685 592.054C97.4255 592.054 103.796 599.747 103.796 610.968C103.796 622.189 97.9155 629.637 87.9685 629.637C78.0215 629.637 72.1415 622.189 72.1415 610.968ZM79.9815 610.968C79.9815 618.759 82.9215 622.679 87.9685 622.679C93.0155 622.679 95.9555 618.759 95.9555 610.968C95.9555 602.932 93.0155 599.012 87.9685 599.012C82.9215 599.012 79.9815 602.932 79.9815 610.968Z" fill="black"/>
<rect width="119" height="83" transform="translate(11 652)" fill="#EEE6D5"/>
<path d="M37.2156 693.968C37.2156 682.747 43.5856 675.054 53.0426 675.054C62.4996 675.054 68.8696 682.747 68.8696 693.968C68.8696 705.189 62.9896 712.637 53.0426 712.637C43.0956 712.637 37.2156 705.189 37.2156 693.968ZM45.0556 693.968C45.0556 701.759 47.9956 705.679 53.0426 705.679C58.0896 705.679 61.0296 701.759 61.0296 693.968C61.0296 685.932 58.0896 682.012 53.0426 682.012C47.9956 682.012 45.0556 685.932 45.0556 693.968ZM72.1415 693.968C72.1415 682.747 78.5115 675.054 87.9685 675.054C97.4255 675.054 103.796 682.747 103.796 693.968C103.796 705.189 97.9155 712.637 87.9685 712.637C78.0215 712.637 72.1415 705.189 72.1415 693.968ZM79.9815 693.968C79.9815 701.759 82.9215 705.679 87.9685 705.679C93.0155 705.679 95.9555 701.759 95.9555 693.968C95.9555 685.932 93.0155 682.012 87.9685 682.012C82.9215 682.012 79.9815 685.932 79.9815 693.968Z" fill="black"/>
<rect width="119" height="83" transform="translate(11 735)" fill="#EEE6D5"/>
<path d="M37.2156 776.968C37.2156 765.747 43.5856 758.054 53.0426 758.054C62.4996 758.054 68.8696 765.747 68.8696 776.968C68.8696 788.189 62.9896 795.637 53.0426 795.637C43.0956 795.637 37.2156 788.189 37.2156 776.968ZM45.0556 776.968C45.0556 784.759 47.9956 788.679 53.0426 788.679C58.0896 788.679 61.0296 784.759 61.0296 776.968C61.0296 768.932 58.0896 765.012 53.0426 765.012C47.9956 765.012 45.0556 768.932 45.0556 776.968ZM72.1415 776.968C72.1415 765.747 78.5115 758.054 87.9685 758.054C97.4255 758.054 103.796 765.747 103.796 776.968C103.796 788.189 97.9155 795.637 87.9685 795.637C78.0215 795.637 72.1415 788.189 72.1415 776.968ZM79.9815 776.968C79.9815 784.759 82.9215 788.679 87.9685 788.679C93.0155 788.679 95.9555 784.759 95.9555 776.968C95.9555 768.932 93.0155 765.012 87.9685 765.012C82.9215 765.012 79.9815 768.932 79.9815 776.968Z" fill="black"/>
<rect width="119" height="83" transform="translate(11 818)" fill="#EEE6D5"/>
<path d="M37.2156 859.968C37.2156 848.747 43.5856 841.054 53.0426 841.054C62.4996 841.054 68.8696 848.747 68.8696 859.968C68.8696 871.189 62.9896 878.637 53.0426 878.637C43.0956 878.637 37.2156 871.189 37.2156 859.968ZM45.0556 859.968C45.0556 867.759 47.9956 871.679 53.0426 871.679C58.0896 871.679 61.0296 867.759 61.0296 859.968C61.0296 851.932 58.0896 848.012 53.0426 848.012C47.9956 848.012 45.0556 851.932 45.0556 859.968ZM72.1415 859.968C72.1415 848.747 78.5115 841.054 87.9685 841.054C97.4255 841.054 103.796 848.747 103.796 859.968C103.796 871.189 97.9155 878.637 87.9685 878.637C78.0215 878.637 72.1415 871.189 72.1415 859.968ZM79.9815 859.968C79.9815 867.759 82.9215 871.679 87.9685 871.679C93.0155 871.679 95.9555 867.759 95.9555 859.968C95.9555 851.932 93.0155 848.012 87.9685 848.012C82.9215 848.012 79.9815 851.932 79.9815 859.968Z" fill="black"/>
</svg>
