<svg width="1026" height="799" viewBox="0 0 1026 799" fill="none" xmlns="http://www.w3.org/2000/svg">
<path d="M9.12 35L0.32 11.864H3.68L9.312 26.648C9.824 27.96 10.272 29.272 10.752 31C11.296 29.176 11.84 27.64 12.224 26.616L17.824 11.864H21.088L12.384 35H9.12ZM25.467 35.384C22.107 35.384 20.123 33.496 20.123 30.648C20.123 27.768 22.267 25.976 25.947 25.688L30.875 25.304V24.856C30.875 22.232 29.307 21.304 27.195 21.304C24.667 21.304 23.227 22.424 23.227 24.312H20.603C20.603 21.048 23.291 18.904 27.323 18.904C31.195 18.904 33.819 20.952 33.819 25.176V35H31.259L30.939 32.472C30.139 34.264 27.995 35.384 25.467 35.384ZM26.331 33.048C29.179 33.048 30.907 31.192 30.907 28.248V27.416L26.907 27.736C24.251 27.992 23.163 29.016 23.163 30.552C23.163 32.216 24.379 33.048 26.331 33.048ZM40.8968 35H37.8888V11.448H40.8968V35ZM44.1408 27.16C44.1408 22.328 47.5968 18.936 52.3008 18.936C56.9728 18.936 60.4288 22.328 60.4288 27.16C60.4288 31.992 56.9728 35.384 52.3008 35.384C47.5968 35.384 44.1408 31.992 44.1408 27.16ZM47.1808 27.16C47.1808 30.424 49.2608 32.696 52.3008 32.696C55.3088 32.696 57.4208 30.424 57.4208 27.16C57.4208 23.896 55.3088 21.624 52.3008 21.624C49.2608 21.624 47.1808 23.896 47.1808 27.16ZM72.5585 19.224V21.976H71.2145C68.3665 21.976 66.6065 23.704 66.6065 26.712V35H63.5985V19.384H66.4145L66.6065 21.752C67.2465 20.12 68.8145 19.032 70.9585 19.032C71.5025 19.032 71.9505 19.096 72.5585 19.224ZM81.4092 35.384C76.8012 35.384 73.6332 32.056 73.6332 27.192C73.6332 22.296 76.7372 18.904 81.2812 18.904C85.7292 18.904 88.6412 21.976 88.6412 26.616V27.736L76.5452 27.768C76.7692 31.064 78.4972 32.888 81.4732 32.888C83.8092 32.888 85.3452 31.928 85.8572 30.136H88.6732C87.9052 33.496 85.2812 35.384 81.4092 35.384ZM81.2812 21.432C78.6572 21.432 76.9932 23 76.6092 25.752H85.6332C85.6332 23.16 83.9372 21.432 81.2812 21.432ZM90.561 30.456H93.441C93.441 32.056 94.657 33.016 96.641 33.016C98.753 33.016 99.969 32.152 99.969 30.712C99.969 29.656 99.457 29.016 97.825 28.6L95.073 27.96C92.289 27.288 90.977 25.912 90.977 23.608C90.977 20.728 93.409 18.904 96.865 18.904C100.289 18.904 102.529 20.824 102.593 23.8H99.713C99.649 22.232 98.593 21.24 96.769 21.24C94.881 21.24 93.825 22.072 93.825 23.512C93.825 24.568 94.593 25.272 96.129 25.656L98.881 26.328C101.537 26.968 102.849 28.184 102.849 30.52C102.849 33.496 100.289 35.384 96.577 35.384C92.897 35.384 90.561 33.432 90.561 30.456ZM108.585 23.384C107.337 23.384 106.281 22.36 106.281 21.176C106.281 19.928 107.337 18.904 108.585 18.904C109.801 18.904 110.857 19.928 110.857 21.176C110.857 22.36 109.801 23.384 108.585 23.384ZM108.585 35.384C107.337 35.384 106.281 34.36 106.281 33.144C106.281 31.896 107.337 30.872 108.585 30.872C109.801 30.872 110.857 31.896 110.857 33.144C110.857 34.36 109.801 35.384 108.585 35.384ZM127.731 14.68H122.867V11.864H130.739V35H127.731V14.68ZM150.332 34.968L134.716 35V32.6L142.172 26.168C145.916 22.936 146.972 21.368 146.972 18.904C146.972 15.992 145.308 14.264 142.524 14.264C139.676 14.264 137.82 16.344 137.756 19.64H134.62C134.716 14.68 137.852 11.448 142.556 11.448C147.196 11.448 150.172 14.264 150.172 18.712C150.172 22.008 148.54 24.344 144.444 27.896L139.644 32.056H150.332V34.968ZM158.459 33.752C158.459 36.056 156.731 37.976 154.459 38.264V36.92C155.771 36.696 156.699 35.832 156.699 34.84C156.475 34.968 156.219 35.032 155.835 35.032C154.779 35.032 153.883 34.264 153.883 33.08C153.883 31.8 154.747 30.872 156.027 30.872C157.371 30.872 158.459 31.992 158.459 33.752ZM175.029 14.68H170.165V11.864H178.037V35H175.029V14.68ZM185.053 19.192L190.461 11.864H194.109L188.317 19.544C189.117 19.224 189.949 19.064 190.749 19.064C195.549 19.064 198.781 22.52 198.781 27.096C198.781 31.928 195.133 35.384 190.365 35.384C185.565 35.384 181.853 31.768 181.853 27.096C181.853 24.344 182.685 22.424 185.053 19.192ZM185.053 27.128C185.053 30.296 187.229 32.568 190.365 32.568C193.437 32.568 195.613 30.296 195.613 27.128C195.613 23.96 193.437 21.72 190.365 21.72C187.229 21.72 185.053 23.96 185.053 27.128ZM205.944 33.752C205.944 36.056 204.216 37.976 201.944 38.264V36.92C203.256 36.696 204.184 35.832 204.184 34.84C203.96 34.968 203.704 35.032 203.32 35.032C202.264 35.032 201.368 34.264 201.368 33.08C201.368 31.8 202.232 30.872 203.512 30.872C204.856 30.872 205.944 31.992 205.944 33.752ZM233.618 34.968L218.002 35V32.6L225.458 26.168C229.202 22.936 230.258 21.368 230.258 18.904C230.258 15.992 228.594 14.264 225.81 14.264C222.962 14.264 221.106 16.344 221.042 19.64H217.906C218.002 14.68 221.138 11.448 225.842 11.448C230.482 11.448 233.458 14.264 233.458 18.712C233.458 22.008 231.826 24.344 227.73 27.896L222.93 32.056H233.618V34.968ZM236.344 23.448C236.344 16.28 240.056 11.416 245.88 11.416C251.672 11.416 255.384 16.28 255.384 23.448C255.384 30.648 251.832 35.416 245.88 35.416C239.896 35.416 236.344 30.648 236.344 23.448ZM239.448 23.448C239.448 29.144 241.816 32.6 245.88 32.6C249.944 32.6 252.28 29.144 252.28 23.448C252.28 17.688 249.944 14.232 245.88 14.232C241.816 14.232 239.448 17.688 239.448 23.448ZM262.179 33.752C262.179 36.056 260.451 37.976 258.179 38.264V36.92C259.491 36.696 260.419 35.832 260.419 34.84C260.195 34.968 259.939 35.032 259.555 35.032C258.499 35.032 257.603 34.264 257.603 33.08C257.603 31.8 258.467 30.872 259.747 30.872C261.091 30.872 262.179 31.992 262.179 33.752ZM289.853 34.968L274.237 35V32.6L281.693 26.168C285.437 22.936 286.493 21.368 286.493 18.904C286.493 15.992 284.829 14.264 282.045 14.264C279.197 14.264 277.341 16.344 277.277 19.64H274.141C274.237 14.68 277.373 11.448 282.077 11.448C286.717 11.448 289.693 14.264 289.693 18.712C289.693 22.008 288.061 24.344 283.965 27.896L279.165 32.056H289.853V34.968ZM309.202 30.328H306.45V35H303.442V30.328H291.474V27.544L302.386 11.864H306.45V27.544H309.202V30.328ZM294.866 27.544H303.442V15.192L294.866 27.544ZM316.571 33.752C316.571 36.056 314.843 37.976 312.571 38.264V36.92C313.883 36.696 314.811 35.832 314.811 34.84C314.587 34.968 314.331 35.032 313.947 35.032C312.891 35.032 311.995 34.264 311.995 33.08C311.995 31.8 312.859 30.872 314.139 30.872C315.483 30.872 316.571 31.992 316.571 33.752ZM344.244 34.968L328.628 35V32.6L336.084 26.168C339.828 22.936 340.884 21.368 340.884 18.904C340.884 15.992 339.22 14.264 336.436 14.264C333.588 14.264 331.732 16.344 331.668 19.64H328.532C328.628 14.68 331.764 11.448 336.468 11.448C341.108 11.448 344.084 14.264 344.084 18.712C344.084 22.008 342.452 24.344 338.356 27.896L333.556 32.056H344.244V34.968ZM346.906 28.568C346.906 25.784 348.538 23.544 351.098 22.616C348.922 21.688 347.738 19.864 347.738 17.528C347.738 13.912 350.842 11.448 355.45 11.448C359.994 11.448 363.066 13.912 363.066 17.56C363.066 19.928 361.85 21.752 359.674 22.616C362.266 23.448 363.93 25.752 363.93 28.6C363.93 32.664 360.538 35.384 355.418 35.384C350.266 35.384 346.906 32.664 346.906 28.568ZM350.618 17.72C350.618 19.992 352.506 21.464 355.386 21.464C358.298 21.464 360.122 20.024 360.122 17.784C360.122 15.576 358.298 14.168 355.386 14.168C352.506 14.168 350.618 15.576 350.618 17.72ZM349.978 28.344C349.978 30.936 352.122 32.6 355.418 32.6C358.682 32.6 360.826 30.936 360.826 28.344C360.826 25.784 358.714 24.152 355.386 24.152C352.09 24.152 349.978 25.784 349.978 28.344ZM371.587 33.752C371.587 36.056 369.859 37.976 367.587 38.264V36.92C368.899 36.696 369.827 35.832 369.827 34.84C369.603 34.968 369.347 35.032 368.963 35.032C367.907 35.032 367.011 34.264 367.011 33.08C367.011 31.8 367.875 30.872 369.155 30.872C370.499 30.872 371.587 31.992 371.587 33.752ZM390.364 23.032H388.06V20.952L394.62 14.648H384.22V11.864H398.588V14.392L392.252 20.44C396.188 20.92 399.164 23.576 399.164 27.736C399.164 32.408 395.644 35.384 390.94 35.384C386.396 35.384 383.132 32.6 383.132 27.8H386.236C386.236 30.808 388.092 32.568 391.004 32.568C394.012 32.568 395.964 30.648 395.964 27.672C395.964 24.888 394.044 23.032 390.364 23.032ZM416.788 34.968L401.172 35V32.6L408.628 26.168C412.372 22.936 413.428 21.368 413.428 18.904C413.428 15.992 411.764 14.264 408.98 14.264C406.132 14.264 404.276 16.344 404.212 19.64H401.076C401.172 14.68 404.308 11.448 409.012 11.448C413.652 11.448 416.628 14.264 416.628 18.712C416.628 22.008 414.996 24.344 410.9 27.896L406.1 32.056H416.788V34.968ZM424.916 33.752C424.916 36.056 423.188 37.976 420.916 38.264V36.92C422.228 36.696 423.156 35.832 423.156 34.84C422.932 34.968 422.676 35.032 422.292 35.032C421.236 35.032 420.34 34.264 420.34 33.08C420.34 31.8 421.204 30.872 422.484 30.872C423.828 30.872 424.916 31.992 424.916 33.752ZM454.317 30.328H451.565V35H448.557V30.328H436.589V27.544L447.501 11.864H451.565V27.544H454.317V30.328ZM439.981 27.544H448.557V15.192L439.981 27.544ZM457.253 23.448C457.253 16.28 460.965 11.416 466.789 11.416C472.581 11.416 476.293 16.28 476.293 23.448C476.293 30.648 472.741 35.416 466.789 35.416C460.805 35.416 457.253 30.648 457.253 23.448ZM460.357 23.448C460.357 29.144 462.725 32.6 466.789 32.6C470.853 32.6 473.189 29.144 473.189 23.448C473.189 17.688 470.853 14.232 466.789 14.232C462.725 14.232 460.357 17.688 460.357 23.448ZM483.088 33.752C483.088 36.056 481.36 37.976 479.088 38.264V36.92C480.4 36.696 481.328 35.832 481.328 34.84C481.104 34.968 480.848 35.032 480.464 35.032C479.408 35.032 478.512 34.264 478.512 33.08C478.512 31.8 479.376 30.872 480.656 30.872C482 30.872 483.088 31.992 483.088 33.752ZM512.49 30.328H509.738V35H506.73V30.328H494.762V27.544L505.674 11.864H509.738V27.544H512.49V30.328ZM498.154 27.544H506.73V15.192L498.154 27.544ZM515.361 28.568C515.361 25.784 516.993 23.544 519.553 22.616C517.377 21.688 516.193 19.864 516.193 17.528C516.193 13.912 519.297 11.448 523.905 11.448C528.449 11.448 531.521 13.912 531.521 17.56C531.521 19.928 530.305 21.752 528.129 22.616C530.721 23.448 532.385 25.752 532.385 28.6C532.385 32.664 528.993 35.384 523.873 35.384C518.721 35.384 515.361 32.664 515.361 28.568ZM519.073 17.72C519.073 19.992 520.961 21.464 523.841 21.464C526.753 21.464 528.577 20.024 528.577 17.784C528.577 15.576 526.753 14.168 523.841 14.168C520.961 14.168 519.073 15.576 519.073 17.72ZM518.433 28.344C518.433 30.936 520.577 32.6 523.873 32.6C527.137 32.6 529.281 30.936 529.281 28.344C529.281 25.784 527.169 24.152 523.841 24.152C520.545 24.152 518.433 25.784 518.433 28.344ZM540.042 33.752C540.042 36.056 538.314 37.976 536.042 38.264V36.92C537.354 36.696 538.282 35.832 538.282 34.84C538.058 34.968 537.802 35.032 537.418 35.032C536.362 35.032 535.466 34.264 535.466 33.08C535.466 31.8 536.33 30.872 537.61 30.872C538.954 30.872 540.042 31.992 540.042 33.752ZM552.132 28.568C552.132 25.784 553.764 23.544 556.324 22.616C554.148 21.688 552.964 19.864 552.964 17.528C552.964 13.912 556.068 11.448 560.676 11.448C565.22 11.448 568.292 13.912 568.292 17.56C568.292 19.928 567.076 21.752 564.9 22.616C567.492 23.448 569.156 25.752 569.156 28.6C569.156 32.664 565.764 35.384 560.644 35.384C555.492 35.384 552.132 32.664 552.132 28.568ZM555.844 17.72C555.844 19.992 557.732 21.464 560.612 21.464C563.524 21.464 565.348 20.024 565.348 17.784C565.348 15.576 563.524 14.168 560.612 14.168C557.732 14.168 555.844 15.576 555.844 17.72ZM555.204 28.344C555.204 30.936 557.348 32.6 560.644 32.6C563.908 32.6 566.052 30.936 566.052 28.344C566.052 25.784 563.94 24.152 560.612 24.152C557.316 24.152 555.204 25.784 555.204 28.344ZM572.036 23.448C572.036 16.28 575.748 11.416 581.572 11.416C587.364 11.416 591.076 16.28 591.076 23.448C591.076 30.648 587.524 35.416 581.572 35.416C575.588 35.416 572.036 30.648 572.036 23.448ZM575.14 23.448C575.14 29.144 577.508 32.6 581.572 32.6C585.636 32.6 587.972 29.144 587.972 23.448C587.972 17.688 585.636 14.232 581.572 14.232C577.508 14.232 575.14 17.688 575.14 23.448Z" fill="black"/>
<path d="M6.824 582.864V606H3.688V582.864H6.824ZM10.5233 598.192C10.5233 593.296 13.6273 589.904 18.2033 589.904C22.1393 589.904 24.8913 592.144 25.4353 595.632H22.4273C21.9153 593.648 20.3153 592.592 18.2993 592.592C15.4513 592.592 13.4993 594.768 13.4993 598.16C13.4993 601.52 15.3233 603.696 18.1713 603.696C20.3153 603.696 21.9153 602.576 22.4593 600.72H25.4673C24.8593 604.112 21.9473 606.384 18.1713 606.384C13.5633 606.384 10.5233 603.12 10.5233 598.192ZM27.457 598.16C27.457 593.328 30.913 589.936 35.617 589.936C40.289 589.936 43.745 593.328 43.745 598.16C43.745 602.992 40.289 606.384 35.617 606.384C30.913 606.384 27.457 602.992 27.457 598.16ZM30.497 598.16C30.497 601.424 32.577 603.696 35.617 603.696C38.625 603.696 40.737 601.424 40.737 598.16C40.737 594.896 38.625 592.624 35.617 592.624C32.577 592.624 30.497 594.896 30.497 598.16ZM49.9228 606H46.9148V590.352H49.6348L49.9548 592.752C50.9468 590.96 52.9308 589.904 55.1388 589.904C59.2668 589.904 61.1548 592.432 61.1548 596.432V606H58.1468V597.104C58.1468 593.936 56.6748 592.656 54.3708 592.656C51.5548 592.656 49.9228 594.672 49.9228 597.712V606ZM64.137 598.16C64.137 593.328 67.593 589.936 72.297 589.936C76.969 589.936 80.425 593.328 80.425 598.16C80.425 602.992 76.969 606.384 72.297 606.384C67.593 606.384 64.137 602.992 64.137 598.16ZM67.177 598.16C67.177 601.424 69.257 603.696 72.297 603.696C75.305 603.696 77.417 601.424 77.417 598.16C77.417 594.896 75.305 592.624 72.297 592.624C69.257 592.624 67.177 594.896 67.177 598.16ZM82.3147 601.456H85.1947C85.1947 603.056 86.4107 604.016 88.3947 604.016C90.5067 604.016 91.7227 603.152 91.7227 601.712C91.7227 600.656 91.2107 600.016 89.5787 599.6L86.8267 598.96C84.0427 598.288 82.7307 596.912 82.7307 594.608C82.7307 591.728 85.1627 589.904 88.6187 589.904C92.0427 589.904 94.2827 591.824 94.3467 594.8H91.4667C91.4027 593.232 90.3467 592.24 88.5227 592.24C86.6347 592.24 85.5787 593.072 85.5787 594.512C85.5787 595.568 86.3467 596.272 87.8827 596.656L90.6347 597.328C93.2907 597.968 94.6027 599.184 94.6027 601.52C94.6027 604.496 92.0427 606.384 88.3307 606.384C84.6507 606.384 82.3147 604.432 82.3147 601.456ZM117.184 590.352H120.16V606H117.472L117.152 603.632C116.256 605.264 114.176 606.384 111.872 606.384C108.224 606.384 106.176 603.92 106.176 600.08V590.352H109.184V599.088C109.184 602.448 110.624 603.728 112.928 603.728C115.68 603.728 117.184 601.968 117.184 598.608V590.352ZM122.772 601.456H125.652C125.652 603.056 126.868 604.016 128.852 604.016C130.964 604.016 132.18 603.152 132.18 601.712C132.18 600.656 131.668 600.016 130.036 599.6L127.284 598.96C124.5 598.288 123.188 596.912 123.188 594.608C123.188 591.728 125.62 589.904 129.076 589.904C132.5 589.904 134.74 591.824 134.804 594.8H131.924C131.86 593.232 130.804 592.24 128.98 592.24C127.092 592.24 126.036 593.072 126.036 594.512C126.036 595.568 126.804 596.272 128.34 596.656L131.092 597.328C133.748 597.968 135.06 599.184 135.06 601.52C135.06 604.496 132.5 606.384 128.788 606.384C125.108 606.384 122.772 604.432 122.772 601.456ZM142.812 606.384C139.452 606.384 137.468 604.496 137.468 601.648C137.468 598.768 139.612 596.976 143.292 596.688L148.22 596.304V595.856C148.22 593.232 146.652 592.304 144.54 592.304C142.012 592.304 140.572 593.424 140.572 595.312H137.948C137.948 592.048 140.636 589.904 144.668 589.904C148.54 589.904 151.164 591.952 151.164 596.176V606H148.604L148.284 603.472C147.484 605.264 145.34 606.384 142.812 606.384ZM143.676 604.048C146.524 604.048 148.252 602.192 148.252 599.248V598.416L144.252 598.736C141.596 598.992 140.508 600.016 140.508 601.552C140.508 603.216 141.724 604.048 143.676 604.048ZM161.442 606.384C156.898 606.384 154.146 602.992 154.146 598.224C154.146 593.424 156.93 589.904 161.57 589.904C163.97 589.904 165.986 590.96 167.042 592.88V582.448H170.018V606H167.33L167.074 603.152C166.05 605.296 163.938 606.384 161.442 606.384ZM162.05 603.664C165.122 603.664 167.01 601.392 167.01 598.128C167.01 594.928 165.122 592.624 162.05 592.624C158.978 592.624 157.186 594.928 157.186 598.128C157.186 601.36 158.978 603.664 162.05 603.664ZM173.173 598.16C173.173 593.328 176.629 589.936 181.333 589.936C186.005 589.936 189.461 593.328 189.461 598.16C189.461 602.992 186.005 606.384 181.333 606.384C176.629 606.384 173.173 602.992 173.173 598.16ZM176.213 598.16C176.213 601.424 178.293 603.696 181.333 603.696C184.341 603.696 186.453 601.424 186.453 598.16C186.453 594.896 184.341 592.624 181.333 592.624C178.293 592.624 176.213 594.896 176.213 598.16ZM191.351 601.456H194.231C194.231 603.056 195.447 604.016 197.431 604.016C199.543 604.016 200.759 603.152 200.759 601.712C200.759 600.656 200.247 600.016 198.615 599.6L195.863 598.96C193.079 598.288 191.767 596.912 191.767 594.608C191.767 591.728 194.199 589.904 197.655 589.904C201.079 589.904 203.319 591.824 203.383 594.8H200.503C200.439 593.232 199.383 592.24 197.559 592.24C195.671 592.24 194.615 593.072 194.615 594.512C194.615 595.568 195.383 596.272 196.919 596.656L199.671 597.328C202.327 597.968 203.639 599.184 203.639 601.52C203.639 604.496 201.079 606.384 197.367 606.384C193.687 606.384 191.351 604.432 191.351 601.456ZM209.375 594.384C208.127 594.384 207.071 593.36 207.071 592.176C207.071 590.928 208.127 589.904 209.375 589.904C210.591 589.904 211.647 590.928 211.647 592.176C211.647 593.36 210.591 594.384 209.375 594.384ZM209.375 606.384C208.127 606.384 207.071 605.36 207.071 604.144C207.071 602.896 208.127 601.872 209.375 601.872C210.591 601.872 211.647 602.896 211.647 604.144C211.647 605.36 210.591 606.384 209.375 606.384Z" fill="black"/>
<path d="M0.336 86.808V84.648H13.128V86.808H7.92V102H5.568V86.808H0.336ZM20.2789 90.168V92.232H19.2709C17.1349 92.232 15.8149 93.528 15.8149 95.784V102H13.5589V90.288H15.6709L15.8149 92.064C16.2949 90.84 17.4709 90.024 19.0789 90.024C19.4869 90.024 19.8229 90.072 20.2789 90.168ZM25.2381 102.288C22.7181 102.288 21.2301 100.872 21.2301 98.736C21.2301 96.576 22.8381 95.232 25.5981 95.016L29.2941 94.728V94.392C29.2941 92.424 28.1181 91.728 26.5341 91.728C24.6381 91.728 23.5581 92.568 23.5581 93.984H21.5901C21.5901 91.536 23.6061 89.928 26.6301 89.928C29.5341 89.928 31.5021 91.464 31.5021 94.632V102H29.5821L29.3421 100.104C28.7421 101.448 27.1341 102.288 25.2381 102.288ZM25.8861 100.536C28.0221 100.536 29.3181 99.144 29.3181 96.936V96.312L26.3181 96.552C24.3261 96.744 23.5101 97.512 23.5101 98.664C23.5101 99.912 24.4221 100.536 25.8861 100.536ZM42.9304 102H33.7864V100.176L40.1224 92.16H33.7864V90.264H42.9304V92.112L36.5464 100.104H42.9304V102ZM44.3293 96.12C44.3293 92.496 46.9213 89.952 50.4493 89.952C53.9533 89.952 56.5453 92.496 56.5453 96.12C56.5453 99.744 53.9533 102.288 50.4493 102.288C46.9213 102.288 44.3293 99.744 44.3293 96.12ZM46.6093 96.12C46.6093 98.568 48.1693 100.272 50.4493 100.272C52.7053 100.272 54.2893 98.568 54.2893 96.12C54.2893 93.672 52.7053 91.968 50.4493 91.968C48.1693 91.968 46.6093 93.672 46.6093 96.12ZM60.8426 93.288C59.9066 93.288 59.1146 92.52 59.1146 91.632C59.1146 90.696 59.9066 89.928 60.8426 89.928C61.7546 89.928 62.5466 90.696 62.5466 91.632C62.5466 92.52 61.7546 93.288 60.8426 93.288ZM60.8426 102.288C59.9066 102.288 59.1146 101.52 59.1146 100.608C59.1146 99.672 59.9066 98.904 60.8426 98.904C61.7546 98.904 62.5466 99.672 62.5466 100.608C62.5466 101.52 61.7546 102.288 60.8426 102.288ZM75.2027 86.76H71.5547V84.648H77.4587V102H75.2027V86.76Z" fill="black"/>
<path d="M1.336 313.808V311.648H14.128V313.808H8.92V329H6.568V313.808H1.336ZM21.2789 317.168V319.232H20.2709C18.1349 319.232 16.8149 320.528 16.8149 322.784V329H14.5589V317.288H16.6709L16.8149 319.064C17.2949 317.84 18.4709 317.024 20.0789 317.024C20.4869 317.024 20.8229 317.072 21.2789 317.168ZM26.2381 329.288C23.7181 329.288 22.2301 327.872 22.2301 325.736C22.2301 323.576 23.8381 322.232 26.5981 322.016L30.2941 321.728V321.392C30.2941 319.424 29.1181 318.728 27.5341 318.728C25.6381 318.728 24.5581 319.568 24.5581 320.984H22.5901C22.5901 318.536 24.6061 316.928 27.6301 316.928C30.5341 316.928 32.5021 318.464 32.5021 321.632V329H30.5821L30.3421 327.104C29.7421 328.448 28.1341 329.288 26.2381 329.288ZM26.8861 327.536C29.0221 327.536 30.3181 326.144 30.3181 323.936V323.312L27.3181 323.552C25.3261 323.744 24.5101 324.512 24.5101 325.664C24.5101 326.912 25.4221 327.536 26.8861 327.536ZM43.9304 329H34.7864V327.176L41.1224 319.16H34.7864V317.264H43.9304V319.112L37.5464 327.104H43.9304V329ZM45.3293 323.12C45.3293 319.496 47.9213 316.952 51.4493 316.952C54.9533 316.952 57.5453 319.496 57.5453 323.12C57.5453 326.744 54.9533 329.288 51.4493 329.288C47.9213 329.288 45.3293 326.744 45.3293 323.12ZM47.6093 323.12C47.6093 325.568 49.1693 327.272 51.4493 327.272C53.7053 327.272 55.2893 325.568 55.2893 323.12C55.2893 320.672 53.7053 318.968 51.4493 318.968C49.1693 318.968 47.6093 320.672 47.6093 323.12ZM61.8426 320.288C60.9066 320.288 60.1146 319.52 60.1146 318.632C60.1146 317.696 60.9066 316.928 61.8426 316.928C62.7546 316.928 63.5466 317.696 63.5466 318.632C63.5466 319.52 62.7546 320.288 61.8426 320.288ZM61.8426 329.288C60.9066 329.288 60.1146 328.52 60.1146 327.608C60.1146 326.672 60.9066 325.904 61.8426 325.904C62.7546 325.904 63.5466 326.672 63.5466 327.608C63.5466 328.52 62.7546 329.288 61.8426 329.288ZM84.5307 328.976L72.8187 329V327.2L78.4107 322.376C81.2187 319.952 82.0107 318.776 82.0107 316.928C82.0107 314.744 80.7627 313.448 78.6747 313.448C76.5387 313.448 75.1467 315.008 75.0987 317.48H72.7467C72.8187 313.76 75.1707 311.336 78.6987 311.336C82.1787 311.336 84.4107 313.448 84.4107 316.784C84.4107 319.256 83.1867 321.008 80.1147 323.672L76.5147 326.792H84.5307V328.976Z" fill="black"/>
<path d="M413.336 313.808V311.648H426.128V313.808H420.92V329H418.568V313.808H413.336ZM433.279 317.168V319.232H432.271C430.135 319.232 428.815 320.528 428.815 322.784V329H426.559V317.288H428.671L428.815 319.064C429.295 317.84 430.471 317.024 432.079 317.024C432.487 317.024 432.823 317.072 433.279 317.168ZM438.238 329.288C435.718 329.288 434.23 327.872 434.23 325.736C434.23 323.576 435.838 322.232 438.598 322.016L442.294 321.728V321.392C442.294 319.424 441.118 318.728 439.534 318.728C437.638 318.728 436.558 319.568 436.558 320.984H434.59C434.59 318.536 436.606 316.928 439.63 316.928C442.534 316.928 444.502 318.464 444.502 321.632V329H442.582L442.342 327.104C441.742 328.448 440.134 329.288 438.238 329.288ZM438.886 327.536C441.022 327.536 442.318 326.144 442.318 323.936V323.312L439.318 323.552C437.326 323.744 436.51 324.512 436.51 325.664C436.51 326.912 437.422 327.536 438.886 327.536ZM455.93 329H446.786V327.176L453.122 319.16H446.786V317.264H455.93V319.112L449.546 327.104H455.93V329ZM457.329 323.12C457.329 319.496 459.921 316.952 463.449 316.952C466.953 316.952 469.545 319.496 469.545 323.12C469.545 326.744 466.953 329.288 463.449 329.288C459.921 329.288 457.329 326.744 457.329 323.12ZM459.609 323.12C459.609 325.568 461.169 327.272 463.449 327.272C465.705 327.272 467.289 325.568 467.289 323.12C467.289 320.672 465.705 318.968 463.449 318.968C461.169 318.968 459.609 320.672 459.609 323.12ZM473.843 320.288C472.907 320.288 472.115 319.52 472.115 318.632C472.115 317.696 472.907 316.928 473.843 316.928C474.755 316.928 475.547 317.696 475.547 318.632C475.547 319.52 474.755 320.288 473.843 320.288ZM473.843 329.288C472.907 329.288 472.115 328.52 472.115 327.608C472.115 326.672 472.907 325.904 473.843 325.904C474.755 325.904 475.547 326.672 475.547 327.608C475.547 328.52 474.755 329.288 473.843 329.288ZM497.827 325.496H495.763V329H493.507V325.496H484.531V323.408L492.715 311.648H495.763V323.408H497.827V325.496ZM487.075 323.408H493.507V314.144L487.075 323.408Z" fill="black"/>
<path d="M16.81 179.49H15.35V178.84H17.5V186H16.81V179.49ZM23.4598 186H18.7398V185.43L21.0298 183.43C22.3498 182.28 22.6898 181.78 22.6898 180.93C22.6898 179.96 22.1098 179.37 21.1598 179.37C20.1698 179.37 19.5198 180.09 19.4898 181.2H18.7698C18.8098 179.7 19.7598 178.71 21.1698 178.71C22.5198 178.71 23.4198 179.58 23.4198 180.89C23.4198 181.93 22.9498 182.62 21.5198 183.87L19.8498 185.33H23.4598V186ZM24.5751 188.11V181.16H25.1751L25.2451 182.14C25.5851 181.39 26.2651 181.03 27.0751 181.03C28.4751 181.03 29.3151 182.1 29.3151 183.56C29.3151 185.02 28.5051 186.12 27.0751 186.12C26.2551 186.12 25.6051 185.77 25.2651 185.07V188.11H24.5751ZM25.2751 183.58C25.2751 184.69 25.8951 185.5 26.9551 185.5C28.0051 185.5 28.6151 184.69 28.6151 183.58C28.6151 182.46 28.0051 181.66 26.9551 181.66C25.8951 181.66 25.2751 182.46 25.2751 183.58ZM30.3889 186H29.5789L31.3089 183.58L29.5889 181.16H30.3989L31.7689 183.1L33.1289 181.16H33.9289L32.2089 183.59L33.9189 186H33.0989L31.7389 184.06L30.3889 186Z" fill="#1A73C1"/>
<circle cx="25.5" cy="203.5" r="3" stroke="black"/>
<path d="M30 208L28.5 206.5" stroke="black" stroke-linecap="round"/>
<path d="M326.17 180H321.45V179.43L323.74 177.43C325.06 176.28 325.4 175.78 325.4 174.93C325.4 173.96 324.82 173.37 323.87 173.37C322.88 173.37 322.23 174.09 322.2 175.2H321.48C321.52 173.7 322.47 172.71 323.88 172.71C325.23 172.71 326.13 173.58 326.13 174.89C326.13 175.93 325.66 176.62 324.23 177.87L322.56 179.33H326.17V180ZM331.982 178.48H331.142V180H330.442V178.48H326.682V177.84L330.182 172.84H331.142V177.84H331.982V178.48ZM327.462 177.84H330.442V173.58L327.462 177.84ZM333.222 182.11V175.16H333.822L333.892 176.14C334.232 175.39 334.912 175.03 335.722 175.03C337.122 175.03 337.962 176.1 337.962 177.56C337.962 179.02 337.152 180.12 335.722 180.12C334.902 180.12 334.252 179.77 333.912 179.07V182.11H333.222ZM333.922 177.58C333.922 178.69 334.542 179.5 335.602 179.5C336.652 179.5 337.262 178.69 337.262 177.58C337.262 176.46 336.652 175.66 335.602 175.66C334.542 175.66 333.922 176.46 333.922 177.58ZM339.035 180H338.225L339.955 177.58L338.235 175.16H339.045L340.415 177.1L341.775 175.16H342.575L340.855 177.59L342.565 180H341.745L340.385 178.06L339.035 180Z" fill="#1A73C1"/>
<circle cx="332.5" cy="203" r="6" stroke="black"/>
<path d="M341.5 212L338.5 209" stroke="black" stroke-linecap="round"/>
<path d="M762.7 166.48H761.86V168H761.16V166.48H757.4V165.84L760.9 160.84H761.86V165.84H762.7V166.48ZM758.18 165.84H761.16V161.58L758.18 165.84ZM763.73 166.05C763.73 165.17 764.26 164.47 765.11 164.18C764.39 163.89 763.98 163.3 763.98 162.56C763.98 161.46 764.92 160.71 766.29 160.71C767.65 160.71 768.56 161.46 768.56 162.57C768.56 163.32 768.16 163.91 767.45 164.18C768.28 164.44 768.83 165.16 768.83 166.06C768.83 167.28 767.8 168.12 766.28 168.12C764.76 168.12 763.73 167.28 763.73 166.05ZM764.66 162.58C764.66 163.37 765.3 163.9 766.28 163.9C767.25 163.9 767.88 163.39 767.88 162.6C767.88 161.83 767.25 161.35 766.28 161.35C765.3 161.35 764.66 161.83 764.66 162.58ZM764.44 165.99C764.44 166.88 765.18 167.47 766.29 167.47C767.38 167.47 768.12 166.88 768.12 165.99C768.12 165.11 767.4 164.54 766.27 164.54C765.16 164.54 764.44 165.11 764.44 165.99ZM770.013 170.11V163.16H770.613L770.683 164.14C771.023 163.39 771.703 163.03 772.513 163.03C773.913 163.03 774.753 164.1 774.753 165.56C774.753 167.02 773.943 168.12 772.513 168.12C771.693 168.12 771.043 167.77 770.703 167.07V170.11H770.013ZM770.713 165.58C770.713 166.69 771.333 167.5 772.393 167.5C773.443 167.5 774.053 166.69 774.053 165.58C774.053 164.46 773.443 163.66 772.393 163.66C771.333 163.66 770.713 164.46 770.713 165.58ZM775.826 168H775.016L776.746 165.58L775.026 163.16H775.836L777.206 165.1L778.566 163.16H779.366L777.646 165.59L779.356 168H778.536L777.176 166.06L775.826 168Z" fill="#1A73C1"/>
<circle cx="778.5" cy="202" r="12" stroke="black"/>
<path d="M796.5 220L790.5 214" stroke="black" stroke-linecap="round"/>
<path d="M883.51 150.05C883.51 149.17 884.04 148.47 884.89 148.18C884.17 147.89 883.76 147.3 883.76 146.56C883.76 145.46 884.7 144.71 886.07 144.71C887.43 144.71 888.34 145.46 888.34 146.57C888.34 147.32 887.94 147.91 887.23 148.18C888.06 148.44 888.61 149.16 888.61 150.06C888.61 151.28 887.58 152.12 886.06 152.12C884.54 152.12 883.51 151.28 883.51 150.05ZM884.44 146.58C884.44 147.37 885.08 147.9 886.06 147.9C887.03 147.9 887.66 147.39 887.66 146.6C887.66 145.83 887.03 145.35 886.06 145.35C885.08 145.35 884.44 145.83 884.44 146.58ZM884.22 149.99C884.22 150.88 884.96 151.47 886.07 151.47C887.16 151.47 887.9 150.88 887.9 149.99C887.9 149.11 887.18 148.54 886.05 148.54C884.94 148.54 884.22 149.11 884.22 149.99ZM889.623 148.42C889.623 146.2 890.713 144.7 892.493 144.7C894.263 144.7 895.353 146.2 895.353 148.42C895.353 150.65 894.283 152.13 892.493 152.13C890.693 152.13 889.623 150.65 889.623 148.42ZM890.333 148.42C890.333 150.28 891.123 151.48 892.493 151.48C893.863 151.48 894.653 150.28 894.653 148.42C894.653 146.55 893.863 145.36 892.493 145.36C891.123 145.36 890.333 146.55 890.333 148.42ZM896.569 154.11V147.16H897.169L897.239 148.14C897.579 147.39 898.259 147.03 899.069 147.03C900.469 147.03 901.309 148.1 901.309 149.56C901.309 151.02 900.499 152.12 899.069 152.12C898.249 152.12 897.599 151.77 897.259 151.07V154.11H896.569ZM897.269 149.58C897.269 150.69 897.889 151.5 898.949 151.5C899.999 151.5 900.609 150.69 900.609 149.58C900.609 148.46 899.999 147.66 898.949 147.66C897.889 147.66 897.269 148.46 897.269 149.58ZM902.383 152H901.573L903.303 149.58L901.583 147.16H902.393L903.763 149.1L905.123 147.16H905.923L904.203 149.59L905.913 152H905.093L903.733 150.06L902.383 152Z" fill="#1A73C1"/>
<circle cx="915.667" cy="200.667" r="20" stroke="black"/>
<path d="M945.667 230.667L935.667 220.667" stroke="black" stroke-linecap="round"/>
<path d="M644.7 170.48H643.86V172H643.16V170.48H639.4V169.84L642.9 164.84H643.86V169.84H644.7V170.48ZM640.18 169.84H643.16V165.58L640.18 169.84ZM645.77 168.42C645.77 166.2 646.86 164.7 648.64 164.7C650.41 164.7 651.5 166.2 651.5 168.42C651.5 170.65 650.43 172.13 648.64 172.13C646.84 172.13 645.77 170.65 645.77 168.42ZM646.48 168.42C646.48 170.28 647.27 171.48 648.64 171.48C650.01 171.48 650.8 170.28 650.8 168.42C650.8 166.55 650.01 165.36 648.64 165.36C647.27 165.36 646.48 166.55 646.48 168.42ZM652.716 174.11V167.16H653.316L653.386 168.14C653.726 167.39 654.406 167.03 655.216 167.03C656.616 167.03 657.456 168.1 657.456 169.56C657.456 171.02 656.646 172.12 655.216 172.12C654.396 172.12 653.746 171.77 653.406 171.07V174.11H652.716ZM653.416 169.58C653.416 170.69 654.036 171.5 655.096 171.5C656.146 171.5 656.756 170.69 656.756 169.58C656.756 168.46 656.146 167.66 655.096 167.66C654.036 167.66 653.416 168.46 653.416 169.58ZM658.53 172H657.72L659.45 169.58L657.73 167.16H658.54L659.91 169.1L661.27 167.16H662.07L660.35 169.59L662.06 172H661.24L659.88 170.06L658.53 172Z" fill="#1A73C1"/>
<circle cx="656.833" cy="202.333" r="10" stroke="black"/>
<path d="M671.833 217.333L666.833 212.333" stroke="black" stroke-linecap="round"/>
<path d="M531.53 172.16H530.96V171.66L533.17 169.48H529.74V168.84H534.08V169.42L531.94 171.55C533.28 171.62 534.24 172.47 534.24 173.77C534.24 175.19 533.2 176.12 531.75 176.12C530.34 176.12 529.39 175.25 529.39 173.82H530.1C530.1 174.85 530.74 175.47 531.75 175.47C532.82 175.47 533.51 174.79 533.51 173.75C533.51 172.77 532.81 172.16 531.53 172.16ZM539.628 176H534.908V175.43L537.198 173.43C538.518 172.28 538.858 171.78 538.858 170.93C538.858 169.96 538.278 169.37 537.328 169.37C536.338 169.37 535.688 170.09 535.658 171.2H534.938C534.978 169.7 535.928 168.71 537.338 168.71C538.688 168.71 539.588 169.58 539.588 170.89C539.588 171.93 539.118 172.62 537.688 173.87L536.018 175.33H539.628V176ZM540.743 178.11V171.16H541.343L541.413 172.14C541.753 171.39 542.433 171.03 543.243 171.03C544.643 171.03 545.483 172.1 545.483 173.56C545.483 175.02 544.673 176.12 543.243 176.12C542.423 176.12 541.773 175.77 541.433 175.07V178.11H540.743ZM541.443 173.58C541.443 174.69 542.063 175.5 543.123 175.5C544.173 175.5 544.783 174.69 544.783 173.58C544.783 172.46 544.173 171.66 543.123 171.66C542.063 171.66 541.443 172.46 541.443 173.58ZM546.557 176H545.747L547.477 173.58L545.757 171.16H546.567L547.937 173.1L549.297 171.16H550.097L548.377 173.59L550.087 176H549.267L547.907 174.06L546.557 176Z" fill="#1A73C1"/>
<circle cx="543.167" cy="202.667" r="8" stroke="black"/>
<path d="M555.167 214.667L551.167 210.667" stroke="black" stroke-linecap="round"/>
<path d="M430.17 178H425.45V177.43L427.74 175.43C429.06 174.28 429.4 173.78 429.4 172.93C429.4 171.96 428.82 171.37 427.87 171.37C426.88 171.37 426.23 172.09 426.2 173.2H425.48C425.52 171.7 426.47 170.71 427.88 170.71C429.23 170.71 430.13 171.58 430.13 172.89C430.13 173.93 429.66 174.62 428.23 175.87L426.56 177.33H430.17V178ZM431.075 176.05C431.075 175.17 431.605 174.47 432.455 174.18C431.735 173.89 431.325 173.3 431.325 172.56C431.325 171.46 432.265 170.71 433.635 170.71C434.995 170.71 435.905 171.46 435.905 172.57C435.905 173.32 435.505 173.91 434.795 174.18C435.625 174.44 436.175 175.16 436.175 176.06C436.175 177.28 435.145 178.12 433.625 178.12C432.105 178.12 431.075 177.28 431.075 176.05ZM432.005 172.58C432.005 173.37 432.645 173.9 433.625 173.9C434.595 173.9 435.225 173.39 435.225 172.6C435.225 171.83 434.595 171.35 433.625 171.35C432.645 171.35 432.005 171.83 432.005 172.58ZM431.785 175.99C431.785 176.88 432.525 177.47 433.635 177.47C434.725 177.47 435.465 176.88 435.465 175.99C435.465 175.11 434.745 174.54 433.615 174.54C432.505 174.54 431.785 175.11 431.785 175.99ZM437.358 180.11V173.16H437.958L438.028 174.14C438.368 173.39 439.048 173.03 439.858 173.03C441.258 173.03 442.098 174.1 442.098 175.56C442.098 177.02 441.288 178.12 439.858 178.12C439.038 178.12 438.388 177.77 438.048 177.07V180.11H437.358ZM438.058 175.58C438.058 176.69 438.678 177.5 439.738 177.5C440.788 177.5 441.398 176.69 441.398 175.58C441.398 174.46 440.788 173.66 439.738 173.66C438.678 173.66 438.058 174.46 438.058 175.58ZM443.172 178H442.362L444.092 175.58L442.372 173.16H443.182L444.552 175.1L445.912 173.16H446.712L444.992 175.59L446.702 178H445.882L444.522 176.06L443.172 178Z" fill="#1A73C1"/>
<circle cx="436.333" cy="202.833" r="7" stroke="black"/>
<path d="M446.833 213.333L443.333 209.833" stroke="black" stroke-linecap="round"/>
<path d="M222.17 182H217.45V181.43L219.74 179.43C221.06 178.28 221.4 177.78 221.4 176.93C221.4 175.96 220.82 175.37 219.87 175.37C218.88 175.37 218.23 176.09 218.2 177.2H217.48C217.52 175.7 218.47 174.71 219.88 174.71C221.23 174.71 222.13 175.58 222.13 176.89C222.13 177.93 221.66 178.62 220.23 179.87L218.56 181.33H222.17V182ZM223.115 178.42C223.115 176.2 224.205 174.7 225.985 174.7C227.755 174.7 228.845 176.2 228.845 178.42C228.845 180.65 227.775 182.13 225.985 182.13C224.185 182.13 223.115 180.65 223.115 178.42ZM223.825 178.42C223.825 180.28 224.615 181.48 225.985 181.48C227.355 181.48 228.145 180.28 228.145 178.42C228.145 176.55 227.355 175.36 225.985 175.36C224.615 175.36 223.825 176.55 223.825 178.42ZM230.061 184.11V177.16H230.661L230.731 178.14C231.071 177.39 231.751 177.03 232.561 177.03C233.961 177.03 234.801 178.1 234.801 179.56C234.801 181.02 233.991 182.12 232.561 182.12C231.741 182.12 231.091 181.77 230.751 181.07V184.11H230.061ZM230.761 179.58C230.761 180.69 231.381 181.5 232.441 181.5C233.491 181.5 234.101 180.69 234.101 179.58C234.101 178.46 233.491 177.66 232.441 177.66C231.381 177.66 230.761 178.46 230.761 179.58ZM235.875 182H235.065L236.795 179.58L235.075 177.16H235.885L237.255 179.1L238.615 177.16H239.415L237.695 179.59L239.405 182H238.585L237.225 180.06L235.875 182Z" fill="#1A73C1"/>
<circle cx="228.667" cy="203.167" r="5" stroke="black"/>
<path d="M236.167 210.667L233.667 208.167" stroke="black" stroke-linecap="round"/>
<path d="M117.81 177.49H116.35V176.84H118.5V184H117.81V177.49ZM120.65 179.25L122.44 176.84H123.28L121.4 179.33C121.74 179.16 122.05 179.09 122.38 179.09C123.87 179.09 124.86 180.18 124.86 181.58C124.86 183.05 123.75 184.12 122.32 184.12C120.88 184.12 119.75 183.01 119.75 181.58C119.75 180.75 119.98 180.17 120.65 179.25ZM120.48 181.59C120.48 182.68 121.23 183.47 122.32 183.47C123.38 183.47 124.14 182.68 124.14 181.59C124.14 180.5 123.38 179.72 122.32 179.72C121.23 179.72 120.48 180.5 120.48 181.59ZM125.985 186.11V179.16H126.585L126.655 180.14C126.995 179.39 127.675 179.03 128.485 179.03C129.885 179.03 130.725 180.1 130.725 181.56C130.725 183.02 129.915 184.12 128.485 184.12C127.665 184.12 127.015 183.77 126.675 183.07V186.11H125.985ZM126.685 181.58C126.685 182.69 127.305 183.5 128.365 183.5C129.415 183.5 130.025 182.69 130.025 181.58C130.025 180.46 129.415 179.66 128.365 179.66C127.305 179.66 126.685 180.46 126.685 181.58ZM131.799 184H130.989L132.719 181.58L130.999 179.16H131.809L133.179 181.1L134.539 179.16H135.339L133.619 181.59L135.329 184H134.509L133.149 182.06L131.799 184Z" fill="#1A73C1"/>
<circle cx="126.333" cy="203.333" r="4" stroke="black"/>
<path d="M132.333 209.333L130.333 207.333" stroke="black" stroke-linecap="round"/>
<path d="M16.81 411.49H15.35V410.84H17.5V418H16.81V411.49ZM23.4598 418H18.7398V417.43L21.0298 415.43C22.3498 414.28 22.6898 413.78 22.6898 412.93C22.6898 411.96 22.1098 411.37 21.1598 411.37C20.1698 411.37 19.5198 412.09 19.4898 413.2H18.7698C18.8098 411.7 19.7598 410.71 21.1698 410.71C22.5198 410.71 23.4198 411.58 23.4198 412.89C23.4198 413.93 22.9498 414.62 21.5198 415.87L19.8498 417.33H23.4598V418ZM24.5751 420.11V413.16H25.1751L25.2451 414.14C25.5851 413.39 26.2651 413.03 27.0751 413.03C28.4751 413.03 29.3151 414.1 29.3151 415.56C29.3151 417.02 28.5051 418.12 27.0751 418.12C26.2551 418.12 25.6051 417.77 25.2651 417.07V420.11H24.5751ZM25.2751 415.58C25.2751 416.69 25.8951 417.5 26.9551 417.5C28.0051 417.5 28.6151 416.69 28.6151 415.58C28.6151 414.46 28.0051 413.66 26.9551 413.66C25.8951 413.66 25.2751 414.46 25.2751 415.58ZM30.3889 418H29.5789L31.3089 415.58L29.5889 413.16H30.3989L31.7689 415.1L33.1289 413.16H33.9289L32.2089 415.59L33.9189 418H33.0989L31.7389 416.06L30.3889 418Z" fill="#1A73C1"/>
<circle cx="25.5" cy="435.5" r="3" stroke="black" stroke-width="2"/>
<path d="M30 440L28.5 438.5" stroke="black" stroke-width="2" stroke-linecap="round"/>
<path d="M326.17 412H321.45V411.43L323.74 409.43C325.06 408.28 325.4 407.78 325.4 406.93C325.4 405.96 324.82 405.37 323.87 405.37C322.88 405.37 322.23 406.09 322.2 407.2H321.48C321.52 405.7 322.47 404.71 323.88 404.71C325.23 404.71 326.13 405.58 326.13 406.89C326.13 407.93 325.66 408.62 324.23 409.87L322.56 411.33H326.17V412ZM331.982 410.48H331.142V412H330.442V410.48H326.682V409.84L330.182 404.84H331.142V409.84H331.982V410.48ZM327.462 409.84H330.442V405.58L327.462 409.84ZM333.222 414.11V407.16H333.822L333.892 408.14C334.232 407.39 334.912 407.03 335.722 407.03C337.122 407.03 337.962 408.1 337.962 409.56C337.962 411.02 337.152 412.12 335.722 412.12C334.902 412.12 334.252 411.77 333.912 411.07V414.11H333.222ZM333.922 409.58C333.922 410.69 334.542 411.5 335.602 411.5C336.652 411.5 337.262 410.69 337.262 409.58C337.262 408.46 336.652 407.66 335.602 407.66C334.542 407.66 333.922 408.46 333.922 409.58ZM339.035 412H338.225L339.955 409.58L338.235 407.16H339.045L340.415 409.1L341.775 407.16H342.575L340.855 409.59L342.565 412H341.745L340.385 410.06L339.035 412Z" fill="#1A73C1"/>
<circle cx="332.5" cy="435" r="6" stroke="black" stroke-width="2"/>
<path d="M341.5 444L338.5 441" stroke="black" stroke-width="2" stroke-linecap="round"/>
<path d="M762.7 398.48H761.86V400H761.16V398.48H757.4V397.84L760.9 392.84H761.86V397.84H762.7V398.48ZM758.18 397.84H761.16V393.58L758.18 397.84ZM763.73 398.05C763.73 397.17 764.26 396.47 765.11 396.18C764.39 395.89 763.98 395.3 763.98 394.56C763.98 393.46 764.92 392.71 766.29 392.71C767.65 392.71 768.56 393.46 768.56 394.57C768.56 395.32 768.16 395.91 767.45 396.18C768.28 396.44 768.83 397.16 768.83 398.06C768.83 399.28 767.8 400.12 766.28 400.12C764.76 400.12 763.73 399.28 763.73 398.05ZM764.66 394.58C764.66 395.37 765.3 395.9 766.28 395.9C767.25 395.9 767.88 395.39 767.88 394.6C767.88 393.83 767.25 393.35 766.28 393.35C765.3 393.35 764.66 393.83 764.66 394.58ZM764.44 397.99C764.44 398.88 765.18 399.47 766.29 399.47C767.38 399.47 768.12 398.88 768.12 397.99C768.12 397.11 767.4 396.54 766.27 396.54C765.16 396.54 764.44 397.11 764.44 397.99ZM770.013 402.11V395.16H770.613L770.683 396.14C771.023 395.39 771.703 395.03 772.513 395.03C773.913 395.03 774.753 396.1 774.753 397.56C774.753 399.02 773.943 400.12 772.513 400.12C771.693 400.12 771.043 399.77 770.703 399.07V402.11H770.013ZM770.713 397.58C770.713 398.69 771.333 399.5 772.393 399.5C773.443 399.5 774.053 398.69 774.053 397.58C774.053 396.46 773.443 395.66 772.393 395.66C771.333 395.66 770.713 396.46 770.713 397.58ZM775.826 400H775.016L776.746 397.58L775.026 395.16H775.836L777.206 397.1L778.566 395.16H779.366L777.646 397.59L779.356 400H778.536L777.176 398.06L775.826 400Z" fill="#1A73C1"/>
<circle cx="778.5" cy="434" r="12" stroke="black" stroke-width="4"/>
<path d="M796.5 452L790.5 446" stroke="black" stroke-width="4" stroke-linecap="round"/>
<path d="M883.51 382.05C883.51 381.17 884.04 380.47 884.89 380.18C884.17 379.89 883.76 379.3 883.76 378.56C883.76 377.46 884.7 376.71 886.07 376.71C887.43 376.71 888.34 377.46 888.34 378.57C888.34 379.32 887.94 379.91 887.23 380.18C888.06 380.44 888.61 381.16 888.61 382.06C888.61 383.28 887.58 384.12 886.06 384.12C884.54 384.12 883.51 383.28 883.51 382.05ZM884.44 378.58C884.44 379.37 885.08 379.9 886.06 379.9C887.03 379.9 887.66 379.39 887.66 378.6C887.66 377.83 887.03 377.35 886.06 377.35C885.08 377.35 884.44 377.83 884.44 378.58ZM884.22 381.99C884.22 382.88 884.96 383.47 886.07 383.47C887.16 383.47 887.9 382.88 887.9 381.99C887.9 381.11 887.18 380.54 886.05 380.54C884.94 380.54 884.22 381.11 884.22 381.99ZM889.623 380.42C889.623 378.2 890.713 376.7 892.493 376.7C894.263 376.7 895.353 378.2 895.353 380.42C895.353 382.65 894.283 384.13 892.493 384.13C890.693 384.13 889.623 382.65 889.623 380.42ZM890.333 380.42C890.333 382.28 891.123 383.48 892.493 383.48C893.863 383.48 894.653 382.28 894.653 380.42C894.653 378.55 893.863 377.36 892.493 377.36C891.123 377.36 890.333 378.55 890.333 380.42ZM896.569 386.11V379.16H897.169L897.239 380.14C897.579 379.39 898.259 379.03 899.069 379.03C900.469 379.03 901.309 380.1 901.309 381.56C901.309 383.02 900.499 384.12 899.069 384.12C898.249 384.12 897.599 383.77 897.259 383.07V386.11H896.569ZM897.269 381.58C897.269 382.69 897.889 383.5 898.949 383.5C899.999 383.5 900.609 382.69 900.609 381.58C900.609 380.46 899.999 379.66 898.949 379.66C897.889 379.66 897.269 380.46 897.269 381.58ZM902.383 384H901.573L903.303 381.58L901.583 379.16H902.393L903.763 381.1L905.123 379.16H905.923L904.203 381.59L905.913 384H905.093L903.733 382.06L902.383 384Z" fill="#1A73C1"/>
<circle cx="915.667" cy="432.667" r="20" stroke="black" stroke-width="4"/>
<path d="M945.667 462.667L935.667 452.667" stroke="black" stroke-width="4" stroke-linecap="round"/>
<path d="M644.7 402.48H643.86V404H643.16V402.48H639.4V401.84L642.9 396.84H643.86V401.84H644.7V402.48ZM640.18 401.84H643.16V397.58L640.18 401.84ZM645.77 400.42C645.77 398.2 646.86 396.7 648.64 396.7C650.41 396.7 651.5 398.2 651.5 400.42C651.5 402.65 650.43 404.13 648.64 404.13C646.84 404.13 645.77 402.65 645.77 400.42ZM646.48 400.42C646.48 402.28 647.27 403.48 648.64 403.48C650.01 403.48 650.8 402.28 650.8 400.42C650.8 398.55 650.01 397.36 648.64 397.36C647.27 397.36 646.48 398.55 646.48 400.42ZM652.716 406.11V399.16H653.316L653.386 400.14C653.726 399.39 654.406 399.03 655.216 399.03C656.616 399.03 657.456 400.1 657.456 401.56C657.456 403.02 656.646 404.12 655.216 404.12C654.396 404.12 653.746 403.77 653.406 403.07V406.11H652.716ZM653.416 401.58C653.416 402.69 654.036 403.5 655.096 403.5C656.146 403.5 656.756 402.69 656.756 401.58C656.756 400.46 656.146 399.66 655.096 399.66C654.036 399.66 653.416 400.46 653.416 401.58ZM658.53 404H657.72L659.45 401.58L657.73 399.16H658.54L659.91 401.1L661.27 399.16H662.07L660.35 401.59L662.06 404H661.24L659.88 402.06L658.53 404Z" fill="#1A73C1"/>
<circle cx="656.833" cy="434.333" r="10" stroke="black" stroke-width="4"/>
<path d="M671.833 449.333L666.833 444.333" stroke="black" stroke-width="4" stroke-linecap="round"/>
<path d="M531.53 404.16H530.96V403.66L533.17 401.48H529.74V400.84H534.08V401.42L531.94 403.55C533.28 403.62 534.24 404.47 534.24 405.77C534.24 407.19 533.2 408.12 531.75 408.12C530.34 408.12 529.39 407.25 529.39 405.82H530.1C530.1 406.85 530.74 407.47 531.75 407.47C532.82 407.47 533.51 406.79 533.51 405.75C533.51 404.77 532.81 404.16 531.53 404.16ZM539.628 408H534.908V407.43L537.198 405.43C538.518 404.28 538.858 403.78 538.858 402.93C538.858 401.96 538.278 401.37 537.328 401.37C536.338 401.37 535.688 402.09 535.658 403.2H534.938C534.978 401.7 535.928 400.71 537.338 400.71C538.688 400.71 539.588 401.58 539.588 402.89C539.588 403.93 539.118 404.62 537.688 405.87L536.018 407.33H539.628V408ZM540.743 410.11V403.16H541.343L541.413 404.14C541.753 403.39 542.433 403.03 543.243 403.03C544.643 403.03 545.483 404.1 545.483 405.56C545.483 407.02 544.673 408.12 543.243 408.12C542.423 408.12 541.773 407.77 541.433 407.07V410.11H540.743ZM541.443 405.58C541.443 406.69 542.063 407.5 543.123 407.5C544.173 407.5 544.783 406.69 544.783 405.58C544.783 404.46 544.173 403.66 543.123 403.66C542.063 403.66 541.443 404.46 541.443 405.58ZM546.557 408H545.747L547.477 405.58L545.757 403.16H546.567L547.937 405.1L549.297 403.16H550.097L548.377 405.59L550.087 408H549.267L547.907 406.06L546.557 408Z" fill="#1A73C1"/>
<circle cx="543.167" cy="434.667" r="8" stroke="black" stroke-width="4"/>
<path d="M555.167 446.667L551.167 442.667" stroke="black" stroke-width="4" stroke-linecap="round"/>
<path d="M430.17 410H425.45V409.43L427.74 407.43C429.06 406.28 429.4 405.78 429.4 404.93C429.4 403.96 428.82 403.37 427.87 403.37C426.88 403.37 426.23 404.09 426.2 405.2H425.48C425.52 403.7 426.47 402.71 427.88 402.71C429.23 402.71 430.13 403.58 430.13 404.89C430.13 405.93 429.66 406.62 428.23 407.87L426.56 409.33H430.17V410ZM431.075 408.05C431.075 407.17 431.605 406.47 432.455 406.18C431.735 405.89 431.325 405.3 431.325 404.56C431.325 403.46 432.265 402.71 433.635 402.71C434.995 402.71 435.905 403.46 435.905 404.57C435.905 405.32 435.505 405.91 434.795 406.18C435.625 406.44 436.175 407.16 436.175 408.06C436.175 409.28 435.145 410.12 433.625 410.12C432.105 410.12 431.075 409.28 431.075 408.05ZM432.005 404.58C432.005 405.37 432.645 405.9 433.625 405.9C434.595 405.9 435.225 405.39 435.225 404.6C435.225 403.83 434.595 403.35 433.625 403.35C432.645 403.35 432.005 403.83 432.005 404.58ZM431.785 407.99C431.785 408.88 432.525 409.47 433.635 409.47C434.725 409.47 435.465 408.88 435.465 407.99C435.465 407.11 434.745 406.54 433.615 406.54C432.505 406.54 431.785 407.11 431.785 407.99ZM437.358 412.11V405.16H437.958L438.028 406.14C438.368 405.39 439.048 405.03 439.858 405.03C441.258 405.03 442.098 406.1 442.098 407.56C442.098 409.02 441.288 410.12 439.858 410.12C439.038 410.12 438.388 409.77 438.048 409.07V412.11H437.358ZM438.058 407.58C438.058 408.69 438.678 409.5 439.738 409.5C440.788 409.5 441.398 408.69 441.398 407.58C441.398 406.46 440.788 405.66 439.738 405.66C438.678 405.66 438.058 406.46 438.058 407.58ZM443.172 410H442.362L444.092 407.58L442.372 405.16H443.182L444.552 407.1L445.912 405.16H446.712L444.992 407.59L446.702 410H445.882L444.522 408.06L443.172 410Z" fill="#1A73C1"/>
<circle cx="436.333" cy="434.833" r="7" stroke="black" stroke-width="4"/>
<path d="M446.833 445.333L443.333 441.833" stroke="black" stroke-width="4" stroke-linecap="round"/>
<path d="M222.17 414H217.45V413.43L219.74 411.43C221.06 410.28 221.4 409.78 221.4 408.93C221.4 407.96 220.82 407.37 219.87 407.37C218.88 407.37 218.23 408.09 218.2 409.2H217.48C217.52 407.7 218.47 406.71 219.88 406.71C221.23 406.71 222.13 407.58 222.13 408.89C222.13 409.93 221.66 410.62 220.23 411.87L218.56 413.33H222.17V414ZM223.115 410.42C223.115 408.2 224.205 406.7 225.985 406.7C227.755 406.7 228.845 408.2 228.845 410.42C228.845 412.65 227.775 414.13 225.985 414.13C224.185 414.13 223.115 412.65 223.115 410.42ZM223.825 410.42C223.825 412.28 224.615 413.48 225.985 413.48C227.355 413.48 228.145 412.28 228.145 410.42C228.145 408.55 227.355 407.36 225.985 407.36C224.615 407.36 223.825 408.55 223.825 410.42ZM230.061 416.11V409.16H230.661L230.731 410.14C231.071 409.39 231.751 409.03 232.561 409.03C233.961 409.03 234.801 410.1 234.801 411.56C234.801 413.02 233.991 414.12 232.561 414.12C231.741 414.12 231.091 413.77 230.751 413.07V416.11H230.061ZM230.761 411.58C230.761 412.69 231.381 413.5 232.441 413.5C233.491 413.5 234.101 412.69 234.101 411.58C234.101 410.46 233.491 409.66 232.441 409.66C231.381 409.66 230.761 410.46 230.761 411.58ZM235.875 414H235.065L236.795 411.58L235.075 409.16H235.885L237.255 411.1L238.615 409.16H239.415L237.695 411.59L239.405 414H238.585L237.225 412.06L235.875 414Z" fill="#1A73C1"/>
<circle cx="228.667" cy="435.167" r="5" stroke="black" stroke-width="2"/>
<path d="M236.167 442.667L233.667 440.167" stroke="black" stroke-width="2" stroke-linecap="round"/>
<path d="M117.81 409.49H116.35V408.84H118.5V416H117.81V409.49ZM120.65 411.25L122.44 408.84H123.28L121.4 411.33C121.74 411.16 122.05 411.09 122.38 411.09C123.87 411.09 124.86 412.18 124.86 413.58C124.86 415.05 123.75 416.12 122.32 416.12C120.88 416.12 119.75 415.01 119.75 413.58C119.75 412.75 119.98 412.17 120.65 411.25ZM120.48 413.59C120.48 414.68 121.23 415.47 122.32 415.47C123.38 415.47 124.14 414.68 124.14 413.59C124.14 412.5 123.38 411.72 122.32 411.72C121.23 411.72 120.48 412.5 120.48 413.59ZM125.985 418.11V411.16H126.585L126.655 412.14C126.995 411.39 127.675 411.03 128.485 411.03C129.885 411.03 130.725 412.1 130.725 413.56C130.725 415.02 129.915 416.12 128.485 416.12C127.665 416.12 127.015 415.77 126.675 415.07V418.11H125.985ZM126.685 413.58C126.685 414.69 127.305 415.5 128.365 415.5C129.415 415.5 130.025 414.69 130.025 413.58C130.025 412.46 129.415 411.66 128.365 411.66C127.305 411.66 126.685 412.46 126.685 413.58ZM131.799 416H130.989L132.719 413.58L130.999 411.16H131.809L133.179 413.1L134.539 411.16H135.339L133.619 413.59L135.329 416H134.509L133.149 414.06L131.799 416Z" fill="#1A73C1"/>
<circle cx="126.333" cy="435.333" r="4" stroke="black" stroke-width="2"/>
<path d="M132.333 441.333L130.333 439.333" stroke="black" stroke-width="2" stroke-linecap="round"/>
<path d="M15.5299 708.47L10.4699 713.53C9.81992 712.88 9.41992 711.99 9.41992 711C9.41992 709.02 11.0199 707.42 12.9999 707.42C13.9899 707.42 14.8799 707.82 15.5299 708.47Z" stroke="#292D32" stroke-width="1.5" stroke-linecap="round" stroke-linejoin="round"/>
<path d="M18.8201 704.77C17.0701 703.45 15.0701 702.73 13.0001 702.73C9.47009 702.73 6.18009 704.81 3.89009 708.41C2.99009 709.82 2.99009 712.19 3.89009 713.6C4.68009 714.84 5.60009 715.91 6.60009 716.77" stroke="#292D32" stroke-width="1.5" stroke-linecap="round" stroke-linejoin="round"/>
<path d="M9.41992 718.53C10.5599 719.01 11.7699 719.27 12.9999 719.27C16.5299 719.27 19.8199 717.19 22.1099 713.59C23.0099 712.18 23.0099 709.81 22.1099 708.4C21.7799 707.88 21.4199 707.39 21.0499 706.93" stroke="#292D32" stroke-width="1.5" stroke-linecap="round" stroke-linejoin="round"/>
<path d="M16.5099 711.7C16.2499 713.11 15.0999 714.26 13.6899 714.52" stroke="#292D32" stroke-width="1.5" stroke-linecap="round" stroke-linejoin="round"/>
<path d="M10.47 713.53L3 721" stroke="#292D32" stroke-width="1.5" stroke-linecap="round" stroke-linejoin="round"/>
<path d="M23 701L15.53 708.47" stroke="#292D32" stroke-width="1.5" stroke-linecap="round" stroke-linejoin="round"/>
<path d="M61.5799 711C61.5799 712.98 59.9799 714.58 57.9999 714.58C56.0199 714.58 54.4199 712.98 54.4199 711C54.4199 709.02 56.0199 707.42 57.9999 707.42C59.9799 707.42 61.5799 709.02 61.5799 711Z" stroke="#292D32" stroke-width="1.5" stroke-linecap="round" stroke-linejoin="round"/>
<path d="M57.9998 719.27C61.5298 719.27 64.8198 717.19 67.1098 713.59C68.0098 712.18 68.0098 709.81 67.1098 708.4C64.8198 704.8 61.5298 702.72 57.9998 702.72C54.4698 702.72 51.1798 704.8 48.8898 708.4C47.9898 709.81 47.9898 712.18 48.8898 713.59C51.1798 717.19 54.4698 719.27 57.9998 719.27Z" stroke="#292D32" stroke-width="1.5" stroke-linecap="round" stroke-linejoin="round"/>
<path d="M113 711C113 716.52 108.52 721 103 721C97.48 721 93 716.52 93 711C93 705.48 97.48 701 103 701C108.52 701 113 705.48 113 711Z" stroke="#292D32" stroke-width="1.5" stroke-linecap="round" stroke-linejoin="round"/>
<path d="M106.71 714.18L103.61 712.33C103.07 712.01 102.63 711.24 102.63 710.61V706.51" stroke="#292D32" stroke-width="1.5" stroke-linecap="round" stroke-linejoin="round"/>
<path d="M138.03 711.42C138.39 716.57 142.76 720.76 147.99 720.99C151.68 721.15 154.98 719.43 156.96 716.72C157.78 715.61 157.34 714.87 155.97 715.12C155.3 715.24 154.61 715.29 153.89 715.26C149 715.06 145 710.97 144.98 706.14C144.97 704.84 145.24 703.61 145.73 702.49C146.27 701.25 145.62 700.66 144.37 701.19C140.41 702.86 137.7 706.85 138.03 711.42Z" stroke="#292D32" stroke-width="1.5" stroke-linecap="round" stroke-linejoin="round"/>
<path d="M193 717.5C196.59 717.5 199.5 714.59 199.5 711C199.5 707.41 196.59 704.5 193 704.5C189.41 704.5 186.5 707.41 186.5 711C186.5 714.59 189.41 717.5 193 717.5Z" stroke="#292D32" stroke-width="1.5" stroke-linecap="round" stroke-linejoin="round"/>
<path d="M200.14 718.14L200.01 718.01M200.01 703.99L200.14 703.86L200.01 703.99ZM185.86 718.14L185.99 718.01L185.86 718.14ZM193 701.08V701V701.08ZM193 721V720.92V721ZM183.08 711H183H183.08ZM203 711H202.92H203ZM185.99 703.99L185.86 703.86L185.99 703.99Z" stroke="#292D32" stroke-width="2" stroke-linecap="round" stroke-linejoin="round"/>
<path d="M248 710V716C248 720 247 721 243 721H233C229 721 228 720 228 716V706C228 702 229 701 233 701H234.5C236 701 236.33 701.44 236.9 702.2L238.4 704.2C238.78 704.7 239 705 240 705H243C247 705 248 706 248 710Z" stroke="#292D32" stroke-width="1.5" stroke-miterlimit="10"/>
<path d="M273 701H274.74C275.82 701 276.67 701.93 276.58 703L275.75 712.96C275.61 714.59 276.9 715.99 278.54 715.99H289.19C290.63 715.99 291.89 714.81 292 713.38L292.54 705.88C292.66 704.22 291.4 702.87 289.73 702.87H276.82" stroke="#292D32" stroke-width="1.5" stroke-miterlimit="10" stroke-linecap="round" stroke-linejoin="round"/>
<path d="M287.25 721C287.94 721 288.5 720.44 288.5 719.75C288.5 719.06 287.94 718.5 287.25 718.5C286.56 718.5 286 719.06 286 719.75C286 720.44 286.56 721 287.25 721Z" stroke="#292D32" stroke-width="1.5" stroke-miterlimit="10" stroke-linecap="round" stroke-linejoin="round"/>
<path d="M279.25 721C279.94 721 280.5 720.44 280.5 719.75C280.5 719.06 279.94 718.5 279.25 718.5C278.56 718.5 278 719.06 278 719.75C278 720.44 278.56 721 279.25 721Z" stroke="#292D32" stroke-width="1.5" stroke-miterlimit="10" stroke-linecap="round" stroke-linejoin="round"/>
<path d="M280 707H292" stroke="#292D32" stroke-width="1.5" stroke-miterlimit="10" stroke-linecap="round" stroke-linejoin="round"/>
<path d="M324.81 701L321.19 704.63" stroke="#292D32" stroke-width="1.5" stroke-miterlimit="10" stroke-linecap="round" stroke-linejoin="round"/>
<path d="M331.19 701L334.81 704.63" stroke="#292D32" stroke-width="1.5" stroke-miterlimit="10" stroke-linecap="round" stroke-linejoin="round"/>
<path d="M318 706.85C318 705 318.99 704.85 320.22 704.85H335.78C337.01 704.85 338 705 338 706.85C338 709 337.01 708.85 335.78 708.85H320.22C318.99 708.85 318 709 318 706.85Z" stroke="#292D32" stroke-width="1.5"/>
<path d="M325.76 713V716.55" stroke="#292D32" stroke-width="1.5" stroke-linecap="round"/>
<path d="M330.36 713V716.55" stroke="#292D32" stroke-width="1.5" stroke-linecap="round"/>
<path d="M319.5 709L320.91 717.64C321.23 719.58 322 721 324.86 721H330.89C334 721 334.46 719.64 334.82 717.76L336.5 709" stroke="#292D32" stroke-width="1.5" stroke-linecap="round"/>
<path d="M373.02 701.91C369.71 701.91 367.02 704.6 367.02 707.91V710.8C367.02 711.41 366.76 712.34 366.45 712.86L365.3 714.77C364.59 715.95 365.08 717.26 366.38 717.7C370.69 719.14 375.34 719.14 379.65 717.7C380.86 717.3 381.39 715.87 380.73 714.77L379.58 712.86C379.28 712.34 379.02 711.41 379.02 710.8V707.91C379.02 704.61 376.32 701.91 373.02 701.91Z" stroke="#292D32" stroke-width="1.5" stroke-miterlimit="10" stroke-linecap="round"/>
<path d="M374.87 702.2C374.56 702.11 374.24 702.04 373.91 702C372.95 701.88 372.03 701.95 371.17 702.2C371.46 701.46 372.18 700.94 373.02 700.94C373.86 700.94 374.58 701.46 374.87 702.2Z" stroke="#292D32" stroke-width="1.5" stroke-miterlimit="10" stroke-linecap="round" stroke-linejoin="round"/>
<path d="M376.02 718.06C376.02 719.71 374.67 721.06 373.02 721.06C372.2 721.06 371.44 720.72 370.9 720.18C370.36 719.64 370.02 718.88 370.02 718.06" stroke="#292D32" stroke-width="1.5" stroke-miterlimit="10"/>
<path d="M412 709V707C412 703.69 413 701 418 701C423 701 424 703.69 424 707V709" stroke="#292D32" stroke-width="1.5" stroke-linecap="round" stroke-linejoin="round"/>
<path d="M423 721H413C409 721 408 720 408 716V714C408 710 409 709 413 709H423C427 709 428 710 428 714V716C428 720 427 721 423 721Z" stroke="#292D32" stroke-width="1.5" stroke-linecap="round" stroke-linejoin="round"/>
<path d="M421.996 715H422.005" stroke="#292D32" stroke-width="2" stroke-linecap="round" stroke-linejoin="round"/>
<path d="M417.995 715H418.004" stroke="#292D32" stroke-width="2" stroke-linecap="round" stroke-linejoin="round"/>
<path d="M413.995 715H414.003" stroke="#292D32" stroke-width="2" stroke-linecap="round" stroke-linejoin="round"/>
<path d="M453 701V718C453 719.66 454.34 721 456 721H473" stroke="#292D32" stroke-width="1.5" stroke-miterlimit="10" stroke-linecap="round" stroke-linejoin="round"/>
<path d="M456 716L460.59 710.64C461.35 709.76 462.7 709.7 463.52 710.53L464.47 711.48C465.29 712.3 466.64 712.25 467.4 711.37L472 706" stroke="#292D32" stroke-width="1.5" stroke-miterlimit="10" stroke-linecap="round" stroke-linejoin="round"/>
<path d="M507.5 720C512.747 720 517 715.747 517 710.5C517 705.253 512.747 701 507.5 701C502.253 701 498 705.253 498 710.5C498 715.747 502.253 720 507.5 720Z" stroke="#292D32" stroke-width="1.5" stroke-linecap="round" stroke-linejoin="round"/>
<path d="M518 721L516 719" stroke="#292D32" stroke-width="1.5" stroke-linecap="round" stroke-linejoin="round"/>
<path d="M553 713H554C555.1 713 556 712.1 556 711V701H547C545.5 701 544.19 701.83 543.51 703.05" stroke="#292D32" stroke-width="1.5" stroke-linecap="round" stroke-linejoin="round"/>
<path d="M543 716C543 717.66 544.34 719 546 719H547C547 717.9 547.9 717 549 717C550.1 717 551 717.9 551 719H555C555 717.9 555.9 717 557 717C558.1 717 559 717.9 559 719H560C561.66 719 563 717.66 563 716V713H560C559.45 713 559 712.55 559 712V709C559 708.45 559.45 708 560 708H561.29L559.58 705.01C559.22 704.39 558.56 704 557.84 704H556V711C556 712.1 555.1 713 554 713H553" stroke="#292D32" stroke-width="1.5" stroke-linecap="round" stroke-linejoin="round"/>
<path d="M549 721C550.105 721 551 720.105 551 719C551 717.895 550.105 717 549 717C547.895 717 547 717.895 547 719C547 720.105 547.895 721 549 721Z" stroke="#292D32" stroke-width="1.5" stroke-linecap="round" stroke-linejoin="round"/>
<path d="M557 721C558.105 721 559 720.105 559 719C559 717.895 558.105 717 557 717C555.895 717 555 717.895 555 719C555 720.105 555.895 721 557 721Z" stroke="#292D32" stroke-width="1.5" stroke-linecap="round" stroke-linejoin="round"/>
<path d="M563 711V713H560C559.45 713 559 712.55 559 712V709C559 708.45 559.45 708 560 708H561.29L563 711Z" stroke="#292D32" stroke-width="1.5" stroke-linecap="round" stroke-linejoin="round"/>
<path d="M543 707H549" stroke="#292D32" stroke-width="1.5" stroke-linecap="round" stroke-linejoin="round"/>
<path d="M543 710H547" stroke="#292D32" stroke-width="1.5" stroke-linecap="round" stroke-linejoin="round"/>
<path d="M543 713H545" stroke="#292D32" stroke-width="1.5" stroke-linecap="round" stroke-linejoin="round"/>
<path d="M596 703H600C604.42 703 608 706.58 608 711C608 715.42 604.42 719 600 719H596C591.58 719 588 715.42 588 711C588 706.58 591.58 703 596 703Z" stroke="#292D32" stroke-width="1.5" stroke-linecap="round" stroke-linejoin="round"/>
<path d="M596 715C598.209 715 600 713.209 600 711C600 708.791 598.209 707 596 707C593.791 707 592 708.791 592 711C592 713.209 593.791 715 596 715Z" stroke="#292D32" stroke-width="1.5" stroke-linecap="round" stroke-linejoin="round"/>
<path d="M641 703H645C649.42 703 653 706.58 653 711C653 715.42 649.42 719 645 719H641C636.58 719 633 715.42 633 711C633 706.58 636.58 703 641 703Z" stroke="#292D32" stroke-width="1.5" stroke-linecap="round" stroke-linejoin="round"/>
<path d="M645 715C647.209 715 649 713.209 649 711C649 708.791 647.209 707 645 707C642.791 707 641 708.791 641 711C641 713.209 642.791 715 645 715Z" stroke="#292D32" stroke-width="1.5" stroke-linecap="round" stroke-linejoin="round"/>
<path d="M693 717.43H689L684.55 720.39C683.89 720.83 683 720.36 683 719.56V717.43C680 717.43 678 715.43 678 712.43V706.43C678 703.43 680 701.43 683 701.43H693C696 701.43 698 703.43 698 706.43V712.43C698 715.43 696 717.43 693 717.43Z" stroke="#292D32" stroke-width="1.5" stroke-miterlimit="10" stroke-linecap="round" stroke-linejoin="round"/>
<path d="M688 710.36V710.15C688 709.47 688.42 709.11 688.84 708.82C689.25 708.54 689.66 708.18 689.66 707.52C689.66 706.6 688.92 705.86 688 705.86C687.08 705.86 686.34 706.6 686.34 707.52" stroke="#292D32" stroke-width="1.5" stroke-linecap="round" stroke-linejoin="round"/>
<path d="M687.995 712.75H688.004" stroke="#292D32" stroke-width="1.5" stroke-linecap="round" stroke-linejoin="round"/>
<path d="M733 721C738.523 721 743 716.523 743 711C743 705.477 738.523 701 733 701C727.477 701 723 705.477 723 711C723 716.523 727.477 721 733 721Z" stroke="#292D32" stroke-width="1.5" stroke-linecap="round" stroke-linejoin="round"/>
<path d="M733.33 716.45C733.15 716.51 732.84 716.51 732.66 716.45C731.1 715.92 727.6 713.69 727.6 709.91C727.6 708.24 728.94 706.89 730.6 706.89C731.58 706.89 732.45 707.36 733 708.1C733.54 707.37 734.42 706.89 735.4 706.89C737.06 706.89 738.4 708.24 738.4 709.91C738.4 713.69 734.9 715.92 733.33 716.45Z" stroke="#292D32" stroke-width="1.5" stroke-linecap="round" stroke-linejoin="round"/>
<path d="M778 714C779.657 714 781 712.657 781 711C781 709.343 779.657 708 778 708C776.343 708 775 709.343 775 711C775 712.657 776.343 714 778 714Z" stroke="#292D32" stroke-width="1.5" stroke-miterlimit="10" stroke-linecap="round" stroke-linejoin="round"/>
<path d="M768 711.88V710.12C768 709.08 768.85 708.22 769.9 708.22C771.71 708.22 772.45 706.94 771.54 705.37C771.02 704.47 771.33 703.3 772.24 702.78L773.97 701.79C774.76 701.32 775.78 701.6 776.25 702.39L776.36 702.58C777.26 704.15 778.74 704.15 779.65 702.58L779.76 702.39C780.23 701.6 781.25 701.32 782.04 701.79L783.77 702.78C784.68 703.3 784.99 704.47 784.47 705.37C783.56 706.94 784.3 708.22 786.11 708.22C787.15 708.22 788.01 709.07 788.01 710.12V711.88C788.01 712.92 787.16 713.78 786.11 713.78C784.3 713.78 783.56 715.06 784.47 716.63C784.99 717.54 784.68 718.7 783.77 719.22L782.04 720.21C781.25 720.68 780.23 720.4 779.76 719.61L779.65 719.42C778.75 717.85 777.27 717.85 776.36 719.42L776.25 719.61C775.78 720.4 774.76 720.68 773.97 720.21L772.24 719.22C771.33 718.7 771.02 717.53 771.54 716.63C772.45 715.06 771.71 713.78 769.9 713.78C768.85 713.78 768 712.92 768 711.88Z" stroke="#292D32" stroke-width="1.5" stroke-miterlimit="10" stroke-linecap="round" stroke-linejoin="round"/>
<path d="M833 716.5H826" stroke="#292D32" stroke-width="1.5" stroke-miterlimit="10" stroke-linecap="round" stroke-linejoin="round"/>
<path d="M816 716.5H813" stroke="#292D32" stroke-width="1.5" stroke-miterlimit="10" stroke-linecap="round" stroke-linejoin="round"/>
<path d="M833 705.5H830" stroke="#292D32" stroke-width="1.5" stroke-miterlimit="10" stroke-linecap="round" stroke-linejoin="round"/>
<path d="M820 705.5H813" stroke="#292D32" stroke-width="1.5" stroke-miterlimit="10" stroke-linecap="round" stroke-linejoin="round"/>
<path d="M818 713.5H824C825.1 713.5 826 714 826 715.5V717.5C826 719 825.1 719.5 824 719.5H818C816.9 719.5 816 719 816 717.5V715.5C816 714 816.9 713.5 818 713.5Z" stroke="#292D32" stroke-width="1.5" stroke-miterlimit="10" stroke-linecap="round" stroke-linejoin="round"/>
<path d="M822 702.5H828C829.1 702.5 830 703 830 704.5V706.5C830 708 829.1 708.5 828 708.5H822C820.9 708.5 820 708 820 706.5V704.5C820 703 820.9 702.5 822 702.5Z" stroke="#292D32" stroke-width="1.5" stroke-miterlimit="10" stroke-linecap="round" stroke-linejoin="round"/>
<path d="M858.75 717.65C858.34 717.65 858 717.31 858 716.9V711.2C857.95 708.49 858.96 705.93 860.84 704.01C862.72 702.1 865.24 701.05 867.95 701.05C873.49 701.05 878 705.56 878 711.1V716.8C878 717.21 877.66 717.55 877.25 717.55C876.84 717.55 876.5 717.21 876.5 716.8V711.1C876.5 706.39 872.67 702.55 867.95 702.55C865.64 702.55 863.5 703.44 861.91 705.06C860.31 706.69 859.46 708.86 859.5 711.18V716.89C859.5 717.31 859.17 717.65 858.75 717.65Z" fill="#292D32"/>
<path d="M861.94 711.45H861.81C859.71 711.45 858 713.16 858 715.26V717.14C858 719.24 859.71 720.95 861.81 720.95H861.94C864.04 720.95 865.75 719.24 865.75 717.14V715.26C865.75 713.16 864.04 711.45 861.94 711.45Z" fill="#292D32"/>
<path d="M874.19 711.45H874.06C871.96 711.45 870.25 713.16 870.25 715.26V717.14C870.25 719.24 871.96 720.95 874.06 720.95H874.19C876.29 720.95 878 719.24 878 717.14V715.26C878 713.16 876.29 711.45 874.19 711.45Z" fill="#292D32"/>
<path d="M910 721H916C919 721 920 720 920 717V705C920 702 919 701 916 701H910C907 701 906 702 906 705V717C906 720 907 721 910 721Z" stroke="#292D32" stroke-width="1.5" stroke-miterlimit="10" stroke-linecap="round" stroke-linejoin="round"/>
<path d="M913 717C914.657 717 916 715.657 916 714C916 712.343 914.657 711 913 711C911.343 711 910 712.343 910 714C910 715.657 911.343 717 913 717Z" stroke="#292D32" stroke-width="1.5" stroke-miterlimit="10" stroke-linecap="round" stroke-linejoin="round"/>
<path d="M913 708C913.828 708 914.5 707.328 914.5 706.5C914.5 705.672 913.828 705 913 705C912.172 705 911.5 705.672 911.5 706.5C911.5 707.328 912.172 708 913 708Z" stroke="#292D32" stroke-width="1.5" stroke-miterlimit="10" stroke-linecap="round" stroke-linejoin="round"/>
<path d="M952.72 708.56H951.78C949.7 708.56 948 706.86 948 704.78C948 702.7 949.7 701 951.78 701H953.67C955.23 701 956.5 702.28 956.5 703.83V706.39V716.1C956.5 717.14 955.65 717.99 954.61 717.99C953.57 717.99 952.72 717.14 952.72 716.1V708.56Z" stroke="#292D32" stroke-width="1.5" stroke-miterlimit="10" stroke-linecap="round" stroke-linejoin="round"/>
<path d="M951.78 705.72C951.26 705.72 950.84 705.3 950.84 704.78C950.84 704.26 951.26 703.84 951.78 703.84" stroke="#292D32" stroke-width="1.5" stroke-miterlimit="10" stroke-linecap="round" stroke-linejoin="round"/>
<path d="M963.28 708.56H964.22C966.3 708.56 968 706.86 968 704.78C968 702.7 966.3 701 964.22 701H962.33C960.77 701 959.5 702.28 959.5 703.83V706.39V716.1C959.5 717.14 960.35 717.99 961.39 717.99C962.43 717.99 963.28 717.14 963.28 716.1V708.56Z" stroke="#292D32" stroke-width="1.5" stroke-miterlimit="10" stroke-linecap="round" stroke-linejoin="round"/>
<path d="M964.22 705.72C964.74 705.72 965.16 705.3 965.16 704.78C965.16 704.26 964.74 703.84 964.22 703.84" stroke="#292D32" stroke-width="1.5" stroke-miterlimit="10" stroke-linecap="round" stroke-linejoin="round"/>
<path d="M954.5 721V718" stroke="#292D32" stroke-width="1.5" stroke-miterlimit="10" stroke-linecap="round" stroke-linejoin="round"/>
<path d="M961.5 721V718" stroke="#292D32" stroke-width="1.5" stroke-miterlimit="10" stroke-linecap="round" stroke-linejoin="round"/>
<path d="M999.59 714.56L1006.21 708.49C1006.49 708.24 1006.48 707.84 1006.19 707.6L1004.13 705.88C1003.59 705.43 1003.16 705.64 1003.16 706.34V715.67C1003.16 716.37 1003.6 716.57 1004.13 716.13L1006.19 714.41C1006.48 714.17 1006.49 713.77 1006.21 713.52L999.59 707.45" stroke="#292D32" stroke-width="1.5" stroke-miterlimit="10" stroke-linecap="round" stroke-linejoin="round"/>
<path d="M1003 721C1008.52 721 1013 716.523 1013 711C1013 705.477 1008.52 701 1003 701C997.477 701 993 705.477 993 711C993 716.523 997.477 721 1003 721Z" stroke="#292D32" stroke-width="1.5" stroke-miterlimit="10" stroke-linecap="round" stroke-linejoin="round"/>
<path d="M22.81 740.94C21.27 744.78 17.41 750 14.18 752.59L12.21 754.17C11.96 754.35 11.71 754.51 11.43 754.62C11.43 754.44 11.42 754.24 11.39 754.05C11.28 753.21 10.9 752.43 10.23 751.76C9.55002 751.08 8.72002 750.68 7.87002 750.57C7.67002 750.56 7.47002 750.54 7.27002 750.56C7.38002 750.25 7.55002 749.96 7.76002 749.72L9.32002 747.75C11.9 744.52 17.14 740.64 20.97 739.11C21.56 738.89 22.13 739.05 22.49 739.42C22.87 739.79 23.05 740.36 22.81 740.94Z" stroke="#292D32" stroke-width="1.5" stroke-linecap="round" stroke-linejoin="round"/>
<path d="M11.43 754.62C11.43 755.72 11.01 756.77 10.22 757.57C9.61003 758.18 8.78003 758.6 7.79003 758.73L5.33003 759C3.99003 759.15 2.84003 758.01 3.00003 756.65L3.27003 754.19C3.51003 752 5.34003 750.6 7.28003 750.56C7.48003 750.55 7.69003 750.56 7.88003 750.57C8.73003 750.68 9.56003 751.07 10.24 751.76C10.91 752.43 11.29 753.21 11.4 754.05C11.41 754.24 11.43 754.43 11.43 754.62Z" stroke="#292D32" stroke-width="1.5" stroke-linecap="round" stroke-linejoin="round"/>
<path d="M15.24 751.47C15.24 748.86 13.12 746.74 10.51 746.74" stroke="#292D32" stroke-width="1.5" stroke-linecap="round" stroke-linejoin="round"/>
<path d="M58.1202 749.78C58.0502 749.77 57.9602 749.77 57.8802 749.78C56.1202 749.72 54.7202 748.28 54.7202 746.51C54.7202 744.7 56.1802 743.23 58.0002 743.23C59.8102 743.23 61.2802 744.7 61.2802 746.51C61.2702 748.28 59.8802 749.72 58.1202 749.78Z" stroke="#292D32" stroke-width="1.5" stroke-linecap="round" stroke-linejoin="round"/>
<path d="M64.7398 756.38C62.9598 758.01 60.5998 759 57.9998 759C55.3998 759 53.0398 758.01 51.2598 756.38C51.3598 755.44 51.9598 754.52 53.0298 753.8C55.7698 751.98 60.2498 751.98 62.9698 753.8C64.0398 754.52 64.6398 755.44 64.7398 756.38Z" stroke="#292D32" stroke-width="1.5" stroke-linecap="round" stroke-linejoin="round"/>
<path d="M58 759C63.5228 759 68 754.523 68 749C68 743.477 63.5228 739 58 739C52.4772 739 48 743.477 48 749C48 754.523 52.4772 759 58 759Z" stroke="#292D32" stroke-width="1.5" stroke-linecap="round" stroke-linejoin="round"/>
<path d="M96.5398 748.12C91.8598 748.45 91.8598 755.26 96.5398 755.59H98.4598" stroke="#292D32" stroke-width="1.5" stroke-miterlimit="10" stroke-linecap="round" stroke-linejoin="round"/>
<path d="M96.59 748.12C93.38 739.19 106.92 735.62 108.47 745C112.8 745.55 114.55 751.32 111.27 754.19C110.27 755.1 108.98 755.6 107.63 755.59H107.54" stroke="#292D32" stroke-width="1.5" stroke-miterlimit="10" stroke-linecap="round" stroke-linejoin="round"/>
<path d="M108 753.53C108 754.27 107.84 754.97 107.54 755.59C107.46 755.77 107.37 755.94 107.27 756.1C106.41 757.55 104.82 758.53 103 758.53C101.18 758.53 99.59 757.55 98.73 756.1C98.63 755.94 98.54 755.77 98.46 755.59C98.16 754.97 98 754.27 98 753.53C98 750.77 100.24 748.53 103 748.53C105.76 748.53 108 750.77 108 753.53Z" stroke="#292D32" stroke-width="1.5" stroke-miterlimit="10" stroke-linecap="round" stroke-linejoin="round"/>
<path d="M101.44 753.53L102.43 754.52L104.56 752.55" stroke="#292D32" stroke-width="1.5" stroke-linecap="round" stroke-linejoin="round"/>
<path d="M138 746V745C138 742 140 740 143 740H153C156 740 158 742 158 745V753C158 756 156 758 153 758H152" stroke="#292D32" stroke-width="1.5" stroke-linecap="round" stroke-linejoin="round"/>
<path d="M139.69 748.71C144.31 749.3 147.7 752.7 148.3 757.32" stroke="#292D32" stroke-width="1.5" stroke-linecap="round" stroke-linejoin="round"/>
<path d="M138.62 752.07C142.01 752.5 144.5 755 144.94 758.39" stroke="#292D32" stroke-width="1.5" stroke-linecap="round" stroke-linejoin="round"/>
<path d="M137.98 755.86C139.67 756.08 140.92 757.32 141.14 759.02" stroke="#292D32" stroke-width="1.5" stroke-linecap="round" stroke-linejoin="round"/>
<path d="M200.5 749.5C200.5 748.12 201.62 747 203 747V746C203 742 202 741 198 741H188C184 741 183 742 183 746V746.5C184.38 746.5 185.5 747.62 185.5 749C185.5 750.38 184.38 751.5 183 751.5V752C183 756 184 757 188 757H198C202 757 203 756 203 752C201.62 752 200.5 750.88 200.5 749.5Z" stroke="#292D32" stroke-width="1.5" stroke-linecap="round" stroke-linejoin="round"/>
<path d="M191 741L191 757" stroke="#292D32" stroke-width="1.5" stroke-linecap="round" stroke-linejoin="round" stroke-dasharray="5 5"/>
<path d="M228 747H248" stroke="#292D32" stroke-width="1.5" stroke-miterlimit="10" stroke-linecap="round" stroke-linejoin="round"/>
<path d="M237.548 757.5H232.438C228.888 757.5 227.988 756.62 227.988 753.11V744.89C227.988 741.71 228.728 740.69 231.518 740.53C231.798 740.52 232.108 740.51 232.438 740.51H243.548C247.098 740.51 247.998 741.39 247.998 744.9V749.31" stroke="#292D32" stroke-width="1.5" stroke-linecap="round" stroke-linejoin="round"/>
<path d="M232 753H236" stroke="#292D32" stroke-width="1.5" stroke-miterlimit="10" stroke-linecap="round" stroke-linejoin="round"/>
<path d="M248 755C248 755.75 247.79 756.46 247.42 757.06C246.73 758.22 245.46 759 244 759C242.54 759 241.27 758.22 240.58 757.06C240.21 756.46 240 755.75 240 755C240 752.79 241.79 751 244 751C246.21 751 248 752.79 248 755Z" stroke="#292D32" stroke-width="1.5" stroke-miterlimit="10" stroke-linecap="round" stroke-linejoin="round"/>
<path d="M242.441 755L243.431 755.99L245.561 754.02" stroke="#292D32" stroke-width="1.5" stroke-linecap="round" stroke-linejoin="round"/>
<path d="M279.672 751.33C279.672 752.62 280.662 753.66 281.892 753.66H284.402C285.472 753.66 286.342 752.75 286.342 751.63C286.342 750.41 285.812 749.98 285.022 749.7L280.992 748.3C280.202 748.02 279.672 747.59 279.672 746.37C279.672 745.25 280.542 744.34 281.612 744.34H284.122C285.352 744.34 286.342 745.38 286.342 746.67" stroke="#292D32" stroke-width="1.5" stroke-linecap="round" stroke-linejoin="round"/>
<path d="M283 743V755" stroke="#292D32" stroke-width="1.5" stroke-linecap="round" stroke-linejoin="round"/>
<path d="M283 759C288.523 759 293 754.523 293 749C293 743.477 288.523 739 283 739C277.477 739 273 743.477 273 749C273 754.523 277.477 759 283 759Z" stroke="#292D32" stroke-width="1.5" stroke-linecap="round" stroke-linejoin="round"/>
<path d="M337 742.98C333.67 742.65 330.32 742.48 326.98 742.48C325 742.48 323.02 742.58 321.04 742.78L319 742.98" stroke="#292D32" stroke-width="1.5" stroke-linecap="round" stroke-linejoin="round"/>
<path d="M324.5 741.97L324.72 740.66C324.88 739.71 325 739 326.69 739H329.31C331 739 331.13 739.75 331.28 740.67L331.5 741.97" stroke="#292D32" stroke-width="1.5" stroke-linecap="round" stroke-linejoin="round"/>
<path d="M334.85 746.14L334.2 756.21C334.09 757.78 334 759 331.21 759H324.79C322 759 321.91 757.78 321.8 756.21L321.15 746.14" stroke="#292D32" stroke-width="1.5" stroke-linecap="round" stroke-linejoin="round"/>
<path d="M326.33 753.5H329.66" stroke="#292D32" stroke-width="1.5" stroke-linecap="round" stroke-linejoin="round"/>
<path d="M325.5 749.5H330.5" stroke="#292D32" stroke-width="1.5" stroke-linecap="round" stroke-linejoin="round"/>
<path d="M364 744H382" stroke="#292D32" stroke-width="1.5" stroke-linecap="round"/>
<path d="M364 749H382" stroke="#292D32" stroke-width="1.5" stroke-linecap="round"/>
<path d="M364 754H382" stroke="#292D32" stroke-width="1.5" stroke-linecap="round"/>
<path d="M418 759C423.5 759 428 754.5 428 749C428 743.5 423.5 739 418 739C412.5 739 408 743.5 408 749C408 754.5 412.5 759 418 759Z" stroke="#292D32" stroke-width="1.5" stroke-linecap="round" stroke-linejoin="round"/>
<path d="M413.75 749L416.58 751.83L422.25 746.17" stroke="#292D32" stroke-width="1.5" stroke-linecap="round" stroke-linejoin="round"/>
<path d="M463 759C468.5 759 473 754.5 473 749C473 743.5 468.5 739 463 739C457.5 739 453 743.5 453 749C453 754.5 457.5 759 463 759Z" stroke="#292D32" stroke-width="1.5" stroke-linecap="round" stroke-linejoin="round"/>
<path d="M460.17 751.83L465.83 746.17" stroke="#292D32" stroke-width="1.5" stroke-linecap="round" stroke-linejoin="round"/>
<path d="M465.83 751.83L460.17 746.17" stroke="#292D32" stroke-width="1.5" stroke-linecap="round" stroke-linejoin="round"/>
<path d="M502 749H514" stroke="#292D32" stroke-width="1.5" stroke-linecap="round" stroke-linejoin="round"/>
<path d="M508 755V743" stroke="#292D32" stroke-width="1.5" stroke-linecap="round" stroke-linejoin="round"/>
<path d="M547 749H559" stroke="#292D32" stroke-width="1.5" stroke-linecap="round" stroke-linejoin="round"/>
<path d="M593.4 743.32L601.89 740.49C605.7 739.22 607.77 741.3 606.51 745.11L603.68 753.6C601.78 759.31 598.66 759.31 596.76 753.6L595.92 751.08L593.4 750.24C587.69 748.34 587.69 745.23 593.4 743.32Z" stroke="#292D32" stroke-width="1.5" stroke-linecap="round" stroke-linejoin="round"/>
<path d="M596.11 750.65L599.69 747.06" stroke="#292D32" stroke-width="1.5" stroke-linecap="round" stroke-linejoin="round"/>
<path d="M634 745.25V752.75" stroke="#292D32" stroke-width="1.5" stroke-linecap="round" stroke-linejoin="round"/>
<path d="M638.5 742.75V755.25" stroke="#292D32" stroke-width="1.5" stroke-linecap="round" stroke-linejoin="round"/>
<path d="M643 740.25V757.75" stroke="#292D32" stroke-width="1.5" stroke-linecap="round" stroke-linejoin="round"/>
<path d="M647.5 742.75V755.25" stroke="#292D32" stroke-width="1.5" stroke-linecap="round" stroke-linejoin="round"/>
<path d="M652 745.25V752.75" stroke="#292D32" stroke-width="1.5" stroke-linecap="round" stroke-linejoin="round"/>
<path d="M688 759C693.5 759 698 754.5 698 749C698 743.5 693.5 739 688 739C682.5 739 678 743.5 678 749C678 754.5 682.5 759 688 759Z" stroke="#292D32" stroke-width="1.5" stroke-linecap="round" stroke-linejoin="round"/>
<path d="M688 745V750" stroke="#292D32" stroke-width="1.5" stroke-linecap="round" stroke-linejoin="round"/>
<path d="M687.995 753H688.004" stroke="#292D32" stroke-width="2" stroke-linecap="round" stroke-linejoin="round"/>
<path d="M733 759C738.523 759 743 754.523 743 749C743 743.477 738.523 739 733 739C727.477 739 723 743.477 723 749C723 754.523 727.477 759 733 759Z" stroke="#292D32" stroke-width="1.5" stroke-miterlimit="10" stroke-linecap="round" stroke-linejoin="round"/>
<path d="M729.47 750.26L733 746.74L736.53 750.26" stroke="#292D32" stroke-width="1.5" stroke-linecap="round" stroke-linejoin="round"/>
<path d="M778 759C783.523 759 788 754.523 788 749C788 743.477 783.523 739 778 739C772.477 739 768 743.477 768 749C768 754.523 772.477 759 778 759Z" stroke="#292D32" stroke-width="1.5" stroke-miterlimit="10" stroke-linecap="round" stroke-linejoin="round"/>
<path d="M774.47 747.74L778 751.26L781.53 747.74" stroke="#292D32" stroke-width="1.5" stroke-linecap="round" stroke-linejoin="round"/>
<path d="M823 759C828.523 759 833 754.523 833 749C833 743.477 828.523 739 823 739C817.477 739 813 743.477 813 749C813 754.523 817.477 759 823 759Z" stroke="#292D32" stroke-width="1.5" stroke-miterlimit="10" stroke-linecap="round" stroke-linejoin="round"/>
<path d="M824.26 752.53L820.74 749L824.26 745.47" stroke="#292D32" stroke-width="1.5" stroke-linecap="round" stroke-linejoin="round"/>
<path d="M868 759C873.523 759 878 754.523 878 749C878 743.477 873.523 739 868 739C862.477 739 858 743.477 858 749C858 754.523 862.477 759 868 759Z" stroke="#292D32" stroke-width="1.5" stroke-miterlimit="10" stroke-linecap="round" stroke-linejoin="round"/>
<path d="M866.74 752.53L870.26 749L866.74 745.47" stroke="#292D32" stroke-width="1.5" stroke-linecap="round" stroke-linejoin="round"/>
<path d="M912 739H910C905 739 903 741 903 746V752C903 757 905 759 910 759H916C921 759 923 757 923 752V750" stroke="#292D32" stroke-width="1.5" stroke-linecap="round" stroke-linejoin="round"/>
<path d="M917.04 740.02L909.16 747.9C908.86 748.2 908.56 748.79 908.5 749.22L908.07 752.23C907.91 753.32 908.68 754.08 909.77 753.93L912.78 753.5C913.2 753.44 913.79 753.14 914.1 752.84L921.98 744.96C923.34 743.6 923.98 742.02 921.98 740.02C919.98 738.02 918.4 738.66 917.04 740.02Z" stroke="#292D32" stroke-width="1.5" stroke-miterlimit="10" stroke-linecap="round" stroke-linejoin="round"/>
<path d="M915.91 741.15C916.58 743.54 918.45 745.41 920.85 746.09" stroke="#292D32" stroke-width="1.5" stroke-miterlimit="10" stroke-linecap="round" stroke-linejoin="round"/>
<path d="M954 739V742" stroke="#292D32" stroke-width="1.5" stroke-miterlimit="10" stroke-linecap="round" stroke-linejoin="round"/>
<path d="M962 739V742" stroke="#292D32" stroke-width="1.5" stroke-miterlimit="10" stroke-linecap="round" stroke-linejoin="round"/>
<path d="M953 748H961" stroke="#292D32" stroke-width="1.5" stroke-miterlimit="10" stroke-linecap="round" stroke-linejoin="round"/>
<path d="M953 752H958" stroke="#292D32" stroke-width="1.5" stroke-miterlimit="10" stroke-linecap="round" stroke-linejoin="round"/>
<path d="M961 759H955C950 759 949 756.94 949 752.82V746.65C949 741.95 950.67 740.69 954 740.5H962C965.33 740.68 967 741.95 967 746.65V753" stroke="#292D32" stroke-width="1.5" stroke-miterlimit="10" stroke-linecap="round" stroke-linejoin="round"/>
<path d="M967 753L961 759V756C961 754 962 753 964 753H967Z" stroke="#292D32" stroke-width="1.5" stroke-linecap="round" stroke-linejoin="round"/>
<path d="M1003 756C1006.31 756 1009 753.31 1009 750V745C1009 741.69 1006.31 739 1003 739C999.69 739 997 741.69 997 745V750C997 753.31 999.69 756 1003 756Z" stroke="#292D32" stroke-width="1.5" stroke-linecap="round" stroke-linejoin="round"/>
<path d="M994 748V750C994 754.97 998.03 759 1003 759C1007.97 759 1012 754.97 1012 750V748" stroke="#292D32" stroke-width="1.5" stroke-linecap="round" stroke-linejoin="round"/>
<path d="M1000.11 744.48C1001.89 743.83 1003.83 743.83 1005.61 744.48" stroke="#292D32" stroke-width="1.5" stroke-linecap="round" stroke-linejoin="round"/>
<path d="M1001.03 747.48C1002.23 747.15 1003.5 747.15 1004.7 747.48" stroke="#292D32" stroke-width="1.5" stroke-linecap="round" stroke-linejoin="round"/>
<path d="M12.97 797C18.4928 797 22.97 792.523 22.97 787C22.97 781.477 18.4928 777 12.97 777C7.44712 777 2.96997 781.477 2.96997 787C2.96997 792.523 7.44712 797 12.97 797Z" stroke="#292D32" stroke-width="1.5" stroke-linecap="round" stroke-linejoin="round"/>
<path d="M11.72 789.53V784.47C11.72 783.99 11.52 783.8 11.01 783.8H9.71C9.2 783.8 9 783.99 9 784.47V789.53C9 790.01 9.2 790.2 9.71 790.2H11C11.52 790.2 11.72 790.01 11.72 789.53Z" stroke="#292D32" stroke-width="1.5" stroke-linecap="round" stroke-linejoin="round"/>
<path d="M17 789.53V784.47C17 783.99 16.8 783.8 16.29 783.8H15C14.49 783.8 14.29 783.99 14.29 784.47V789.53C14.29 790.01 14.49 790.2 15 790.2H16.29C16.8 790.2 17 790.01 17 789.53Z" stroke="#292D32" stroke-width="1.5" stroke-linecap="round" stroke-linejoin="round"/>
<path d="M57.9702 797C63.4931 797 67.9702 792.523 67.9702 787C67.9702 781.477 63.4931 777 57.9702 777C52.4474 777 47.9702 781.477 47.9702 787C47.9702 792.523 52.4474 797 57.9702 797Z" stroke="#292D32" stroke-width="1.5" stroke-linecap="round" stroke-linejoin="round"/>
<path d="M56.73 791.23H59.27C61.39 791.23 62.23 790.38 62.23 788.27V785.73C62.23 783.61 61.38 782.77 59.27 782.77H56.73C54.61 782.77 53.77 783.62 53.77 785.73V788.27C53.77 790.38 54.62 791.23 56.73 791.23Z" stroke="#292D32" stroke-width="1.5" stroke-linecap="round" stroke-linejoin="round"/>
<path d="M106 783.37V782.41C106 779.43 103.93 778.29 101.41 779.87L98.49 781.7C98.17 781.89 97.8 782 97.43 782H96C94 782 93 783 93 785V789C93 791 94 792 96 792H98" stroke="#292D32" stroke-width="1.5" stroke-linecap="round" stroke-linejoin="round"/>
<path d="M101.41 794.13C103.93 795.71 106 794.56 106 791.59V787.95" stroke="#292D32" stroke-width="1.5" stroke-linecap="round" stroke-linejoin="round"/>
<path d="M109.81 784.42C110.71 786.57 110.44 789.08 109 791" stroke="#292D32" stroke-width="1.5" stroke-linecap="round" stroke-linejoin="round"/>
<path d="M112.15 782.8C113.62 786.29 113.18 790.37 110.83 793.5" stroke="#292D32" stroke-width="1.5" stroke-linecap="round" stroke-linejoin="round"/>
<path d="M113 777L93 797" stroke="#292D32" stroke-width="1.5" stroke-linecap="round" stroke-linejoin="round"/>
<path d="M139.33 785V789C139.33 791 140.33 792 142.33 792H143.76C144.13 792 144.5 792.11 144.82 792.3L147.74 794.13C150.26 795.71 152.33 794.56 152.33 791.59V782.41C152.33 779.43 150.26 778.29 147.74 779.87L144.82 781.7C144.5 781.89 144.13 782 143.76 782H142.33C140.33 782 139.33 783 139.33 785Z" stroke="#292D32" stroke-width="1.5"/>
<path d="M155.33 783C157.11 785.37 157.11 788.63 155.33 791" stroke="#292D32" stroke-width="1.5" stroke-linecap="round" stroke-linejoin="round"/>
<path d="M183 784.96V789.04C183 791.08 184.02 792.1 186.06 792.1H187.52C187.9 792.1 188.28 792.21 188.6 792.41L191.58 794.27C194.16 795.88 196.26 794.71 196.26 791.67V782.32C196.26 779.28 194.15 778.11 191.58 779.72L188.6 781.59C188.27 781.79 187.9 781.9 187.52 781.9H186.06C184.02 781.9 183 782.92 183 784.96Z" stroke="#292D32" stroke-width="1.5"/>
<path d="M199 787H203" stroke="#292D32" stroke-width="1.5" stroke-linecap="round" stroke-linejoin="round"/>
<path d="M228 784.96V789.04C228 791.08 229.02 792.1 231.06 792.1H232.52C232.9 792.1 233.28 792.21 233.6 792.41L236.58 794.27C239.16 795.88 241.26 794.71 241.26 791.67V782.32C241.26 779.28 239.15 778.11 236.58 779.72L233.6 781.59C233.27 781.79 232.9 781.9 232.52 781.9H231.06C229.02 781.9 228 782.92 228 784.96Z" stroke="#292D32" stroke-width="1.5"/>
<path d="M244 787H248" stroke="#292D32" stroke-width="1.5" stroke-linecap="round" stroke-linejoin="round"/>
<path d="M246 789V785" stroke="#292D32" stroke-width="1.5" stroke-linecap="round" stroke-linejoin="round"/>
<path d="M283.53 795.42H277.21C274.05 795.42 273 793.32 273 791.21V782.79C273 779.63 274.05 778.58 277.21 778.58H283.53C286.69 778.58 287.74 779.63 287.74 782.79V791.21C287.74 794.37 286.68 795.42 283.53 795.42Z" stroke="#292D32" stroke-width="1.5" stroke-linecap="round" stroke-linejoin="round"/>
<path d="M290.52 792.1L287.74 790.15V783.84L290.52 781.89C291.88 780.94 293 781.52 293 783.19V790.81C293 792.48 291.88 793.06 290.52 792.1Z" stroke="#292D32" stroke-width="1.5" stroke-linecap="round" stroke-linejoin="round"/>
<path d="M282.5 786C283.328 786 284 785.328 284 784.5C284 783.672 283.328 783 282.5 783C281.672 783 281 783.672 281 784.5C281 785.328 281.672 786 282.5 786Z" stroke="#292D32" stroke-width="1.5" stroke-linecap="round" stroke-linejoin="round"/>
<path d="M332.63 782.58C332.63 782.58 332.66 781.63 332.63 781.32C332.46 779.28 331.13 778.58 328.52 778.58H322.21C319.05 778.58 318 779.63 318 782.79V791.21C318 792.47 318.38 793.74 319.37 794.55L320 795" stroke="#292D32" stroke-width="1.5" stroke-linecap="round" stroke-linejoin="round"/>
<path d="M332.74 785.95V791.21C332.74 794.37 331.69 795.42 328.53 795.42H323.26" stroke="#292D32" stroke-width="1.5" stroke-linecap="round" stroke-linejoin="round"/>
<path d="M338 781.74V790.81C338 792.48 336.88 793.06 335.52 792.1L332.74 790.15" stroke="#292D32" stroke-width="1.5" stroke-linecap="round" stroke-linejoin="round"/>
<path d="M338.02 777.19L318.02 797.19" stroke="#292D32" stroke-width="1.5" stroke-linecap="round" stroke-linejoin="round"/>
<path d="M370.1 787V785.52C370.1 783.61 371.45 782.84 373.1 783.79L374.38 784.53L375.66 785.27C377.31 786.22 377.31 787.78 375.66 788.73L374.38 789.47L373.1 790.21C371.45 791.16 370.1 790.38 370.1 788.48V787Z" stroke="#292D32" stroke-width="1.5" stroke-miterlimit="10" stroke-linecap="round" stroke-linejoin="round"/>
<path d="M373 797C378.523 797 383 792.523 383 787C383 781.477 378.523 777 373 777C367.477 777 363 781.477 363 787C363 792.523 367.477 797 373 797Z" stroke="#292D32" stroke-width="1.5" stroke-linecap="round" stroke-linejoin="round"/>
<path d="M415 797H421C426 797 428 795 428 790V784C428 779 426 777 421 777H415C410 777 408 779 408 784V790C408 795 410 797 415 797Z" stroke="#292D32" stroke-width="1.5" stroke-linecap="round" stroke-linejoin="round"/>
<path d="M415 785C416.105 785 417 784.105 417 783C417 781.895 416.105 781 415 781C413.895 781 413 781.895 413 783C413 784.105 413.895 785 415 785Z" stroke="#292D32" stroke-width="1.5" stroke-linecap="round" stroke-linejoin="round"/>
<path d="M408.67 793.95L413.6 790.64C414.39 790.11 415.53 790.17 416.24 790.78L416.57 791.07C417.35 791.74 418.61 791.74 419.39 791.07L423.55 787.5C424.33 786.83 425.59 786.83 426.37 787.5L428 788.9" stroke="#292D32" stroke-width="1.5" stroke-linecap="round" stroke-linejoin="round"/>
<path d="M460 785C461.105 785 462 784.105 462 783C462 781.895 461.105 781 460 781C458.895 781 458 781.895 458 783C458 784.105 458.895 785 460 785Z" stroke="#292D32" stroke-width="1.5" stroke-linecap="round" stroke-linejoin="round"/>
<path d="M464 777H460C455 777 453 779 453 784V790C453 795 455 797 460 797H466C471 797 473 795 473 790V785" stroke="#292D32" stroke-width="1.5" stroke-linecap="round" stroke-linejoin="round"/>
<path d="M467 779.99L468.46 781.45L472.36 777.55" stroke="#292D32" stroke-width="1.5" stroke-linecap="round" stroke-linejoin="round"/>
<path d="M453.67 793.95L458.6 790.64C459.39 790.11 460.53 790.17 461.24 790.78L461.57 791.07C462.35 791.74 463.61 791.74 464.39 791.07L468.55 787.5C469.33 786.83 470.59 786.83 471.37 787.5L473 788.9" stroke="#292D32" stroke-width="1.5" stroke-linecap="round" stroke-linejoin="round"/>
<path d="M506.65 794.11V779.89C506.65 778.54 506.08 778 504.64 778H501.01C499.57 778 499 778.54 499 779.89V794.11C499 795.46 499.57 796 501.01 796H504.64C506.08 796 506.65 795.46 506.65 794.11Z" stroke="#292D32" stroke-width="1.5" stroke-linecap="round" stroke-linejoin="round"/>
<path d="M517 794.11V779.89C517 778.54 516.43 778 514.99 778H511.36C509.93 778 509.35 778.54 509.35 779.89V794.11C509.35 795.46 509.92 796 511.36 796H514.99C516.43 796 517 795.46 517 794.11Z" stroke="#292D32" stroke-width="1.5" stroke-linecap="round" stroke-linejoin="round"/>
<path d="M561.24 782.22V791.79C561.24 793.75 559.11 794.98 557.41 794L553.26 791.61L549.11 789.21C547.41 788.23 547.41 785.78 549.11 784.8L553.26 782.4L557.41 780.01C559.11 779.03 561.24 780.25 561.24 782.22Z" stroke="#292D32" stroke-width="1.5" stroke-linecap="round" stroke-linejoin="round"/>
<path d="M544.76 793.18V780.82" stroke="#292D32" stroke-width="1.5" stroke-linecap="round" stroke-linejoin="round"/>
<path d="M589.76 782.22V791.79C589.76 793.75 591.89 794.98 593.59 794L597.74 791.61L601.89 789.21C603.59 788.23 603.59 785.78 601.89 784.8L597.74 782.4L593.59 780.01C591.89 779.03 589.76 780.25 589.76 782.22Z" stroke="#292D32" stroke-width="1.5" stroke-linecap="round" stroke-linejoin="round"/>
<path d="M606.24 793.18V780.82" stroke="#292D32" stroke-width="1.5" stroke-linecap="round" stroke-linejoin="round"/>
<path d="M648 780H638C635 780 633 782 633 785V792C633 795 635 797 638 797H648C651 797 653 795 653 792V785C653 782 651 780 648 780Z" stroke="#292D32" stroke-width="1.5" stroke-linecap="round" stroke-linejoin="round"/>
<path d="M638 777V780" stroke="#292D32" stroke-width="1.5" stroke-linecap="round" stroke-linejoin="round"/>
<path d="M639.5 791C640.881 791 642 789.881 642 788.5C642 787.119 640.881 786 639.5 786C638.119 786 637 787.119 637 788.5C637 789.881 638.119 791 639.5 791Z" stroke="#292D32" stroke-width="1.5" stroke-linecap="round" stroke-linejoin="round"/>
<path d="M645.5 786H649.5" stroke="#292D32" stroke-width="1.5" stroke-linecap="round" stroke-linejoin="round"/>
<path d="M645.5 790H646" stroke="#292D32" stroke-width="1.5" stroke-linecap="round" stroke-linejoin="round"/>
<path d="M649 790H649.5" stroke="#292D32" stroke-width="1.5" stroke-linecap="round" stroke-linejoin="round"/>
<path d="M691 794.92L684.48 788.4C683.71 787.63 683.71 786.37 684.48 785.6L691 779.08" stroke="#292D32" stroke-width="1.5" stroke-miterlimit="10" stroke-linecap="round" stroke-linejoin="round"/>
<path d="M729.91 794.92L736.43 788.4C737.2 787.63 737.2 786.37 736.43 785.6L729.91 779.08" stroke="#292D32" stroke-width="1.5" stroke-miterlimit="10" stroke-linecap="round" stroke-linejoin="round"/>
</svg>
