<svg width="460" height="520" viewBox="0 0 460 520" fill="none" xmlns="http://www.w3.org/2000/svg">
<g clip-path="url(#clip0_493_14596)">
<g filter="url(#filter0_d_493_14596)">
<path d="M20 28C20 23.5817 23.5817 20 28 20H432C436.418 20 440 23.5817 440 28V222C440 226.418 436.418 230 432 230H28C23.5817 230 20 226.418 20 222V28Z" fill="#EEE6D5" shape-rendering="crispEdges"/>
<g filter="url(#filter1_d_493_14596)">
<path d="M66 28C70.4183 28 74 31.5817 74 36V55C74 59.4183 70.4183 63 66 63H42C37.5817 63 34 59.4183 34 55V36C34 31.5817 37.5817 28 42 28H66Z" stroke="black"/>
<path d="M53.6668 51.5C57.1646 51.5 60.0002 48.6645 60.0002 45.1667C60.0002 41.6689 57.1646 38.8333 53.6668 38.8333C50.169 38.8333 47.3335 41.6689 47.3335 45.1667C47.3335 48.6645 50.169 51.5 53.6668 51.5Z" stroke="black" stroke-width="1.5" stroke-linecap="round" stroke-linejoin="round"/>
<path d="M60.6668 52.1667L59.3335 50.8333" stroke="black" stroke-width="1.5" stroke-linecap="round" stroke-linejoin="round"/>
<path d="M83.392 52V40.544H87.584C89.792 40.544 91.152 41.664 91.152 43.504C91.152 44.848 90.56 45.76 89.376 46.224C90.704 46.656 91.376 47.584 91.376 48.992C91.376 50.832 90 52 87.824 52H83.392ZM87.568 41.568H84.544V45.76H87.712C89.152 45.76 89.968 44.96 89.968 43.6C89.968 42.32 89.104 41.568 87.568 41.568ZM87.824 46.768H84.544V50.96H87.824C89.328 50.96 90.208 50.176 90.208 48.848C90.208 47.552 89.312 46.768 87.824 46.768ZM98.5745 44.256H99.6785V52H98.7185L98.5745 50.688C98.1425 51.584 97.0705 52.192 95.8545 52.192C94.0305 52.192 93.0385 50.944 93.0385 49.056V44.24H94.1585V48.704C94.1585 50.544 94.9745 51.2 96.2065 51.2C97.6945 51.2 98.5745 50.208 98.5745 48.368V44.256ZM101.086 49.824H102.142C102.142 50.72 102.814 51.28 103.902 51.28C105.102 51.28 105.806 50.768 105.806 49.936C105.806 49.296 105.486 48.928 104.574 48.704L103.246 48.368C101.902 48.032 101.246 47.328 101.246 46.272C101.246 44.912 102.382 44.048 104.046 44.048C105.678 44.048 106.734 44.944 106.782 46.384H105.71C105.678 45.488 105.054 44.96 104.014 44.96C102.926 44.96 102.318 45.424 102.318 46.256C102.318 46.848 102.734 47.264 103.582 47.472L104.91 47.808C106.254 48.144 106.862 48.768 106.862 49.888C106.862 51.28 105.678 52.192 103.918 52.192C102.174 52.192 101.086 51.264 101.086 49.824ZM108.056 48.144C108.056 45.712 109.544 44.048 111.8 44.048C113.592 44.048 114.904 45.088 115.208 46.688H114.104C113.816 45.616 112.888 45.024 111.816 45.024C110.248 45.024 109.144 46.224 109.144 48.128C109.144 49.968 110.168 51.2 111.736 51.2C112.888 51.2 113.816 50.56 114.12 49.568H115.24C114.872 51.152 113.496 52.192 111.736 52.192C109.544 52.192 108.056 50.576 108.056 48.144ZM119.056 52.192C117.408 52.192 116.432 51.264 116.432 49.904C116.432 48.48 117.52 47.584 119.328 47.44L121.888 47.232V46.976C121.888 45.456 120.976 44.976 119.84 44.976C118.496 44.976 117.696 45.584 117.696 46.624H116.688C116.688 45.056 117.968 44.048 119.872 44.048C121.664 44.048 122.976 44.944 122.976 46.992V52H122.048L121.904 50.64C121.424 51.616 120.368 52.192 119.056 52.192ZM119.312 51.296C120.944 51.296 121.888 50.16 121.888 48.48V48.064L119.6 48.24C118.144 48.368 117.552 49.008 117.552 49.872C117.552 50.816 118.256 51.296 119.312 51.296Z" fill="black"/>
<path d="M410 28C414.418 28 418 31.5817 418 36V55C418 59.4183 414.418 63 410 63H386C381.582 63 378 59.4183 378 55V36C378 31.5817 381.582 28 386 28H410Z" stroke="black"/>
<path d="M393.334 40.8333L402.667 50.166" stroke="black" stroke-width="1.5" stroke-linecap="round" stroke-linejoin="round"/>
<path d="M393.333 50.166L402.666 40.8333" stroke="black" stroke-width="1.5" stroke-linecap="round" stroke-linejoin="round"/>
<line x1="124.5" y1="39" x2="124.5" y2="55" stroke="black"/>
</g>
<line x1="30" y1="66.5" x2="435" y2="66.5" stroke="black"/>
<g filter="url(#filter2_d_493_14596)">
<path d="M66 81C70.4183 81 74 84.5817 74 89V108C74 112.418 70.4183 116 66 116H42C37.5817 116 34 112.418 34 108V89C34 84.5817 37.5817 81 42 81H66Z" stroke="#4E4B4B"/>
<path d="M59.8332 99.3333C59.8332 102.553 57.2198 105.167 53.9998 105.167C50.7798 105.167 48.1665 102.553 48.1665 99.3333C48.1665 96.1133 50.7798 93.5 53.9998 93.5C57.2198 93.5 59.8332 96.1133 59.8332 99.3333Z" stroke="#686464" stroke-width="1.5" stroke-linecap="round" stroke-linejoin="round"/>
<path d="M54 95.8333V99.1667" stroke="#686464" stroke-width="1.5" stroke-linecap="round" stroke-linejoin="round"/>
<path d="M52 91.8333H56" stroke="#686464" stroke-width="1.5" stroke-miterlimit="10" stroke-linecap="round" stroke-linejoin="round"/>
<path d="M85.692 104L82.13 94.692H83.131L85.614 101.166C85.809 101.673 85.991 102.18 86.199 102.83C86.394 102.154 86.628 101.504 86.771 101.153L89.241 94.692H90.203L86.667 104H85.692ZM91.6411 95.979C91.2771 95.979 90.9781 95.68 90.9781 95.316C90.9781 94.952 91.2771 94.64 91.6411 94.64C92.0051 94.64 92.3171 94.952 92.3171 95.316C92.3171 95.68 92.0051 95.979 91.6411 95.979ZM91.1991 104V97.708H92.0961V104H91.1991ZM94.7987 104H93.9017V97.708H94.6817L94.8117 98.8C95.2277 97.994 96.0597 97.539 96.9697 97.539C98.6987 97.539 99.4137 98.566 99.4137 100.152V104H98.5167V100.347C98.5167 98.878 97.8537 98.358 96.8137 98.358C95.5267 98.358 94.7987 99.294 94.7987 100.711V104ZM101.579 95.979C101.215 95.979 100.916 95.68 100.916 95.316C100.916 94.952 101.215 94.64 101.579 94.64C101.943 94.64 102.255 94.952 102.255 95.316C102.255 95.68 101.943 95.979 101.579 95.979ZM101.137 104V97.708H102.034V104H101.137ZM104.775 104H103.878V94.523H104.775V104ZM106.176 100.854C106.176 98.93 107.528 97.539 109.374 97.539C111.22 97.539 112.572 98.93 112.572 100.854C112.572 102.765 111.22 104.156 109.374 104.156C107.528 104.156 106.176 102.765 106.176 100.854ZM107.086 100.841C107.086 102.323 108.022 103.35 109.374 103.35C110.713 103.35 111.662 102.323 111.662 100.841C111.662 99.385 110.713 98.345 109.374 98.345C108.022 98.345 107.086 99.385 107.086 100.841ZM113.409 102.232H114.267C114.267 102.96 114.813 103.415 115.697 103.415C116.672 103.415 117.244 102.999 117.244 102.323C117.244 101.803 116.984 101.504 116.243 101.322L115.164 101.049C114.072 100.776 113.539 100.204 113.539 99.346C113.539 98.241 114.462 97.539 115.814 97.539C117.14 97.539 117.998 98.267 118.037 99.437H117.166C117.14 98.709 116.633 98.28 115.788 98.28C114.904 98.28 114.41 98.657 114.41 99.333C114.41 99.814 114.748 100.152 115.437 100.321L116.516 100.594C117.608 100.867 118.102 101.374 118.102 102.284C118.102 103.415 117.14 104.156 115.71 104.156C114.293 104.156 113.409 103.402 113.409 102.232Z" fill="black"/>
<path d="M373.868 104H368.083L368.161 103.506L371.736 100.815C373.569 99.437 374.323 98.345 374.323 97.058C374.323 95.927 373.504 95.147 372.295 95.147C370.917 95.147 370.085 96.031 369.786 97.76H369.175C369.539 95.68 370.618 94.601 372.334 94.601C373.842 94.601 374.934 95.628 374.934 97.058C374.934 98.527 374.141 99.671 372.048 101.257L369.149 103.454H373.959L373.868 104ZM380.824 104H375.039L375.117 103.506L378.692 100.815C380.525 99.437 381.279 98.345 381.279 97.058C381.279 95.927 380.46 95.147 379.251 95.147C377.873 95.147 377.041 96.031 376.742 97.76H376.131C376.495 95.68 377.574 94.601 379.29 94.601C380.798 94.601 381.89 95.628 381.89 97.058C381.89 98.527 381.097 99.671 379.004 101.257L376.105 103.454H380.915L380.824 104ZM385.286 98.865H384.74L384.818 98.423L388.25 95.316H383.7L383.791 94.77H389.16L389.082 95.264L385.663 98.358C387.249 98.449 388.341 99.58 388.341 101.179C388.341 102.921 387.028 104.156 385.195 104.156C383.453 104.156 382.27 102.973 382.27 101.244H382.868C382.868 102.687 383.778 103.61 385.169 103.61C386.716 103.61 387.756 102.648 387.756 101.192C387.756 99.762 386.807 98.865 385.286 98.865Z" fill="#686464"/>
</g>
<g filter="url(#filter3_d_493_14596)">
<path d="M66 134C70.4183 134 74 137.582 74 142V161C74 165.418 70.4183 169 66 169H42C37.5817 169 34 165.418 34 161V142C34 137.582 37.5817 134 42 134H66Z" stroke="#4E4B4B"/>
<path d="M59.8332 152.333C59.8332 155.553 57.2198 158.167 53.9998 158.167C50.7798 158.167 48.1665 155.553 48.1665 152.333C48.1665 149.113 50.7798 146.5 53.9998 146.5C57.2198 146.5 59.8332 149.113 59.8332 152.333Z" stroke="#686464" stroke-width="1.5" stroke-linecap="round" stroke-linejoin="round"/>
<path d="M54 148.833V152.167" stroke="#686464" stroke-width="1.5" stroke-linecap="round" stroke-linejoin="round"/>
<path d="M52 144.833H56" stroke="#686464" stroke-width="1.5" stroke-miterlimit="10" stroke-linecap="round" stroke-linejoin="round"/>
<path d="M82.156 148.55V147.692H88.825V148.55H85.952V157H85.016V148.55H82.156ZM90.2954 148.979C89.9314 148.979 89.6324 148.68 89.6324 148.316C89.6324 147.952 89.9314 147.64 90.2954 147.64C90.6594 147.64 90.9714 147.952 90.9714 148.316C90.9714 148.68 90.6594 148.979 90.2954 148.979ZM89.8534 157V150.708H90.7504V157H89.8534ZM95.195 157.156C93.349 157.156 92.114 155.83 92.114 153.854C92.114 151.891 93.336 150.539 95.13 150.539C96.833 150.539 97.99 151.748 97.99 153.529V153.971H92.985C93.05 155.505 93.856 156.389 95.208 156.389C96.235 156.389 96.898 155.947 97.132 155.115H97.99C97.652 156.441 96.677 157.156 95.195 157.156ZM95.13 151.306C93.947 151.306 93.167 152.086 93.011 153.321H97.093C97.093 152.112 96.313 151.306 95.13 151.306ZM100.256 157H99.3592V150.708H100.139L100.269 151.8C100.685 150.994 101.517 150.539 102.427 150.539C104.156 150.539 104.871 151.566 104.871 153.152V157H103.974V153.347C103.974 151.878 103.311 151.358 102.271 151.358C100.984 151.358 100.256 152.294 100.256 153.711V157ZM109.064 157.156C107.231 157.156 106.152 155.752 106.152 153.867C106.152 151.969 107.231 150.539 109.103 150.539C110.143 150.539 110.975 150.994 111.417 151.904V147.523H112.314V157H111.534L111.443 155.713C111.001 156.688 110.117 157.156 109.064 157.156ZM109.22 156.337C110.598 156.337 111.404 155.297 111.404 153.841C111.404 152.398 110.598 151.345 109.22 151.345C107.855 151.345 107.062 152.398 107.062 153.841C107.062 155.297 107.855 156.337 109.22 156.337ZM115.928 157.156C114.589 157.156 113.796 156.402 113.796 155.297C113.796 154.14 114.68 153.412 116.149 153.295L118.229 153.126V152.918C118.229 151.683 117.488 151.293 116.565 151.293C115.473 151.293 114.823 151.787 114.823 152.632H114.004C114.004 151.358 115.044 150.539 116.591 150.539C118.047 150.539 119.113 151.267 119.113 152.931V157H118.359L118.242 155.895C117.852 156.688 116.994 157.156 115.928 157.156ZM116.136 156.428C117.462 156.428 118.229 155.505 118.229 154.14V153.802L116.37 153.945C115.187 154.049 114.706 154.569 114.706 155.271C114.706 156.038 115.278 156.428 116.136 156.428Z" fill="black"/>
<path d="M373.868 157H368.083L368.161 156.506L371.736 153.815C373.569 152.437 374.323 151.345 374.323 150.058C374.323 148.927 373.504 148.147 372.295 148.147C370.917 148.147 370.085 149.031 369.786 150.76H369.175C369.539 148.68 370.618 147.601 372.334 147.601C373.842 147.601 374.934 148.628 374.934 150.058C374.934 151.527 374.141 152.671 372.048 154.257L369.149 156.454H373.959L373.868 157ZM380.824 157H375.039L375.117 156.506L378.692 153.815C380.525 152.437 381.279 151.345 381.279 150.058C381.279 148.927 380.46 148.147 379.251 148.147C377.873 148.147 377.041 149.031 376.742 150.76H376.131C376.495 148.68 377.574 147.601 379.29 147.601C380.798 147.601 381.89 148.628 381.89 150.058C381.89 151.527 381.097 152.671 379.004 154.257L376.105 156.454H380.915L380.824 157ZM385.286 151.865H384.74L384.818 151.423L388.25 148.316H383.7L383.791 147.77H389.16L389.082 148.264L385.663 151.358C387.249 151.449 388.341 152.58 388.341 154.179C388.341 155.921 387.028 157.156 385.195 157.156C383.453 157.156 382.27 155.973 382.27 154.244H382.868C382.868 155.687 383.778 156.61 385.169 156.61C386.716 156.61 387.756 155.648 387.756 154.192C387.756 152.762 386.807 151.865 385.286 151.865Z" fill="#686464"/>
</g>
<g filter="url(#filter4_d_493_14596)">
<path d="M66 187C70.4183 187 74 190.582 74 195V214C74 218.418 70.4183 222 66 222H42C37.5817 222 34 218.418 34 214V195C34 190.582 37.5817 187 42 187H66Z" stroke="#4E4B4B"/>
<path d="M59.8332 205.333C59.8332 208.553 57.2198 211.167 53.9998 211.167C50.7798 211.167 48.1665 208.553 48.1665 205.333C48.1665 202.113 50.7798 199.5 53.9998 199.5C57.2198 199.5 59.8332 202.113 59.8332 205.333Z" stroke="#686464" stroke-width="1.5" stroke-linecap="round" stroke-linejoin="round"/>
<path d="M54 201.833V205.167" stroke="#686464" stroke-width="1.5" stroke-linecap="round" stroke-linejoin="round"/>
<path d="M52 197.833H56" stroke="#686464" stroke-width="1.5" stroke-miterlimit="10" stroke-linecap="round" stroke-linejoin="round"/>
<path d="M90.4675 210.143C87.8675 210.143 86.0995 208.206 86.0995 205.346C86.0995 202.486 87.8935 200.536 90.5195 200.536C92.5215 200.536 94.0945 201.745 94.4715 203.591H93.4705C93.0805 202.252 91.9365 201.433 90.4805 201.433C88.4395 201.433 87.0745 202.993 87.0745 205.346C87.0745 207.686 88.4395 209.246 90.4805 209.246C91.9495 209.246 93.1195 208.453 93.5225 207.205H94.5235C94.0945 208.96 92.4695 210.143 90.4675 210.143ZM98.5212 210.156C96.6752 210.156 95.4402 208.83 95.4402 206.854C95.4402 204.891 96.6622 203.539 98.4562 203.539C100.159 203.539 101.316 204.748 101.316 206.529V206.971H96.3112C96.3762 208.505 97.1822 209.389 98.5342 209.389C99.5612 209.389 100.224 208.947 100.458 208.115H101.316C100.978 209.441 100.003 210.156 98.5212 210.156ZM98.4562 204.306C97.2732 204.306 96.4932 205.086 96.3372 206.321H100.419C100.419 205.112 99.6392 204.306 98.4562 204.306ZM102.152 208.232H103.01C103.01 208.96 103.556 209.415 104.44 209.415C105.415 209.415 105.987 208.999 105.987 208.323C105.987 207.803 105.727 207.504 104.986 207.322L103.907 207.049C102.815 206.776 102.282 206.204 102.282 205.346C102.282 204.241 103.205 203.539 104.557 203.539C105.883 203.539 106.741 204.267 106.78 205.437H105.909C105.883 204.709 105.376 204.28 104.531 204.28C103.647 204.28 103.153 204.657 103.153 205.333C103.153 205.814 103.491 206.152 104.18 206.321L105.259 206.594C106.351 206.867 106.845 207.374 106.845 208.284C106.845 209.415 105.883 210.156 104.453 210.156C103.036 210.156 102.152 209.402 102.152 208.232ZM109.7 210H108.816V204.462H107.555V203.708H108.816V201.719H109.7V203.708H110.961V204.462H109.7V210ZM113.77 210.156C112.431 210.156 111.638 209.402 111.638 208.297C111.638 207.14 112.522 206.412 113.991 206.295L116.071 206.126V205.918C116.071 204.683 115.33 204.293 114.407 204.293C113.315 204.293 112.665 204.787 112.665 205.632H111.846C111.846 204.358 112.886 203.539 114.433 203.539C115.889 203.539 116.955 204.267 116.955 205.931V210H116.201L116.084 208.895C115.694 209.688 114.836 210.156 113.77 210.156ZM113.978 209.428C115.304 209.428 116.071 208.505 116.071 207.14V206.802L114.212 206.945C113.029 207.049 112.548 207.569 112.548 208.271C112.548 209.038 113.12 209.428 113.978 209.428Z" fill="black"/>
<path d="M373.868 210H368.083L368.161 209.506L371.736 206.815C373.569 205.437 374.323 204.345 374.323 203.058C374.323 201.927 373.504 201.147 372.295 201.147C370.917 201.147 370.085 202.031 369.786 203.76H369.175C369.539 201.68 370.618 200.601 372.334 200.601C373.842 200.601 374.934 201.628 374.934 203.058C374.934 204.527 374.141 205.671 372.048 207.257L369.149 209.454H373.959L373.868 210ZM380.824 210H375.039L375.117 209.506L378.692 206.815C380.525 205.437 381.279 204.345 381.279 203.058C381.279 201.927 380.46 201.147 379.251 201.147C377.873 201.147 377.041 202.031 376.742 203.76H376.131C376.495 201.68 377.574 200.601 379.29 200.601C380.798 200.601 381.89 201.628 381.89 203.058C381.89 204.527 381.097 205.671 379.004 207.257L376.105 209.454H380.915L380.824 210ZM385.286 204.865H384.74L384.818 204.423L388.25 201.316H383.7L383.791 200.77H389.16L389.082 201.264L385.663 204.358C387.249 204.449 388.341 205.58 388.341 207.179C388.341 208.921 387.028 210.156 385.195 210.156C383.453 210.156 382.27 208.973 382.27 207.244H382.868C382.868 208.687 383.778 209.61 385.169 209.61C386.716 209.61 387.756 208.648 387.756 207.192C387.756 205.762 386.807 204.865 385.286 204.865Z" fill="#686464"/>
</g>
</g>
<g filter="url(#filter5_d_493_14596)">
<path d="M15 273C15 268.582 18.5817 265 23 265H427C431.418 265 435 268.582 435 273V309C435 313.418 431.418 317 427 317H23C18.5817 317 15 313.418 15 309V273Z" fill="#EEE6D5" shape-rendering="crispEdges"/>
<g filter="url(#filter6_d_493_14596)">
<path d="M61 273C65.4183 273 69 276.582 69 281V300C69 304.418 65.4183 308 61 308H37C32.5817 308 29 304.418 29 300V281C29 276.582 32.5817 273 37 273H61Z" stroke="black"/>
<path d="M48.6668 296.5C52.1646 296.5 55.0002 293.664 55.0002 290.167C55.0002 286.669 52.1646 283.833 48.6668 283.833C45.169 283.833 42.3335 286.669 42.3335 290.167C42.3335 293.664 45.169 296.5 48.6668 296.5Z" stroke="black" stroke-width="1.5" stroke-linecap="round" stroke-linejoin="round"/>
<path d="M55.6668 297.167L54.3335 295.833" stroke="black" stroke-width="1.5" stroke-linecap="round" stroke-linejoin="round"/>
<path d="M78.392 297V285.544H82.584C84.792 285.544 86.152 286.664 86.152 288.504C86.152 289.848 85.56 290.76 84.376 291.224C85.704 291.656 86.376 292.584 86.376 293.992C86.376 295.832 85 297 82.824 297H78.392ZM82.568 286.568H79.544V290.76H82.712C84.152 290.76 84.968 289.96 84.968 288.6C84.968 287.32 84.104 286.568 82.568 286.568ZM82.824 291.768H79.544V295.96H82.824C84.328 295.96 85.208 295.176 85.208 293.848C85.208 292.552 84.312 291.768 82.824 291.768ZM93.5745 289.256H94.6785V297H93.7185L93.5745 295.688C93.1425 296.584 92.0705 297.192 90.8545 297.192C89.0305 297.192 88.0385 295.944 88.0385 294.056V289.24H89.1585V293.704C89.1585 295.544 89.9745 296.2 91.2065 296.2C92.6945 296.2 93.5745 295.208 93.5745 293.368V289.256ZM96.086 294.824H97.142C97.142 295.72 97.814 296.28 98.902 296.28C100.102 296.28 100.806 295.768 100.806 294.936C100.806 294.296 100.486 293.928 99.574 293.704L98.246 293.368C96.902 293.032 96.246 292.328 96.246 291.272C96.246 289.912 97.382 289.048 99.046 289.048C100.678 289.048 101.734 289.944 101.782 291.384H100.71C100.678 290.488 100.054 289.96 99.014 289.96C97.926 289.96 97.318 290.424 97.318 291.256C97.318 291.848 97.734 292.264 98.582 292.472L99.91 292.808C101.254 293.144 101.862 293.768 101.862 294.888C101.862 296.28 100.678 297.192 98.918 297.192C97.174 297.192 96.086 296.264 96.086 294.824ZM103.056 293.144C103.056 290.712 104.544 289.048 106.8 289.048C108.592 289.048 109.904 290.088 110.208 291.688H109.104C108.816 290.616 107.888 290.024 106.816 290.024C105.248 290.024 104.144 291.224 104.144 293.128C104.144 294.968 105.168 296.2 106.736 296.2C107.888 296.2 108.816 295.56 109.12 294.568H110.24C109.872 296.152 108.496 297.192 106.736 297.192C104.544 297.192 103.056 295.576 103.056 293.144ZM114.056 297.192C112.408 297.192 111.432 296.264 111.432 294.904C111.432 293.48 112.52 292.584 114.328 292.44L116.888 292.232V291.976C116.888 290.456 115.976 289.976 114.84 289.976C113.496 289.976 112.696 290.584 112.696 291.624H111.688C111.688 290.056 112.968 289.048 114.872 289.048C116.664 289.048 117.976 289.944 117.976 291.992V297H117.048L116.904 295.64C116.424 296.616 115.368 297.192 114.056 297.192ZM114.312 296.296C115.944 296.296 116.888 295.16 116.888 293.48V293.064L114.6 293.24C113.144 293.368 112.552 294.008 112.552 294.872C112.552 295.816 113.256 296.296 114.312 296.296ZM123.151 297.192C120.895 297.192 119.567 295.464 119.567 293.144C119.567 290.808 120.895 289.048 123.199 289.048C124.479 289.048 125.503 289.608 126.047 290.728V285.336H127.151V297H126.191L126.079 295.416C125.535 296.616 124.447 297.192 123.151 297.192ZM123.343 296.184C125.039 296.184 126.031 294.904 126.031 293.112C126.031 291.336 125.039 290.04 123.343 290.04C121.663 290.04 120.687 291.336 120.687 293.112C120.687 294.904 121.663 296.184 123.343 296.184ZM128.831 293.128C128.831 290.76 130.495 289.048 132.767 289.048C135.039 289.048 136.703 290.76 136.703 293.128C136.703 295.48 135.039 297.192 132.767 297.192C130.495 297.192 128.831 295.48 128.831 293.128ZM129.951 293.112C129.951 294.936 131.103 296.2 132.767 296.2C134.415 296.2 135.583 294.936 135.583 293.112C135.583 291.32 134.415 290.04 132.767 290.04C131.103 290.04 129.951 291.32 129.951 293.112ZM142.437 289.16V290.152H141.829C140.405 290.152 139.493 291.112 139.493 292.584V297H138.389V289.256H139.429L139.509 290.456C139.813 289.624 140.629 289.08 141.717 289.08C141.957 289.08 142.165 289.096 142.437 289.16Z" fill="#686464"/>
<path d="M405 273C409.418 273 413 276.582 413 281V300C413 304.418 409.418 308 405 308H381C376.582 308 373 304.418 373 300V281C373 276.582 376.582 273 381 273H405Z" stroke="black"/>
<path d="M388.334 285.833L397.667 295.166" stroke="black" stroke-width="1.5" stroke-linecap="round" stroke-linejoin="round"/>
<path d="M388.333 295.166L397.666 285.833" stroke="black" stroke-width="1.5" stroke-linecap="round" stroke-linejoin="round"/>
<line x1="76.5" y1="284" x2="76.5" y2="300" stroke="black"/>
</g>
</g>
<g filter="url(#filter7_d_493_14596)">
<path d="M15 423C15 418.582 18.5817 415 23 415H427C431.418 415 435 418.582 435 423V459C435 463.418 431.418 467 427 467H23C18.5817 467 15 463.418 15 459V423Z" fill="#EEE6D5" shape-rendering="crispEdges"/>
<g filter="url(#filter8_d_493_14596)">
<path d="M61 423C65.4183 423 69 426.582 69 431V450C69 454.418 65.4183 458 61 458H37C32.5817 458 29 454.418 29 450V431C29 426.582 32.5817 423 37 423H61Z" stroke="black"/>
<path d="M48.6668 446.5C52.1646 446.5 55.0002 443.664 55.0002 440.167C55.0002 436.669 52.1646 433.833 48.6668 433.833C45.169 433.833 42.3335 436.669 42.3335 440.167C42.3335 443.664 45.169 446.5 48.6668 446.5Z" stroke="black" stroke-width="1.5" stroke-linecap="round" stroke-linejoin="round"/>
<path d="M55.6668 447.167L54.3335 445.833" stroke="black" stroke-width="1.5" stroke-linecap="round" stroke-linejoin="round"/>
<path d="M78.392 447V435.544H82.584C84.792 435.544 86.152 436.664 86.152 438.504C86.152 439.848 85.56 440.76 84.376 441.224C85.704 441.656 86.376 442.584 86.376 443.992C86.376 445.832 85 447 82.824 447H78.392ZM82.568 436.568H79.544V440.76H82.712C84.152 440.76 84.968 439.96 84.968 438.6C84.968 437.32 84.104 436.568 82.568 436.568ZM82.824 441.768H79.544V445.96H82.824C84.328 445.96 85.208 445.176 85.208 443.848C85.208 442.552 84.312 441.768 82.824 441.768ZM93.5745 439.256H94.6785V447H93.7185L93.5745 445.688C93.1425 446.584 92.0705 447.192 90.8545 447.192C89.0305 447.192 88.0385 445.944 88.0385 444.056V439.24H89.1585V443.704C89.1585 445.544 89.9745 446.2 91.2065 446.2C92.6945 446.2 93.5745 445.208 93.5745 443.368V439.256ZM96.086 444.824H97.142C97.142 445.72 97.814 446.28 98.902 446.28C100.102 446.28 100.806 445.768 100.806 444.936C100.806 444.296 100.486 443.928 99.574 443.704L98.246 443.368C96.902 443.032 96.246 442.328 96.246 441.272C96.246 439.912 97.382 439.048 99.046 439.048C100.678 439.048 101.734 439.944 101.782 441.384H100.71C100.678 440.488 100.054 439.96 99.014 439.96C97.926 439.96 97.318 440.424 97.318 441.256C97.318 441.848 97.734 442.264 98.582 442.472L99.91 442.808C101.254 443.144 101.862 443.768 101.862 444.888C101.862 446.28 100.678 447.192 98.918 447.192C97.174 447.192 96.086 446.264 96.086 444.824ZM103.056 443.144C103.056 440.712 104.544 439.048 106.8 439.048C108.592 439.048 109.904 440.088 110.208 441.688H109.104C108.816 440.616 107.888 440.024 106.816 440.024C105.248 440.024 104.144 441.224 104.144 443.128C104.144 444.968 105.168 446.2 106.736 446.2C107.888 446.2 108.816 445.56 109.12 444.568H110.24C109.872 446.152 108.496 447.192 106.736 447.192C104.544 447.192 103.056 445.576 103.056 443.144ZM114.056 447.192C112.408 447.192 111.432 446.264 111.432 444.904C111.432 443.48 112.52 442.584 114.328 442.44L116.888 442.232V441.976C116.888 440.456 115.976 439.976 114.84 439.976C113.496 439.976 112.696 440.584 112.696 441.624H111.688C111.688 440.056 112.968 439.048 114.872 439.048C116.664 439.048 117.976 439.944 117.976 441.992V447H117.048L116.904 445.64C116.424 446.616 115.368 447.192 114.056 447.192ZM114.312 446.296C115.944 446.296 116.888 445.16 116.888 443.48V443.064L114.6 443.24C113.144 443.368 112.552 444.008 112.552 444.872C112.552 445.816 113.256 446.296 114.312 446.296ZM123.151 447.192C120.895 447.192 119.567 445.464 119.567 443.144C119.567 440.808 120.895 439.048 123.199 439.048C124.479 439.048 125.503 439.608 126.047 440.728V435.336H127.151V447H126.191L126.079 445.416C125.535 446.616 124.447 447.192 123.151 447.192ZM123.343 446.184C125.039 446.184 126.031 444.904 126.031 443.112C126.031 441.336 125.039 440.04 123.343 440.04C121.663 440.04 120.687 441.336 120.687 443.112C120.687 444.904 121.663 446.184 123.343 446.184ZM128.831 443.128C128.831 440.76 130.495 439.048 132.767 439.048C135.039 439.048 136.703 440.76 136.703 443.128C136.703 445.48 135.039 447.192 132.767 447.192C130.495 447.192 128.831 445.48 128.831 443.128ZM129.951 443.112C129.951 444.936 131.103 446.2 132.767 446.2C134.415 446.2 135.583 444.936 135.583 443.112C135.583 441.32 134.415 440.04 132.767 440.04C131.103 440.04 129.951 441.32 129.951 443.112ZM142.437 439.16V440.152H141.829C140.405 440.152 139.493 441.112 139.493 442.584V447H138.389V439.256H139.429L139.509 440.456C139.813 439.624 140.629 439.08 141.717 439.08C141.957 439.08 142.165 439.096 142.437 439.16Z" fill="#686464"/>
<path d="M405 423C409.418 423 413 426.582 413 431V450C413 454.418 409.418 458 405 458H381C376.582 458 373 454.418 373 450V431C373 426.582 376.582 423 381 423H405Z" stroke="black"/>
<path d="M388.334 435.833L397.667 445.166" stroke="black" stroke-width="1.5" stroke-linecap="round" stroke-linejoin="round"/>
<path d="M388.333 445.166L397.666 435.833" stroke="black" stroke-width="1.5" stroke-linecap="round" stroke-linejoin="round"/>
<line x1="76.5" y1="434" x2="76.5" y2="450" stroke="black"/>
</g>
</g>
<g clip-path="url(#clip1_493_14596)">
<g filter="url(#filter9_d_493_14596)">
<path d="M61 348C65.4183 348 69 351.582 69 356V375C69 379.418 65.4183 383 61 383H37C32.5817 383 29 379.418 29 375V356C29 351.582 32.5817 348 37 348H61Z" stroke="black"/>
<path d="M48.6668 371.5C52.1646 371.5 55.0002 368.664 55.0002 365.167C55.0002 361.669 52.1646 358.833 48.6668 358.833C45.169 358.833 42.3335 361.669 42.3335 365.167C42.3335 368.664 45.169 371.5 48.6668 371.5Z" stroke="black" stroke-width="1.5" stroke-linecap="round" stroke-linejoin="round"/>
<path d="M55.6668 372.167L54.3335 370.833" stroke="black" stroke-width="1.5" stroke-linecap="round" stroke-linejoin="round"/>
</g>
</g>
</g>
<rect x="0.5" y="0.5" width="459" height="519" rx="4.5" stroke="#8A38F5" stroke-dasharray="10 5"/>
<defs>
<filter id="filter0_d_493_14596" x="3.2" y="3.2" width="453.6" height="243.6" filterUnits="userSpaceOnUse" color-interpolation-filters="sRGB">
<feFlood flood-opacity="0" result="BackgroundImageFix"/>
<feColorMatrix in="SourceAlpha" type="matrix" values="0 0 0 0 0 0 0 0 0 0 0 0 0 0 0 0 0 0 127 0" result="hardAlpha"/>
<feMorphology radius="8" operator="dilate" in="SourceAlpha" result="effect1_dropShadow_493_14596"/>
<feOffset/>
<feGaussianBlur stdDeviation="4.4"/>
<feComposite in2="hardAlpha" operator="out"/>
<feColorMatrix type="matrix" values="0 0 0 0 0.101961 0 0 0 0 0.45098 0 0 0 0 0.756863 0 0 0 0.5 0"/>
<feBlend mode="normal" in2="BackgroundImageFix" result="effect1_dropShadow_493_14596"/>
<feBlend mode="normal" in="SourceGraphic" in2="effect1_dropShadow_493_14596" result="shape"/>
</filter>
<filter id="filter1_d_493_14596" x="28" y="23" width="404" height="47" filterUnits="userSpaceOnUse" color-interpolation-filters="sRGB">
<feFlood flood-opacity="0" result="BackgroundImageFix"/>
<feColorMatrix in="SourceAlpha" type="matrix" values="0 0 0 0 0 0 0 0 0 0 0 0 0 0 0 0 0 0 127 0" result="hardAlpha"/>
<feOffset dy="1"/>
<feGaussianBlur stdDeviation="1"/>
<feColorMatrix type="matrix" values="0 0 0 0 0.0627451 0 0 0 0 0.0941176 0 0 0 0 0.156863 0 0 0 0.05 0"/>
<feBlend mode="normal" in2="BackgroundImageFix" result="effect1_dropShadow_493_14596"/>
<feBlend mode="normal" in="SourceGraphic" in2="effect1_dropShadow_493_14596" result="shape"/>
</filter>
<filter id="filter2_d_493_14596" x="28" y="76" width="375" height="47" filterUnits="userSpaceOnUse" color-interpolation-filters="sRGB">
<feFlood flood-opacity="0" result="BackgroundImageFix"/>
<feColorMatrix in="SourceAlpha" type="matrix" values="0 0 0 0 0 0 0 0 0 0 0 0 0 0 0 0 0 0 127 0" result="hardAlpha"/>
<feOffset dy="1"/>
<feGaussianBlur stdDeviation="1"/>
<feColorMatrix type="matrix" values="0 0 0 0 0.0627451 0 0 0 0 0.0941176 0 0 0 0 0.156863 0 0 0 0.05 0"/>
<feBlend mode="normal" in2="BackgroundImageFix" result="effect1_dropShadow_493_14596"/>
<feBlend mode="normal" in="SourceGraphic" in2="effect1_dropShadow_493_14596" result="shape"/>
</filter>
<filter id="filter3_d_493_14596" x="28" y="129" width="375" height="47" filterUnits="userSpaceOnUse" color-interpolation-filters="sRGB">
<feFlood flood-opacity="0" result="BackgroundImageFix"/>
<feColorMatrix in="SourceAlpha" type="matrix" values="0 0 0 0 0 0 0 0 0 0 0 0 0 0 0 0 0 0 127 0" result="hardAlpha"/>
<feOffset dy="1"/>
<feGaussianBlur stdDeviation="1"/>
<feColorMatrix type="matrix" values="0 0 0 0 0.0627451 0 0 0 0 0.0941176 0 0 0 0 0.156863 0 0 0 0.05 0"/>
<feBlend mode="normal" in2="BackgroundImageFix" result="effect1_dropShadow_493_14596"/>
<feBlend mode="normal" in="SourceGraphic" in2="effect1_dropShadow_493_14596" result="shape"/>
</filter>
<filter id="filter4_d_493_14596" x="28" y="182" width="375" height="47" filterUnits="userSpaceOnUse" color-interpolation-filters="sRGB">
<feFlood flood-opacity="0" result="BackgroundImageFix"/>
<feColorMatrix in="SourceAlpha" type="matrix" values="0 0 0 0 0 0 0 0 0 0 0 0 0 0 0 0 0 0 127 0" result="hardAlpha"/>
<feOffset dy="1"/>
<feGaussianBlur stdDeviation="1"/>
<feColorMatrix type="matrix" values="0 0 0 0 0.0627451 0 0 0 0 0.0941176 0 0 0 0 0.156863 0 0 0 0.05 0"/>
<feBlend mode="normal" in2="BackgroundImageFix" result="effect1_dropShadow_493_14596"/>
<feBlend mode="normal" in="SourceGraphic" in2="effect1_dropShadow_493_14596" result="shape"/>
</filter>
<filter id="filter5_d_493_14596" x="-1.8" y="248.2" width="453.6" height="85.6" filterUnits="userSpaceOnUse" color-interpolation-filters="sRGB">
<feFlood flood-opacity="0" result="BackgroundImageFix"/>
<feColorMatrix in="SourceAlpha" type="matrix" values="0 0 0 0 0 0 0 0 0 0 0 0 0 0 0 0 0 0 127 0" result="hardAlpha"/>
<feMorphology radius="8" operator="dilate" in="SourceAlpha" result="effect1_dropShadow_493_14596"/>
<feOffset/>
<feGaussianBlur stdDeviation="4.4"/>
<feComposite in2="hardAlpha" operator="out"/>
<feColorMatrix type="matrix" values="0 0 0 0 0.101961 0 0 0 0 0.45098 0 0 0 0 0.756863 0 0 0 0.5 0"/>
<feBlend mode="normal" in2="BackgroundImageFix" result="effect1_dropShadow_493_14596"/>
<feBlend mode="normal" in="SourceGraphic" in2="effect1_dropShadow_493_14596" result="shape"/>
</filter>
<filter id="filter6_d_493_14596" x="23" y="268" width="404" height="47" filterUnits="userSpaceOnUse" color-interpolation-filters="sRGB">
<feFlood flood-opacity="0" result="BackgroundImageFix"/>
<feColorMatrix in="SourceAlpha" type="matrix" values="0 0 0 0 0 0 0 0 0 0 0 0 0 0 0 0 0 0 127 0" result="hardAlpha"/>
<feOffset dy="1"/>
<feGaussianBlur stdDeviation="1"/>
<feColorMatrix type="matrix" values="0 0 0 0 0.0627451 0 0 0 0 0.0941176 0 0 0 0 0.156863 0 0 0 0.05 0"/>
<feBlend mode="normal" in2="BackgroundImageFix" result="effect1_dropShadow_493_14596"/>
<feBlend mode="normal" in="SourceGraphic" in2="effect1_dropShadow_493_14596" result="shape"/>
</filter>
<filter id="filter7_d_493_14596" x="-1.8" y="398.2" width="453.6" height="85.6" filterUnits="userSpaceOnUse" color-interpolation-filters="sRGB">
<feFlood flood-opacity="0" result="BackgroundImageFix"/>
<feColorMatrix in="SourceAlpha" type="matrix" values="0 0 0 0 0 0 0 0 0 0 0 0 0 0 0 0 0 0 127 0" result="hardAlpha"/>
<feMorphology radius="8" operator="dilate" in="SourceAlpha" result="effect1_dropShadow_493_14596"/>
<feOffset/>
<feGaussianBlur stdDeviation="4.4"/>
<feComposite in2="hardAlpha" operator="out"/>
<feColorMatrix type="matrix" values="0 0 0 0 0.101961 0 0 0 0 0.45098 0 0 0 0 0.756863 0 0 0 0.5 0"/>
<feBlend mode="normal" in2="BackgroundImageFix" result="effect1_dropShadow_493_14596"/>
<feBlend mode="normal" in="SourceGraphic" in2="effect1_dropShadow_493_14596" result="shape"/>
</filter>
<filter id="filter8_d_493_14596" x="23" y="418" width="404" height="47" filterUnits="userSpaceOnUse" color-interpolation-filters="sRGB">
<feFlood flood-opacity="0" result="BackgroundImageFix"/>
<feColorMatrix in="SourceAlpha" type="matrix" values="0 0 0 0 0 0 0 0 0 0 0 0 0 0 0 0 0 0 127 0" result="hardAlpha"/>
<feOffset dy="1"/>
<feGaussianBlur stdDeviation="1"/>
<feColorMatrix type="matrix" values="0 0 0 0 0.0627451 0 0 0 0 0.0941176 0 0 0 0 0.156863 0 0 0 0.05 0"/>
<feBlend mode="normal" in2="BackgroundImageFix" result="effect1_dropShadow_493_14596"/>
<feBlend mode="normal" in="SourceGraphic" in2="effect1_dropShadow_493_14596" result="shape"/>
</filter>
<filter id="filter9_d_493_14596" x="23" y="343" width="404" height="47" filterUnits="userSpaceOnUse" color-interpolation-filters="sRGB">
<feFlood flood-opacity="0" result="BackgroundImageFix"/>
<feColorMatrix in="SourceAlpha" type="matrix" values="0 0 0 0 0 0 0 0 0 0 0 0 0 0 0 0 0 0 127 0" result="hardAlpha"/>
<feOffset dy="1"/>
<feGaussianBlur stdDeviation="1"/>
<feColorMatrix type="matrix" values="0 0 0 0 0.0627451 0 0 0 0 0.0941176 0 0 0 0 0.156863 0 0 0 0.05 0"/>
<feBlend mode="normal" in2="BackgroundImageFix" result="effect1_dropShadow_493_14596"/>
<feBlend mode="normal" in="SourceGraphic" in2="effect1_dropShadow_493_14596" result="shape"/>
</filter>
<clipPath id="clip0_493_14596">
<rect width="460" height="520" rx="5" fill="white"/>
</clipPath>
<clipPath id="clip1_493_14596">
<rect width="54" height="43" fill="white" transform="translate(15 344)"/>
</clipPath>
</defs>
</svg>
