<svg width="998" height="517" viewBox="0 0 998 517" fill="none" xmlns="http://www.w3.org/2000/svg">
<path d="M2.688 35V11.864H11.52C16.032 11.864 18.784 14.168 18.784 17.976C18.784 20.632 17.632 22.424 15.328 23.384C17.888 24.216 19.2 26.072 19.2 28.824C19.2 32.664 16.416 35 11.84 35H2.688ZM11.328 14.648H5.824V22.072H11.52C14.112 22.072 15.584 20.664 15.584 18.264C15.584 15.96 14.048 14.648 11.328 14.648ZM11.776 24.792H5.824V32.216H11.776C14.464 32.216 15.968 30.84 15.968 28.44C15.968 26.136 14.432 24.792 11.776 24.792ZM21.4295 27.16C21.4295 22.328 24.8855 18.936 29.5895 18.936C34.2615 18.936 37.7175 22.328 37.7175 27.16C37.7175 31.992 34.2615 35.384 29.5895 35.384C24.8855 35.384 21.4295 31.992 21.4295 27.16ZM24.4695 27.16C24.4695 30.424 26.5495 32.696 29.5895 32.696C32.5975 32.696 34.7095 30.424 34.7095 27.16C34.7095 23.896 32.5975 21.624 29.5895 21.624C26.5495 21.624 24.4695 23.896 24.4695 27.16ZM45.147 35H42.139V21.88H39.067V19.352H42.139V14.456H45.147V19.352H48.219V21.88H45.147V35ZM49.5783 27.16C49.5783 22.328 53.0343 18.936 57.7383 18.936C62.4103 18.936 65.8663 22.328 65.8663 27.16C65.8663 31.992 62.4103 35.384 57.7383 35.384C53.0343 35.384 49.5783 31.992 49.5783 27.16ZM52.6183 27.16C52.6183 30.424 54.6983 32.696 57.7383 32.696C60.7463 32.696 62.8583 30.424 62.8583 27.16C62.8583 23.896 60.7463 21.624 57.7383 21.624C54.6983 21.624 52.6183 23.896 52.6183 27.16ZM72.044 35H69.036V19.352H71.756L72.076 21.752C73.068 19.96 75.052 18.904 77.26 18.904C81.388 18.904 83.276 21.432 83.276 25.432V35H80.268V26.104C80.268 22.936 78.796 21.656 76.492 21.656C73.676 21.656 72.044 23.672 72.044 26.712V35ZM94.0342 35.384C89.4262 35.384 86.2582 32.056 86.2582 27.192C86.2582 22.296 89.3622 18.904 93.9062 18.904C98.3542 18.904 101.266 21.976 101.266 26.616V27.736L89.1702 27.768C89.3942 31.064 91.1222 32.888 94.0982 32.888C96.4342 32.888 97.9702 31.928 98.4822 30.136H101.298C100.53 33.496 97.9062 35.384 94.0342 35.384ZM93.9062 21.432C91.2822 21.432 89.6182 23 89.2342 25.752H98.2582C98.2582 23.16 96.5622 21.432 93.9062 21.432ZM103.186 30.456H106.066C106.066 32.056 107.282 33.016 109.266 33.016C111.378 33.016 112.594 32.152 112.594 30.712C112.594 29.656 112.082 29.016 110.45 28.6L107.698 27.96C104.914 27.288 103.602 25.912 103.602 23.608C103.602 20.728 106.034 18.904 109.49 18.904C112.914 18.904 115.154 20.824 115.218 23.8H112.338C112.274 22.232 111.218 21.24 109.394 21.24C107.506 21.24 106.45 22.072 106.45 23.512C106.45 24.568 107.218 25.272 108.754 25.656L111.506 26.328C114.162 26.968 115.474 28.184 115.474 30.52C115.474 33.496 112.914 35.384 109.202 35.384C105.522 35.384 103.186 33.432 103.186 30.456ZM121.21 23.384C119.962 23.384 118.906 22.36 118.906 21.176C118.906 19.928 119.962 18.904 121.21 18.904C122.426 18.904 123.482 19.928 123.482 21.176C123.482 22.36 122.426 23.384 121.21 23.384ZM121.21 35.384C119.962 35.384 118.906 34.36 118.906 33.144C118.906 31.896 119.962 30.872 121.21 30.872C122.426 30.872 123.482 31.896 123.482 33.144C123.482 34.36 122.426 35.384 121.21 35.384ZM135.268 30.456H138.148C138.148 32.056 139.364 33.016 141.348 33.016C143.46 33.016 144.676 32.152 144.676 30.712C144.676 29.656 144.164 29.016 142.532 28.6L139.78 27.96C136.996 27.288 135.684 25.912 135.684 23.608C135.684 20.728 138.116 18.904 141.572 18.904C144.996 18.904 147.236 20.824 147.3 23.8H144.42C144.356 22.232 143.3 21.24 141.476 21.24C139.588 21.24 138.532 22.072 138.532 23.512C138.532 24.568 139.3 25.272 140.836 25.656L143.588 26.328C146.244 26.968 147.556 28.184 147.556 30.52C147.556 33.496 144.996 35.384 141.284 35.384C137.604 35.384 135.268 33.432 135.268 30.456ZM149.708 27.16C149.708 22.328 153.164 18.936 157.868 18.936C162.54 18.936 165.996 22.328 165.996 27.16C165.996 31.992 162.54 35.384 157.868 35.384C153.164 35.384 149.708 31.992 149.708 27.16ZM152.748 27.16C152.748 30.424 154.828 32.696 157.868 32.696C160.876 32.696 162.988 30.424 162.988 27.16C162.988 23.896 160.876 21.624 157.868 21.624C154.828 21.624 152.748 23.896 152.748 27.16ZM172.174 35H169.166V19.352H171.854L172.142 21.4C172.942 19.928 174.606 18.904 176.814 18.904C179.246 18.904 180.974 20.12 181.774 22.072C182.51 20.12 184.398 18.904 186.83 18.904C190.414 18.904 192.59 21.144 192.59 24.76V35H189.646V25.496C189.646 23.032 188.27 21.624 186.158 21.624C183.886 21.624 182.382 23.224 182.382 25.72V35H179.406V25.464C179.406 23 178.062 21.656 175.95 21.656C173.678 21.656 172.174 23.224 172.174 25.72V35ZM199.32 35H196.6V11.448H199.608V22.04C200.632 19.992 202.744 18.904 205.304 18.904C209.784 18.904 212.472 22.424 212.472 27.256C212.472 31.992 209.656 35.384 205.112 35.384C202.648 35.384 200.568 34.296 199.544 32.152L199.32 35ZM199.64 27.128C199.64 30.392 201.496 32.664 204.568 32.664C207.64 32.664 209.464 30.36 209.464 27.128C209.464 23.928 207.64 21.624 204.568 21.624C201.496 21.624 199.64 23.928 199.64 27.128ZM224.587 19.224V21.976H223.243C220.395 21.976 218.635 23.704 218.635 26.712V35H215.627V19.384H218.443L218.635 21.752C219.275 20.12 220.843 19.032 222.987 19.032C223.531 19.032 223.979 19.096 224.587 19.224ZM231.199 35.384C227.839 35.384 225.855 33.496 225.855 30.648C225.855 27.768 227.999 25.976 231.679 25.688L236.607 25.304V24.856C236.607 22.232 235.039 21.304 232.927 21.304C230.399 21.304 228.959 22.424 228.959 24.312H226.335C226.335 21.048 229.023 18.904 233.055 18.904C236.927 18.904 239.551 20.952 239.551 25.176V35H236.991L236.671 32.472C235.871 34.264 233.727 35.384 231.199 35.384ZM232.063 33.048C234.911 33.048 236.639 31.192 236.639 28.248V27.416L232.639 27.736C229.983 27.992 228.895 29.016 228.895 30.552C228.895 32.216 230.111 33.048 232.063 33.048ZM252.147 42.008V19.352H254.867L255.091 22.168C256.147 20.024 258.259 18.904 260.755 18.904C265.235 18.904 268.019 22.264 268.019 27.064C268.019 31.832 265.395 35.416 260.755 35.416C258.259 35.416 256.179 34.36 255.155 32.44V42.008H252.147ZM255.187 27.192C255.187 30.392 257.043 32.696 260.115 32.696C263.187 32.696 265.011 30.392 265.011 27.192C265.011 23.96 263.187 21.656 260.115 21.656C257.043 21.656 255.187 23.928 255.187 27.192ZM275.751 35.384C272.391 35.384 270.407 33.496 270.407 30.648C270.407 27.768 272.551 25.976 276.231 25.688L281.159 25.304V24.856C281.159 22.232 279.591 21.304 277.479 21.304C274.951 21.304 273.511 22.424 273.511 24.312H270.887C270.887 21.048 273.575 18.904 277.607 18.904C281.479 18.904 284.103 20.952 284.103 25.176V35H281.543L281.223 32.472C280.423 34.264 278.279 35.384 275.751 35.384ZM276.615 33.048C279.463 33.048 281.191 31.192 281.191 28.248V27.416L277.191 27.736C274.535 27.992 273.447 29.016 273.447 30.552C273.447 32.216 274.663 33.048 276.615 33.048ZM297.068 19.224V21.976H295.724C292.876 21.976 291.116 23.704 291.116 26.712V35H288.108V19.384H290.924L291.116 21.752C291.756 20.12 293.324 19.032 295.468 19.032C296.012 19.032 296.46 19.096 297.068 19.224ZM303.681 35.384C300.321 35.384 298.337 33.496 298.337 30.648C298.337 27.768 300.481 25.976 304.161 25.688L309.089 25.304V24.856C309.089 22.232 307.521 21.304 305.409 21.304C302.881 21.304 301.441 22.424 301.441 24.312H298.817C298.817 21.048 301.505 18.904 305.537 18.904C309.409 18.904 312.033 20.952 312.033 25.176V35H309.473L309.153 32.472C308.353 34.264 306.209 35.384 303.681 35.384ZM304.545 33.048C307.393 33.048 309.121 31.192 309.121 28.248V27.416L305.121 27.736C302.465 27.992 301.377 29.016 301.377 30.552C301.377 32.216 302.593 33.048 304.545 33.048ZM319.11 35H316.102V11.448H319.11V35ZM330.131 35.384C325.523 35.384 322.355 32.056 322.355 27.192C322.355 22.296 325.459 18.904 330.003 18.904C334.451 18.904 337.363 21.976 337.363 26.616V27.736L325.267 27.768C325.491 31.064 327.219 32.888 330.195 32.888C332.531 32.888 334.067 31.928 334.579 30.136H337.395C336.627 33.496 334.003 35.384 330.131 35.384ZM330.003 21.432C327.379 21.432 325.715 23 325.331 25.752H334.355C334.355 23.16 332.659 21.432 330.003 21.432ZM343.634 35H340.626V11.448H343.634V35ZM352.478 35.384C349.118 35.384 347.134 33.496 347.134 30.648C347.134 27.768 349.278 25.976 352.958 25.688L357.886 25.304V24.856C357.886 22.232 356.318 21.304 354.206 21.304C351.678 21.304 350.238 22.424 350.238 24.312H347.614C347.614 21.048 350.302 18.904 354.334 18.904C358.206 18.904 360.83 20.952 360.83 25.176V35H358.27L357.95 32.472C357.15 34.264 355.006 35.384 352.478 35.384ZM353.342 33.048C356.19 33.048 357.918 31.192 357.918 28.248V27.416L353.918 27.736C351.262 27.992 350.174 29.016 350.174 30.552C350.174 32.216 351.39 33.048 353.342 33.048ZM52.5142 53.222C51.4642 53.222 50.5822 52.354 50.5822 51.318C50.5822 50.282 51.4502 49.4 52.5142 49.4C53.5502 49.4 54.4182 50.282 54.4182 51.318C54.4182 52.34 53.5502 53.222 52.5142 53.222ZM64.274 55H63.14L65.562 51.612L63.154 48.224H64.288L66.206 50.94L68.11 48.224H69.23L66.822 51.626L69.216 55H68.068L66.164 52.284L64.274 55ZM71.2751 49.792C70.7991 49.792 70.3931 49.386 70.3931 48.924C70.3931 48.448 70.7991 48.056 71.2751 48.056C71.7511 48.056 72.1571 48.448 72.1571 48.924C72.1571 49.386 71.7511 49.792 71.2751 49.792ZM71.2751 55.154C70.7991 55.154 70.3931 54.762 70.3931 54.3C70.3931 53.824 70.7991 53.418 71.2751 53.418C71.7511 53.418 72.1571 53.824 72.1571 54.3C72.1571 54.762 71.7511 55.154 71.2751 55.154ZM81.0551 55.168C79.0391 55.168 77.7511 53.908 77.7511 51.934H78.7591C78.7591 53.376 79.6411 54.244 81.0691 54.244C82.5811 54.244 83.5611 53.236 83.5611 51.752C83.5611 50.352 82.6511 49.246 81.0691 49.246C80.1451 49.246 79.3051 49.666 78.7591 50.268L77.9611 50.016L79.1651 44.976H84.0091V45.9H79.8931L79.1371 49.05C79.6971 48.602 80.4251 48.35 81.2091 48.35C83.2951 48.35 84.5831 49.848 84.5831 51.724C84.5831 53.74 83.1551 55.168 81.0551 55.168ZM52.5142 73.222C51.4642 73.222 50.5822 72.354 50.5822 71.318C50.5822 70.282 51.4502 69.4 52.5142 69.4C53.5502 69.4 54.4182 70.282 54.4182 71.318C54.4182 72.34 53.5502 73.222 52.5142 73.222ZM63.322 77.954V77.156H64.064C64.652 77.156 65.24 77.114 65.576 76.204L65.87 75.406L63.126 68.224H64.148L66.332 74.132L68.474 68.224H69.468L66.36 76.554C65.968 77.618 65.31 78.052 64.344 78.052C63.938 78.052 63.63 78.024 63.322 77.954ZM71.4938 69.792C71.0178 69.792 70.6118 69.386 70.6118 68.924C70.6118 68.448 71.0178 68.056 71.4938 68.056C71.9698 68.056 72.3758 68.448 72.3758 68.924C72.3758 69.386 71.9698 69.792 71.4938 69.792ZM71.4938 75.154C71.0178 75.154 70.6118 74.762 70.6118 74.3C70.6118 73.824 71.0178 73.418 71.4938 73.418C71.9698 73.418 72.3758 73.824 72.3758 74.3C72.3758 74.762 71.9698 75.154 71.4938 75.154ZM85.1938 72.872H84.0178V75H83.0378V72.872H77.7738V71.976L82.6738 64.976H84.0178V71.976H85.1938V72.872ZM78.8658 71.976H83.0378V66.012L78.8658 71.976ZM52.5142 93.222C51.4642 93.222 50.5822 92.354 50.5822 91.318C50.5822 90.282 51.4502 89.4 52.5142 89.4C53.5502 89.4 54.4182 90.282 54.4182 91.318C54.4182 92.34 53.5502 93.222 52.5142 93.222ZM67.27 95H64.218V84.976H67.242C70.266 84.976 72.282 86.992 72.282 89.988C72.282 92.984 70.28 95 67.27 95ZM67.2 85.9H65.226V94.076H67.228C69.678 94.076 71.246 92.48 71.246 89.988C71.246 87.482 69.678 85.9 67.2 85.9ZM76.6648 95.168C74.6768 95.168 73.3468 93.74 73.3468 91.612C73.3468 89.498 74.6628 88.042 76.5948 88.042C78.4288 88.042 79.6748 89.344 79.6748 91.262V91.738H74.2848C74.3548 93.39 75.2228 94.342 76.6788 94.342C77.7848 94.342 78.4988 93.866 78.7508 92.97H79.6748C79.3108 94.398 78.2608 95.168 76.6648 95.168ZM76.5948 88.868C75.3208 88.868 74.4808 89.708 74.3128 91.038H78.7088C78.7088 89.736 77.8688 88.868 76.5948 88.868ZM80.5753 93.096H81.4993C81.4993 93.88 82.0873 94.37 83.0393 94.37C84.0893 94.37 84.7053 93.922 84.7053 93.194C84.7053 92.634 84.4253 92.312 83.6273 92.116L82.4653 91.822C81.2893 91.528 80.7153 90.912 80.7153 89.988C80.7153 88.798 81.7093 88.042 83.1653 88.042C84.5933 88.042 85.5173 88.826 85.5593 90.086H84.6213C84.5933 89.302 84.0473 88.84 83.1373 88.84C82.1853 88.84 81.6533 89.246 81.6533 89.974C81.6533 90.492 82.0173 90.856 82.7593 91.038L83.9213 91.332C85.0973 91.626 85.6293 92.172 85.6293 93.152C85.6293 94.37 84.5933 95.168 83.0533 95.168C81.5273 95.168 80.5753 94.356 80.5753 93.096ZM89.9916 95.168C88.0036 95.168 86.6736 93.74 86.6736 91.612C86.6736 89.498 87.9896 88.042 89.9216 88.042C91.7556 88.042 93.0016 89.344 93.0016 91.262V91.738H87.6116C87.6816 93.39 88.5496 94.342 90.0056 94.342C91.1116 94.342 91.8256 93.866 92.0776 92.97H93.0016C92.6376 94.398 91.5876 95.168 89.9916 95.168ZM89.9216 88.868C88.6476 88.868 87.8076 89.708 87.6396 91.038H92.0356C92.0356 89.736 91.1956 88.868 89.9216 88.868ZM95.442 95H94.476V88.224H95.316L95.456 89.4C95.904 88.532 96.8 88.042 97.78 88.042C99.642 88.042 100.412 89.148 100.412 90.856V95H99.446V91.066C99.446 89.484 98.732 88.924 97.612 88.924C96.226 88.924 95.442 89.932 95.442 91.458V95ZM101.511 88.224H102.547V86.908C102.547 85.382 103.387 84.794 104.423 84.794C104.661 84.794 104.941 84.808 105.165 84.85V85.676H104.591C103.737 85.676 103.513 86.11 103.513 86.908V88.224H105.109V89.036H103.513V95H102.547V89.036H101.511V88.224ZM105.673 91.612C105.673 89.54 107.129 88.042 109.117 88.042C111.105 88.042 112.561 89.54 112.561 91.612C112.561 93.67 111.105 95.168 109.117 95.168C107.129 95.168 105.673 93.67 105.673 91.612ZM106.653 91.598C106.653 93.194 107.661 94.3 109.117 94.3C110.559 94.3 111.581 93.194 111.581 91.598C111.581 90.03 110.559 88.91 109.117 88.91C107.661 88.91 106.653 90.03 106.653 91.598ZM113.56 91.584C113.56 89.54 114.736 88.042 116.696 88.042C117.83 88.042 118.768 88.546 119.258 89.596L119.356 88.224H120.196V97.954H119.23V93.698C118.754 94.678 117.844 95.168 116.696 95.168C114.694 95.168 113.56 93.628 113.56 91.584ZM114.54 91.612C114.54 93.166 115.394 94.3 116.864 94.3C118.348 94.3 119.216 93.166 119.216 91.612C119.216 90.044 118.348 88.924 116.864 88.924C115.394 88.924 114.54 90.044 114.54 91.612ZM126.901 88.224H127.867V95H127.027L126.901 93.852C126.523 94.636 125.585 95.168 124.521 95.168C122.925 95.168 122.057 94.076 122.057 92.424V88.21H123.037V92.116C123.037 93.726 123.751 94.3 124.829 94.3C126.131 94.3 126.901 93.432 126.901 91.822V88.224ZM132.515 95.168C130.527 95.168 129.197 93.74 129.197 91.612C129.197 89.498 130.513 88.042 132.445 88.042C134.279 88.042 135.525 89.344 135.525 91.262V91.738H130.135C130.205 93.39 131.073 94.342 132.529 94.342C133.635 94.342 134.349 93.866 134.601 92.97H135.525C135.161 94.398 134.111 95.168 132.515 95.168ZM132.445 88.868C131.171 88.868 130.331 89.708 130.163 91.038H134.559C134.559 89.736 133.719 88.868 132.445 88.868ZM137.965 89.792C137.489 89.792 137.083 89.386 137.083 88.924C137.083 88.448 137.489 88.056 137.965 88.056C138.441 88.056 138.847 88.448 138.847 88.924C138.847 89.386 138.441 89.792 137.965 89.792ZM137.965 95.154C137.489 95.154 137.083 94.762 137.083 94.3C137.083 93.824 137.489 93.418 137.965 93.418C138.441 93.418 138.847 93.824 138.847 94.3C138.847 94.762 138.441 95.154 137.965 95.154ZM151.665 92.872H150.489V95H149.509V92.872H144.245V91.976L149.145 84.976H150.489V91.976H151.665V92.872ZM145.337 91.976H149.509V86.012L145.337 91.976ZM52.5142 113.222C51.4642 113.222 50.5822 112.354 50.5822 111.318C50.5822 110.282 51.4502 109.4 52.5142 109.4C53.5502 109.4 54.4182 110.282 54.4182 111.318C54.4182 112.34 53.5502 113.222 52.5142 113.222ZM68.04 111.318H65.226V115H64.218V104.976H68.04C69.972 104.976 71.19 106.236 71.19 108.126C71.19 109.946 69.958 111.318 68.04 111.318ZM67.9 105.886H65.226V110.408H67.844C69.3 110.408 70.14 109.484 70.14 108.112C70.14 106.726 69.286 105.886 67.9 105.886ZM76.0796 108.14V109.008H75.5476C74.3016 109.008 73.5036 109.848 73.5036 111.136V115H72.5376V108.224H73.4476L73.5176 109.274C73.7836 108.546 74.4976 108.07 75.4496 108.07C75.6596 108.07 75.8416 108.084 76.0796 108.14ZM76.558 111.612C76.558 109.54 78.014 108.042 80.002 108.042C81.99 108.042 83.446 109.54 83.446 111.612C83.446 113.67 81.99 115.168 80.002 115.168C78.014 115.168 76.558 113.67 76.558 111.612ZM77.538 111.598C77.538 113.194 78.546 114.3 80.002 114.3C81.444 114.3 82.466 113.194 82.466 111.598C82.466 110.03 81.444 108.91 80.002 108.91C78.546 108.91 77.538 110.03 77.538 111.598ZM84.921 117.954V108.224H85.761L85.859 109.596C86.335 108.546 87.287 108.042 88.421 108.042C90.381 108.042 91.557 109.54 91.557 111.584C91.557 113.628 90.423 115.168 88.421 115.168C87.273 115.168 86.363 114.678 85.887 113.698V117.954H84.921ZM85.901 111.612C85.901 113.166 86.769 114.3 88.253 114.3C89.723 114.3 90.577 113.166 90.577 111.612C90.577 110.044 89.723 108.924 88.253 108.924C86.769 108.924 85.901 110.044 85.901 111.612ZM94.9728 115.168C93.5308 115.168 92.6768 114.356 92.6768 113.166C92.6768 111.92 93.6288 111.136 95.2108 111.01L97.4508 110.828V110.604C97.4508 109.274 96.6528 108.854 95.6588 108.854C94.4828 108.854 93.7828 109.386 93.7828 110.296H92.9008C92.9008 108.924 94.0208 108.042 95.6868 108.042C97.2548 108.042 98.4028 108.826 98.4028 110.618V115H97.5908L97.4648 113.81C97.0448 114.664 96.1208 115.168 94.9728 115.168ZM95.1968 114.384C96.6248 114.384 97.4508 113.39 97.4508 111.92V111.556L95.4488 111.71C94.1748 111.822 93.6568 112.382 93.6568 113.138C93.6568 113.964 94.2728 114.384 95.1968 114.384ZM99.8093 111.416C99.8093 109.568 100.999 108.042 102.987 108.042C104.163 108.042 105.059 108.588 105.493 109.582L105.591 108.224H106.431V114.79C106.431 116.806 105.143 118.122 103.155 118.122C101.419 118.122 100.201 117.142 99.9353 115.504H100.901C101.111 116.596 101.951 117.24 103.169 117.24C104.555 117.24 105.479 116.302 105.479 114.888V113.278C105.017 114.23 104.079 114.79 102.917 114.79C100.985 114.79 99.8093 113.264 99.8093 111.416ZM100.775 111.402C100.775 112.788 101.629 113.922 103.057 113.922C104.527 113.922 105.395 112.858 105.395 111.402C105.395 109.96 104.555 108.896 103.071 108.896C101.615 108.896 100.775 110.03 100.775 111.402ZM110.323 115.168C108.881 115.168 108.027 114.356 108.027 113.166C108.027 111.92 108.979 111.136 110.561 111.01L112.801 110.828V110.604C112.801 109.274 112.003 108.854 111.009 108.854C109.833 108.854 109.133 109.386 109.133 110.296H108.251C108.251 108.924 109.371 108.042 111.037 108.042C112.605 108.042 113.753 108.826 113.753 110.618V115H112.941L112.815 113.81C112.395 114.664 111.471 115.168 110.323 115.168ZM110.547 114.384C111.975 114.384 112.801 113.39 112.801 111.92V111.556L110.799 111.71C109.525 111.822 109.007 112.382 109.007 113.138C109.007 113.964 109.623 114.384 110.547 114.384ZM115.146 111.626C115.146 109.498 116.448 108.042 118.422 108.042C119.99 108.042 121.138 108.952 121.404 110.352H120.438C120.186 109.414 119.374 108.896 118.436 108.896C117.064 108.896 116.098 109.946 116.098 111.612C116.098 113.222 116.994 114.3 118.366 114.3C119.374 114.3 120.186 113.74 120.452 112.872H121.432C121.11 114.258 119.906 115.168 118.366 115.168C116.448 115.168 115.146 113.754 115.146 111.626ZM123.301 106.362C122.909 106.362 122.587 106.04 122.587 105.648C122.587 105.256 122.909 104.92 123.301 104.92C123.693 104.92 124.029 105.256 124.029 105.648C124.029 106.04 123.693 106.362 123.301 106.362ZM122.825 115V108.224H123.791V115H122.825ZM130.201 105.774L129.137 107.44H128.339L129.179 105.774H130.201ZM125.259 111.612C125.259 109.54 126.715 108.042 128.703 108.042C130.691 108.042 132.147 109.54 132.147 111.612C132.147 113.67 130.691 115.168 128.703 115.168C126.715 115.168 125.259 113.67 125.259 111.612ZM126.239 111.598C126.239 113.194 127.247 114.3 128.703 114.3C130.145 114.3 131.167 113.194 131.167 111.598C131.167 110.03 130.145 108.91 128.703 108.91C127.247 108.91 126.239 110.03 126.239 111.598ZM134.588 115H133.622V108.224H134.462L134.602 109.4C135.05 108.532 135.946 108.042 136.926 108.042C138.788 108.042 139.558 109.148 139.558 110.856V115H138.592V111.066C138.592 109.484 137.878 108.924 136.758 108.924C135.372 108.924 134.588 109.932 134.588 111.458V115ZM142.38 109.792C141.904 109.792 141.498 109.386 141.498 108.924C141.498 108.448 141.904 108.056 142.38 108.056C142.856 108.056 143.262 108.448 143.262 108.924C143.262 109.386 142.856 109.792 142.38 109.792ZM142.38 115.154C141.904 115.154 141.498 114.762 141.498 114.3C141.498 113.824 141.904 113.418 142.38 113.418C142.856 113.418 143.262 113.824 143.262 114.3C143.262 114.762 142.856 115.154 142.38 115.154ZM148.87 109.988C148.87 106.88 150.396 104.78 152.888 104.78C155.366 104.78 156.892 106.88 156.892 109.988C156.892 113.11 155.394 115.182 152.888 115.182C150.368 115.182 148.87 113.11 148.87 109.988ZM149.864 109.988C149.864 112.592 150.97 114.272 152.888 114.272C154.806 114.272 155.912 112.592 155.912 109.988C155.912 107.37 154.806 105.704 152.888 105.704C150.97 105.704 149.864 107.37 149.864 109.988ZM52.5142 133.222C51.4642 133.222 50.5822 132.354 50.5822 131.318C50.5822 130.282 51.4502 129.4 52.5142 129.4C53.5502 129.4 54.4182 130.282 54.4182 131.318C54.4182 132.34 53.5502 133.222 52.5142 133.222ZM68.306 135.154C65.506 135.154 63.602 133.068 63.602 129.988C63.602 126.908 65.534 124.808 68.362 124.808C70.518 124.808 72.212 126.11 72.618 128.098H71.54C71.12 126.656 69.888 125.774 68.32 125.774C66.122 125.774 64.652 127.454 64.652 129.988C64.652 132.508 66.122 134.188 68.32 134.188C69.902 134.188 71.162 133.334 71.596 131.99H72.674C72.212 133.88 70.462 135.154 68.306 135.154ZM73.6612 131.612C73.6612 129.54 75.1172 128.042 77.1052 128.042C79.0932 128.042 80.5492 129.54 80.5492 131.612C80.5492 133.67 79.0932 135.168 77.1052 135.168C75.1172 135.168 73.6612 133.67 73.6612 131.612ZM74.6412 131.598C74.6412 133.194 75.6492 134.3 77.1052 134.3C78.5472 134.3 79.5692 133.194 79.5692 131.598C79.5692 130.03 78.5472 128.91 77.1052 128.91C75.6492 128.91 74.6412 130.03 74.6412 131.598ZM83.0323 135H82.0663V124.794H83.0323V135ZM84.5408 131.612C84.5408 129.54 85.9968 128.042 87.9848 128.042C89.9728 128.042 91.4288 129.54 91.4288 131.612C91.4288 133.67 89.9728 135.168 87.9848 135.168C85.9968 135.168 84.5408 133.67 84.5408 131.612ZM85.5208 131.598C85.5208 133.194 86.5288 134.3 87.9848 134.3C89.4268 134.3 90.4488 133.194 90.4488 131.598C90.4488 130.03 89.4268 128.91 87.9848 128.91C86.5288 128.91 85.5208 130.03 85.5208 131.598ZM96.4458 128.14V129.008H95.9138C94.6678 129.008 93.8698 129.848 93.8698 131.136V135H92.9038V128.224H93.8138L93.8838 129.274C94.1498 128.546 94.8638 128.07 95.8158 128.07C96.0258 128.07 96.2078 128.084 96.4458 128.14ZM98.626 129.792C98.15 129.792 97.744 129.386 97.744 128.924C97.744 128.448 98.15 128.056 98.626 128.056C99.102 128.056 99.508 128.448 99.508 128.924C99.508 129.386 99.102 129.792 98.626 129.792ZM98.626 135.154C98.15 135.154 97.744 134.762 97.744 134.3C97.744 133.824 98.15 133.418 98.626 133.418C99.102 133.418 99.508 133.824 99.508 134.3C99.508 134.762 99.102 135.154 98.626 135.154Z" fill="black"/>
<path d="M578.824 11.864V35H575.688V11.864H578.824ZM586.619 35H583.611V11.448H586.619V35ZM601.703 19.352H604.679V35H601.991L601.671 32.632C600.775 34.264 598.695 35.384 596.391 35.384C592.743 35.384 590.695 32.92 590.695 29.08V19.352H593.703V28.088C593.703 31.448 595.143 32.728 597.447 32.728C600.199 32.728 601.703 30.968 601.703 27.608V19.352ZM607.291 30.456H610.171C610.171 32.056 611.387 33.016 613.371 33.016C615.483 33.016 616.699 32.152 616.699 30.712C616.699 29.656 616.187 29.016 614.555 28.6L611.803 27.96C609.019 27.288 607.707 25.912 607.707 23.608C607.707 20.728 610.139 18.904 613.595 18.904C617.019 18.904 619.259 20.824 619.323 23.8H616.443C616.379 22.232 615.323 21.24 613.499 21.24C611.611 21.24 610.555 22.072 610.555 23.512C610.555 24.568 611.323 25.272 612.859 25.656L615.611 26.328C618.267 26.968 619.579 28.184 619.579 30.52C619.579 33.496 617.019 35.384 613.307 35.384C609.627 35.384 607.291 33.432 607.291 30.456ZM627.171 35H624.163V21.88H621.091V19.352H624.163V14.456H627.171V19.352H630.243V21.88H627.171V35ZM641.742 19.224V21.976H640.398C637.55 21.976 635.79 23.704 635.79 26.712V35H632.782V19.384H635.598L635.79 21.752C636.43 20.12 637.998 19.032 640.142 19.032C640.686 19.032 641.134 19.096 641.742 19.224ZM648.355 35.384C644.995 35.384 643.011 33.496 643.011 30.648C643.011 27.768 645.155 25.976 648.835 25.688L653.763 25.304V24.856C653.763 22.232 652.195 21.304 650.083 21.304C647.555 21.304 646.115 22.424 646.115 24.312H643.491C643.491 21.048 646.179 18.904 650.211 18.904C654.083 18.904 656.707 20.952 656.707 25.176V35H654.147L653.827 32.472C653.027 34.264 650.883 35.384 648.355 35.384ZM649.219 33.048C652.067 33.048 653.795 31.192 653.795 28.248V27.416L649.795 27.736C647.139 27.992 646.051 29.016 646.051 30.552C646.051 32.216 647.267 33.048 649.219 33.048ZM659.688 27.192C659.688 22.296 662.792 18.904 667.368 18.904C671.304 18.904 674.056 21.144 674.6 24.632H671.592C671.08 22.648 669.48 21.592 667.464 21.592C664.616 21.592 662.664 23.768 662.664 27.16C662.664 30.52 664.488 32.696 667.336 32.696C669.48 32.696 671.08 31.576 671.624 29.72H674.632C674.024 33.112 671.112 35.384 667.336 35.384C662.728 35.384 659.688 32.12 659.688 27.192ZM679.118 15.64C678.03 15.64 677.134 14.744 677.134 13.656C677.134 12.536 678.03 11.672 679.118 11.672C680.206 11.672 681.102 12.536 681.102 13.656C681.102 14.744 680.206 15.64 679.118 15.64ZM677.646 35V19.352H680.654V35H677.646ZM683.837 27.16C683.837 22.328 687.293 18.936 691.997 18.936C696.669 18.936 700.125 22.328 700.125 27.16C700.125 31.992 696.669 35.384 691.997 35.384C687.293 35.384 683.837 31.992 683.837 27.16ZM686.877 27.16C686.877 30.424 688.957 32.696 691.997 32.696C695.005 32.696 697.117 30.424 697.117 27.16C697.117 23.896 695.005 21.624 691.997 21.624C688.957 21.624 686.877 23.896 686.877 27.16ZM706.303 35H703.295V19.352H706.015L706.335 21.752C707.327 19.96 709.311 18.904 711.519 18.904C715.647 18.904 717.535 21.432 717.535 25.432V35H714.527V26.104C714.527 22.936 713.055 21.656 710.751 21.656C707.935 21.656 706.303 23.672 706.303 26.712V35ZM728.293 35.384C723.685 35.384 720.517 32.056 720.517 27.192C720.517 22.296 723.621 18.904 728.165 18.904C732.613 18.904 735.525 21.976 735.525 26.616V27.736L723.429 27.768C723.653 31.064 725.381 32.888 728.357 32.888C730.693 32.888 732.229 31.928 732.741 30.136H735.557C734.789 33.496 732.165 35.384 728.293 35.384ZM728.165 21.432C725.541 21.432 723.877 23 723.493 25.752H732.517C732.517 23.16 730.821 21.432 728.165 21.432ZM737.445 30.456H740.325C740.325 32.056 741.541 33.016 743.525 33.016C745.637 33.016 746.853 32.152 746.853 30.712C746.853 29.656 746.341 29.016 744.709 28.6L741.957 27.96C739.173 27.288 737.861 25.912 737.861 23.608C737.861 20.728 740.293 18.904 743.749 18.904C747.173 18.904 749.413 20.824 749.477 23.8H746.597C746.533 22.232 745.477 21.24 743.653 21.24C741.765 21.24 740.709 22.072 740.709 23.512C740.709 24.568 741.477 25.272 743.013 25.656L745.765 26.328C748.421 26.968 749.733 28.184 749.733 30.52C749.733 33.496 747.173 35.384 743.461 35.384C739.781 35.384 737.445 33.432 737.445 30.456ZM755.468 23.384C754.22 23.384 753.164 22.36 753.164 21.176C753.164 19.928 754.22 18.904 755.468 18.904C756.684 18.904 757.74 19.928 757.74 21.176C757.74 22.36 756.684 23.384 755.468 23.384ZM755.468 35.384C754.22 35.384 753.164 34.36 753.164 33.144C753.164 31.896 754.22 30.872 755.468 30.872C756.684 30.872 757.74 31.896 757.74 33.144C757.74 34.36 756.684 35.384 755.468 35.384ZM769.527 30.456H772.407C772.407 32.056 773.623 33.016 775.607 33.016C777.719 33.016 778.935 32.152 778.935 30.712C778.935 29.656 778.423 29.016 776.791 28.6L774.039 27.96C771.255 27.288 769.943 25.912 769.943 23.608C769.943 20.728 772.375 18.904 775.831 18.904C779.255 18.904 781.495 20.824 781.559 23.8H778.679C778.615 22.232 777.559 21.24 775.735 21.24C773.847 21.24 772.791 22.072 772.791 23.512C772.791 24.568 773.559 25.272 775.095 25.656L777.847 26.328C780.503 26.968 781.815 28.184 781.815 30.52C781.815 33.496 779.255 35.384 775.543 35.384C771.863 35.384 769.527 33.432 769.527 30.456ZM783.967 27.16C783.967 22.328 787.423 18.936 792.127 18.936C796.799 18.936 800.255 22.328 800.255 27.16C800.255 31.992 796.799 35.384 792.127 35.384C787.423 35.384 783.967 31.992 783.967 27.16ZM787.007 27.16C787.007 30.424 789.087 32.696 792.127 32.696C795.135 32.696 797.247 30.424 797.247 27.16C797.247 23.896 795.135 21.624 792.127 21.624C789.087 21.624 787.007 23.896 787.007 27.16ZM806.433 35H803.425V19.352H806.113L806.401 21.4C807.201 19.928 808.865 18.904 811.073 18.904C813.505 18.904 815.233 20.12 816.033 22.072C816.769 20.12 818.657 18.904 821.089 18.904C824.673 18.904 826.849 21.144 826.849 24.76V35H823.905V25.496C823.905 23.032 822.529 21.624 820.417 21.624C818.145 21.624 816.641 23.224 816.641 25.72V35H813.665V25.464C813.665 23 812.321 21.656 810.209 21.656C807.937 21.656 806.433 23.224 806.433 25.72V35ZM833.578 35H830.858V11.448H833.866V22.04C834.89 19.992 837.002 18.904 839.562 18.904C844.042 18.904 846.73 22.424 846.73 27.256C846.73 31.992 843.914 35.384 839.37 35.384C836.906 35.384 834.826 34.296 833.802 32.152L833.578 35ZM833.898 27.128C833.898 30.392 835.754 32.664 838.826 32.664C841.898 32.664 843.722 30.36 843.722 27.128C843.722 23.928 841.898 21.624 838.826 21.624C835.754 21.624 833.898 23.928 833.898 27.128ZM858.846 19.224V21.976H857.502C854.654 21.976 852.894 23.704 852.894 26.712V35H849.886V19.384H852.702L852.894 21.752C853.534 20.12 855.102 19.032 857.246 19.032C857.79 19.032 858.238 19.096 858.846 19.224ZM865.458 35.384C862.098 35.384 860.114 33.496 860.114 30.648C860.114 27.768 862.258 25.976 865.938 25.688L870.866 25.304V24.856C870.866 22.232 869.298 21.304 867.186 21.304C864.658 21.304 863.218 22.424 863.218 24.312H860.594C860.594 21.048 863.282 18.904 867.314 18.904C871.186 18.904 873.81 20.952 873.81 25.176V35H871.25L870.93 32.472C870.13 34.264 867.986 35.384 865.458 35.384ZM866.322 33.048C869.17 33.048 870.898 31.192 870.898 28.248V27.416L866.898 27.736C864.242 27.992 863.154 29.016 863.154 30.552C863.154 32.216 864.37 33.048 866.322 33.048ZM886.406 42.008V19.352H889.126L889.35 22.168C890.406 20.024 892.518 18.904 895.014 18.904C899.494 18.904 902.278 22.264 902.278 27.064C902.278 31.832 899.654 35.416 895.014 35.416C892.518 35.416 890.438 34.36 889.414 32.44V42.008H886.406ZM889.446 27.192C889.446 30.392 891.302 32.696 894.374 32.696C897.446 32.696 899.27 30.392 899.27 27.192C899.27 23.96 897.446 21.656 894.374 21.656C891.302 21.656 889.446 23.928 889.446 27.192ZM910.01 35.384C906.65 35.384 904.666 33.496 904.666 30.648C904.666 27.768 906.81 25.976 910.49 25.688L915.418 25.304V24.856C915.418 22.232 913.85 21.304 911.738 21.304C909.21 21.304 907.77 22.424 907.77 24.312H905.146C905.146 21.048 907.834 18.904 911.866 18.904C915.738 18.904 918.362 20.952 918.362 25.176V35H915.802L915.482 32.472C914.682 34.264 912.538 35.384 910.01 35.384ZM910.874 33.048C913.722 33.048 915.45 31.192 915.45 28.248V27.416L911.45 27.736C908.794 27.992 907.706 29.016 907.706 30.552C907.706 32.216 908.922 33.048 910.874 33.048ZM931.327 19.224V21.976H929.983C927.135 21.976 925.375 23.704 925.375 26.712V35H922.367V19.384H925.183L925.375 21.752C926.015 20.12 927.583 19.032 929.727 19.032C930.271 19.032 930.719 19.096 931.327 19.224ZM937.94 35.384C934.58 35.384 932.596 33.496 932.596 30.648C932.596 27.768 934.74 25.976 938.42 25.688L943.348 25.304V24.856C943.348 22.232 941.78 21.304 939.668 21.304C937.14 21.304 935.7 22.424 935.7 24.312H933.076C933.076 21.048 935.764 18.904 939.796 18.904C943.668 18.904 946.292 20.952 946.292 25.176V35H943.732L943.412 32.472C942.612 34.264 940.468 35.384 937.94 35.384ZM938.804 33.048C941.652 33.048 943.38 31.192 943.38 28.248V27.416L939.38 27.736C936.724 27.992 935.636 29.016 935.636 30.552C935.636 32.216 936.852 33.048 938.804 33.048ZM953.369 35H950.361V11.448H953.369V35ZM964.389 35.384C959.781 35.384 956.613 32.056 956.613 27.192C956.613 22.296 959.717 18.904 964.261 18.904C968.709 18.904 971.621 21.976 971.621 26.616V27.736L959.525 27.768C959.749 31.064 961.477 32.888 964.453 32.888C966.789 32.888 968.325 31.928 968.837 30.136H971.653C970.885 33.496 968.261 35.384 964.389 35.384ZM964.261 21.432C961.637 21.432 959.973 23 959.589 25.752H968.613C968.613 23.16 966.917 21.432 964.261 21.432ZM977.893 35H974.885V11.448H977.893V35ZM986.737 35.384C983.377 35.384 981.393 33.496 981.393 30.648C981.393 27.768 983.537 25.976 987.217 25.688L992.145 25.304V24.856C992.145 22.232 990.577 21.304 988.465 21.304C985.937 21.304 984.497 22.424 984.497 24.312H981.873C981.873 21.048 984.561 18.904 988.593 18.904C992.465 18.904 995.089 20.952 995.089 25.176V35H992.529L992.209 32.472C991.409 34.264 989.265 35.384 986.737 35.384ZM987.601 33.048C990.449 33.048 992.177 31.192 992.177 28.248V27.416L988.177 27.736C985.521 27.992 984.433 29.016 984.433 30.552C984.433 32.216 985.649 33.048 987.601 33.048ZM625.514 53.222C624.464 53.222 623.582 52.354 623.582 51.318C623.582 50.282 624.45 49.4 625.514 49.4C626.55 49.4 627.418 50.282 627.418 51.318C627.418 52.34 626.55 53.222 625.514 53.222ZM637.274 55H636.14L638.562 51.612L636.154 48.224H637.288L639.206 50.94L641.11 48.224H642.23L639.822 51.626L642.216 55H641.068L639.164 52.284L637.274 55ZM644.275 49.792C643.799 49.792 643.393 49.386 643.393 48.924C643.393 48.448 643.799 48.056 644.275 48.056C644.751 48.056 645.157 48.448 645.157 48.924C645.157 49.386 644.751 49.792 644.275 49.792ZM644.275 55.154C643.799 55.154 643.393 54.762 643.393 54.3C643.393 53.824 643.799 53.418 644.275 53.418C644.751 53.418 645.157 53.824 645.157 54.3C645.157 54.762 644.751 55.154 644.275 55.154ZM656.533 51.612L654.027 55H652.851L655.483 51.5C655.021 51.752 654.587 51.836 654.111 51.836C652.025 51.836 650.639 50.31 650.639 48.35C650.639 46.306 652.193 44.794 654.195 44.794C656.211 44.794 657.793 46.348 657.793 48.364C657.793 49.526 657.485 50.338 656.533 51.612ZM656.785 48.35C656.785 46.824 655.721 45.718 654.195 45.718C652.711 45.718 651.647 46.824 651.647 48.35C651.647 49.862 652.711 50.954 654.195 50.954C655.721 50.954 656.785 49.862 656.785 48.35ZM625.514 73.222C624.464 73.222 623.582 72.354 623.582 71.318C623.582 70.282 624.45 69.4 625.514 69.4C626.55 69.4 627.418 70.282 627.418 71.318C627.418 72.34 626.55 73.222 625.514 73.222ZM636.322 77.954V77.156H637.064C637.652 77.156 638.24 77.114 638.576 76.204L638.87 75.406L636.126 68.224H637.148L639.332 74.132L641.474 68.224H642.468L639.36 76.554C638.968 77.618 638.31 78.052 637.344 78.052C636.938 78.052 636.63 78.024 636.322 77.954ZM644.494 69.792C644.018 69.792 643.612 69.386 643.612 68.924C643.612 68.448 644.018 68.056 644.494 68.056C644.97 68.056 645.376 68.448 645.376 68.924C645.376 69.386 644.97 69.792 644.494 69.792ZM644.494 75.154C644.018 75.154 643.612 74.762 643.612 74.3C643.612 73.824 644.018 73.418 644.494 73.418C644.97 73.418 645.376 73.824 645.376 74.3C645.376 74.762 644.97 75.154 644.494 75.154ZM651.11 71.752V70.884H655.17V71.752H651.11ZM662.481 75H655.873V74.202L659.079 71.402C660.927 69.792 661.403 69.092 661.403 67.902C661.403 66.544 660.591 65.718 659.261 65.718C657.875 65.718 656.965 66.726 656.923 68.28H655.915C655.971 66.18 657.301 64.794 659.275 64.794C661.165 64.794 662.425 66.012 662.425 67.846C662.425 69.302 661.767 70.268 659.765 72.018L657.427 74.062H662.481V75ZM625.514 93.222C624.464 93.222 623.582 92.354 623.582 91.318C623.582 90.282 624.45 89.4 625.514 89.4C626.55 89.4 627.418 90.282 627.418 91.318C627.418 92.34 626.55 93.222 625.514 93.222ZM640.27 95H637.218V84.976H640.242C643.266 84.976 645.282 86.992 645.282 89.988C645.282 92.984 643.28 95 640.27 95ZM640.2 85.9H638.226V94.076H640.228C642.678 94.076 644.246 92.48 644.246 89.988C644.246 87.482 642.678 85.9 640.2 85.9ZM649.665 95.168C647.677 95.168 646.347 93.74 646.347 91.612C646.347 89.498 647.663 88.042 649.595 88.042C651.429 88.042 652.675 89.344 652.675 91.262V91.738H647.285C647.355 93.39 648.223 94.342 649.679 94.342C650.785 94.342 651.499 93.866 651.751 92.97H652.675C652.311 94.398 651.261 95.168 649.665 95.168ZM649.595 88.868C648.321 88.868 647.481 89.708 647.313 91.038H651.709C651.709 89.736 650.869 88.868 649.595 88.868ZM653.575 93.096H654.499C654.499 93.88 655.087 94.37 656.039 94.37C657.089 94.37 657.705 93.922 657.705 93.194C657.705 92.634 657.425 92.312 656.627 92.116L655.465 91.822C654.289 91.528 653.715 90.912 653.715 89.988C653.715 88.798 654.709 88.042 656.165 88.042C657.593 88.042 658.517 88.826 658.559 90.086H657.621C657.593 89.302 657.047 88.84 656.137 88.84C655.185 88.84 654.653 89.246 654.653 89.974C654.653 90.492 655.017 90.856 655.759 91.038L656.921 91.332C658.097 91.626 658.629 92.172 658.629 93.152C658.629 94.37 657.593 95.168 656.053 95.168C654.527 95.168 653.575 94.356 653.575 93.096ZM662.992 95.168C661.004 95.168 659.674 93.74 659.674 91.612C659.674 89.498 660.99 88.042 662.922 88.042C664.756 88.042 666.002 89.344 666.002 91.262V91.738H660.612C660.682 93.39 661.55 94.342 663.006 94.342C664.112 94.342 664.826 93.866 665.078 92.97H666.002C665.638 94.398 664.588 95.168 662.992 95.168ZM662.922 88.868C661.648 88.868 660.808 89.708 660.64 91.038H665.036C665.036 89.736 664.196 88.868 662.922 88.868ZM668.442 95H667.476V88.224H668.316L668.456 89.4C668.904 88.532 669.8 88.042 670.78 88.042C672.642 88.042 673.412 89.148 673.412 90.856V95H672.446V91.066C672.446 89.484 671.732 88.924 670.612 88.924C669.226 88.924 668.442 89.932 668.442 91.458V95ZM674.511 88.224H675.547V86.908C675.547 85.382 676.387 84.794 677.423 84.794C677.661 84.794 677.941 84.808 678.165 84.85V85.676H677.591C676.737 85.676 676.513 86.11 676.513 86.908V88.224H678.109V89.036H676.513V95H675.547V89.036H674.511V88.224ZM678.673 91.612C678.673 89.54 680.129 88.042 682.117 88.042C684.105 88.042 685.561 89.54 685.561 91.612C685.561 93.67 684.105 95.168 682.117 95.168C680.129 95.168 678.673 93.67 678.673 91.612ZM679.653 91.598C679.653 93.194 680.661 94.3 682.117 94.3C683.559 94.3 684.581 93.194 684.581 91.598C684.581 90.03 683.559 88.91 682.117 88.91C680.661 88.91 679.653 90.03 679.653 91.598ZM686.56 91.584C686.56 89.54 687.736 88.042 689.696 88.042C690.83 88.042 691.768 88.546 692.258 89.596L692.356 88.224H693.196V97.954H692.23V93.698C691.754 94.678 690.844 95.168 689.696 95.168C687.694 95.168 686.56 93.628 686.56 91.584ZM687.54 91.612C687.54 93.166 688.394 94.3 689.864 94.3C691.348 94.3 692.216 93.166 692.216 91.612C692.216 90.044 691.348 88.924 689.864 88.924C688.394 88.924 687.54 90.044 687.54 91.612ZM699.901 88.224H700.867V95H700.027L699.901 93.852C699.523 94.636 698.585 95.168 697.521 95.168C695.925 95.168 695.057 94.076 695.057 92.424V88.21H696.037V92.116C696.037 93.726 696.751 94.3 697.829 94.3C699.131 94.3 699.901 93.432 699.901 91.822V88.224ZM705.515 95.168C703.527 95.168 702.197 93.74 702.197 91.612C702.197 89.498 703.513 88.042 705.445 88.042C707.279 88.042 708.525 89.344 708.525 91.262V91.738H703.135C703.205 93.39 704.073 94.342 705.529 94.342C706.635 94.342 707.349 93.866 707.601 92.97H708.525C708.161 94.398 707.111 95.168 705.515 95.168ZM705.445 88.868C704.171 88.868 703.331 89.708 703.163 91.038H707.559C707.559 89.736 706.719 88.868 705.445 88.868ZM710.965 89.792C710.489 89.792 710.083 89.386 710.083 88.924C710.083 88.448 710.489 88.056 710.965 88.056C711.441 88.056 711.847 88.448 711.847 88.924C711.847 89.386 711.441 89.792 710.965 89.792ZM710.965 95.154C710.489 95.154 710.083 94.762 710.083 94.3C710.083 93.824 710.489 93.418 710.965 93.418C711.441 93.418 711.847 93.824 711.847 94.3C711.847 94.762 711.441 95.154 710.965 95.154ZM724.665 92.872H723.489V95H722.509V92.872H717.245V91.976L722.145 84.976H723.489V91.976H724.665V92.872ZM718.337 91.976H722.509V86.012L718.337 91.976ZM625.514 113.222C624.464 113.222 623.582 112.354 623.582 111.318C623.582 110.282 624.45 109.4 625.514 109.4C626.55 109.4 627.418 110.282 627.418 111.318C627.418 112.34 626.55 113.222 625.514 113.222ZM641.04 111.318H638.226V115H637.218V104.976H641.04C642.972 104.976 644.19 106.236 644.19 108.126C644.19 109.946 642.958 111.318 641.04 111.318ZM640.9 105.886H638.226V110.408H640.844C642.3 110.408 643.14 109.484 643.14 108.112C643.14 106.726 642.286 105.886 640.9 105.886ZM649.08 108.14V109.008H648.548C647.302 109.008 646.504 109.848 646.504 111.136V115H645.538V108.224H646.448L646.518 109.274C646.784 108.546 647.498 108.07 648.45 108.07C648.66 108.07 648.842 108.084 649.08 108.14ZM649.558 111.612C649.558 109.54 651.014 108.042 653.002 108.042C654.99 108.042 656.446 109.54 656.446 111.612C656.446 113.67 654.99 115.168 653.002 115.168C651.014 115.168 649.558 113.67 649.558 111.612ZM650.538 111.598C650.538 113.194 651.546 114.3 653.002 114.3C654.444 114.3 655.466 113.194 655.466 111.598C655.466 110.03 654.444 108.91 653.002 108.91C651.546 108.91 650.538 110.03 650.538 111.598ZM657.921 117.954V108.224H658.761L658.859 109.596C659.335 108.546 660.287 108.042 661.421 108.042C663.381 108.042 664.557 109.54 664.557 111.584C664.557 113.628 663.423 115.168 661.421 115.168C660.273 115.168 659.363 114.678 658.887 113.698V117.954H657.921ZM658.901 111.612C658.901 113.166 659.769 114.3 661.253 114.3C662.723 114.3 663.577 113.166 663.577 111.612C663.577 110.044 662.723 108.924 661.253 108.924C659.769 108.924 658.901 110.044 658.901 111.612ZM667.973 115.168C666.531 115.168 665.677 114.356 665.677 113.166C665.677 111.92 666.629 111.136 668.211 111.01L670.451 110.828V110.604C670.451 109.274 669.653 108.854 668.659 108.854C667.483 108.854 666.783 109.386 666.783 110.296H665.901C665.901 108.924 667.021 108.042 668.687 108.042C670.255 108.042 671.403 108.826 671.403 110.618V115H670.591L670.465 113.81C670.045 114.664 669.121 115.168 667.973 115.168ZM668.197 114.384C669.625 114.384 670.451 113.39 670.451 111.92V111.556L668.449 111.71C667.175 111.822 666.657 112.382 666.657 113.138C666.657 113.964 667.273 114.384 668.197 114.384ZM672.809 111.416C672.809 109.568 673.999 108.042 675.987 108.042C677.163 108.042 678.059 108.588 678.493 109.582L678.591 108.224H679.431V114.79C679.431 116.806 678.143 118.122 676.155 118.122C674.419 118.122 673.201 117.142 672.935 115.504H673.901C674.111 116.596 674.951 117.24 676.169 117.24C677.555 117.24 678.479 116.302 678.479 114.888V113.278C678.017 114.23 677.079 114.79 675.917 114.79C673.985 114.79 672.809 113.264 672.809 111.416ZM673.775 111.402C673.775 112.788 674.629 113.922 676.057 113.922C677.527 113.922 678.395 112.858 678.395 111.402C678.395 109.96 677.555 108.896 676.071 108.896C674.615 108.896 673.775 110.03 673.775 111.402ZM683.323 115.168C681.881 115.168 681.027 114.356 681.027 113.166C681.027 111.92 681.979 111.136 683.561 111.01L685.801 110.828V110.604C685.801 109.274 685.003 108.854 684.009 108.854C682.833 108.854 682.133 109.386 682.133 110.296H681.251C681.251 108.924 682.371 108.042 684.037 108.042C685.605 108.042 686.753 108.826 686.753 110.618V115H685.941L685.815 113.81C685.395 114.664 684.471 115.168 683.323 115.168ZM683.547 114.384C684.975 114.384 685.801 113.39 685.801 111.92V111.556L683.799 111.71C682.525 111.822 682.007 112.382 682.007 113.138C682.007 113.964 682.623 114.384 683.547 114.384ZM688.146 111.626C688.146 109.498 689.448 108.042 691.422 108.042C692.99 108.042 694.138 108.952 694.404 110.352H693.438C693.186 109.414 692.374 108.896 691.436 108.896C690.064 108.896 689.098 109.946 689.098 111.612C689.098 113.222 689.994 114.3 691.366 114.3C692.374 114.3 693.186 113.74 693.452 112.872H694.432C694.11 114.258 692.906 115.168 691.366 115.168C689.448 115.168 688.146 113.754 688.146 111.626ZM696.301 106.362C695.909 106.362 695.587 106.04 695.587 105.648C695.587 105.256 695.909 104.92 696.301 104.92C696.693 104.92 697.029 105.256 697.029 105.648C697.029 106.04 696.693 106.362 696.301 106.362ZM695.825 115V108.224H696.791V115H695.825ZM703.201 105.774L702.137 107.44H701.339L702.179 105.774H703.201ZM698.259 111.612C698.259 109.54 699.715 108.042 701.703 108.042C703.691 108.042 705.147 109.54 705.147 111.612C705.147 113.67 703.691 115.168 701.703 115.168C699.715 115.168 698.259 113.67 698.259 111.612ZM699.239 111.598C699.239 113.194 700.247 114.3 701.703 114.3C703.145 114.3 704.167 113.194 704.167 111.598C704.167 110.03 703.145 108.91 701.703 108.91C700.247 108.91 699.239 110.03 699.239 111.598ZM707.588 115H706.622V108.224H707.462L707.602 109.4C708.05 108.532 708.946 108.042 709.926 108.042C711.788 108.042 712.558 109.148 712.558 110.856V115H711.592V111.066C711.592 109.484 710.878 108.924 709.758 108.924C708.372 108.924 707.588 109.932 707.588 111.458V115ZM715.38 109.792C714.904 109.792 714.498 109.386 714.498 108.924C714.498 108.448 714.904 108.056 715.38 108.056C715.856 108.056 716.262 108.448 716.262 108.924C716.262 109.386 715.856 109.792 715.38 109.792ZM715.38 115.154C714.904 115.154 714.498 114.762 714.498 114.3C714.498 113.824 714.904 113.418 715.38 113.418C715.856 113.418 716.262 113.824 716.262 114.3C716.262 114.762 715.856 115.154 715.38 115.154ZM721.87 109.988C721.87 106.88 723.396 104.78 725.888 104.78C728.366 104.78 729.892 106.88 729.892 109.988C729.892 113.11 728.394 115.182 725.888 115.182C723.368 115.182 721.87 113.11 721.87 109.988ZM722.864 109.988C722.864 112.592 723.97 114.272 725.888 114.272C727.806 114.272 728.912 112.592 728.912 109.988C728.912 107.37 727.806 105.704 725.888 105.704C723.97 105.704 722.864 107.37 722.864 109.988ZM625.514 133.222C624.464 133.222 623.582 132.354 623.582 131.318C623.582 130.282 624.45 129.4 625.514 129.4C626.55 129.4 627.418 130.282 627.418 131.318C627.418 132.34 626.55 133.222 625.514 133.222ZM641.306 135.154C638.506 135.154 636.602 133.068 636.602 129.988C636.602 126.908 638.534 124.808 641.362 124.808C643.518 124.808 645.212 126.11 645.618 128.098H644.54C644.12 126.656 642.888 125.774 641.32 125.774C639.122 125.774 637.652 127.454 637.652 129.988C637.652 132.508 639.122 134.188 641.32 134.188C642.902 134.188 644.162 133.334 644.596 131.99H645.674C645.212 133.88 643.462 135.154 641.306 135.154ZM646.661 131.612C646.661 129.54 648.117 128.042 650.105 128.042C652.093 128.042 653.549 129.54 653.549 131.612C653.549 133.67 652.093 135.168 650.105 135.168C648.117 135.168 646.661 133.67 646.661 131.612ZM647.641 131.598C647.641 133.194 648.649 134.3 650.105 134.3C651.547 134.3 652.569 133.194 652.569 131.598C652.569 130.03 651.547 128.91 650.105 128.91C648.649 128.91 647.641 130.03 647.641 131.598ZM656.032 135H655.066V124.794H656.032V135ZM657.541 131.612C657.541 129.54 658.997 128.042 660.985 128.042C662.973 128.042 664.429 129.54 664.429 131.612C664.429 133.67 662.973 135.168 660.985 135.168C658.997 135.168 657.541 133.67 657.541 131.612ZM658.521 131.598C658.521 133.194 659.529 134.3 660.985 134.3C662.427 134.3 663.449 133.194 663.449 131.598C663.449 130.03 662.427 128.91 660.985 128.91C659.529 128.91 658.521 130.03 658.521 131.598ZM669.446 128.14V129.008H668.914C667.668 129.008 666.87 129.848 666.87 131.136V135H665.904V128.224H666.814L666.884 129.274C667.15 128.546 667.864 128.07 668.816 128.07C669.026 128.07 669.208 128.084 669.446 128.14ZM671.626 129.792C671.15 129.792 670.744 129.386 670.744 128.924C670.744 128.448 671.15 128.056 671.626 128.056C672.102 128.056 672.508 128.448 672.508 128.924C672.508 129.386 672.102 129.792 671.626 129.792ZM671.626 135.154C671.15 135.154 670.744 134.762 670.744 134.3C670.744 133.824 671.15 133.418 671.626 133.418C672.102 133.418 672.508 133.824 672.508 134.3C672.508 134.762 672.102 135.154 671.626 135.154Z" fill="black"/>
<path d="M68.528 193.64C68.528 192.2 69.68 191.252 71.408 191.252C72.956 191.252 73.976 192.116 74.108 193.556H73.232C73.136 192.584 72.476 192.032 71.396 192.032C70.184 192.032 69.392 192.656 69.392 193.628C69.392 194.384 69.836 194.864 70.736 195.092L72.212 195.452C73.556 195.776 74.252 196.544 74.252 197.708C74.252 199.196 73.1 200.144 71.324 200.144C69.656 200.144 68.528 199.268 68.42 197.864H69.308C69.356 198.764 70.148 199.352 71.324 199.352C72.584 199.352 73.388 198.74 73.388 197.756C73.388 196.988 72.956 196.484 72.032 196.268L70.58 195.908C69.236 195.584 68.528 194.816 68.528 193.64ZM75.2177 197.096C75.2177 195.32 76.4657 194.036 78.1697 194.036C79.8737 194.036 81.1217 195.32 81.1217 197.096C81.1217 198.86 79.8737 200.144 78.1697 200.144C76.4657 200.144 75.2177 198.86 75.2177 197.096ZM76.0577 197.084C76.0577 198.452 76.9217 199.4 78.1697 199.4C79.4057 199.4 80.2817 198.452 80.2817 197.084C80.2817 195.74 79.4057 194.78 78.1697 194.78C76.9217 194.78 76.0577 195.74 76.0577 197.084ZM83.274 200H82.446V194.192H83.166L83.262 195.02C83.55 194.408 84.198 194.036 85.014 194.036C85.926 194.036 86.61 194.516 86.886 195.272C87.15 194.516 87.858 194.036 88.794 194.036C90.054 194.036 90.882 194.852 90.882 196.196V200H90.078V196.364C90.078 195.368 89.526 194.78 88.638 194.78C87.666 194.78 87.09 195.512 87.09 196.412V200H86.274V196.352C86.274 195.368 85.71 194.792 84.834 194.792C83.862 194.792 83.274 195.512 83.274 196.4V200ZM93.2676 200H92.5476V191.252H93.3756V195.32C93.7836 194.468 94.5756 194.036 95.5596 194.036C97.2516 194.036 98.2356 195.356 98.2356 197.108C98.2356 198.848 97.2276 200.144 95.5356 200.144C94.5636 200.144 93.7596 199.712 93.3516 198.812L93.2676 200ZM93.3876 197.084C93.3876 198.428 94.1316 199.388 95.4036 199.388C96.6636 199.388 97.3956 198.428 97.3956 197.084C97.3956 195.752 96.6636 194.78 95.4036 194.78C94.1316 194.78 93.3876 195.752 93.3876 197.084ZM102.591 194.12V194.864H102.135C101.067 194.864 100.383 195.584 100.383 196.688V200H99.5554V194.192H100.335L100.395 195.092C100.623 194.468 101.235 194.06 102.051 194.06C102.231 194.06 102.387 194.072 102.591 194.12ZM105.126 200.144C103.89 200.144 103.158 199.448 103.158 198.428C103.158 197.36 103.974 196.688 105.33 196.58L107.25 196.424V196.232C107.25 195.092 106.566 194.732 105.714 194.732C104.706 194.732 104.106 195.188 104.106 195.968H103.35C103.35 194.792 104.31 194.036 105.738 194.036C107.082 194.036 108.066 194.708 108.066 196.244V200H107.37L107.262 198.98C106.902 199.712 106.11 200.144 105.126 200.144ZM105.318 199.472C106.542 199.472 107.25 198.62 107.25 197.36V197.048L105.534 197.18C104.442 197.276 103.998 197.756 103.998 198.404C103.998 199.112 104.526 199.472 105.318 199.472ZM113.775 200H113.055V191.252H113.883V195.32C114.291 194.468 115.083 194.036 116.067 194.036C117.759 194.036 118.743 195.356 118.743 197.108C118.743 198.848 117.735 200.144 116.043 200.144C115.071 200.144 114.267 199.712 113.859 198.812L113.775 200ZM113.895 197.084C113.895 198.428 114.639 199.388 115.911 199.388C117.171 199.388 117.903 198.428 117.903 197.084C117.903 195.752 117.171 194.78 115.911 194.78C114.639 194.78 113.895 195.752 113.895 197.084ZM119.655 197.096C119.655 195.32 120.903 194.036 122.607 194.036C124.311 194.036 125.559 195.32 125.559 197.096C125.559 198.86 124.311 200.144 122.607 200.144C120.903 200.144 119.655 198.86 119.655 197.096ZM120.495 197.084C120.495 198.452 121.359 199.4 122.607 199.4C123.843 199.4 124.719 198.452 124.719 197.084C124.719 195.74 123.843 194.78 122.607 194.78C121.359 194.78 120.495 195.74 120.495 197.084ZM128.157 200H127.341V194.888H126.177V194.192H127.341V192.356H128.157V194.192H129.321V194.888H128.157V200ZM129.933 197.096C129.933 195.32 131.181 194.036 132.885 194.036C134.589 194.036 135.837 195.32 135.837 197.096C135.837 198.86 134.589 200.144 132.885 200.144C131.181 200.144 129.933 198.86 129.933 197.096ZM130.773 197.084C130.773 198.452 131.637 199.4 132.885 199.4C134.121 199.4 134.997 198.452 134.997 197.084C134.997 195.74 134.121 194.78 132.885 194.78C131.637 194.78 130.773 195.74 130.773 197.084ZM137.989 200H137.161V194.192H137.881L138.001 195.2C138.385 194.456 139.153 194.036 139.993 194.036C141.589 194.036 142.249 194.984 142.249 196.448V200H141.421V196.628C141.421 195.272 140.809 194.792 139.849 194.792C138.661 194.792 137.989 195.656 137.989 196.964V200ZM146.335 200.144C144.631 200.144 143.491 198.92 143.491 197.096C143.491 195.284 144.619 194.036 146.275 194.036C147.847 194.036 148.915 195.152 148.915 196.796V197.204H144.295C144.355 198.62 145.099 199.436 146.347 199.436C147.295 199.436 147.907 199.028 148.123 198.26H148.915C148.603 199.484 147.703 200.144 146.335 200.144ZM146.275 194.744C145.183 194.744 144.463 195.464 144.319 196.604H148.087C148.087 195.488 147.367 194.744 146.275 194.744ZM149.747 198.368H150.539C150.539 199.04 151.043 199.46 151.859 199.46C152.759 199.46 153.287 199.076 153.287 198.452C153.287 197.972 153.047 197.696 152.363 197.528L151.367 197.276C150.359 197.024 149.867 196.496 149.867 195.704C149.867 194.684 150.719 194.036 151.967 194.036C153.191 194.036 153.983 194.708 154.019 195.788H153.215C153.191 195.116 152.723 194.72 151.943 194.72C151.127 194.72 150.671 195.068 150.671 195.692C150.671 196.136 150.983 196.448 151.619 196.604L152.615 196.856C153.623 197.108 154.079 197.576 154.079 198.416C154.079 199.46 153.191 200.144 151.871 200.144C150.563 200.144 149.747 199.448 149.747 198.368Z" fill="#1A73C1"/>
<g filter="url(#filter0_d_1209_19317)">
<path d="M68 209H368V509H68V209Z" fill="#1A73C1"/>
<path d="M367.5 209.5V508.5H68.5V209.5H367.5Z" stroke="#DCDCDC"/>
</g>
<path d="M629.528 193.64C629.528 192.2 630.68 191.252 632.408 191.252C633.956 191.252 634.976 192.116 635.108 193.556H634.232C634.136 192.584 633.476 192.032 632.396 192.032C631.184 192.032 630.392 192.656 630.392 193.628C630.392 194.384 630.836 194.864 631.736 195.092L633.212 195.452C634.556 195.776 635.252 196.544 635.252 197.708C635.252 199.196 634.1 200.144 632.324 200.144C630.656 200.144 629.528 199.268 629.42 197.864H630.308C630.356 198.764 631.148 199.352 632.324 199.352C633.584 199.352 634.388 198.74 634.388 197.756C634.388 196.988 633.956 196.484 633.032 196.268L631.58 195.908C630.236 195.584 629.528 194.816 629.528 193.64ZM636.218 197.096C636.218 195.32 637.466 194.036 639.17 194.036C640.874 194.036 642.122 195.32 642.122 197.096C642.122 198.86 640.874 200.144 639.17 200.144C637.466 200.144 636.218 198.86 636.218 197.096ZM637.058 197.084C637.058 198.452 637.922 199.4 639.17 199.4C640.406 199.4 641.282 198.452 641.282 197.084C641.282 195.74 640.406 194.78 639.17 194.78C637.922 194.78 637.058 195.74 637.058 197.084ZM644.274 200H643.446V194.192H644.166L644.262 195.02C644.55 194.408 645.198 194.036 646.014 194.036C646.926 194.036 647.61 194.516 647.886 195.272C648.15 194.516 648.858 194.036 649.794 194.036C651.054 194.036 651.882 194.852 651.882 196.196V200H651.078V196.364C651.078 195.368 650.526 194.78 649.638 194.78C648.666 194.78 648.09 195.512 648.09 196.412V200H647.274V196.352C647.274 195.368 646.71 194.792 645.834 194.792C644.862 194.792 644.274 195.512 644.274 196.4V200ZM654.268 200H653.548V191.252H654.376V195.32C654.784 194.468 655.576 194.036 656.56 194.036C658.252 194.036 659.236 195.356 659.236 197.108C659.236 198.848 658.228 200.144 656.536 200.144C655.564 200.144 654.76 199.712 654.352 198.812L654.268 200ZM654.388 197.084C654.388 198.428 655.132 199.388 656.404 199.388C657.664 199.388 658.396 198.428 658.396 197.084C658.396 195.752 657.664 194.78 656.404 194.78C655.132 194.78 654.388 195.752 654.388 197.084ZM663.591 194.12V194.864H663.135C662.067 194.864 661.383 195.584 661.383 196.688V200H660.555V194.192H661.335L661.395 195.092C661.623 194.468 662.235 194.06 663.051 194.06C663.231 194.06 663.387 194.072 663.591 194.12ZM666.126 200.144C664.89 200.144 664.158 199.448 664.158 198.428C664.158 197.36 664.974 196.688 666.33 196.58L668.25 196.424V196.232C668.25 195.092 667.566 194.732 666.714 194.732C665.706 194.732 665.106 195.188 665.106 195.968H664.35C664.35 194.792 665.31 194.036 666.738 194.036C668.082 194.036 669.066 194.708 669.066 196.244V200H668.37L668.262 198.98C667.902 199.712 667.11 200.144 666.126 200.144ZM666.318 199.472C667.542 199.472 668.25 198.62 668.25 197.36V197.048L666.534 197.18C665.442 197.276 664.998 197.756 664.998 198.404C664.998 199.112 665.526 199.472 666.318 199.472ZM674.463 192.596C674.127 192.596 673.851 192.32 673.851 191.984C673.851 191.648 674.127 191.36 674.463 191.36C674.799 191.36 675.087 191.648 675.087 191.984C675.087 192.32 674.799 192.596 674.463 192.596ZM674.055 200V194.192H674.883V200H674.055ZM677.474 200H676.646V191.252H677.474V200ZM683.315 194.192H684.143V200H683.423L683.315 199.016C682.991 199.688 682.187 200.144 681.275 200.144C679.907 200.144 679.163 199.208 679.163 197.792V194.18H680.003V197.528C680.003 198.908 680.615 199.4 681.539 199.4C682.655 199.4 683.315 198.656 683.315 197.276V194.192ZM685.259 198.368H686.051C686.051 199.04 686.555 199.46 687.371 199.46C688.271 199.46 688.799 199.076 688.799 198.452C688.799 197.972 688.559 197.696 687.875 197.528L686.879 197.276C685.871 197.024 685.379 196.496 685.379 195.704C685.379 194.684 686.231 194.036 687.479 194.036C688.703 194.036 689.495 194.708 689.531 195.788H688.727C688.703 195.116 688.235 194.72 687.455 194.72C686.639 194.72 686.183 195.068 686.183 195.692C686.183 196.136 686.495 196.448 687.131 196.604L688.127 196.856C689.135 197.108 689.591 197.576 689.591 198.416C689.591 199.46 688.703 200.144 687.383 200.144C686.075 200.144 685.259 199.448 685.259 198.368ZM692.286 200H691.47V194.888H690.306V194.192H691.47V192.356H692.286V194.192H693.45V194.888H692.286V200ZM697.564 194.12V194.864H697.108C696.04 194.864 695.356 195.584 695.356 196.688V200H694.528V194.192H695.308L695.368 195.092C695.596 194.468 696.208 194.06 697.024 194.06C697.204 194.06 697.36 194.072 697.564 194.12ZM700.098 200.144C698.862 200.144 698.13 199.448 698.13 198.428C698.13 197.36 698.946 196.688 700.302 196.58L702.222 196.424V196.232C702.222 195.092 701.538 194.732 700.686 194.732C699.678 194.732 699.078 195.188 699.078 195.968H698.322C698.322 194.792 699.282 194.036 700.71 194.036C702.054 194.036 703.038 194.708 703.038 196.244V200H702.342L702.234 198.98C701.874 199.712 701.082 200.144 700.098 200.144ZM700.29 199.472C701.514 199.472 702.222 198.62 702.222 197.36V197.048L700.506 197.18C699.414 197.276 698.97 197.756 698.97 198.404C698.97 199.112 699.498 199.472 700.29 199.472ZM704.292 197.108C704.292 195.284 705.408 194.036 707.1 194.036C708.444 194.036 709.428 194.816 709.656 196.016H708.828C708.612 195.212 707.916 194.768 707.112 194.768C705.936 194.768 705.108 195.668 705.108 197.096C705.108 198.476 705.876 199.4 707.052 199.4C707.916 199.4 708.612 198.92 708.84 198.176H709.68C709.404 199.364 708.372 200.144 707.052 200.144C705.408 200.144 704.292 198.932 704.292 197.108ZM711.342 192.596C711.006 192.596 710.73 192.32 710.73 191.984C710.73 191.648 711.006 191.36 711.342 191.36C711.678 191.36 711.966 191.648 711.966 191.984C711.966 192.32 711.678 192.596 711.342 192.596ZM710.934 200V194.192H711.762V200H710.934ZM713.081 197.096C713.081 195.32 714.329 194.036 716.033 194.036C717.737 194.036 718.985 195.32 718.985 197.096C718.985 198.86 717.737 200.144 716.033 200.144C714.329 200.144 713.081 198.86 713.081 197.096ZM713.921 197.084C713.921 198.452 714.785 199.4 716.033 199.4C717.269 199.4 718.145 198.452 718.145 197.084C718.145 195.74 717.269 194.78 716.033 194.78C714.785 194.78 713.921 195.74 713.921 197.084ZM721.137 200H720.309V194.192H721.029L721.149 195.2C721.533 194.456 722.301 194.036 723.141 194.036C724.737 194.036 725.397 194.984 725.397 196.448V200H724.569V196.628C724.569 195.272 723.957 194.792 722.997 194.792C721.809 194.792 721.137 195.656 721.137 196.964V200ZM729.484 200.144C727.78 200.144 726.64 198.92 726.64 197.096C726.64 195.284 727.768 194.036 729.424 194.036C730.996 194.036 732.064 195.152 732.064 196.796V197.204H727.444C727.504 198.62 728.248 199.436 729.496 199.436C730.444 199.436 731.056 199.028 731.272 198.26H732.064C731.752 199.484 730.852 200.144 729.484 200.144ZM729.424 194.744C728.332 194.744 727.612 195.464 727.468 196.604H731.236C731.236 195.488 730.516 194.744 729.424 194.744ZM732.895 198.368H733.687C733.687 199.04 734.191 199.46 735.007 199.46C735.907 199.46 736.435 199.076 736.435 198.452C736.435 197.972 736.195 197.696 735.511 197.528L734.515 197.276C733.507 197.024 733.015 196.496 733.015 195.704C733.015 194.684 733.867 194.036 735.115 194.036C736.339 194.036 737.131 194.708 737.167 195.788H736.363C736.339 195.116 735.871 194.72 735.091 194.72C734.275 194.72 733.819 195.068 733.819 195.692C733.819 196.136 734.131 196.448 734.767 196.604L735.763 196.856C736.771 197.108 737.227 197.576 737.227 198.416C737.227 199.46 736.339 200.144 735.019 200.144C733.711 200.144 732.895 199.448 732.895 198.368Z" fill="#1A73C1"/>
<g filter="url(#filter1_d_1209_19317)">
<path d="M629 209H929V509H629V209Z" fill="#1A73C1"/>
<path d="M928.073 209.927V508.073H629.927V209.927H928.073Z" stroke="#DCDCDC" stroke-width="1.85333"/>
</g>
<defs>
<filter id="filter0_d_1209_19317" x="68" y="209" width="309" height="308" filterUnits="userSpaceOnUse" color-interpolation-filters="sRGB">
<feFlood flood-opacity="0" result="BackgroundImageFix"/>
<feColorMatrix in="SourceAlpha" type="matrix" values="0 0 0 0 0 0 0 0 0 0 0 0 0 0 0 0 0 0 127 0" result="hardAlpha"/>
<feOffset dx="5" dy="4"/>
<feGaussianBlur stdDeviation="2"/>
<feComposite in2="hardAlpha" operator="out"/>
<feColorMatrix type="matrix" values="0 0 0 0 0 0 0 0 0 0 0 0 0 0 0 0 0 0 0.1 0"/>
<feBlend mode="normal" in2="BackgroundImageFix" result="effect1_dropShadow_1209_19317"/>
<feBlend mode="normal" in="SourceGraphic" in2="effect1_dropShadow_1209_19317" result="shape"/>
</filter>
<filter id="filter1_d_1209_19317" x="629" y="203" width="313" height="308" filterUnits="userSpaceOnUse" color-interpolation-filters="sRGB">
<feFlood flood-opacity="0" result="BackgroundImageFix"/>
<feColorMatrix in="SourceAlpha" type="matrix" values="0 0 0 0 0 0 0 0 0 0 0 0 0 0 0 0 0 0 127 0" result="hardAlpha"/>
<feOffset dx="9" dy="-2"/>
<feGaussianBlur stdDeviation="2"/>
<feColorMatrix type="matrix" values="0 0 0 0 0 0 0 0 0 0 0 0 0 0 0 0 0 0 0.1 0"/>
<feBlend mode="normal" in2="BackgroundImageFix" result="effect1_dropShadow_1209_19317"/>
<feBlend mode="normal" in="SourceGraphic" in2="effect1_dropShadow_1209_19317" result="shape"/>
</filter>
</defs>
</svg>
