<svg width="663" height="138" viewBox="0 0 663 138" fill="none" xmlns="http://www.w3.org/2000/svg">
<path d="M9.12 35L0.32 11.864H3.68L9.312 26.648C9.824 27.96 10.272 29.272 10.752 31C11.296 29.176 11.84 27.64 12.224 26.616L17.824 11.864H21.088L12.384 35H9.12ZM25.467 35.384C22.107 35.384 20.123 33.496 20.123 30.648C20.123 27.768 22.267 25.976 25.947 25.688L30.875 25.304V24.856C30.875 22.232 29.307 21.304 27.195 21.304C24.667 21.304 23.227 22.424 23.227 24.312H20.603C20.603 21.048 23.291 18.904 27.323 18.904C31.195 18.904 33.819 20.952 33.819 25.176V35H31.259L30.939 32.472C30.139 34.264 27.995 35.384 25.467 35.384ZM26.331 33.048C29.179 33.048 30.907 31.192 30.907 28.248V27.416L26.907 27.736C24.251 27.992 23.163 29.016 23.163 30.552C23.163 32.216 24.379 33.048 26.331 33.048ZM40.8968 35H37.8888V11.448H40.8968V35ZM44.1408 27.16C44.1408 22.328 47.5968 18.936 52.3008 18.936C56.9728 18.936 60.4288 22.328 60.4288 27.16C60.4288 31.992 56.9728 35.384 52.3008 35.384C47.5968 35.384 44.1408 31.992 44.1408 27.16ZM47.1808 27.16C47.1808 30.424 49.2608 32.696 52.3008 32.696C55.3088 32.696 57.4208 30.424 57.4208 27.16C57.4208 23.896 55.3088 21.624 52.3008 21.624C49.2608 21.624 47.1808 23.896 47.1808 27.16ZM72.5585 19.224V21.976H71.2145C68.3665 21.976 66.6065 23.704 66.6065 26.712V35H63.5985V19.384H66.4145L66.6065 21.752C67.2465 20.12 68.8145 19.032 70.9585 19.032C71.5025 19.032 71.9505 19.096 72.5585 19.224ZM81.4092 35.384C76.8012 35.384 73.6332 32.056 73.6332 27.192C73.6332 22.296 76.7372 18.904 81.2812 18.904C85.7292 18.904 88.6412 21.976 88.6412 26.616V27.736L76.5452 27.768C76.7692 31.064 78.4972 32.888 81.4732 32.888C83.8092 32.888 85.3452 31.928 85.8572 30.136H88.6732C87.9052 33.496 85.2812 35.384 81.4092 35.384ZM81.2812 21.432C78.6572 21.432 76.9932 23 76.6092 25.752H85.6332C85.6332 23.16 83.9372 21.432 81.2812 21.432ZM90.561 30.456H93.441C93.441 32.056 94.657 33.016 96.641 33.016C98.753 33.016 99.969 32.152 99.969 30.712C99.969 29.656 99.457 29.016 97.825 28.6L95.073 27.96C92.289 27.288 90.977 25.912 90.977 23.608C90.977 20.728 93.409 18.904 96.865 18.904C100.289 18.904 102.529 20.824 102.593 23.8H99.713C99.649 22.232 98.593 21.24 96.769 21.24C94.881 21.24 93.825 22.072 93.825 23.512C93.825 24.568 94.593 25.272 96.129 25.656L98.881 26.328C101.537 26.968 102.849 28.184 102.849 30.52C102.849 33.496 100.289 35.384 96.577 35.384C92.897 35.384 90.561 33.432 90.561 30.456ZM108.585 23.384C107.337 23.384 106.281 22.36 106.281 21.176C106.281 19.928 107.337 18.904 108.585 18.904C109.801 18.904 110.857 19.928 110.857 21.176C110.857 22.36 109.801 23.384 108.585 23.384ZM108.585 35.384C107.337 35.384 106.281 34.36 106.281 33.144C106.281 31.896 107.337 30.872 108.585 30.872C109.801 30.872 110.857 31.896 110.857 33.144C110.857 34.36 109.801 35.384 108.585 35.384ZM123.315 23.448C123.315 16.28 127.027 11.416 132.851 11.416C138.643 11.416 142.355 16.28 142.355 23.448C142.355 30.648 138.803 35.416 132.851 35.416C126.867 35.416 123.315 30.648 123.315 23.448ZM126.419 23.448C126.419 29.144 128.787 32.6 132.851 32.6C136.915 32.6 139.251 29.144 139.251 23.448C139.251 17.688 136.915 14.232 132.851 14.232C128.787 14.232 126.419 17.688 126.419 23.448ZM149.15 33.752C149.15 36.056 147.422 37.976 145.15 38.264V36.92C146.462 36.696 147.39 35.832 147.39 34.84C147.166 34.968 146.91 35.032 146.526 35.032C145.47 35.032 144.574 34.264 144.574 33.08C144.574 31.8 145.438 30.872 146.718 30.872C148.062 30.872 149.15 31.992 149.15 33.752ZM165.72 14.68H160.856V11.864H168.728V35H165.72V14.68ZM177.92 33.752C177.92 36.056 176.192 37.976 173.92 38.264V36.92C175.232 36.696 176.16 35.832 176.16 34.84C175.936 34.968 175.68 35.032 175.296 35.032C174.24 35.032 173.344 34.264 173.344 33.08C173.344 31.8 174.208 30.872 175.488 30.872C176.832 30.872 177.92 31.992 177.92 33.752ZM205.594 34.968L189.978 35V32.6L197.434 26.168C201.178 22.936 202.234 21.368 202.234 18.904C202.234 15.992 200.57 14.264 197.786 14.264C194.938 14.264 193.082 16.344 193.018 19.64H189.882C189.978 14.68 193.114 11.448 197.818 11.448C202.458 11.448 205.434 14.264 205.434 18.712C205.434 22.008 203.802 24.344 199.706 27.896L194.906 32.056H205.594V34.968ZM213.722 33.752C213.722 36.056 211.994 37.976 209.722 38.264V36.92C211.034 36.696 211.962 35.832 211.962 34.84C211.738 34.968 211.482 35.032 211.098 35.032C210.042 35.032 209.146 34.264 209.146 33.08C209.146 31.8 210.01 30.872 211.29 30.872C212.634 30.872 213.722 31.992 213.722 33.752ZM232.499 23.032H230.195V20.952L236.755 14.648H226.355V11.864H240.723V14.392L234.387 20.44C238.323 20.92 241.299 23.576 241.299 27.736C241.299 32.408 237.779 35.384 233.075 35.384C228.531 35.384 225.267 32.6 225.267 27.8H228.371C228.371 30.808 230.227 32.568 233.139 32.568C236.147 32.568 238.099 30.648 238.099 27.672C238.099 24.888 236.179 23.032 232.499 23.032ZM248.492 33.752C248.492 36.056 246.764 37.976 244.492 38.264V36.92C245.804 36.696 246.732 35.832 246.732 34.84C246.508 34.968 246.252 35.032 245.868 35.032C244.812 35.032 243.916 34.264 243.916 33.08C243.916 31.8 244.78 30.872 246.06 30.872C247.404 30.872 248.492 31.992 248.492 33.752ZM277.894 30.328H275.142V35H272.134V30.328H260.166V27.544L271.078 11.864H275.142V27.544H277.894V30.328ZM263.558 27.544H272.134V15.192L263.558 27.544ZM285.262 33.752C285.262 36.056 283.534 37.976 281.262 38.264V36.92C282.574 36.696 283.502 35.832 283.502 34.84C283.278 34.968 283.022 35.032 282.638 35.032C281.582 35.032 280.686 34.264 280.686 33.08C280.686 31.8 281.55 30.872 282.83 30.872C284.174 30.872 285.262 31.992 285.262 33.752ZM300.36 19.192L305.768 11.864H309.416L303.624 19.544C304.424 19.224 305.256 19.064 306.056 19.064C310.856 19.064 314.088 22.52 314.088 27.096C314.088 31.928 310.44 35.384 305.672 35.384C300.872 35.384 297.16 31.768 297.16 27.096C297.16 24.344 297.992 22.424 300.36 19.192ZM300.36 27.128C300.36 30.296 302.536 32.568 305.672 32.568C308.744 32.568 310.92 30.296 310.92 27.128C310.92 23.96 308.744 21.72 305.672 21.72C302.536 21.72 300.36 23.96 300.36 27.128ZM321.251 33.752C321.251 36.056 319.523 37.976 317.251 38.264V36.92C318.562 36.696 319.491 35.832 319.491 34.84C319.266 34.968 319.011 35.032 318.627 35.032C317.571 35.032 316.674 34.264 316.674 33.08C316.674 31.8 317.539 30.872 318.819 30.872C320.163 30.872 321.251 31.992 321.251 33.752ZM333.34 28.568C333.34 25.784 334.972 23.544 337.532 22.616C335.356 21.688 334.172 19.864 334.172 17.528C334.172 13.912 337.276 11.448 341.884 11.448C346.428 11.448 349.5 13.912 349.5 17.56C349.5 19.928 348.284 21.752 346.108 22.616C348.7 23.448 350.364 25.752 350.364 28.6C350.364 32.664 346.972 35.384 341.852 35.384C336.7 35.384 333.34 32.664 333.34 28.568ZM337.052 17.72C337.052 19.992 338.94 21.464 341.82 21.464C344.732 21.464 346.556 20.024 346.556 17.784C346.556 15.576 344.732 14.168 341.82 14.168C338.94 14.168 337.052 15.576 337.052 17.72ZM336.412 28.344C336.412 30.936 338.556 32.6 341.852 32.6C345.116 32.6 347.26 30.936 347.26 28.344C347.26 25.784 345.148 24.152 341.82 24.152C338.524 24.152 336.412 25.784 336.412 28.344Z" fill="black"/>
<path d="M11.12 104.5V103.84H16.25V104.5H14.04V111H13.32V104.5H11.12ZM18.9754 106.1V106.72H18.5954C17.7054 106.72 17.1354 107.32 17.1354 108.24V111H16.4454V106.16H17.0954L17.1454 106.91C17.3354 106.39 17.8454 106.05 18.5254 106.05C18.6754 106.05 18.8054 106.06 18.9754 106.1ZM21.0373 111.12C20.0073 111.12 19.3973 110.54 19.3973 109.69C19.3973 108.8 20.0773 108.24 21.2073 108.15L22.8073 108.02V107.86C22.8073 106.91 22.2373 106.61 21.5273 106.61C20.6873 106.61 20.1873 106.99 20.1873 107.64H19.5573C19.5573 106.66 20.3573 106.03 21.5473 106.03C22.6673 106.03 23.4873 106.59 23.4873 107.87V111H22.9073L22.8173 110.15C22.5173 110.76 21.8573 111.12 21.0373 111.12ZM21.1973 110.56C22.2173 110.56 22.8073 109.85 22.8073 108.8V108.54L21.3773 108.65C20.4673 108.73 20.0973 109.13 20.0973 109.67C20.0973 110.26 20.5373 110.56 21.1973 110.56ZM28.142 111H24.492V110.45L27.292 106.74H24.492V106.16H28.142V106.72L25.332 110.42H28.142V111ZM28.7093 108.58C28.7093 107.1 29.7493 106.03 31.1693 106.03C32.5893 106.03 33.6293 107.1 33.6293 108.58C33.6293 110.05 32.5893 111.12 31.1693 111.12C29.7493 111.12 28.7093 110.05 28.7093 108.58ZM29.4093 108.57C29.4093 109.71 30.1293 110.5 31.1693 110.5C32.1993 110.5 32.9293 109.71 32.9293 108.57C32.9293 107.45 32.1993 106.65 31.1693 106.65C30.1293 106.65 29.4093 107.45 29.4093 108.57ZM35.3729 107.28C35.0329 107.28 34.7429 106.99 34.7429 106.66C34.7429 106.32 35.0329 106.04 35.3729 106.04C35.7129 106.04 36.0029 106.32 36.0029 106.66C36.0029 106.99 35.7129 107.28 35.3729 107.28ZM35.3729 111.11C35.0329 111.11 34.7429 110.83 34.7429 110.5C34.7429 110.16 35.0329 109.87 35.3729 109.87C35.7129 109.87 36.0029 110.16 36.0029 110.5C36.0029 110.83 35.7129 111.11 35.3729 111.11ZM41.2686 104.49H39.8086V103.84H41.9586V111H41.2686V104.49ZM43.4684 113.11V106.16H44.0684L44.1384 107.14C44.4784 106.39 45.1584 106.03 45.9684 106.03C47.3684 106.03 48.2084 107.1 48.2084 108.56C48.2084 110.02 47.3984 111.12 45.9684 111.12C45.1484 111.12 44.4984 110.77 44.1584 110.07V113.11H43.4684ZM44.1684 108.58C44.1684 109.69 44.7884 110.5 45.8484 110.5C46.8984 110.5 47.5084 109.69 47.5084 108.58C47.5084 107.46 46.8984 106.66 45.8484 106.66C44.7884 106.66 44.1684 107.46 44.1684 108.58ZM49.2823 111H48.4723L50.2023 108.58L48.4823 106.16H49.2923L50.6623 108.1L52.0223 106.16H52.8223L51.1023 108.59L52.8123 111H51.9923L50.6323 109.06L49.2823 111Z" fill="#1A73C1"/>
<line x1="11" y1="137.5" x2="82" y2="137.5" stroke="#1A73C1"/>
<path d="M121.12 104.5V103.84H126.25V104.5H124.04V111H123.32V104.5H121.12ZM128.975 106.1V106.72H128.595C127.705 106.72 127.135 107.32 127.135 108.24V111H126.445V106.16H127.095L127.145 106.91C127.335 106.39 127.845 106.05 128.525 106.05C128.675 106.05 128.805 106.06 128.975 106.1ZM131.037 111.12C130.007 111.12 129.397 110.54 129.397 109.69C129.397 108.8 130.077 108.24 131.207 108.15L132.807 108.02V107.86C132.807 106.91 132.237 106.61 131.527 106.61C130.687 106.61 130.187 106.99 130.187 107.64H129.557C129.557 106.66 130.357 106.03 131.547 106.03C132.667 106.03 133.487 106.59 133.487 107.87V111H132.907L132.817 110.15C132.517 110.76 131.857 111.12 131.037 111.12ZM131.197 110.56C132.217 110.56 132.807 109.85 132.807 108.8V108.54L131.377 108.65C130.467 108.73 130.097 109.13 130.097 109.67C130.097 110.26 130.537 110.56 131.197 110.56ZM138.142 111H134.492V110.45L137.292 106.74H134.492V106.16H138.142V106.72L135.332 110.42H138.142V111ZM138.709 108.58C138.709 107.1 139.749 106.03 141.169 106.03C142.589 106.03 143.629 107.1 143.629 108.58C143.629 110.05 142.589 111.12 141.169 111.12C139.749 111.12 138.709 110.05 138.709 108.58ZM139.409 108.57C139.409 109.71 140.129 110.5 141.169 110.5C142.199 110.5 142.929 109.71 142.929 108.57C142.929 107.45 142.199 106.65 141.169 106.65C140.129 106.65 139.409 107.45 139.409 108.57ZM145.373 107.28C145.033 107.28 144.743 106.99 144.743 106.66C144.743 106.32 145.033 106.04 145.373 106.04C145.713 106.04 146.003 106.32 146.003 106.66C146.003 106.99 145.713 107.28 145.373 107.28ZM145.373 111.11C145.033 111.11 144.743 110.83 144.743 110.5C144.743 110.16 145.033 109.87 145.373 109.87C145.713 109.87 146.003 110.16 146.003 110.5C146.003 110.83 145.713 111.11 145.373 111.11ZM154.629 111H149.909V110.43L152.199 108.43C153.519 107.28 153.859 106.78 153.859 105.93C153.859 104.96 153.279 104.37 152.329 104.37C151.339 104.37 150.689 105.09 150.659 106.2H149.939C149.979 104.7 150.929 103.71 152.339 103.71C153.689 103.71 154.589 104.58 154.589 105.89C154.589 106.93 154.119 107.62 152.689 108.87L151.019 110.33H154.629V111ZM155.744 113.11V106.16H156.344L156.414 107.14C156.754 106.39 157.434 106.03 158.244 106.03C159.644 106.03 160.484 107.1 160.484 108.56C160.484 110.02 159.674 111.12 158.244 111.12C157.424 111.12 156.774 110.77 156.434 110.07V113.11H155.744ZM156.444 108.58C156.444 109.69 157.064 110.5 158.124 110.5C159.174 110.5 159.784 109.69 159.784 108.58C159.784 107.46 159.174 106.66 158.124 106.66C157.064 106.66 156.444 107.46 156.444 108.58ZM161.558 111H160.748L162.478 108.58L160.758 106.16H161.568L162.938 108.1L164.298 106.16H165.098L163.378 108.59L165.088 111H164.268L162.908 109.06L161.558 111Z" fill="#1A73C1"/>
<line x1="121" y1="137" x2="192" y2="137" stroke="#1A73C1" stroke-width="2"/>
<path d="M330.12 104.5V103.84H335.25V104.5H333.04V111H332.32V104.5H330.12ZM337.975 106.1V106.72H337.595C336.705 106.72 336.135 107.32 336.135 108.24V111H335.445V106.16H336.095L336.145 106.91C336.335 106.39 336.845 106.05 337.525 106.05C337.675 106.05 337.805 106.06 337.975 106.1ZM340.037 111.12C339.007 111.12 338.397 110.54 338.397 109.69C338.397 108.8 339.077 108.24 340.207 108.15L341.807 108.02V107.86C341.807 106.91 341.237 106.61 340.527 106.61C339.687 106.61 339.187 106.99 339.187 107.64H338.557C338.557 106.66 339.357 106.03 340.547 106.03C341.667 106.03 342.487 106.59 342.487 107.87V111H341.907L341.817 110.15C341.517 110.76 340.857 111.12 340.037 111.12ZM340.197 110.56C341.217 110.56 341.807 109.85 341.807 108.8V108.54L340.377 108.65C339.467 108.73 339.097 109.13 339.097 109.67C339.097 110.26 339.537 110.56 340.197 110.56ZM347.142 111H343.492V110.45L346.292 106.74H343.492V106.16H347.142V106.72L344.332 110.42H347.142V111ZM347.709 108.58C347.709 107.1 348.749 106.03 350.169 106.03C351.589 106.03 352.629 107.1 352.629 108.58C352.629 110.05 351.589 111.12 350.169 111.12C348.749 111.12 347.709 110.05 347.709 108.58ZM348.409 108.57C348.409 109.71 349.129 110.5 350.169 110.5C351.199 110.5 351.929 109.71 351.929 108.57C351.929 107.45 351.199 106.65 350.169 106.65C349.129 106.65 348.409 107.45 348.409 108.57ZM354.373 107.28C354.033 107.28 353.743 106.99 353.743 106.66C353.743 106.32 354.033 106.04 354.373 106.04C354.713 106.04 355.003 106.32 355.003 106.66C355.003 106.99 354.713 107.28 354.373 107.28ZM354.373 111.11C354.033 111.11 353.743 110.83 353.743 110.5C353.743 110.16 354.033 109.87 354.373 109.87C354.713 109.87 355.003 110.16 355.003 110.5C355.003 110.83 354.713 111.11 354.373 111.11ZM364.159 109.48H363.319V111H362.619V109.48H358.859V108.84L362.359 103.84H363.319V108.84H364.159V109.48ZM359.639 108.84H362.619V104.58L359.639 108.84ZM365.398 113.11V106.16H365.998L366.068 107.14C366.408 106.39 367.088 106.03 367.898 106.03C369.298 106.03 370.138 107.1 370.138 108.56C370.138 110.02 369.328 111.12 367.898 111.12C367.078 111.12 366.428 110.77 366.088 110.07V113.11H365.398ZM366.098 108.58C366.098 109.69 366.718 110.5 367.778 110.5C368.828 110.5 369.438 109.69 369.438 108.58C369.438 107.46 368.828 106.66 367.778 106.66C366.718 106.66 366.098 107.46 366.098 108.58ZM371.212 111H370.402L372.132 108.58L370.412 106.16H371.222L372.592 108.1L373.952 106.16H374.752L373.032 108.59L374.742 111H373.922L372.562 109.06L371.212 111Z" fill="#1A73C1"/>
<line x1="330" y1="136" x2="401" y2="136" stroke="#1A73C1" stroke-width="4"/>
<path d="M435.12 104.5V103.84H440.25V104.5H438.04V111H437.32V104.5H435.12ZM442.975 106.1V106.72H442.595C441.705 106.72 441.135 107.32 441.135 108.24V111H440.445V106.16H441.095L441.145 106.91C441.335 106.39 441.845 106.05 442.525 106.05C442.675 106.05 442.805 106.06 442.975 106.1ZM445.037 111.12C444.007 111.12 443.397 110.54 443.397 109.69C443.397 108.8 444.077 108.24 445.207 108.15L446.807 108.02V107.86C446.807 106.91 446.237 106.61 445.527 106.61C444.687 106.61 444.187 106.99 444.187 107.64H443.557C443.557 106.66 444.357 106.03 445.547 106.03C446.667 106.03 447.487 106.59 447.487 107.87V111H446.907L446.817 110.15C446.517 110.76 445.857 111.12 445.037 111.12ZM445.197 110.56C446.217 110.56 446.807 109.85 446.807 108.8V108.54L445.377 108.65C444.467 108.73 444.097 109.13 444.097 109.67C444.097 110.26 444.537 110.56 445.197 110.56ZM452.142 111H448.492V110.45L451.292 106.74H448.492V106.16H452.142V106.72L449.332 110.42H452.142V111ZM452.709 108.58C452.709 107.1 453.749 106.03 455.169 106.03C456.589 106.03 457.629 107.1 457.629 108.58C457.629 110.05 456.589 111.12 455.169 111.12C453.749 111.12 452.709 110.05 452.709 108.58ZM453.409 108.57C453.409 109.71 454.129 110.5 455.169 110.5C456.199 110.5 456.929 109.71 456.929 108.57C456.929 107.45 456.199 106.65 455.169 106.65C454.129 106.65 453.409 107.45 453.409 108.57ZM459.373 107.28C459.033 107.28 458.743 106.99 458.743 106.66C458.743 106.32 459.033 106.04 459.373 106.04C459.713 106.04 460.003 106.32 460.003 106.66C460.003 106.99 459.713 107.28 459.373 107.28ZM459.373 111.11C459.033 111.11 458.743 110.83 458.743 110.5C458.743 110.16 459.033 109.87 459.373 109.87C459.713 109.87 460.003 110.16 460.003 110.5C460.003 110.83 459.713 111.11 459.373 111.11ZM464.819 106.25L466.609 103.84H467.449L465.569 106.33C465.909 106.16 466.219 106.09 466.549 106.09C468.039 106.09 469.029 107.18 469.029 108.58C469.029 110.05 467.919 111.12 466.489 111.12C465.049 111.12 463.919 110.01 463.919 108.58C463.919 107.75 464.149 107.17 464.819 106.25ZM464.649 108.59C464.649 109.68 465.399 110.47 466.489 110.47C467.549 110.47 468.309 109.68 468.309 108.59C468.309 107.5 467.549 106.72 466.489 106.72C465.399 106.72 464.649 107.5 464.649 108.59ZM470.154 113.11V106.16H470.754L470.824 107.14C471.164 106.39 471.844 106.03 472.654 106.03C474.054 106.03 474.894 107.1 474.894 108.56C474.894 110.02 474.084 111.12 472.654 111.12C471.834 111.12 471.184 110.77 470.844 110.07V113.11H470.154ZM470.854 108.58C470.854 109.69 471.474 110.5 472.534 110.5C473.584 110.5 474.194 109.69 474.194 108.58C474.194 107.46 473.584 106.66 472.534 106.66C471.474 106.66 470.854 107.46 470.854 108.58ZM475.968 111H475.158L476.888 108.58L475.168 106.16H475.978L477.348 108.1L478.708 106.16H479.508L477.788 108.59L479.498 111H478.678L477.318 109.06L475.968 111Z" fill="#1A73C1"/>
<line x1="435" y1="135" x2="506" y2="135" stroke="#1A73C1" stroke-width="6"/>
<path d="M542.12 104.5V103.84H547.25V104.5H545.04V111H544.32V104.5H542.12ZM549.975 106.1V106.72H549.595C548.705 106.72 548.135 107.32 548.135 108.24V111H547.445V106.16H548.095L548.145 106.91C548.335 106.39 548.845 106.05 549.525 106.05C549.675 106.05 549.805 106.06 549.975 106.1ZM552.037 111.12C551.007 111.12 550.397 110.54 550.397 109.69C550.397 108.8 551.077 108.24 552.207 108.15L553.807 108.02V107.86C553.807 106.91 553.237 106.61 552.527 106.61C551.687 106.61 551.187 106.99 551.187 107.64H550.557C550.557 106.66 551.357 106.03 552.547 106.03C553.667 106.03 554.487 106.59 554.487 107.87V111H553.907L553.817 110.15C553.517 110.76 552.857 111.12 552.037 111.12ZM552.197 110.56C553.217 110.56 553.807 109.85 553.807 108.8V108.54L552.377 108.65C551.467 108.73 551.097 109.13 551.097 109.67C551.097 110.26 551.537 110.56 552.197 110.56ZM559.142 111H555.492V110.45L558.292 106.74H555.492V106.16H559.142V106.72L556.332 110.42H559.142V111ZM559.709 108.58C559.709 107.1 560.749 106.03 562.169 106.03C563.589 106.03 564.629 107.1 564.629 108.58C564.629 110.05 563.589 111.12 562.169 111.12C560.749 111.12 559.709 110.05 559.709 108.58ZM560.409 108.57C560.409 109.71 561.129 110.5 562.169 110.5C563.199 110.5 563.929 109.71 563.929 108.57C563.929 107.45 563.199 106.65 562.169 106.65C561.129 106.65 560.409 107.45 560.409 108.57ZM566.373 107.28C566.033 107.28 565.743 106.99 565.743 106.66C565.743 106.32 566.033 106.04 566.373 106.04C566.713 106.04 567.003 106.32 567.003 106.66C567.003 106.99 566.713 107.28 566.373 107.28ZM566.373 111.11C566.033 111.11 565.743 110.83 565.743 110.5C565.743 110.16 566.033 109.87 566.373 109.87C566.713 109.87 567.003 110.16 567.003 110.5C567.003 110.83 566.713 111.11 566.373 111.11ZM570.969 109.05C570.969 108.17 571.499 107.47 572.349 107.18C571.629 106.89 571.219 106.3 571.219 105.56C571.219 104.46 572.159 103.71 573.529 103.71C574.889 103.71 575.799 104.46 575.799 105.57C575.799 106.32 575.399 106.91 574.689 107.18C575.519 107.44 576.069 108.16 576.069 109.06C576.069 110.28 575.039 111.12 573.519 111.12C571.999 111.12 570.969 110.28 570.969 109.05ZM571.899 105.58C571.899 106.37 572.539 106.9 573.519 106.9C574.489 106.9 575.119 106.39 575.119 105.6C575.119 104.83 574.489 104.35 573.519 104.35C572.539 104.35 571.899 104.83 571.899 105.58ZM571.679 108.99C571.679 109.88 572.419 110.47 573.529 110.47C574.619 110.47 575.359 109.88 575.359 108.99C575.359 108.11 574.639 107.54 573.509 107.54C572.399 107.54 571.679 108.11 571.679 108.99ZM577.252 113.11V106.16H577.852L577.922 107.14C578.262 106.39 578.942 106.03 579.752 106.03C581.152 106.03 581.992 107.1 581.992 108.56C581.992 110.02 581.182 111.12 579.752 111.12C578.932 111.12 578.282 110.77 577.942 110.07V113.11H577.252ZM577.952 108.58C577.952 109.69 578.572 110.5 579.632 110.5C580.682 110.5 581.292 109.69 581.292 108.58C581.292 107.46 580.682 106.66 579.632 106.66C578.572 106.66 577.952 107.46 577.952 108.58ZM583.065 111H582.255L583.985 108.58L582.265 106.16H583.075L584.445 108.1L585.805 106.16H586.605L584.885 108.59L586.595 111H585.775L584.415 109.06L583.065 111Z" fill="#1A73C1"/>
<line x1="542" y1="134" x2="613" y2="134" stroke="#1A73C1" stroke-width="8"/>
<path d="M223.12 104.5V103.84H228.25V104.5H226.04V111H225.32V104.5H223.12ZM230.975 106.1V106.72H230.595C229.705 106.72 229.135 107.32 229.135 108.24V111H228.445V106.16H229.095L229.145 106.91C229.335 106.39 229.845 106.05 230.525 106.05C230.675 106.05 230.805 106.06 230.975 106.1ZM233.037 111.12C232.007 111.12 231.397 110.54 231.397 109.69C231.397 108.8 232.077 108.24 233.207 108.15L234.807 108.02V107.86C234.807 106.91 234.237 106.61 233.527 106.61C232.687 106.61 232.187 106.99 232.187 107.64H231.557C231.557 106.66 232.357 106.03 233.547 106.03C234.667 106.03 235.487 106.59 235.487 107.87V111H234.907L234.817 110.15C234.517 110.76 233.857 111.12 233.037 111.12ZM233.197 110.56C234.217 110.56 234.807 109.85 234.807 108.8V108.54L233.377 108.65C232.467 108.73 232.097 109.13 232.097 109.67C232.097 110.26 232.537 110.56 233.197 110.56ZM240.142 111H236.492V110.45L239.292 106.74H236.492V106.16H240.142V106.72L237.332 110.42H240.142V111ZM240.709 108.58C240.709 107.1 241.749 106.03 243.169 106.03C244.589 106.03 245.629 107.1 245.629 108.58C245.629 110.05 244.589 111.12 243.169 111.12C241.749 111.12 240.709 110.05 240.709 108.58ZM241.409 108.57C241.409 109.71 242.129 110.5 243.169 110.5C244.199 110.5 244.929 109.71 244.929 108.57C244.929 107.45 244.199 106.65 243.169 106.65C242.129 106.65 241.409 107.45 241.409 108.57ZM247.373 107.28C247.033 107.28 246.743 106.99 246.743 106.66C246.743 106.32 247.033 106.04 247.373 106.04C247.713 106.04 248.003 106.32 248.003 106.66C248.003 106.99 247.713 107.28 247.373 107.28ZM247.373 111.11C247.033 111.11 246.743 110.83 246.743 110.5C246.743 110.16 247.033 109.87 247.373 109.87C247.713 109.87 248.003 110.16 248.003 110.5C248.003 110.83 247.713 111.11 247.373 111.11ZM253.989 107.16H253.419V106.66L255.629 104.48H252.199V103.84H256.539V104.42L254.399 106.55C255.739 106.62 256.699 107.47 256.699 108.77C256.699 110.19 255.659 111.12 254.209 111.12C252.799 111.12 251.849 110.25 251.849 108.82H252.559C252.559 109.85 253.199 110.47 254.209 110.47C255.279 110.47 255.969 109.79 255.969 108.75C255.969 107.77 255.269 107.16 253.989 107.16ZM257.812 113.11V106.16H258.412L258.482 107.14C258.822 106.39 259.502 106.03 260.312 106.03C261.712 106.03 262.552 107.1 262.552 108.56C262.552 110.02 261.742 111.12 260.312 111.12C259.492 111.12 258.842 110.77 258.502 110.07V113.11H257.812ZM258.512 108.58C258.512 109.69 259.132 110.5 260.192 110.5C261.242 110.5 261.852 109.69 261.852 108.58C261.852 107.46 261.242 106.66 260.192 106.66C259.132 106.66 258.512 107.46 258.512 108.58ZM263.626 111H262.816L264.546 108.58L262.826 106.16H263.636L265.006 108.1L266.366 106.16H267.166L265.446 108.59L267.156 111H266.336L264.976 109.06L263.626 111Z" fill="#1A73C1"/>
<line x1="223" y1="136.5" x2="294" y2="136.5" stroke="#1A73C1" stroke-width="3"/>
</svg>
