<svg width="40" height="40" viewBox="0 0 40 40" fill="none" xmlns="http://www.w3.org/2000/svg">
<path d="M4.16663 6.43487C4.16663 5.18206 5.20767 4.16675 6.49215 4.16675H33.5078C34.7922 4.16675 35.8333 5.18206 35.8333 6.43487V33.5653C35.8333 34.8181 34.7922 35.8334 33.5078 35.8334H6.49215C5.20767 35.8334 4.16663 34.8181 4.16663 33.5653V6.43487ZM13.9496 30.6757V16.3762H9.19767V30.6757H13.9496ZM11.5746 14.4228C13.2312 14.4228 14.2624 13.3263 14.2624 11.9528C14.2327 10.5496 13.2332 9.48279 11.6063 9.48279C9.97944 9.48279 8.91663 10.5515 8.91663 11.9528C8.91663 13.3263 9.94777 14.4228 11.543 14.4228H11.5746ZM21.2884 30.6757V22.6898C21.2884 22.2623 21.3201 21.8348 21.4467 21.53C21.7891 20.677 22.5709 19.7923 23.8851 19.7923C25.605 19.7923 26.2917 21.1025 26.2917 23.0262V30.6757H31.0437V22.474C31.0437 18.0803 28.7004 16.0378 25.5733 16.0378C23.0518 16.0378 21.9217 17.4232 21.2884 18.3989V18.4484H21.2567C21.2672 18.4319 21.2778 18.4154 21.2884 18.3989V16.3762H16.5384C16.5978 17.7181 16.5384 30.6757 16.5384 30.6757H21.2884Z" fill="#8ACB8B"/>
</svg>
