<svg width="40" height="40" viewBox="0 0 40 40" fill="none" xmlns="http://www.w3.org/2000/svg">
<path fill-rule="evenodd" clip-rule="evenodd" d="M2.60938 10.1223C2.82991 9.14062 3.37206 8.26411 4.14702 7.63632C4.92197 7.00853 5.88381 6.66668 6.875 6.66675H33.125C34.1162 6.66668 35.078 7.00853 35.853 7.63632C36.6279 8.26411 37.1701 9.14062 37.3906 10.1223L20 20.9201L2.60938 10.1223ZM2.5 12.6601V28.4467L15.1941 20.5401L2.5 12.6601ZM17.2897 21.8445L2.91781 30.7934C3.2729 31.554 3.83334 32.1966 4.5339 32.6463C5.23445 33.0959 6.04632 33.3342 6.875 33.3334H33.125C33.9535 33.3336 34.7651 33.0948 35.4653 32.6447C36.1654 32.1947 36.7254 31.5519 37.08 30.7912L22.7081 21.8423L20 23.5245L17.2897 21.8423V21.8445ZM24.8059 20.5423L37.5 28.4467V12.6601L24.8059 20.5401V20.5423Z" fill="#8ACB8B"/>
</svg>
