<svg width="1376" height="784" viewBox="0 0 1376 784" fill="none" xmlns="http://www.w3.org/2000/svg">
<rect x="1084.72" y="612.865" width="807.056" height="442.663" rx="5" transform="rotate(-180 1084.72 612.865)" stroke="#1EA849" stroke-width="6"/>
<line y1="-3" x2="293.897" y2="-3" transform="matrix(-0.880415 -0.474204 0.522765 -0.852477 1339.57 749.627)" stroke="#1EA849" stroke-width="6"/>
<line y1="-4" x2="294.77" y2="-4" transform="matrix(-0.88117 0.472799 -0.521313 -0.853366 1340.55 31.5781)" stroke="#1EA849" stroke-width="8"/>
<line y1="-3" x2="284.36" y2="-3" transform="matrix(-0.871722 -0.49 0.539322 -0.8421 282.594 172.775)" stroke="#1EA849" stroke-width="6"/>
<line y1="-3" x2="283.874" y2="-3" transform="matrix(-0.876708 0.481023 -0.530084 -0.847945 278.627 611.221)" stroke="#1EA849" stroke-width="6"/>
<rect x="1341.52" y="752.201" width="1308.77" height="720.408" rx="5" transform="rotate(-180 1341.52 752.201)" stroke="#1EA849" stroke-width="6"/>
<line x1="1179.93" y1="119.113" x2="188.395" y2="119.113" stroke="#1EA849" stroke-width="6"/>
<line x1="1268.17" y1="73.5938" x2="107.089" y2="73.5937" stroke="#1EA849" stroke-width="6"/>
<path d="M194.842 120.291L204.756 653.949" stroke="#1EA849" stroke-width="6"/>
<path d="M112.543 74.3125L121.967 704.063" stroke="#1EA849" stroke-width="6"/>
<path d="M1164.06 655.807L1175.47 119.362" stroke="#1EA849" stroke-width="6"/>
<path d="M1248.84 701.789L1261.73 73.3821" stroke="#1EA849" stroke-width="6"/>
<line y1="-3" x2="967.824" y2="-3" transform="matrix(-1 -8.74228e-08 -8.74228e-08 1 1166.17 658.592)" stroke="#1EA849" stroke-width="6"/>
<line y1="-3" x2="1133.32" y2="-3" transform="matrix(-1 -8.74228e-08 -8.74228e-08 1 1252.31 704.111)" stroke="#1EA849" stroke-width="6"/>
<line y1="-3" x2="443.09" y2="-3" transform="matrix(-0.00223767 -0.999998 0.999998 -0.00196394 684.158 609.359)" stroke="#1EA849" stroke-width="6"/>
<line y1="-3" x2="443.09" y2="-3" transform="matrix(-0.00223767 -0.999998 0.999998 -0.00196394 374.803 608.434)" stroke="#1EA849" stroke-width="6"/>
<line y1="-3" x2="443.09" y2="-3" transform="matrix(-0.00223767 -0.999998 0.999998 -0.00196394 581.043 610.291)" stroke="#1EA849" stroke-width="6"/>
<line y1="-3" x2="443.09" y2="-3" transform="matrix(-0.00223767 -0.999998 0.999998 -0.00196394 477.924 609.359)" stroke="#1EA849" stroke-width="6"/>
<line y1="-3" x2="443.09" y2="-3" transform="matrix(-0.00223767 -0.999998 0.999998 -0.00196394 787.281 607.506)" stroke="#1EA849" stroke-width="6"/>
<line y1="-3" x2="443.09" y2="-3" transform="matrix(-0.00223767 -0.999998 0.999998 -0.00196394 993.518 609.363)" stroke="#1EA849" stroke-width="6"/>
<line y1="-3" x2="443.09" y2="-3" transform="matrix(-0.00223767 -0.999998 0.999998 -0.00196394 890.398 608.434)" stroke="#1EA849" stroke-width="6"/>
<line y1="-3" x2="807.974" y2="-3" transform="matrix(-0.999999 0.00106685 -0.00411938 -0.999992 1088 339.545)" stroke="#1EA849" stroke-width="6"/>
<line y1="-3" x2="807.974" y2="-3" transform="matrix(-0.999999 0.00106725 -0.00411786 -0.999992 1089.7 429.195)" stroke="#1EA849" stroke-width="6"/>
<line y1="-3" x2="807.974" y2="-3" transform="matrix(-0.999999 0.00106685 -0.00411938 -0.999992 1088.01 518.85)" stroke="#1EA849" stroke-width="6"/>
<line y1="-3" x2="807.974" y2="-3" transform="matrix(-0.999999 0.00106685 -0.00411938 -0.999992 1084.62 249.893)" stroke="#1EA849" stroke-width="6"/>
<line x1="688.102" y1="748.701" x2="688.102" y2="608.436" stroke="#1EA849" stroke-width="6"/>
<line y1="-3" x2="140.606" y2="-3" transform="matrix(-0.13403 0.990977 -0.993037 -0.117802 575.092 609.367)" stroke="#1EA849" stroke-width="6"/>
<line y1="-3" x2="152.698" y2="-3" transform="matrix(-0.409085 0.912496 -0.930556 -0.36615 472.961 609.367)" stroke="#1EA849" stroke-width="6"/>
<line y1="-3" x2="186.573" y2="-3" transform="matrix(-0.653675 0.756775 -0.79689 -0.604125 368.852 607.51)" stroke="#1EA849" stroke-width="6"/>
<line y1="-3" x2="140.607" y2="-3" transform="matrix(0.134101 0.990968 0.993045 -0.117739 787.283 608.436)" stroke="#1EA849" stroke-width="6"/>
<line y1="-3" x2="152.698" y2="-3" transform="matrix(0.409085 0.912496 0.930556 -0.36615 889.41 608.436)" stroke="#1EA849" stroke-width="6"/>
<line y1="-3" x2="186.573" y2="-3" transform="matrix(0.653675 0.756775 0.79689 -0.604125 993.52 606.576)" stroke="#1EA849" stroke-width="6"/>
<line y1="-3" x2="140.265" y2="-3" transform="matrix(-4.07491e-08 1 1 4.64631e-08 693.086 28.793)" stroke="#1EA849" stroke-width="6"/>
<line y1="-3" x2="140.605" y2="-3" transform="matrix(-0.133987 -0.990983 -0.993033 0.11784 577.078 168.129)" stroke="#1EA849" stroke-width="6"/>
<line y1="-3" x2="152.698" y2="-3" transform="matrix(-0.409085 -0.912496 -0.930556 0.36615 474.951 168.129)" stroke="#1EA849" stroke-width="6"/>
<line y1="-3" x2="186.573" y2="-3" transform="matrix(-0.653675 -0.756775 -0.79689 0.604125 370.838 169.99)" stroke="#1EA849" stroke-width="6"/>
<line y1="-3" x2="140.605" y2="-3" transform="matrix(0.133987 -0.990983 0.993033 0.11784 789.266 169.057)" stroke="#1EA849" stroke-width="6"/>
<line y1="-3" x2="152.698" y2="-3" transform="matrix(0.409085 -0.912496 0.930556 0.36615 891.393 169.057)" stroke="#1EA849" stroke-width="6"/>
<line y1="-3" x2="186.573" y2="-3" transform="matrix(0.653675 -0.756775 0.79689 0.604125 995.504 170.916)" stroke="#1EA849" stroke-width="6"/>
<line y1="-3" x2="254.628" y2="-3" transform="matrix(-0.985191 0.171461 -0.194507 -0.980901 282.588 431.01)" stroke="#1EA849" stroke-width="6"/>
<line y1="-3" x2="268.334" y2="-3" transform="matrix(-0.927481 0.373871 -0.41737 -0.908737 280.607 519.252)" stroke="#1EA849" stroke-width="6"/>
<line y1="-3" x2="254.628" y2="-3" transform="matrix(-0.985191 -0.171461 -0.194507 0.980901 282.582 344.619)" stroke="#1EA849" stroke-width="6"/>
<line y1="-3" x2="268.334" y2="-3" transform="matrix(-0.927481 -0.373871 -0.41737 0.908737 280.602 256.375)" stroke="#1EA849" stroke-width="6"/>
<line y1="-3" x2="263.424" y2="-3" transform="matrix(0.98617 0.165736 0.201151 -0.97956 1084.74 430.08)" stroke="#1EA849" stroke-width="6"/>
<line y1="-3" x2="276.565" y2="-3" transform="matrix(0.931889 0.362744 0.429517 -0.903059 1086.79 518.33)" stroke="#1EA849" stroke-width="6"/>
<line y1="-3" x2="263.424" y2="-3" transform="matrix(0.98617 -0.165735 0.201151 0.97956 1084.74 343.689)" stroke="#1EA849" stroke-width="6"/>
<line y1="-3" x2="276.565" y2="-3" transform="matrix(0.931889 -0.362744 0.429517 0.903059 1086.8 255.441)" stroke="#1EA849" stroke-width="6"/>
<path d="M742.661 763.206C742.661 758.788 746.243 755.206 750.661 755.206L1336.52 755.206C1340.94 755.206 1344.52 751.624 1344.52 747.206L1344.52 36.7978C1344.52 32.3796 1340.94 28.7978 1336.52 28.7978L750.661 28.7978C746.243 28.7978 742.661 25.2161 742.661 20.7978L742.661 8.0019C742.661 3.58362 746.243 0.00189813 750.661 0.00189852L1344.52 0.00195044C1344.52 0.00195044 1344.52 0.00173183 1344.52 0.00146216C1344.52 0.00119249 1344.52 0.000973875 1344.52 0.000973875L1367.26 0.000975863C1371.68 0.000976249 1375.26 3.5827 1375.26 8.00098L1375.26 776.002C1375.26 780.42 1371.68 784.002 1367.26 784.002L750.661 784.002C746.243 784.002 742.661 780.42 742.661 776.002L742.661 763.206Z" fill="#1EA849"/>
<path d="M632.597 763.206C632.597 758.788 629.015 755.206 624.597 755.206L38.7373 755.206C34.319 755.206 30.7373 751.624 30.7373 747.206L30.7374 36.7979C30.7374 32.3796 34.3191 28.7979 38.7374 28.7979L624.597 28.7979C629.015 28.7979 632.597 25.2162 632.597 20.7979L632.597 8.00201C632.597 3.58373 629.015 0.00200812 624.597 0.00200773L30.7379 0.00195581C30.7376 0.00195581 30.7374 0.0017372 30.7374 0.00146753C30.7374 0.00119786 30.7372 0.00097925 30.7369 0.00097925L8.00007 0.000977262C3.58179 0.000976876 6.82264e-05 3.5827 6.78402e-05 8.00098L6.99386e-07 776.002C3.13128e-07 780.42 3.58172 784.002 8 784.002L624.597 784.002C629.015 784.002 632.597 780.42 632.597 776.002L632.597 763.206Z" fill="#1EA849"/>
</svg>
