<?xml version="1.0" encoding="UTF-8"?>
<svg id="Capa_4" data-name="Capa 4" xmlns="http://www.w3.org/2000/svg" xmlns:xlink="http://www.w3.org/1999/xlink" viewBox="0 0 598.72 842.42">
  <defs>
    <style>
      .cls-1 {
        fill: #fff;
      }

      .cls-2 {
        fill: none;
      }

      .cls-3 {
        opacity: .2;
      }

      .cls-4 {
        clip-path: url(#clippath);
      }
    </style>
    <clipPath id="clippath">
      <rect class="cls-2" x="13.72" y="168.11" width="564.15" height="473.62"/>
    </clipPath>
  </defs>
  <g class="cls-3">
    <g class="cls-4">
      <path class="cls-1" d="M356.38,527.86c-28.62,24.26-65.33,44.22-110.14,59.89-43.87,15.28-84.96,22.92-123.29,22.92-47.1,0-70.66-10.11-70.66-30.34,0-16.61,15.23-31.59,45.71-44.95,10.61-4.76,21.41-8.76,32.38-12.06,103.99-25.37,188.99-26.03,251.49-19.65-6.53,7.23-15.03,15.3-25.49,24.2M446.81,321.21l29.49-16.03c0-2.29-1.82-3.44-5.44-3.44-10.5,0-25.1,6.3-43.8,18.9-19.66,13.37-29.49,25-29.49,34.93,0,11.84,8.59,17.75,25.77,17.75,21.38,0,48.95-13.07,82.75-39.22,34.92-27.1,52.39-50.68,52.39-70.72,0-23.29-18.8-34.93-56.4-34.93-29.39,0-68.52,6.59-117.38,19.77-55.74,15.09-101.64,33.62-137.71,55.58-44.09,26.74-66.13,54.91-66.13,84.53,0,23.3,18.79,39.54,56.4,48.71,7.44,1.72,42.28,6.21,104.5,13.46,37.6,4.39,56.4,12.42,56.4,24.07,0,3.61-1.45,7.83-4.03,12.53-21.5-2.28-45.44-3.92-71.29-4.27-95.55-1.27-177.03,19.56-194.3,24.3-.71.2-1.42.38-2.13.59-.83.23-1.29.37-1.29.37v.05c-12.97,3.95-26.54,9.65-40.74,17.2-34.17,17.94-51.24,37.79-51.24,59.55,0,36.46,30.34,54.68,91.04,54.68,44.66,0,88.28-7.55,130.84-22.64,44.85-16.05,83.03-38.49,114.52-67.34,16.96-15.47,28.98-29.79,36.4-43.03,57.07,8.06,90.59,20.9,96.84,20.23,10.31-.47,12.22-5.75,11.82-11.57-1.4-6.14-8.95-7.14-8.95-7.14,0,0-35.43-11.26-92.58-18.76,1.02-4,1.7-7.91,1.7-11.67,0-11.65-4.3-23.31-12.88-34.96-7.83-10.32-29.68-18.15-65.57-23.5l-91.9-11.85c-30.92-5.73-46.37-14.53-46.37-26.38,0-18.55,24.45-39.29,73.35-62.23,28.27-13.38,61.12-26,98.57-37.86,55.58-17.59,98.67-26.38,129.23-26.38,26.74,0,40.12,5.54,40.12,16.6,0,12.6-16.75,28.63-50.23,48.1-31.57,18.33-54.24,27.49-68,27.49-2.3,0-3.93-.67-4.89-2.01.77-4.96,10.98-12.79,30.64-23.48"/>
    </g>
  </g>
</svg>