<?xml version="1.0" encoding="UTF-8"?>
<svg id="Capa_3" data-name="Capa 3" xmlns="http://www.w3.org/2000/svg" xmlns:xlink="http://www.w3.org/1999/xlink" viewBox="0 0 595.84 842.42">
  <defs>
    <style>
      .cls-1 {
        fill: #fff;
      }

      .cls-2 {
        fill: none;
      }

      .cls-3 {
        opacity: .2;
      }

      .cls-4 {
        clip-path: url(#clippath);
      }
    </style>
    <clipPath id="clippath">
      <rect class="cls-2" x="85.55" y="14.94" width="445.64" height="721.02"/>
    </clipPath>
  </defs>
  <g class="cls-3">
    <g class="cls-4">
      <path class="cls-1" d="M355.29,554.85c-22.16,38.87-50.59,70.84-85.3,95.92-33.97,24.47-65.79,36.71-95.48,36.71-36.48,0-54.72-16.2-54.72-48.6,0-26.61,11.8-50.61,35.4-72,8.22-7.62,16.58-14.04,25.08-19.32,80.53-40.63,146.36-41.7,194.76-31.48-5.06,11.58-11.64,24.5-19.74,38.77M425.32,223.86l22.84-25.68c0-3.67-1.41-5.5-4.22-5.5-8.13,0-19.44,10.09-33.92,30.27-15.23,21.41-22.84,40.05-22.84,55.95,0,18.96,6.65,28.43,19.96,28.43,16.55,0,37.91-20.93,64.08-62.82,27.04-43.41,40.57-81.17,40.57-113.28,0-37.3-14.56-55.95-43.68-55.95-22.76,0-53.07,10.55-90.9,31.66-43.17,24.18-78.71,53.85-106.65,89.03-34.14,42.83-51.21,87.96-51.21,135.39,0,37.32,14.55,63.33,43.67,78.01,5.76,2.75,32.74,9.95,80.92,21.57,29.12,7.04,43.68,19.89,43.68,38.55,0,5.78-1.12,12.54-3.12,20.07-16.65-3.66-35.19-6.28-55.21-6.84-74-2.04-137.09,31.33-150.47,38.93-.55.32-1.1.61-1.65.95-.64.37-1,.59-1,.59v.07c-10.04,6.33-20.55,15.46-31.55,27.56-26.46,28.73-39.69,60.53-39.69,95.38,0,58.4,23.5,87.59,70.5,87.59,34.59,0,68.36-12.1,101.33-36.27,34.73-25.7,64.3-61.66,88.69-107.86,13.14-24.79,22.44-47.72,28.19-68.92,44.19,12.91,70.15,33.48,74.99,32.41,7.99-.75,9.46-9.21,9.15-18.53-1.09-9.84-6.93-11.43-6.93-11.43,0,0-27.44-18.03-71.69-30.06.79-6.4,1.32-12.67,1.32-18.69,0-18.67-3.33-37.33-9.97-56-6.06-16.53-22.99-29.07-50.78-37.64l-71.17-18.99c-23.94-9.18-35.91-23.26-35.91-42.26,0-29.7,18.94-62.93,56.81-99.67,21.9-21.44,47.33-41.64,76.33-60.64,43.04-28.17,76.41-42.26,100.07-42.26,20.71,0,31.07,8.87,31.07,26.6,0,20.18-12.97,45.86-38.9,77.04-24.45,29.36-42,44.03-52.66,44.03-1.78,0-3.04-1.08-3.78-3.22.59-7.94,8.5-20.48,23.73-37.6"/>
    </g>
  </g>
</svg>